<?xml version="1.0" encoding="UTF-8"?>
<svg version="1.1" xmlns="http://www.w3.org/2000/svg" width="512" height="512">
<path d="M0 0 C1.12833252 -0.00571014 2.25666504 -0.01142029 3.41918945 -0.01730347 C5.26218376 -0.01898026 5.26218376 -0.01898026 7.14241028 -0.02069092 C8.44380951 -0.02565582 9.74520874 -0.03062073 11.08604431 -0.03573608 C14.65035509 -0.04882378 18.21464707 -0.05529817 21.77897811 -0.05974674 C24.00947746 -0.06268391 26.23997174 -0.06678997 28.47046852 -0.07125092 C35.45969371 -0.08491755 42.44890724 -0.09458775 49.43814486 -0.09845281 C57.48639085 -0.1029288 65.5344666 -0.1204588 73.58266085 -0.1494534 C79.81641552 -0.17112589 86.05012248 -0.18116008 92.28391439 -0.18249393 C96.00100055 -0.18353816 99.71792651 -0.18936397 103.43497276 -0.20731354 C107.58755562 -0.22697682 111.73978586 -0.22248317 115.89241028 -0.21600342 C117.110952 -0.2252182 118.32949371 -0.23443298 119.58496094 -0.243927 C129.80816672 -0.19409068 138.13624465 1.06452801 145.65339661 8.32403564 C153.1892798 16.43557658 153.64759506 25.27205659 153.56794739 35.89263916 C153.56823944 36.92783188 153.56853149 37.9630246 153.5688324 39.02958679 C153.56744859 42.42209507 153.55193219 45.81437864 153.53620911 49.20684814 C153.5324756 51.57052999 153.52963023 53.93421339 153.52763367 56.29789734 C153.52002379 62.4973076 153.50039807 68.69662309 153.47822571 74.89599609 C153.45771019 81.2307202 153.44861977 87.56545972 153.43855286 93.90020752 C153.41714964 106.31366046 153.38304574 118.72704327 153.34089661 131.14044189 C154.14551331 131.18797607 154.95013 131.23551025 155.77912903 131.28448486 C156.84494202 131.35812256 157.910755 131.43176025 159.00886536 131.50762939 C160.06098206 131.57578857 161.11309875 131.64394775 162.19709778 131.71417236 C169.64357691 132.72384485 175.82471456 136.72732544 180.87214661 142.17950439 C185.49687519 148.35400904 187.46744117 155.38748626 187.46394444 163.03484058 C187.46593548 163.99924621 187.46792653 164.96365184 187.46997792 165.95728189 C187.46706507 167.00883751 187.46415223 168.06039314 187.46115112 169.14381409 C187.46243276 170.82856229 187.46243276 170.82856229 187.46374029 172.54734582 C187.46539003 176.3183842 187.45988194 180.0893783 187.454422 183.8604126 C187.45413999 186.56062419 187.45425407 189.26083305 187.4548645 191.96104431 C187.45538875 197.77829257 187.45225224 203.59552961 187.44662666 209.41277504 C187.43849832 217.82352631 187.43589507 226.23427217 187.43463867 234.64502694 C187.43245025 248.29104399 187.42579585 261.93705505 187.41633606 275.58306885 C187.40715652 288.8386024 187.40007833 302.09413432 187.39582825 315.34967041 C187.39543416 316.57535517 187.39543416 316.57535517 187.39503212 317.82580123 C187.39372707 321.92508357 187.39246337 326.02436593 187.39122021 330.12364829 C187.38085414 364.12925049 187.36324152 398.13484546 187.34089661 432.14044189 C187.96212402 432.13273773 188.58335144 432.12503357 189.22340393 432.11709595 C190.44316925 432.10810776 190.44316925 432.10810776 191.68757629 432.09893799 C192.49442871 432.09123383 193.30128113 432.08352966 194.13258362 432.07559204 C199.57279071 432.23535048 203.34615625 435.18991222 207.15339661 438.82794189 C211.93904567 446.07478191 212.80799126 453.16313324 212.65339661 461.70294189 C212.65823059 463.04388916 212.65823059 463.04388916 212.66316223 464.41192627 C212.59825181 472.47852151 211.72728487 479.76182421 206.34089661 486.14044189 C199.6358535 491.34141873 193.92350713 492.29232632 185.53277874 492.27186966 C184.3576771 492.27494861 184.3576771 492.27494861 183.15883604 492.27808976 C180.52392508 492.28376107 177.88906638 492.28230235 175.25415039 492.28088379 C173.34987828 492.28346734 171.4456067 492.28648047 169.54133588 492.28988719 C164.30054772 492.29796145 159.05977326 492.299747 153.81897962 492.30048466 C148.16991456 492.30233444 142.52085661 492.30988133 136.87179565 492.31661987 C124.51657768 492.33020612 112.16136295 492.3362282 99.80613875 492.34063053 C92.09406894 492.34339211 84.38200038 492.34762928 76.66993141 492.3521347 C55.32421391 492.36432709 33.97849794 492.37466228 12.63277721 492.3780098 C11.25262742 492.37823143 9.87247762 492.37845321 8.49232783 492.37867515 C7.10885127 492.37889579 5.7253747 492.37911627 4.34189814 492.3793366 C1.56641781 492.37977915 -1.20906252 492.38022626 -3.98454285 492.38067627 C-5.01677808 492.38084036 -5.01677808 492.38084036 -6.06986654 492.38100776 C-28.38838399 492.3846392 -50.70686897 492.40056321 -73.02537397 492.42386663 C-96.62242675 492.44845999 -120.21945439 492.46217565 -143.81652182 492.46337771 C-156.67955692 492.46429518 -169.54254949 492.47006567 -182.40557289 492.48819733 C-193.35676487 492.50357956 -204.30790118 492.50872983 -215.2591019 492.50045922 C-220.84788007 492.49654625 -226.43654607 492.49751396 -232.02531052 492.51151657 C-237.14078112 492.52421635 -242.25605483 492.5230925 -247.37152501 492.51092586 C-249.22278612 492.50896207 -251.07406098 492.51207864 -252.92530272 492.52077022 C-255.441595 492.53183691 -257.95718921 492.52439252 -260.4734621 492.51237869 C-261.19222435 492.51997389 -261.9109866 492.52756908 -262.65152952 492.53539443 C-270.75940621 492.45182282 -276.98106137 489.81848392 -282.65910339 484.14044189 C-287.08853444 476.65623081 -286.8716403 469.89456322 -286.90910339 461.39044189 C-286.92972839 460.23544189 -286.95035339 459.08044189 -286.97160339 457.89044189 C-287.0053267 450.50503672 -286.87299647 444.08545756 -282.01066589 438.11700439 C-277.00876364 434.20148815 -273.48738699 432.04288979 -266.99504089 432.10137939 C-266.18341492 432.10701904 -265.37178894 432.11265869 -264.53556824 432.11846924 C-263.91633484 432.12572021 -263.29710144 432.13297119 -262.65910339 432.14044189 C-262.66081214 431.26263919 -262.66081214 431.26263919 -262.6625554 430.3671031 C-262.72969805 395.67884593 -262.78116733 360.99060174 -262.81229938 326.30229339 C-262.81605148 322.13668914 -262.81993445 317.97108501 -262.82389832 313.80548096 C-262.82468525 312.97618853 -262.82547218 312.14689611 -262.82628296 311.29247361 C-262.83933482 297.86688221 -262.86298745 284.44132937 -262.89056178 271.01576084 C-262.91862209 257.23861343 -262.93528098 243.4614862 -262.94136888 229.68431139 C-262.94548402 221.1839071 -262.95847872 212.68361181 -262.98285279 204.18324107 C-262.9987177 198.35323227 -263.00350204 192.52327977 -262.99960753 186.69325095 C-262.99768712 183.33020023 -263.00226193 179.96749329 -263.01671982 176.60445023 C-263.03164059 172.95495919 -263.02805798 169.30593489 -263.01986694 165.65643311 C-263.02860547 164.59805221 -263.03734399 163.53967132 -263.04634732 162.44921827 C-262.98797179 152.82953673 -260.64173111 146.28161886 -253.96769714 139.19122314 C-245.08527587 131.30074739 -234.99262318 130.97630094 -223.69035339 131.04278564 C-222.30898193 131.04490807 -222.30898193 131.04490807 -220.89970398 131.04707336 C-217.98613605 131.05262782 -215.07264772 131.06517165 -212.15910339 131.07794189 C-210.17212534 131.08296279 -208.18514608 131.08752466 -206.19816589 131.09161377 C-201.35178151 131.10258229 -196.5054559 131.11981507 -191.65910339 131.14044189 C-191.66798584 130.55543411 -191.67686829 129.97042633 -191.6860199 129.36769104 C-191.77526919 123.21839276 -191.83515559 117.06928167 -191.87882996 110.91949463 C-191.89880965 108.63165805 -191.9260029 106.34387164 -191.96086121 104.05621338 C-192.32587311 79.46621998 -192.32587311 79.46621998 -187.65910339 69.14044189 C-187.37115906 68.48503418 -187.08321472 67.82962646 -186.7865448 67.15435791 C-180.57419864 54.29725609 -170.12167297 45.64589998 -156.78410339 40.76544189 C-141.87854451 36.2976258 -127.39888973 37.95611533 -113.65910339 45.14044189 C-101.38530518 52.91578642 -92.52007989 64.53635148 -89.07453918 78.73002625 C-88.25539408 83.48281892 -88.41738388 88.26915219 -88.46379089 93.07794189 C-88.46580505 94.07245361 -88.46781921 95.06696533 -88.46989441 96.09161377 C-88.48028723 99.774604 -88.50820934 103.45752802 -88.53410339 107.14044189 C-88.57535339 115.39044189 -88.61660339 123.64044189 -88.65910339 132.14044189 C-69.18910339 132.14044189 -49.71910339 132.14044189 -29.65910339 132.14044189 C-29.70550964 124.23204346 -29.75191589 116.32364502 -29.79972839 108.17559814 C-29.82017255 103.15800685 -29.83942881 98.14046709 -29.85441589 93.12286377 C-29.878304 85.16302628 -29.90652876 77.20341633 -29.96086121 69.24371338 C-30.00440199 62.82463499 -30.02825825 56.40575453 -30.03861237 49.98653984 C-30.04598886 47.54058149 -30.0603934 45.09463367 -30.08202362 42.64875984 C-30.11116598 39.21614508 -30.11505472 35.7843426 -30.11320496 32.35162354 C-30.12758606 31.34604904 -30.14196716 30.34047455 -30.15678406 29.3044281 C-30.10996779 21.24714211 -27.91257872 15.58693358 -23.53410339 8.89044189 C-16.87945969 2.52513053 -9.0725254 0.0275965 0 0 Z M-10.65910339 20.14044189 C-12.73036679 23.24733699 -12.91015013 23.91142991 -12.91916561 27.43119621 C-12.9262312 28.31190155 -12.93329679 29.19260689 -12.94057649 30.10000026 C-12.93816141 31.06837011 -12.93574633 32.03673996 -12.93325806 33.03445435 C-12.93849474 34.06254499 -12.94373141 35.09063563 -12.94912678 36.14988053 C-12.96418634 39.61145413 -12.96483324 43.07288069 -12.96549988 46.53448486 C-12.97311732 49.00954439 -12.98154409 51.48460153 -12.99072266 53.95965576 C-13.01271468 60.69514701 -13.02149427 67.43057875 -13.0265491 74.16609716 C-13.02980466 78.37081847 -13.03632624 82.57553061 -13.04355049 86.78024673 C-13.06311717 98.4194732 -13.07952119 110.05869113 -13.08242702 121.6979351 C-13.08261459 122.44290997 -13.08280216 123.18788483 -13.08299542 123.95543469 C-13.08336167 125.46570977 -13.08372537 126.97598484 -13.08408653 128.48625992 C-13.08426934 129.23597298 -13.08445215 129.98568604 -13.0846405 130.75811768 C-13.08482105 131.50874454 -13.0850016 132.25937141 -13.08518762 133.03274454 C-13.08873028 145.1992582 -13.11575801 157.36559496 -13.15313839 169.53204726 C-13.19119973 182.01994292 -13.21058434 194.50775075 -13.21088654 206.99570572 C-13.21147157 214.00859719 -13.21999311 221.02127762 -13.2488842 228.03411484 C-13.27592577 234.62837849 -13.27732148 241.22229641 -13.26122856 247.81661987 C-13.25940675 250.23981765 -13.26617029 252.66303901 -13.28204727 255.08618546 C-13.30237094 258.38877932 -13.29203552 261.68988894 -13.27383423 264.99246216 C-13.2870342 265.95637056 -13.30023416 266.92027897 -13.31383413 267.91339672 C-13.25564791 272.52060408 -13.17342887 274.48581974 -10.24568272 278.21219063 C-6.57658538 280.94744082 -4.8205082 281.26895875 -0.29588318 281.29434204 C0.84252014 281.3029425 1.98092346 281.31154297 3.15382385 281.32040405 C4.40890747 281.324664 5.66399109 281.32892395 6.95710754 281.33331299 C8.27424744 281.34149048 9.59138733 281.34966797 10.94844055 281.35809326 C15.32403006 281.38432052 19.69962917 281.39962272 24.07527161 281.41387939 C25.58143876 281.419239 27.08760586 281.42461651 28.59377289 281.43001175 C34.85946702 281.45164253 41.12515856 281.47037882 47.39088058 281.48163414 C56.37040293 281.49787023 65.34949233 281.53103694 74.32885146 281.58803499 C80.64230917 281.62674395 86.95565114 281.646268 93.26922441 281.6515547 C97.04001342 281.65520725 100.81034076 281.66721696 104.58100128 281.69965744 C108.13029456 281.72975516 111.67884726 281.73604454 115.22824097 281.72427368 C117.14751623 281.7239481 119.06674589 281.74840336 120.9858551 281.77365112 C128.02944336 281.8522806 128.02944336 281.8522806 134.09925842 278.72897339 C136.87495111 275.5237425 137.46551814 274.13081369 137.47232437 270.01958752 C137.47616552 269.15132342 137.48000666 268.28305931 137.4839642 267.38848418 C137.48309772 266.42887434 137.48223124 265.46926449 137.4813385 264.48057556 C137.48430962 263.46559 137.48728075 262.45060444 137.4903419 261.40486175 C137.49905857 257.98167128 137.50053965 254.55851565 137.50202942 251.13531494 C137.50665549 248.68996098 137.51167986 246.24460775 137.51707458 243.79925537 C137.53022077 237.14015821 137.53668426 230.48107476 137.54108524 223.82196784 C137.54384608 219.6653307 137.54808316 215.50869589 137.55258942 211.35206032 C137.56478365 199.84755315 137.5750825 188.34304785 137.57846451 176.83853436 C137.57868407 176.10192721 137.57890364 175.36532006 137.57912986 174.60639148 C137.57934814 173.86800293 137.57956642 173.12961437 137.57979131 172.36885041 C137.58023478 170.87254822 137.58068134 169.37624603 137.58113098 167.87994385 C137.58135241 167.13772332 137.58157384 166.3955028 137.58180198 165.63079075 C137.58575025 153.60329526 137.60320445 141.57586035 137.6264905 129.54838827 C137.65019529 117.20517293 137.66266597 104.861988 137.66383243 92.51874954 C137.66474971 85.58638163 137.67051523 78.65409264 137.68865204 71.72174644 C137.70564836 65.20224909 137.70731216 58.68287525 137.69851303 52.16335297 C137.69774002 49.76757469 137.70211992 47.3717885 137.71197128 44.97603035 C137.72461224 41.71092594 137.71885653 38.44635924 137.70838928 35.18125916 C137.71644569 34.22834148 137.72450209 33.2754238 137.73280263 32.29362983 C137.6960618 27.409117 137.52168648 24.10631725 134.34089661 20.14044189 C132.06455465 17.91467859 130.85742994 17.20664586 127.68367004 16.79986572 C126.20688782 16.8234314 126.20688782 16.8234314 124.70027161 16.84747314 C123.63034973 16.85714111 122.56042786 16.86680908 121.45808411 16.87677002 C120.34691223 16.90190674 119.23574036 16.92704346 118.09089661 16.95294189 C116.96425598 16.96647705 115.83761536 16.98001221 114.67683411 16.99395752 C111.89770396 17.02928545 109.11954298 17.0786167 106.34089661 17.14044189 C106.31511536 18.13044189 106.28933411 19.12044189 106.26277161 20.14044189 C105.92892956 28.93050309 105.47589118 36.11147282 98.90339661 42.51544189 C94.44691336 45.34150444 90.85053399 46.39056161 85.57600403 46.43096924 C84.4409996 46.44372894 83.30599518 46.45648865 82.13659668 46.46963501 C80.30993217 46.47297348 80.30993217 46.47297348 78.44636536 46.47637939 C76.55438164 46.48636459 76.55438164 46.48636459 74.62417603 46.49655151 C71.95693334 46.50667137 69.29009835 46.51223478 66.62287903 46.51104736 C63.22346339 46.5108445 59.82488686 46.53812069 56.42566967 46.57259178 C53.16176732 46.60032805 49.89786945 46.59901324 46.63386536 46.60137939 C44.81630989 46.62293594 44.81630989 46.62293594 42.96203613 46.64492798 C34.79792409 46.60103316 28.96416821 45.7637135 22.96589661 39.76544189 C19.79385665 34.64137735 19.05293207 29.71973508 18.71589661 23.76544189 C18.64113098 22.52020752 18.56636536 21.27497314 18.48933411 19.99200439 C18.44034973 19.05098877 18.39136536 18.10997314 18.34089661 17.14044189 C14.44520525 17.05311464 10.54976678 16.99994004 6.65339661 16.95294189 C4.99920715 16.91523682 4.99920715 16.91523682 3.31159973 16.87677002 C1.7115509 16.86226807 1.7115509 16.86226807 0.07917786 16.84747314 C-0.90010681 16.8317627 -1.87939148 16.81605225 -2.88835144 16.79986572 C-6.18161796 17.20466851 -8.00025735 18.18218159 -10.65910339 20.14044189 Z M-145.65910339 87.14044189 C-147.21887403 90.25998317 -146.78014466 93.57003573 -146.75675964 96.99200439 C-146.7553447 97.76603607 -146.75392975 98.54006775 -146.75247192 99.33755493 C-146.74686743 101.81355631 -146.73431423 104.28946778 -146.72160339 106.76544189 C-146.71658897 108.44252392 -146.71202596 110.11960737 -146.70793152 111.79669189 C-146.69689654 115.91130995 -146.67962893 120.02586067 -146.65910339 124.14044189 C-142.36910339 124.14044189 -138.07910339 124.14044189 -133.65910339 124.14044189 C-133.53538943 119.08682169 -133.44471293 114.03408487 -133.38444519 108.97930908 C-133.35931972 107.26040288 -133.32521292 105.54160333 -133.28190613 103.82305908 C-133.22116311 101.35046076 -133.19287578 98.87927584 -133.17082214 96.40606689 C-133.14501572 95.63925598 -133.11920929 94.87244507 -133.09262085 94.08239746 C-133.09056134 90.15352022 -133.30269168 88.51331229 -136.06462097 85.62384033 C-140.29037603 83.2077598 -141.78632237 84.55858788 -145.65910339 87.14044189 Z M-185.65910339 158.14044189 C-186.26882996 158.67024658 -186.87855652 159.20005127 -187.50675964 159.74591064 C-198.99263822 170.37350379 -206.28252023 186.52109518 -206.99504089 202.12091064 C-207.17910761 212.81406832 -206.63449135 222.09045122 -202.65910339 232.14044189 C-202.32007996 233.00411377 -201.98105652 233.86778564 -201.63175964 234.75762939 C-193.13889379 253.67767931 -177.49496212 265.03086543 -158.63175964 272.30841064 C-141.73679692 277.35557342 -123.34539809 274.44847059 -107.90910339 266.51544189 C-92.11955145 257.84319637 -81.49079391 244.0695688 -75.65910339 227.14044189 C-75.42578308 226.48044189 -75.19246277 225.82044189 -74.95207214 225.14044189 C-70.0578692 208.8029587 -72.72114866 191.36698522 -80.54582214 176.54278564 C-83.20046348 171.74512476 -85.98680778 167.23370799 -89.65910339 163.14044189 C-90.29074402 162.41727783 -90.92238464 161.69411377 -91.57316589 160.94903564 C-103.47842058 148.15629834 -119.21980917 141.27566916 -136.49113464 139.91778564 C-154.86394953 139.35208987 -172.04704651 145.83016176 -185.65910339 158.14044189 Z M-242.65910339 152.14044189 C-246.39404604 157.60612855 -246.07295858 162.89439212 -246.01986694 169.2640686 C-246.022435 170.38538177 -246.02500305 171.50669495 -246.02764893 172.6619873 C-246.03261622 176.4327828 -246.01604131 180.20317899 -245.99967957 183.97393799 C-245.99709176 186.71804351 -245.99902768 189.4621416 -246.00077534 192.20624733 C-246.00236935 198.81486901 -245.98852691 205.42336826 -245.96927135 212.0319585 C-245.94766243 219.67726254 -245.94528662 227.32249316 -245.94291687 234.96783447 C-245.92716898 255.15038967 -245.8852856 275.33291762 -245.84660339 295.51544189 C-245.78472839 340.60169189 -245.72285339 385.68794189 -245.65910339 432.14044189 C-108.37910339 432.14044189 28.90089661 432.14044189 170.34089661 432.14044189 C170.42339661 387.05419189 170.50589661 341.96794189 170.59089661 295.51544189 C170.62731262 281.26533936 170.66372864 267.01523682 170.70124817 252.33331299 C170.7146237 239.58925059 170.7146237 239.58925059 170.72267151 226.84518433 C170.72640677 221.15704767 170.74110087 215.46906756 170.76319885 209.78097534 C170.78863915 203.22288014 170.80024537 196.66493546 170.79467641 190.10679052 C170.79226393 186.75103066 170.79834253 183.39587741 170.81775713 180.04013324 C170.83757942 176.44783511 170.83288427 172.85638519 170.82191467 169.2640686 C170.83356533 168.21572657 170.84521599 167.16738453 170.8572197 166.08727455 C170.80799228 160.11149776 170.31246868 156.69799332 166.34089661 152.14044189 C163.23577644 149.55284176 161.10032011 148.99792187 157.16902161 149.07012939 C155.90574036 149.09333252 154.64245911 149.11653564 153.34089661 149.14044189 C153.33758646 149.76605483 153.33427631 150.39166777 153.33086586 151.03623867 C153.24950773 166.28616039 153.15737373 181.53597612 153.05336952 196.78575802 C153.00333065 204.16055686 152.95688704 211.53534507 152.91902161 218.91021729 C152.8859939 225.34106829 152.84610384 231.77183462 152.79810655 238.20259196 C152.77294822 241.60498155 152.75113604 245.00731575 152.73755264 248.40977287 C152.72062954 252.21587059 152.691579 256.02169953 152.65974426 259.82769775 C152.65650398 261.50437279 152.65650398 261.50437279 152.65319824 263.21492004 C152.54396818 273.46244357 151.50098993 282.329431 144.34089661 290.14044189 C138.3766746 294.48181667 132.97294318 296.2592896 125.64346313 296.28088379 C124.4814035 296.28659393 123.31934387 296.29230408 122.12207031 296.29818726 C120.85083817 296.29930511 119.57960602 296.30042297 118.26985168 296.30157471 C116.91442226 296.30620529 115.55899413 296.31123028 114.2035675 296.31661987 C110.52356586 296.32972495 106.84358244 296.33618543 103.16356111 296.34063053 C100.86188339 296.34356504 98.56021061 296.34767062 96.25853539 296.3521347 C89.04986114 296.36580625 81.84119823 296.37547391 74.63251191 296.3793366 C66.32502587 296.38381304 58.01770472 296.40134308 49.7102688 296.43033719 C43.2803733 296.45199533 36.85052405 296.46204312 30.42059249 296.46337771 C26.5844769 296.46442303 22.74851637 296.4702719 18.91243935 296.48819733 C15.30004189 296.50474913 11.68791486 296.50679937 8.07549286 296.49805832 C6.12943038 296.49692816 4.18337658 296.51059153 2.23736572 296.52481079 C-7.24082827 296.47993121 -15.02946516 295.46640377 -22.15519714 288.82012939 C-26.97374608 283.43837344 -28.76849969 277.91412412 -28.81732178 270.80004883 C-28.832005 269.17628326 -28.832005 269.17628326 -28.84698486 267.51971436 C-28.85274033 266.33720093 -28.85849579 265.1546875 -28.86442566 263.93634033 C-28.87432526 262.68729919 -28.88422485 261.43825806 -28.89442444 260.15136719 C-28.92059295 256.73023068 -28.94246292 253.30911727 -28.96242642 249.88794231 C-28.98431297 246.31113376 -29.01168859 242.73436733 -29.03848267 239.15759277 C-29.0883735 232.3862161 -29.1333257 225.614816 -29.17650503 218.84339356 C-29.22590828 211.13362528 -29.28081495 203.42389927 -29.33618462 195.71417189 C-29.44994926 179.85629947 -29.55607378 163.99838824 -29.65910339 148.14044189 C-46.15910339 148.14044189 -62.65910339 148.14044189 -79.65910339 148.14044189 C-77.67910339 150.78044189 -75.69910339 153.42044189 -73.65910339 156.14044189 C-60.1579269 175.59801978 -54.24942461 198.27135166 -58.38175964 221.85528564 C-62.85692582 243.46933532 -74.20430944 262.00714624 -92.22160339 274.96856689 C-111.25110922 287.45246256 -134.03356455 292.06131365 -156.40910339 287.95294189 C-178.19971103 282.99529042 -197.60194308 271.27023814 -209.65910339 252.14044189 C-222.43360425 230.31947391 -225.92348171 206.63999436 -219.65910339 182.14044189 C-216.35150933 170.8557092 -210.45698225 160.75697361 -202.87785339 151.79278564 C-200.55216544 149.58893955 -200.55216544 149.58893955 -200.65910339 148.14044189 C-205.51540757 148.04106062 -210.37111104 147.96873396 -215.22819519 147.92071533 C-216.87803976 147.90068393 -218.52781409 147.87345048 -220.17741394 147.83868408 C-222.55820613 147.78978832 -224.93805439 147.7673891 -227.31925964 147.74981689 C-228.04871292 147.72917175 -228.7781662 147.70852661 -229.52972412 147.68725586 C-235.00614531 147.68489287 -238.23053851 148.85273871 -242.65910339 152.14044189 Z " fill="#FCFDFF" transform="translate(293.6591033935547,9.85955810546875)"/>
<path d="M0 0 C7.0524484 5.88458467 7.0524484 5.88458467 8.484375 9.87890625 C8.67678885 13.21201062 7.85723874 15.32817252 5.98046875 18.0390625 C3.28094047 19.8630681 1.94415658 20.6015625 -1.33203125 20.6015625 C-4.73745151 18.99901179 -7.5585039 17.19091667 -10.546875 14.9140625 C-19.98835211 7.81382688 -30.45332247 4.18578616 -42.33203125 5.6015625 C-50.00861747 6.98761279 -58.35456452 9.54760603 -63.95703125 15.2578125 C-65.33203125 16.6015625 -65.33203125 16.6015625 -67.33203125 16.6015625 C-67.61304688 17.18808594 -67.8940625 17.77460937 -68.18359375 18.37890625 C-69.24247567 20.42823894 -70.41413618 22.2576599 -71.70703125 24.1640625 C-77.05049804 32.86492878 -78.60687232 40.82989711 -79.33203125 50.9140625 C-80.36483548 65.24064701 -83.031808 80.60178855 -92.83203125 91.8515625 C-95.33203125 93.6015625 -95.33203125 93.6015625 -98.33203125 94.1640625 C-102.01437029 93.47362393 -103.70017053 92.23342322 -106.33203125 89.6015625 C-107.55485655 85.9330866 -107.71837153 83.46496531 -107.33203125 79.6015625 C-106.13523428 77.97258884 -104.93368229 76.34671173 -103.69921875 74.74609375 C-98.36412164 66.37761285 -97.87521734 55.58206746 -96.83203125 45.9765625 C-95.89962631 37.43736574 -94.95184391 29.48802719 -91.33203125 21.6015625 C-90.94660156 20.70179687 -90.56117188 19.80203125 -90.1640625 18.875 C-83.70781985 5.43238334 -71.66582676 -4.52615395 -57.83984375 -9.70703125 C-37.76904369 -15.83859702 -16.98034631 -12.69360411 0 0 Z " fill="#FCFDFF" transform="translate(397.33203125,104.3984375)"/>
<path d="M0 0 C3.88083088 3.35097574 7.17433765 6.89431166 9 11.75 C9.06750181 15.80010861 8.61141598 17.83287603 6.375 21.1875 C3.02385272 23.39220216 0.93750984 23.30263296 -3 22.75 C-6.14707869 20.80180843 -8.26767236 18.47086528 -10.5625 15.625 C-13.3400718 12.34888968 -15.12135915 11.0166058 -19.3671875 10.4140625 C-25.12461678 10.32438292 -28.50632672 10.79128782 -33 14.75 C-36.64527375 18.7893574 -38.03889444 21.80342655 -38.359375 27.1875 C-39.82617258 48.5669501 -44.19695424 68.10395102 -57 85.75 C-60.75047482 88.25031654 -62.55856266 88.28603554 -67 87.75 C-69.9375 85.625 -69.9375 85.625 -72 82.75 C-72.53850732 77.97480254 -71.68989259 75.68911854 -68.875 71.875 C-59.9987194 58.50667456 -57.78232858 44.39845886 -56 28.75 C-54.59012428 16.48160773 -52.23716992 7.55191518 -42.40625 -0.55859375 C-29.33122505 -9.74931746 -13.00656847 -9.48893225 0 0 Z " fill="#FCFDFF" transform="translate(383,125.25)"/>
<path d="M0 0 C1.9375 1.125 1.9375 1.125 3 3 C3.1875 6.6875 3.1875 6.6875 3 10 C3.72445312 9.55527344 4.44890625 9.11054688 5.1953125 8.65234375 C6.16210938 8.08644531 7.12890625 7.52054687 8.125 6.9375 C9.07632813 6.36902344 10.02765625 5.80054688 11.0078125 5.21484375 C14.56135576 3.77208663 16.35545502 3.92506398 20 5 C22.81831785 7.59581908 23.85564038 9.23008205 24.5625 13 C23.79736573 17.08071611 22.17241033 18.37931321 19 21 C17.906875 21.721875 16.81375 22.44375 15.6875 23.1875 C14.800625 23.785625 13.91375 24.38375 13 25 C13 25.66 13 26.32 13 27 C14.98272931 28.77810961 14.98272931 28.77810961 17.4375 30.5625 C21.98734177 33.98734177 21.98734177 33.98734177 23 35 C23.25592244 38.90281716 23.43499236 41.84002036 22.0625 45.5 C19.16200159 47.60945339 16.82157587 47.54447356 13.296875 47.40625 C9.75398039 46.77961558 7.75939611 45.26411989 5 43 C4.7525 44.093125 4.505 45.18625 4.25 46.3125 C3 50 3 50 1.25 51.9375 C-1.78206413 53.36930806 -3.67848937 53.47450152 -7 53 C-9.8125 51.375 -9.8125 51.375 -12 49 C-12.8125 45.75 -12.8125 45.75 -13 43 C-13.99 43.66 -14.98 44.32 -16 45 C-20.22286191 47.4118378 -23.18705826 47.56150987 -28 47 C-30.45931605 45.49267726 -30.86105399 44.36721446 -31.875 41.6875 C-32.05278929 37.86503031 -31.1155064 36.20531273 -29 33 C-26.45250469 30.51268174 -23.77543245 28.22825693 -21 26 C-21.62648438 25.51789063 -22.25296875 25.03578125 -22.8984375 24.5390625 C-24.12433594 23.59160156 -24.12433594 23.59160156 -25.375 22.625 C-26.18710937 21.99851562 -26.99921875 21.37203125 -27.8359375 20.7265625 C-30 19 -30 19 -32 17 C-32.67039106 10.0726257 -32.67039106 10.0726257 -30.4375 6.5 C-27.00542032 4.38795096 -24.9789375 4.46048305 -21 5 C-18.47066214 6.14164666 -16.33705398 7.47376066 -14 9 C-13.773125 7.906875 -13.54625 6.81375 -13.3125 5.6875 C-12 2 -12 2 -9.8125 0 C-6.11337267 -1.31524527 -3.77524806 -0.97876802 0 0 Z " fill="#FCFDFF" transform="translate(416,330)"/>
<path d="M0 0 C2.33005823 2.78103724 3.34317889 5.45316599 4 9 C5.0209375 8.0409375 5.0209375 8.0409375 6.0625 7.0625 C9.59414789 4.58283233 11.6869821 3.92298182 16 4 C19.36678727 6.41530391 20.72408139 8.09866587 21.9375 12.0625 C22.00544367 15.25585249 21.66269119 16.34072682 20 19 C18.08984375 20.6328125 18.08984375 20.6328125 15.9375 22.125 C12.95372478 24.11074647 12.95372478 24.11074647 11 27 C11.515625 27.226875 12.03125 27.45375 12.5625 27.6875 C21.32984293 32.40837696 21.32984293 32.40837696 22.8125 35.9296875 C23.48117526 39.62133218 23.20273299 41.57690505 21.5625 45 C18.67481165 47.25380554 16.75580035 47.65371447 13.10546875 47.44140625 C9.55412548 46.69687603 7.00471268 45.00314179 4 43 C3.814375 44.3921875 3.814375 44.3921875 3.625 45.8125 C3 49 3 49 1 52 C-1.99044072 53.03402272 -4.85342077 53.27172532 -8 53 C-11.33004147 50.64122063 -12.68062941 49.10551357 -13.8125 45.1875 C-13.874375 44.465625 -13.93625 43.74375 -14 43 C-14.825 43.66 -15.65 44.32 -16.5 45 C-20.46147982 47.62847002 -23.31734962 47.60421295 -28 47 C-30.5 45.4375 -30.5 45.4375 -32 43 C-32.6875 39.6875 -32.6875 39.6875 -32 36 C-29.94886938 33.32850017 -27.54040846 31.19769811 -25 29 C-24.195625 28.195625 -23.39125 27.39125 -22.5625 26.5625 C-22.046875 26.046875 -21.53125 25.53125 -21 25 C-21.70125 24.773125 -22.4025 24.54625 -23.125 24.3125 C-27.09212838 22.50141965 -30.9989082 20.0021836 -33 16 C-33.53507099 11.9869676 -33.33051628 10.46071967 -30.9375 7.125 C-27.2249847 4.43935063 -25.49760469 4.28985189 -21 5 C-17.5625 7 -17.5625 7 -15 9 C-14.82984375 8.44570313 -14.6596875 7.89140625 -14.484375 7.3203125 C-12.53618484 1.49646744 -12.53618484 1.49646744 -10.3125 -0.5625 C-6.72919977 -1.24042167 -3.47887847 -1.15469158 0 0 Z " fill="#FCFDFF" transform="translate(339,330)"/>
<path d="M0 0 C5.71935809 5.97932892 8.05467541 11.7051607 8.3125 20 C8.08951821 25.8676064 7.12346527 30.07744212 3.75 34.875 C3.151875 35.7825 2.55375 36.69 1.9375 37.625 C-0.89206408 40.53540877 -3.61720735 42.05860367 -7.25 43.875 C-7.91 43.875 -8.57 43.875 -9.25 43.875 C-9.19779297 45.08736328 -9.19779297 45.08736328 -9.14453125 46.32421875 C-9.11746094 47.39285156 -9.09039062 48.46148437 -9.0625 49.5625 C-9.01029297 51.14611328 -9.01029297 51.14611328 -8.95703125 52.76171875 C-9.31237443 56.53783227 -10.55050942 59.17550942 -13.25 61.875 C-15.17578125 62.1484375 -15.17578125 62.1484375 -17.5625 62.25 C-18.34238281 62.29898438 -19.12226563 62.34796875 -19.92578125 62.3984375 C-22.25 61.875 -22.25 61.875 -24.52734375 59.77734375 C-26.62338789 56.24591337 -26.66452739 54.134553 -26.5 50.0625 C-26.46390625 48.90105469 -26.4278125 47.73960937 -26.390625 46.54296875 C-26.34421875 45.66253906 -26.2978125 44.78210938 -26.25 43.875 C-27.15492188 43.606875 -28.05984375 43.33875 -28.9921875 43.0625 C-34.54677623 41.03780579 -38.65995323 37.60650493 -41.6484375 32.47265625 C-45.17120899 24.36528499 -45.09005258 17.68091163 -42.35546875 9.3359375 C-39.25475824 2.43329573 -33.9661952 -1.9569834 -27.25 -5.125 C-17.04389221 -8.25882563 -8.60178551 -5.62424437 0 0 Z M-27.25 13.875 C-28.30418517 16.62759461 -28.62084182 18.94759711 -28.25 21.875 C-25.8436732 26.01087419 -24.34462198 27.54270404 -19.75 28.9375 C-15.83370586 28.86756618 -14.24404985 28.35578416 -11.25 25.875 C-8.92597049 22.66562591 -8.77429309 19.75993979 -9.25 15.875 C-11.04993774 13.17509338 -12.333773 11.3331135 -15.25 9.875 C-20.64715119 9.36583479 -23.65016663 9.63990192 -27.25 13.875 Z " fill="#FCFDFF" transform="translate(172.25,208.125)"/>
<path d="M0 0 C1.61180479 2.4601231 2.37502276 5.00007877 3.1875 7.8125 C4.198125 6.966875 5.20875 6.12125 6.25 5.25 C9.24600253 3.11086635 10.06076306 2.81461228 13.9375 2.75 C17.1875 3.8125 17.1875 3.8125 19.0625 5.5 C20.44807067 8.34811749 20.98976598 10.64875563 21.1875 13.8125 C19.90879409 17.24944499 18.12187503 18.92644759 15.1875 21.0625 C14.48625 21.58328125 13.785 22.1040625 13.0625 22.640625 C11.1875 23.8125 11.1875 23.8125 9.1875 23.8125 C9.1875 24.4725 9.1875 25.1325 9.1875 25.8125 C9.703125 26.039375 10.21875 26.26625 10.75 26.5 C19.34539474 31.12828947 19.34539474 31.12828947 21.1875 34.8125 C21.44244037 38.72158572 21.39333444 41.50374834 19.1875 44.8125 C15.9807882 46.4158559 12.66625318 46.30854443 9.1875 45.8125 C6.87700216 44.70093696 5.20900372 43.42970298 3.1875 41.8125 C3.00574219 42.36679687 2.82398438 42.92109375 2.63671875 43.4921875 C2.38535156 44.21664062 2.13398438 44.94109375 1.875 45.6875 C1.63136719 46.40679687 1.38773438 47.12609375 1.13671875 47.8671875 C0.1875 49.8125 0.1875 49.8125 -2.8125 51.8125 C-6.3380558 52.13300507 -8.88100478 52.24048429 -12.125 50.75 C-14.4852988 48.0400273 -15.02915719 45.27226409 -15.8125 41.8125 C-16.6375 42.4725 -17.4625 43.1325 -18.3125 43.8125 C-22.27397982 46.44097002 -25.12984962 46.41671295 -29.8125 45.8125 C-32.3125 44.1875 -32.3125 44.1875 -33.8125 41.8125 C-34.375 38.875 -34.375 38.875 -33.8125 35.8125 C-31.35738098 32.8519153 -28.51300089 30.5623703 -25.5625 28.125 C-22.79507806 26.1082678 -22.79507806 26.1082678 -21.8125 23.8125 C-22.51375 23.585625 -23.215 23.35875 -23.9375 23.125 C-27.90462838 21.31391965 -31.8114082 18.8146836 -33.8125 14.8125 C-34.21866229 11.15703935 -34.02684253 9.22332318 -32.3125 5.9375 C-29.44887076 3.50341515 -27.58926829 3.15411083 -23.8515625 3.37109375 C-20.52159289 4.09194924 -18.45558378 5.69803298 -15.8125 7.8125 C-15.64234375 7.25820313 -15.4721875 6.70390625 -15.296875 6.1328125 C-13.34022744 0.28368521 -13.34022744 0.28368521 -11.0625 -1.75 C-7.13417561 -2.51384085 -3.39260217 -2.22273936 0 0 Z " fill="#FCFDFF" transform="translate(184.8125,331.1875)"/>
<path d="M0 0 C2.88571169 2.60644927 3.47405356 5.21318561 4 9 C5.0209375 8.0409375 5.0209375 8.0409375 6.0625 7.0625 C9.57823396 4.59400594 11.71383323 4 16 4 C18.80189446 5.76641172 20.51524911 7.03049822 22 10 C22.375 12.8125 22.375 12.8125 22 16 C19.07933912 19.50479305 15.6051607 22.21887603 12 25 C13.15827362 28.47482085 14.088188 29.05553362 17 31.125 C20.98734177 33.98734177 20.98734177 33.98734177 22 35 C22.25592244 38.90281716 22.43499236 41.84002036 21.0625 45.5 C18.16200159 47.60945339 15.82157587 47.54447356 12.296875 47.40625 C8.75398039 46.77961558 6.75939611 45.26411989 4 43 C3.7525 44.093125 3.505 45.18625 3.25 46.3125 C2 50 2 50 0.25 51.9375 C-2.78206413 53.36930806 -4.67848937 53.47450152 -8 53 C-10.8125 51.375 -10.8125 51.375 -13 49 C-13.8125 45.75 -13.8125 45.75 -14 43 C-14.99 43.66 -15.98 44.32 -17 45 C-21.22286191 47.4118378 -24.18705826 47.56150987 -29 47 C-31.71240136 45.42505728 -31.94143553 44.18824293 -32.875 41.1875 C-33.0361562 37.07801681 -32.36770347 35.37218373 -30 32 C-27.97888717 30.52973155 -25.9320683 29.28135621 -23.7421875 28.078125 C-21.83580295 27.10930483 -21.83580295 27.10930483 -21 25 C-21.53625 24.7525 -22.0725 24.505 -22.625 24.25 C-29.85358255 20.44548287 -29.85358255 20.44548287 -32.4375 17.1875 C-33.29972945 13.83438547 -32.84741162 11.3291171 -32 8 C-29.69530076 5.25208937 -28.25005283 5.03302585 -24.6875 4.5625 C-20.13572056 5.10254163 -17.8074833 6.51348029 -14 9 C-13.7525 7.906875 -13.505 6.81375 -13.25 5.6875 C-12 2 -12 2 -10.375 0 C-6.78665829 -1.51088072 -3.68246706 -1.15175034 0 0 Z " fill="#FCFDFF" transform="translate(106,330)"/>
<path d="M0 0 C2.8125 1.625 2.8125 1.625 5 4 C5.8125 7.25 5.8125 7.25 6 10 C6.76183594 9.44119141 6.76183594 9.44119141 7.5390625 8.87109375 C13.12255773 5.03374778 13.12255773 5.03374778 17.25 4.875 C20.81462054 6.33325386 22.10453829 7.64649082 24 11 C24.875 14.3125 24.875 14.3125 24 18 C21.53960879 20.3660905 18.97393197 22.33092865 16.1875 24.30078125 C15.465625 24.86152344 14.74375 25.42226563 14 26 C14 26.66 14 27.32 14 28 C15.72069421 29.51584367 15.72069421 29.51584367 17.875 31 C20.09802257 32.59356457 22.06234725 34.06234725 24 36 C24.32168896 39.98894311 24.48256965 42.79357588 23 46.5 C20.44034934 48.419738 18.29471418 48.54643174 15.140625 48.40625 C11.55013412 47.72484297 9.02344485 46.0156299 6 44 C5.7525 45.093125 5.505 46.18625 5.25 47.3125 C4 51 4 51 2.25 52.9375 C-0.78206413 54.36930806 -2.67848937 54.47450152 -6 54 C-8.8125 52.375 -8.8125 52.375 -11 50 C-11.8125 46.75 -11.8125 46.75 -12 44 C-12.99 44.66 -13.98 45.32 -15 46 C-19.22286191 48.4118378 -22.18705826 48.56150987 -27 48 C-29 47 -29 47 -30 45 C-31.08024887 40.18042813 -31.08024887 40.18042813 -30 37 C-27.57125609 34.33813058 -25.0037818 32.12801494 -22.1875 29.8828125 C-21.465625 29.26148438 -20.74375 28.64015625 -20 28 C-20 27.34 -20 26.68 -20 26 C-21.98768212 24.48160887 -21.98768212 24.48160887 -24.4375 23 C-28.8952164 20.2095672 -28.8952164 20.2095672 -30 18 C-30.56872038 10.9478673 -30.56872038 10.9478673 -28.5 7.5 C-25.01702642 5.41021585 -21.9017286 5.22264411 -18 6 C-15.70109225 7.12520379 -14.01799665 8.38560268 -12 10 C-11.7525 8.906875 -11.505 7.81375 -11.25 6.6875 C-10 3 -10 3 -8.25 1.0625 C-5.21793587 -0.36930806 -3.32151063 -0.47450152 0 0 Z " fill="#FCFDFF" transform="translate(259,329)"/>
<path d="M0 0 C2.875 1.625 2.875 1.625 5 5 C7.88369041 25.10421898 -0.8105916 46.67182983 -9.1875 64.5 C-9.61554932 65.41483154 -10.04359863 66.32966309 -10.48461914 67.2722168 C-11.1013147 68.54512573 -11.1013147 68.54512573 -11.73046875 69.84375 C-12.09551514 70.59849609 -12.46056152 71.35324219 -12.83666992 72.13085938 C-14 74 -14 74 -17 76 C-20.01550927 76.33505659 -22.09883544 76.56038591 -25 76 C-28.17727999 73.37874401 -28.91695714 71.85093301 -29.31640625 67.7578125 C-28.95494332 63.46488237 -27.52617205 60.59291375 -25.4375 56.9375 C-17.89903411 42.7432688 -13.49436571 27.66975042 -12.38671875 11.65234375 C-11.93356094 7.37251997 -11.26639957 4.31162812 -8.25 1.1875 C-5.19070075 -0.42713016 -3.41702282 -0.55788128 0 0 Z " fill="#FCFDFF" transform="translate(364,146)"/>
<path d="M0 0 C2.98861263 2.63344418 4.68475936 4.36953407 5.44677734 8.31079102 C5.60519818 11.07894517 5.58813692 13.79116055 5.5 16.5625 C5.48155029 17.57538086 5.46310059 18.58826172 5.4440918 19.63183594 C4.90070069 38.87057562 2.25685608 62.74707828 -7 80 C-9.60219714 82.40243251 -10.39038585 83.01270029 -14 82.9375 C-17.47782675 81.85067914 -18.85775164 80.93567368 -21 78 C-22.69148919 72.37303597 -21.14332491 68.37336321 -19.25 63.0625 C-13.96100372 48.05561493 -12.37431598 33.10442754 -11.34326172 17.35595703 C-11.18834691 15.04360481 -11.01692211 12.73292055 -10.84375 10.421875 C-10.80302368 9.7188324 -10.76229736 9.01578979 -10.72033691 8.29144287 C-10.50329409 5.46945032 -10.29544726 3.42467856 -8.65820312 1.07128906 C-5.67783526 -0.85419006 -3.42127897 -0.53088812 0 0 Z " fill="#FCFDFF" transform="translate(414,138)"/>
<path d="M0 0 C3.15264567 2.07410899 3.86627493 3.41235259 4.703125 7.08984375 C5.05411428 11.71274205 4.39895499 15.51091531 3.375 20 C3.09922119 21.24740967 3.09922119 21.24740967 2.81787109 22.52001953 C-4.41824867 54.14700995 -4.41824867 54.14700995 -14 62 C-17.90614682 62.55802097 -20.05111671 62.58392818 -23.4375 60.5 C-25.59410761 57.04942782 -25.44963931 53.9276931 -25 50 C-24.17401566 47.16122041 -23.0081931 44.51300615 -21.8125 41.8125 C-17.94422618 32.53610637 -15.66150927 23.12542361 -13.5144043 13.33105469 C-11.31769378 3.37652596 -11.31769378 3.37652596 -9.3125 1 C-5.99073617 -0.43643841 -3.5776809 -0.44721011 0 0 Z " fill="#FCFDFF" transform="translate(389,164)"/>
<path d="M0 0 C0.89110474 -0.00428513 1.78220947 -0.00857025 2.70031738 -0.01298523 C4.5796626 -0.01871444 6.45902998 -0.0192392 8.33837891 -0.01489258 C11.20904387 -0.01172945 14.07868083 -0.03522005 16.94921875 -0.06054688 C18.77864454 -0.06281974 20.60807309 -0.06352342 22.4375 -0.0625 C23.29283325 -0.07170975 24.1481665 -0.08091949 25.02941895 -0.09040833 C29.74098747 -0.05392181 32.91712861 0.20583661 36.71875 3.30078125 C38.78066987 6.39366106 39.01517269 6.85512344 38.65625 10.30078125 C38.60339844 10.98140625 38.55054688 11.66203125 38.49609375 12.36328125 C37.27822606 15.39877057 35.67946418 15.94200509 32.71875 17.30078125 C29.47787257 17.73916908 26.26649259 17.72128173 23 17.69921875 C21.59675476 17.70352402 21.59675476 17.70352402 20.16516113 17.70791626 C18.19164422 17.7099534 16.21810695 17.70444805 14.24462891 17.69189453 C11.2290316 17.675836 8.21477452 17.6917552 5.19921875 17.7109375 C3.27864288 17.70895501 1.35806785 17.7051112 -0.5625 17.69921875 C-1.46158081 17.70529144 -2.36066162 17.71136414 -3.2869873 17.71762085 C-8.07967401 17.66394578 -11.41728598 17.47369297 -15.28125 14.30078125 C-16.66071357 10.9249081 -16.57538093 7.41847877 -15.65625 3.92578125 C-11.75327722 -0.68682294 -5.51582012 -0.00587743 0 0 Z " fill="#FCFDFF" transform="translate(400.28125,393.69921875)"/>
<path d="M0 0 C0.89110474 -0.00428513 1.78220947 -0.00857025 2.70031738 -0.01298523 C4.5796626 -0.01871444 6.45902998 -0.0192392 8.33837891 -0.01489258 C11.20904387 -0.01172945 14.07868083 -0.03522005 16.94921875 -0.06054688 C18.77864454 -0.06281974 20.60807309 -0.06352342 22.4375 -0.0625 C23.29283325 -0.07170975 24.1481665 -0.08091949 25.02941895 -0.09040833 C29.7575639 -0.05379344 32.86843909 0.24761967 36.71875 3.30078125 C38.69493067 5.90574668 38.73786179 7.06666182 38.46875 10.36328125 C37.71875 13.30078125 37.71875 13.30078125 35.71875 16.30078125 C32.98326244 17.21261044 31.32976762 17.4359736 28.51025391 17.46191406 C27.66572662 17.47152161 26.82119934 17.48112915 25.95108032 17.49102783 C24.58697525 17.49740265 24.58697525 17.49740265 23.1953125 17.50390625 C22.25698578 17.50960632 21.31865906 17.5153064 20.35189819 17.5211792 C18.36644619 17.53062519 16.38097854 17.53716159 14.39550781 17.54101562 C11.36235136 17.55072173 8.32987244 17.58174911 5.296875 17.61328125 C3.36719152 17.61981148 1.4375032 17.62506187 -0.4921875 17.62890625 C-1.85021988 17.64742645 -1.85021988 17.64742645 -3.23568726 17.6663208 C-8.05309676 17.64932858 -11.4005038 17.50350977 -15.28125 14.30078125 C-16.66071357 10.9249081 -16.57538093 7.41847877 -15.65625 3.92578125 C-11.75327722 -0.68682294 -5.51582012 -0.00587743 0 0 Z " fill="#FCFDFF" transform="translate(89.28125,393.69921875)"/>
<path d="M0 0 C0.80448578 -0.00960754 1.60897156 -0.01921509 2.43783569 -0.02911377 C3.30349152 -0.03336365 4.16914734 -0.03761353 5.06103516 -0.04199219 C5.95496979 -0.04769226 6.84890442 -0.05339233 7.76992798 -0.05926514 C9.66122251 -0.06870975 11.55253347 -0.07524698 13.44384766 -0.07910156 C16.33216141 -0.08880692 19.2197634 -0.11983505 22.10791016 -0.15136719 C23.9464476 -0.15789755 25.78499013 -0.16314789 27.62353516 -0.16699219 C28.48514252 -0.17933899 29.34674988 -0.19168579 30.23446655 -0.20440674 C34.9671758 -0.18688885 38.15900225 0.04360476 41.97509766 3.16113281 C44.03701753 6.25401262 44.27152034 6.715475 43.91259766 10.16113281 C43.85974609 10.84175781 43.80689453 11.52238281 43.75244141 12.22363281 C42.53374168 15.26119595 40.93933917 15.80384213 37.97509766 17.16113281 C34.72155026 17.58907393 31.49872949 17.55787083 28.22119141 17.52441406 C27.28332291 17.52491257 26.34545441 17.52541107 25.37916565 17.52592468 C23.40143713 17.52358936 21.42370534 17.51389287 19.44604492 17.49731445 C16.41965167 17.47368788 13.39413806 17.476762 10.36767578 17.48339844 C8.44384241 17.4778224 6.52001274 17.47071299 4.59619141 17.46191406 C3.69194931 17.46282547 2.78770721 17.46373688 1.85606384 17.4646759 C1.01161209 17.45514389 0.16716034 17.44561188 -0.70288086 17.43579102 C-1.44280777 17.43118362 -2.18273468 17.42657623 -2.94508362 17.42182922 C-6.14055158 17.02129094 -8.35278953 16.02527786 -10.33740234 13.47363281 C-11.34349183 10.08951363 -10.82932633 7.56446507 -10.02490234 4.16113281 C-7.39934691 0.58082996 -4.26117318 0.04117545 0 0 Z " fill="#FCFDFF" transform="translate(239.02490234375,393.8388671875)"/>
<path d="M0 0 C0.82450653 -0.00960754 1.64901306 -0.01921509 2.49850464 -0.02911377 C3.38603424 -0.03336365 4.27356384 -0.03761353 5.18798828 -0.04199219 C6.10411896 -0.04769226 7.02024963 -0.05339233 7.96414185 -0.05926514 C9.90251512 -0.06871046 11.84090442 -0.07524726 13.77929688 -0.07910156 C16.7400318 -0.0888073 19.70007251 -0.11983505 22.66064453 -0.15136719 C24.544755 -0.15789748 26.42887042 -0.16314785 28.31298828 -0.16699219 C29.19646942 -0.17933899 30.07995056 -0.19168579 30.99020386 -0.20440674 C35.76717104 -0.18715113 39.02470556 0.00941919 42.88330078 3.16113281 C44.4503052 6.29514166 44.73494639 9.79268377 43.88330078 13.16113281 C40.93306502 16.39621892 38.61512457 17.43000633 34.35595703 17.67871094 C32.55275768 17.70501355 30.74912226 17.7082374 28.94580078 17.69238281 C27.98810791 17.69620972 27.03041504 17.70003662 26.04370117 17.70397949 C24.02310126 17.70669602 22.00246602 17.69935304 19.98193359 17.68261719 C16.89356903 17.66120401 13.80753071 17.68242782 10.71923828 17.70800781 C8.75308733 17.70536449 6.78693782 17.70023942 4.82080078 17.69238281 C3.89984619 17.70047974 2.9788916 17.70857666 2.0300293 17.71691895 C-2.21315145 17.65502522 -4.52179946 17.52922468 -8.20068359 15.25292969 C-10.11669922 13.16113281 -10.11669922 13.16113281 -10.71044922 11.16113281 C-10.51524365 6.99674731 -10.34541113 4.15068088 -7.11669922 1.16113281 C-4.40673548 0.25781157 -2.78800159 0.0262796 0 0 Z " fill="#FCFDFF" transform="translate(161.11669921875,393.8388671875)"/>
<path d="M0 0 C0.80448578 -0.00960754 1.60897156 -0.01921509 2.43783569 -0.02911377 C3.30349152 -0.03336365 4.16914734 -0.03761353 5.06103516 -0.04199219 C5.95496979 -0.04769226 6.84890442 -0.05339233 7.76992798 -0.05926514 C9.66122251 -0.06870975 11.55253347 -0.07524698 13.44384766 -0.07910156 C16.33216141 -0.08880692 19.2197634 -0.11983505 22.10791016 -0.15136719 C23.9464476 -0.15789755 25.78499013 -0.16314789 27.62353516 -0.16699219 C28.48514252 -0.17933899 29.34674988 -0.19168579 30.23446655 -0.20440674 C36.21351729 -0.18227558 39.63686821 0.82290337 43.97509766 5.16113281 C44.6118661 10.80108192 44.6118661 10.80108192 43.97509766 13.16113281 C41.0228968 16.39465706 38.70760535 17.42998058 34.44775391 17.67871094 C32.64455455 17.70501355 30.84091914 17.7082374 29.03759766 17.69238281 C28.07990479 17.69620972 27.12221191 17.70003662 26.13549805 17.70397949 C24.11489813 17.70669602 22.0942629 17.69935304 20.07373047 17.68261719 C16.9853659 17.66120401 13.89932759 17.68242782 10.81103516 17.70800781 C8.8448842 17.70536449 6.87873469 17.70023942 4.91259766 17.69238281 C3.99164307 17.70047974 3.07068848 17.70857666 2.12182617 17.71691895 C-2.12135457 17.65502522 -4.43000258 17.52922468 -8.10888672 15.25292969 C-10.02490234 13.16113281 -10.02490234 13.16113281 -10.61865234 11.16113281 C-10.42344677 6.99674731 -10.25361425 4.15068088 -7.02490234 1.16113281 C-4.34052382 0.26633997 -2.75623568 0.02663333 0 0 Z " fill="#FCFDFF" transform="translate(317.02490234375,393.8388671875)"/>
<path d="M0 0 C1.23169922 -0.00257813 2.46339844 -0.00515625 3.73242188 -0.0078125 C14.05351645 0.10467899 14.05351645 0.10467899 17.4375 3.5 C18.55022738 7.50581858 18.87401903 9.58727839 17.0625 13.375 C15.4375 15.5 15.4375 15.5 14.4375 16.5 C10.35941156 16.76614584 6.2776851 16.77125966 2.19165039 16.79516602 C0.14335688 16.81234603 -1.90330822 16.85620989 -3.95117188 16.90039062 C-5.24216797 16.90876953 -6.53316406 16.91714844 -7.86328125 16.92578125 C-9.05091064 16.94036377 -10.23854004 16.95494629 -11.4621582 16.9699707 C-15.18805455 16.40517423 -16.34658122 15.49974022 -18.5625 12.5 C-19.23443259 8.39374529 -19.09544584 6.34999927 -16.875 2.80859375 C-12.44949784 -1.34105342 -5.63371508 -0.13012255 0 0 Z " fill="#FCFDFF" transform="translate(355.5625,260.5)"/>
</svg>
