<?xml version="1.0" encoding="UTF-8"?>
<svg version="1.1" xmlns="http://www.w3.org/2000/svg" width="512" height="512">
<path d="M0 0 C8.50257989 4.52927947 15.13706372 12.17595578 21.87884521 18.91917419 C22.8272751 19.86429715 23.77591482 20.80920958 24.72474408 21.75393158 C27.31214222 24.33139772 29.89646373 26.91192886 32.48023343 29.49303162 C35.27464291 32.28351223 38.07187128 35.07116497 40.8686676 37.85925293 C47.60813039 44.57903479 54.34282011 51.30359037 61.07690418 58.02876171 C64.25194886 61.19941406 67.42747894 64.36958019 70.60294342 67.53981209 C81.16182765 78.08170054 91.71946218 88.6248382 102.27347946 99.17159939 C105.00669167 101.90290191 107.73990923 104.63419909 110.47314453 107.36547852 C111.49206082 108.3836692 111.49206082 108.3836692 112.53156129 109.42242939 C123.55016064 120.43271771 134.57725862 131.4344533 145.60791132 142.43266463 C156.94291476 153.7346035 168.27038045 165.04405259 179.59046197 176.36093765 C185.94257566 182.71088686 192.29793805 189.05750821 198.66173553 195.39575005 C204.07700765 200.78932438 209.48541351 206.18966653 214.88498226 211.59896355 C217.63891843 214.35744558 220.39597832 217.1126007 223.16187477 219.85909462 C225.69566029 222.37525863 228.2199695 224.90054732 230.73717645 227.43329359 C232.07721748 228.7768348 233.42708879 230.11054938 234.77732825 231.44384092 C241.42310646 238.16083769 245.82300207 243.96156041 245.8125 253.8125 C245.57767282 261.67921058 243.84732718 267.33375298 238.640625 273.2734375 C233.16782649 278.41987647 227.32408147 280.54975841 219.875 280.875 C200.57074579 280.1315074 186.43110574 259.76284103 173.77952862 247.08309424 C171.31120421 244.61039981 168.83993707 242.1406492 166.36904907 239.67051697 C162.10161853 235.40360756 157.8360042 231.13488966 153.5716629 226.86489296 C147.40634606 220.69140501 141.23822792 214.52072204 135.06945035 208.35069241 C125.0580115 198.33707181 115.04880192 188.32122602 105.04101562 178.30395508 C95.3267014 168.58044398 85.61132414 158.85799705 75.89453125 149.13696289 C75.29431083 148.53647974 74.6940904 147.93599659 74.07568148 147.31731699 C71.06416396 144.30449431 68.0526257 141.29169238 65.04107714 138.27890074 C40.10750201 113.33498032 15.17755378 88.38743777 -9.75 63.4375 C-12.82096934 64.80786031 -14.92630731 66.3652993 -17.29646683 68.74066448 C-17.98572636 69.42655862 -18.67498589 70.11245275 -19.38513207 70.81913155 C-20.13454057 71.57504785 -20.88394906 72.33096414 -21.65606689 73.10978699 C-22.45829988 73.91101669 -23.26053287 74.7122464 -24.08707595 75.53775579 C-26.78320338 78.23292804 -29.47210667 80.93519514 -32.16113281 83.63745117 C-34.08860867 85.56824658 -36.01760224 87.49752305 -37.94654846 89.42684937 C-42.10490743 93.58757141 -46.25964014 97.75188628 -50.41199493 101.91860008 C-56.42380952 107.95110369 -62.44162413 113.97759296 -68.4610121 120.0025386 C-78.2376493 129.78843508 -88.01017884 139.57842251 -97.77978516 149.37133789 C-98.36457578 149.95752182 -98.9493664 150.54370576 -99.55187795 151.14765284 C-100.13737535 151.73454578 -100.72287276 152.32143872 -101.32611251 152.92611629 C-109.61595826 161.23570494 -117.90675569 169.54434247 -126.19873047 177.85180664 C-126.78159448 178.4357615 -127.36445849 179.01971636 -127.96498504 179.62136682 C-137.69510492 189.36953095 -147.42727054 199.11565103 -157.16048121 208.86072904 C-163.16057457 214.86840036 -169.15858423 220.87813853 -175.15388408 226.89059357 C-179.26616325 231.01447228 -183.38016043 235.13663163 -187.49549064 239.25746562 C-189.86738644 241.63268128 -192.23814525 244.00900374 -194.60723305 246.38702202 C-197.18116664 248.97044237 -199.75820529 251.55072651 -202.33599854 254.1302948 C-203.07648414 254.87505748 -203.81696974 255.61982017 -204.5798943 256.38715142 C-208.57480964 260.37774092 -212.65857096 264.18604017 -216.9662149 267.83819276 C-218.82048719 269.50069745 -220.46646339 271.26898706 -222.125 273.125 C-227.46138931 278.48553587 -233.83356751 280.61323859 -241.3125 280.9375 C-249.37800474 280.60713328 -256.17694747 277.2638731 -261.75 271.4375 C-267.285205 263.88150587 -268.14562225 255.581232 -266.75 246.4375 C-263.75971282 238.98624917 -259.05657751 234.17990384 -253.40130615 228.58087158 C-252.43338067 227.60833179 -251.46632801 226.63492268 -250.50006986 225.66072631 C-247.85411362 222.99812643 -245.19589296 220.34807991 -242.5354073 217.70000863 C-239.66375152 214.83742133 -236.80365275 211.96332591 -233.94203186 209.0907135 C-228.33891037 203.46982145 -222.72504772 197.85977765 -217.10723773 192.25356993 C-212.54102745 187.69639944 -207.97874397 183.13533213 -203.4192276 178.57146454 C-202.76986945 177.92149346 -202.1205113 177.27152238 -201.45147564 176.6018552 C-200.13226368 175.28136433 -198.8130607 173.96086449 -197.49386659 172.6403558 C-185.12826611 160.2633538 -172.75044317 147.89863359 -160.36839667 135.53808734 C-149.74824217 124.93580341 -139.13861883 114.32307584 -128.53662109 103.70263672 C-116.21977906 91.36438044 -103.89646344 79.03264972 -91.56277108 66.71123576 C-90.24718417 65.39692302 -88.9316056 64.08260193 -87.61603546 62.7682724 C-86.9687752 62.12162924 -86.32151493 61.47498607 -85.65464072 60.80874766 C-81.09760423 56.25516241 -76.54522077 51.69695714 -71.99462128 47.13694 C-66.44754652 41.57863776 -60.89338284 36.02753751 -55.33005729 30.48549899 C-52.49266789 27.65860978 -49.65854806 24.8286394 -46.83303261 21.9898777 C-44.24457467 19.38946897 -41.64700555 16.79853382 -39.04197505 14.21473035 C-37.65956018 12.83887447 -36.28691447 11.45322413 -34.91468406 10.06721044 C-25.38423986 0.65624322 -13.4509784 -5.4834999 0 0 Z " fill="#FCFDFF" transform="translate(266.75,116.5625)"/>
</svg>
