<?xml version="1.0" encoding="UTF-8"?>
<svg version="1.1" xmlns="http://www.w3.org/2000/svg" width="512" height="512">
<path d="M0 0 C3.39549127 1.72977857 5.42059334 3.06791103 7.4375 6.3125 C8.1862065 9.88965326 7.80110313 12.43110454 7 16 C5.0234375 18.74609375 5.0234375 18.74609375 2.375 21.4375 C1.36838824 22.48167315 0.3618836 23.52594956 -0.64453125 24.5703125 C-1.45784912 25.39837402 -1.45784912 25.39837402 -2.28759766 26.24316406 C-4.70495063 28.72324276 -7.06315437 31.2567526 -9.42529297 33.78930664 C-11.33744049 35.83923763 -13.25583916 37.88315065 -15.17578125 39.92578125 C-18.79216503 43.7761287 -22.39769265 47.63648583 -26 51.5 C-30.82541255 56.67412267 -35.65945212 61.84003461 -40.5 67 C-47.10027952 74.03626754 -53.68608357 81.08591077 -60.26611328 88.14111328 C-62.59349636 90.63628291 -64.92166146 93.13072196 -67.25 95.625 C-68.41038823 96.86827311 -69.57054705 98.11176038 -70.73046875 99.35546875 C-73.75418259 102.59710791 -76.78209052 105.83468649 -79.81640625 109.06640625 C-80.44353516 109.73542969 -81.07066406 110.40445313 -81.71679688 111.09375 C-82.90816318 112.36454073 -84.10078191 113.63415902 -85.29492188 114.90234375 C-85.83826172 115.48242188 -86.38160156 116.0625 -86.94140625 116.66015625 C-87.41263916 117.16168213 -87.88387207 117.66320801 -88.36938477 118.17993164 C-89.81866934 119.79760143 -91.21413325 121.44347482 -92.60191345 123.11375427 C-93.39328201 124.06621536 -94.18465057 125.01867645 -95 126 C-94.17032253 125.99886084 -93.34064505 125.99772168 -92.48582584 125.996548 C-43.34312595 125.9294548 5.79956908 125.87796109 54.94230558 125.84680401 C60.83922267 125.84305176 66.73613968 125.83916881 72.63305664 125.83520508 C73.80705669 125.83441815 74.98105675 125.83363122 76.19063256 125.83282044 C95.21502323 125.81975649 114.23938679 125.79609721 133.26376136 125.76854161 C152.77570793 125.74051491 172.28764027 125.72382954 191.79960614 125.71773452 C203.84541281 125.71361239 215.89114284 125.70057986 227.93692593 125.6762506 C236.19036621 125.66042716 244.4437667 125.65559193 252.69722106 125.65949587 C257.46334524 125.66142271 262.22933523 125.65841072 266.99543571 125.64238358 C271.3559821 125.62782685 275.71630355 125.62702001 280.07686011 125.63730332 C281.65702388 125.638575 283.23720147 125.63473365 284.81733789 125.62535045 C286.96088049 125.61335848 289.10360487 125.61977046 291.24713421 125.63085651 C292.43907633 125.62971735 293.63101844 125.62857819 294.85908002 125.62740451 C299.32736192 126.15745994 301.92658999 127.78346865 304.875 131.125 C306.49259557 135.25885534 306.1829329 138.75255635 305 143 C302.75410675 145.99452434 301.55130633 146.81623122 298 148 C295.8326858 148.09305965 293.66254092 148.12373847 291.49322987 148.12304783 C290.82623747 148.12420167 290.15924508 148.12535552 289.4720408 148.12654433 C287.22114805 148.12920616 284.97032581 148.12469237 282.71943665 148.12025452 C281.09580077 148.12069031 279.47216495 148.12156536 277.84852952 148.12284368 C273.37448013 148.12508711 268.90045453 148.12106942 264.42640817 148.11606562 C259.60637497 148.11175914 254.78634318 148.11320769 249.96630859 148.1139679 C241.61113986 148.114493 233.25597892 148.11134756 224.90081215 148.10573006 C212.82054738 148.0976133 200.74028638 148.09499966 188.66001918 148.09374207 C169.06199958 148.09155182 149.46398414 148.08489249 129.8659668 148.07543945 C110.82495138 148.06626462 91.7839371 148.05918413 72.74291992 148.05493164 C71.56981883 148.05466892 70.39671774 148.05440619 69.18806813 148.05413551 C63.30314004 148.0528305 57.41821194 148.05156678 51.53328383 148.05032361 C2.68885301 148.03995186 -46.15557329 148.02233429 -95 148 C-93.90785052 149.26180377 -92.81370524 150.52188021 -91.71875 151.78125 C-91.10966797 152.48314453 -90.50058594 153.18503906 -89.87304688 153.90820312 C-88.14053351 155.84305382 -86.35481229 157.68304102 -84.5 159.5 C-81.40643357 162.53832417 -78.57894493 165.7476532 -75.75 169.03125 C-74.06201714 170.93023071 -72.31230266 172.72005988 -70.5 174.5 C-67.40643357 177.53832417 -64.57894493 180.7476532 -61.75 184.03125 C-60.06201714 185.93023071 -58.31230266 187.72005988 -56.5 189.5 C-53.40643357 192.53832417 -50.57894493 195.7476532 -47.75 199.03125 C-46.06201714 200.93023071 -44.31230266 202.72005988 -42.5 204.5 C-40.06610268 206.89053167 -37.78644441 209.35046262 -35.5625 211.9375 C-33.14382221 214.74576347 -30.64100317 217.39970593 -28 220 C-24.72797872 223.2215855 -21.70683945 226.58592145 -18.71484375 230.06640625 C-16.4995262 232.56431556 -14.1310183 234.88024989 -11.75 237.21875 C-9.29595514 239.71661709 -7.0402065 242.36996141 -4.76171875 245.02734375 C-3.02395986 246.97317133 -1.20033248 248.76322256 0.6875 250.5625 C4.91649806 254.77240552 7.95496309 258.3878591 8.0625 264.625 C6.80557437 268.61758731 5.19471883 270.35072097 2 273 C-1.10953379 274.5547669 -3.56266761 274.28644437 -7 274 C-10.88237042 272.05881479 -13.43896996 269.60138127 -16.21484375 266.34765625 C-19.88707327 262.10173111 -23.70028515 258.0103463 -27.5625 253.9375 C-28.97551027 252.44164222 -30.38826585 250.94554383 -31.80078125 249.44921875 C-32.50412598 248.70462402 -33.2074707 247.9600293 -33.93212891 247.19287109 C-41.80750529 238.84143891 -49.61586925 230.42756173 -57.39160156 221.98339844 C-61.40339847 217.63265103 -65.44848965 213.31375729 -69.5 209 C-74.53125788 203.64307789 -79.53794191 198.26514404 -84.51611328 192.85888672 C-90.64388585 186.20803653 -96.82450349 179.60650172 -103 173 C-107.10233205 168.6113547 -111.20170215 164.2200003 -115.29638672 159.82421875 C-117.00664674 157.99288271 -118.72358131 156.16798887 -120.44140625 154.34375 C-121.52357585 153.18762949 -122.60561312 152.03138509 -123.6875 150.875 C-124.18072754 150.35470215 -124.67395508 149.8344043 -125.18212891 149.29833984 C-128.67227529 145.55356334 -131.66970858 142.21767097 -132.4375 137.0625 C-131.43495911 130.04471376 -125.34162135 124.96823648 -120.625 120.0625 C-119.18459458 118.54846363 -117.74449615 117.03413515 -116.3046875 115.51953125 C-115.58249023 114.76236816 -114.86029297 114.00520508 -114.11621094 113.22509766 C-110.97277856 109.91992429 -107.85937346 106.58718721 -104.75 103.25 C-104.17515869 102.63382812 -103.60031738 102.01765625 -103.00805664 101.3828125 C-98.85845409 96.93136697 -94.73072209 92.46009243 -90.60839844 87.98339844 C-85.95849713 82.94063418 -81.26274116 77.94136516 -76.56665039 72.94165039 C-72.69113243 68.81255221 -68.83458429 64.66712276 -65 60.5 C-59.89047743 54.9473752 -54.73245788 49.44142485 -49.56640625 43.94140625 C-45.20958248 39.29947335 -40.88086993 34.63300761 -36.57177734 29.94677734 C-33.77515647 26.90982919 -30.96184546 23.88961484 -28.1328125 20.8828125 C-27.46765625 20.17576172 -26.8025 19.46871094 -26.1171875 18.74023438 C-24.82951965 17.3730341 -23.54054615 16.00706181 -22.25 14.64257812 C-18.83721812 11.01926749 -15.56309622 7.34628964 -12.45263672 3.45849609 C-8.78049747 -0.22845514 -5.05203081 -0.52262388 0 0 Z " fill="#FBFCFF" transform="translate(169,119)"/>
</svg>
