<?xml version="1.0" encoding="UTF-8"?>
<svg version="1.1" xmlns="http://www.w3.org/2000/svg" width="512" height="512">
<path d="M0 0 C1.01790619 0.00215515 2.03581238 0.0043103 3.08456421 0.00653076 C17.69363523 0.05620146 32.02575853 0.30709809 46.375 3.3125 C47.34985352 3.51117676 48.32470703 3.70985352 49.32910156 3.91455078 C96.48330175 13.7783642 139.60404351 34.80004583 174.75390625 67.90234375 C177.32342207 70.32395548 177.32342207 70.32395548 180.015625 72.40625 C182.13784837 74.12089404 183.81400162 75.79388239 185.5625 77.875 C188.31391441 81.10672598 191.1583 84.21747916 194.0625 87.3125 C224.25528824 120.56567676 243.7294231 162.98610674 252.6875 206.75 C252.83485596 207.46889404 252.98221191 208.18778809 253.1340332 208.9284668 C256.10789088 224.57475609 256.74800362 240.04818046 256.6875 255.9375 C256.68534485 256.95540619 256.6831897 257.97331238 256.68096924 259.02206421 C256.63129854 273.63113523 256.38040191 287.96325853 253.375 302.3125 C253.07698486 303.77478027 253.07698486 303.77478027 252.77294922 305.26660156 C242.9091358 352.42080175 221.88745417 395.54154351 188.78515625 430.69140625 C186.36354452 433.26092207 186.36354452 433.26092207 184.28125 435.953125 C182.56660596 438.07534837 180.89361761 439.75150162 178.8125 441.5 C175.58077402 444.25141441 172.47002084 447.0958 169.375 450 C136.12182324 480.19278824 93.70139326 499.6669231 49.9375 508.625 C49.21860596 508.77235596 48.49971191 508.91971191 47.7590332 509.0715332 C33.08339502 511.86090125 18.55831162 512.66142619 3.64770508 512.62817383 C0.70811513 512.6250221 -2.2304558 512.64854926 -5.16992188 512.67382812 C-18.54306192 512.71848737 -31.43916711 511.51301542 -44.625 509.3125 C-46.33055054 509.03031616 -46.33055054 509.03031616 -48.07055664 508.74243164 C-50.6662622 508.27617402 -53.23774939 507.7574418 -55.8125 507.1875 C-57.20142456 506.88054199 -57.20142456 506.88054199 -58.6184082 506.56738281 C-101.87230882 496.50983763 -141.71578407 475.12991694 -174.00390625 444.72265625 C-176.57342207 442.30104452 -176.57342207 442.30104452 -179.265625 440.21875 C-181.38784837 438.50410596 -183.06400162 436.83111761 -184.8125 434.75 C-187.56391441 431.51827402 -190.4083 428.40752084 -193.3125 425.3125 C-223.50528824 392.05932324 -242.9794231 349.63889326 -251.9375 305.875 C-252.08485596 305.15610596 -252.23221191 304.43721191 -252.3840332 303.6965332 C-255.35789102 288.05024321 -255.99799808 272.57681915 -255.9375 256.6875 C-255.93534485 255.66926147 -255.9331897 254.65102295 -255.93096924 253.60192871 C-255.88127396 238.98002576 -255.57561242 224.68116068 -252.625 210.3125 C-252.42632324 209.29994141 -252.22764648 208.28738281 -252.02294922 207.24414062 C-242.61935305 160.21911591 -220.94688432 116.88109881 -188.03515625 81.93359375 C-185.61354452 79.36407793 -185.61354452 79.36407793 -183.53125 76.671875 C-181.81660596 74.54965163 -180.14361761 72.87349838 -178.0625 71.125 C-174.83077402 68.37358559 -171.72002084 65.5292 -168.625 62.625 C-135.37182324 32.43221176 -92.95139326 12.9580769 -49.1875 4 C-48.46860596 3.85264404 -47.74971191 3.70528809 -47.0090332 3.5534668 C-31.36274391 0.57960912 -15.88931954 -0.06050362 0 0 Z M-144.625 112.3125 C-145.28371094 112.92867187 -145.94242188 113.54484375 -146.62109375 114.1796875 C-161.01083122 128.07093522 -172.46829816 145.630593 -181.625 163.3125 C-181.9648291 163.96089844 -182.3046582 164.60929687 -182.65478516 165.27734375 C-197.0962561 193.17956403 -204.09338402 224.30300788 -204 255.625 C-203.99912384 256.35450867 -203.99824768 257.08401733 -203.99734497 257.83563232 C-203.78084013 313.11253839 -181.03767557 361.55438147 -143.625 401.3125 C-143.00882813 401.97121094 -142.39265625 402.62992187 -141.7578125 403.30859375 C-108.15822256 438.11391061 -56.63577892 459.56637611 -8.57421875 460.6484375 C-5.81999455 460.68868361 -3.06697786 460.69535826 -0.3125 460.6875 C0.78026749 460.68668427 0.78026749 460.68668427 1.89511108 460.68585205 C57.11077333 460.49847452 105.62916607 437.71361567 145.375 400.3125 C146.03371094 399.69632812 146.69242187 399.08015625 147.37109375 398.4453125 C161.76083122 384.55406478 173.21829816 366.994407 182.375 349.3125 C182.7148291 348.66410156 183.0546582 348.01570313 183.40478516 347.34765625 C197.8462561 319.44543597 204.84338402 288.32199212 204.75 257 C204.74912384 256.27049133 204.74824768 255.54098267 204.74734497 254.78936768 C204.53084013 199.51246161 181.78767557 151.07061853 144.375 111.3125 C143.75882812 110.65378906 143.14265625 109.99507812 142.5078125 109.31640625 C128.61656478 94.92666878 111.056907 83.46920184 93.375 74.3125 C92.72660156 73.9726709 92.07820313 73.6328418 91.41015625 73.28271484 C11.95380009 32.15815031 -81.26272101 52.68813963 -144.625 112.3125 Z " fill="#FCFDFF" transform="translate(255.625,-0.3125)"/>
<path d="M0 0 C18.95053001 17.3587747 25.80833217 37.60156249 27.59716797 62.64526367 C12.08716797 62.64526367 -3.42283203 62.64526367 -19.40283203 62.64526367 C-21.38283203 54.23026367 -21.38283203 54.23026367 -23.40283203 45.64526367 C-29.27960565 33.89171643 -36.28372098 27.73905083 -48.40283203 22.64526367 C-58.88923676 19.60909606 -71.7704392 20.65767236 -81.40283203 25.64526367 C-92.65595291 32.10538862 -99.42695507 42.54784444 -103.40283203 54.64526367 C-110.45142691 82.22545027 -111.79267393 120.00204347 -96.89501953 145.31323242 C-90.58331617 155.17733427 -81.67345572 160.67447427 -70.40283203 163.64526367 C-58.37467351 166.03128425 -46.39122657 163.71050636 -35.87548828 157.43823242 C-25.44248617 149.87306975 -22.11457065 140.84808744 -19.40283203 128.64526367 C-3.89283203 128.64526367 11.61716797 128.64526367 27.59716797 128.64526367 C25.64724122 152.04438465 16.62688728 170.38206813 -1.40283203 185.64526367 C-23.98695823 202.83665351 -50.67508672 207.66745717 -78.40283203 204.64526367 C-101.88990593 201.35451741 -122.31833078 190.15912954 -137.68408203 171.93041992 C-160.14098073 142.07295234 -164.23137492 102.66736695 -159.27783203 66.52026367 C-155.86028384 44.91767352 -148.42053381 24.87407043 -133.40283203 8.64526367 C-132.41669922 7.55665039 -132.41669922 7.55665039 -131.41064453 6.44604492 C-99.43309649 -27.26522561 -35.33444528 -30.51429548 0 0 Z " fill="#FCFDFF" transform="translate(313.40283203125,163.354736328125)"/>
</svg>
