<?xml version="1.0" encoding="UTF-8"?>
<svg version="1.1" xmlns="http://www.w3.org/2000/svg" width="512" height="512">
<path d="M0 0 C5.79584053 5.42191533 9.3098224 12.20176923 13.10107422 19.06982422 C15.43215645 23.26517472 17.83008388 27.42175765 20.21923828 31.58422852 C22.28736477 35.18753592 24.34562389 38.79642285 26.40234375 42.40625 C29.18190808 47.28371173 31.96546512 52.15885754 34.75390625 57.03125 C38.08260416 62.84773306 41.40674859 68.66679023 44.72753906 74.48779297 C45.97578181 76.67494811 47.22510104 78.86148929 48.47558594 81.04736328 C70.95683436 120.3620723 70.95683436 120.3620723 66.9296875 137.828125 C65.69237966 140.96263818 64.22662058 143.84479127 62.625 146.8125 C62.22732422 147.56563477 61.82964844 148.31876953 61.41992188 149.09472656 C55.42788748 160.42900413 49.08845544 171.57268056 42.75927734 182.72094727 C38.71090034 189.86075797 34.72343722 197.03283341 30.7640686 204.222229 C29.75195649 206.05894947 28.73789903 207.89458375 27.72338867 209.72998047 C24.65316946 215.28867761 21.59539642 220.85283905 18.59094238 226.44741821 C17.27820838 228.88796537 15.95504739 231.32277678 14.6305542 233.75695801 C13.72254503 235.43522646 12.82898738 237.12128923 11.93603516 238.80761719 C6.94828741 247.9530059 1.07553823 257.05537361 -8.75 261.375 C-9.74773437 261.83003906 -10.74546875 262.28507812 -11.7734375 262.75390625 C-15.48746997 264.26517172 -18.30716623 264.94037068 -22.29333496 264.95967102 C-23.815466 264.97040398 -23.815466 264.97040398 -25.36834717 264.98135376 C-27.03743134 264.98538712 -27.03743134 264.98538712 -28.74023438 264.98950195 C-30.49929108 264.99935875 -30.49929108 264.99935875 -32.29388428 265.00941467 C-36.18549956 265.02916778 -40.07710133 265.04082076 -43.96875 265.05078125 C-45.31167114 265.05483045 -46.65459209 265.05894742 -47.99751282 265.06313133 C-54.31238218 265.08218553 -60.62723989 265.09641181 -66.94213247 265.1047433 C-74.2116555 265.11449416 -81.48087229 265.14075586 -88.75028753 265.18124419 C-94.38019985 265.21151486 -100.01002499 265.22622279 -105.64001703 265.22952431 C-108.99680754 265.23186391 -112.35301266 265.24268408 -115.70976257 265.26598549 C-119.46495639 265.29042553 -123.21935978 265.28940197 -126.97460938 265.2824707 C-128.61940277 265.30168579 -128.61940277 265.30168579 -130.29742432 265.32128906 C-139.72463426 265.2581829 -148.66151637 263.28694303 -155.6875 256.625 C-156.44675781 255.93019531 -157.20601563 255.23539062 -157.98828125 254.51953125 C-164.13798799 247.54449561 -168.46672332 239.29078274 -172.9375 231.1875 C-174.17794701 228.95548547 -175.41884218 226.72371995 -176.66015625 224.4921875 C-177.28164551 223.37295898 -177.90313477 222.25373047 -178.54345703 221.10058594 C-181.29677682 216.15767593 -184.08484851 211.23468371 -186.875 206.3125 C-192.01322819 197.23914096 -197.11577118 188.14628419 -202.19287109 179.03857422 C-205.0154214 173.9849028 -207.86385683 168.95046193 -210.78515625 163.953125 C-211.59811157 162.55634521 -211.59811157 162.55634521 -212.42749023 161.13134766 C-213.43362324 159.40775325 -214.44680665 157.68824304 -215.46899414 155.97412109 C-220.15296985 147.93617726 -223.95848496 139.74629998 -223.875 130.3125 C-223.89046875 128.56453125 -223.89046875 128.56453125 -223.90625 126.78125 C-223.07909071 117.20217147 -217.95668127 108.87611401 -212.9375 100.9375 C-212.31987793 99.94210205 -211.70225586 98.9467041 -211.06591797 97.92114258 C-209.79153554 95.86909095 -208.51289308 93.81967873 -207.22998047 91.77294922 C-204.99213784 88.20147255 -202.77707073 84.61626294 -200.56298828 81.0300293 C-198.97093119 78.45294594 -197.37451695 75.87860275 -195.77734375 73.3046875 C-192.02521983 67.25330078 -188.293411 61.18948043 -184.5625 55.125 C-183.89758545 54.04573242 -183.2326709 52.96646484 -182.54760742 51.85449219 C-179.39634993 46.73705901 -176.25147469 41.61605059 -173.13127136 36.47962952 C-171.70445505 34.13187854 -170.27360325 31.78659941 -168.84243774 29.4414978 C-167.84634839 27.80559023 -166.85605335 26.16615889 -165.8659668 24.52661133 C-158.69452408 12.78394739 -151.74838927 2.60673389 -138.375 -2.1875 C-134.31843689 -3.15961807 -130.32696912 -3.46409441 -126.16796875 -3.72265625 C-125.48374344 -3.76563339 -124.79951813 -3.80861053 -124.09455872 -3.85289001 C-122.65160132 -3.94272238 -121.20853823 -4.03087121 -119.76538086 -4.11743164 C-117.57961527 -4.24897001 -115.3943104 -4.38676093 -113.20898438 -4.52539062 C-94.32111305 -5.69075162 -94.32111305 -5.69075162 -90.4375 -3.625 C-87.72138882 -0.41505042 -87.375 1.63294153 -87.375 5.8125 C-88.1875 8.625 -88.1875 8.625 -90.375 10.8125 C-99.13047531 13.74561309 -108.92694052 13.4196819 -118.07617188 13.76611328 C-130.5496857 14.14340641 -130.5496857 14.14340641 -140.9909668 20.31811523 C-144.96734223 24.65912272 -147.87773988 29.67554407 -150.8125 34.75 C-151.86383263 36.53506477 -152.91731458 38.31886497 -153.97265625 40.1015625 C-154.52453613 41.03387695 -155.07641602 41.96619141 -155.64501953 42.92675781 C-158.6088435 47.87064708 -161.68126666 52.74578931 -164.75 57.625 C-170.31404354 66.48596499 -175.79602093 75.39219052 -181.22143555 84.33862305 C-185.83747333 91.94557424 -190.50734666 99.51803876 -195.20166016 107.0769043 C-195.70616699 107.8894165 -196.21067383 108.70192871 -196.73046875 109.5390625 C-197.39018677 110.59988037 -197.39018677 110.59988037 -198.06323242 111.68212891 C-199.51956419 114.04727892 -200.94595742 116.43076237 -202.375 118.8125 C-162.775 119.1425 -123.175 119.4725 -82.375 119.8125 C-81.715 117.8325 -81.055 115.8525 -80.375 113.8125 C-79.54188412 112.03315763 -78.66784205 110.27251034 -77.7578125 108.53125 C-77.23968994 107.53625488 -76.72156738 106.54125977 -76.18774414 105.51611328 C-75.63078857 104.4589209 -75.07383301 103.40172852 -74.5 102.3125 C-73.91919678 101.20245605 -73.33839355 100.09241211 -72.73999023 98.94873047 C-68.56930161 91.0059096 -64.29210499 83.12527765 -59.96728516 75.265625 C-55.36885019 66.87697395 -50.98591437 58.3819113 -46.60595703 49.87768555 C-42.31324035 41.56464478 -37.89766835 33.32751679 -33.36914062 25.140625 C-30.22086982 19.43522386 -27.24719407 13.66176945 -24.375 7.8125 C-24.95354736 7.97097412 -25.53209473 8.12944824 -26.12817383 8.29272461 C-32.92713914 9.86558098 -40.41305873 9.54453094 -47.375 9.8125 C-48.60573242 9.86567383 -48.60573242 9.86567383 -49.86132812 9.91992188 C-52.17842071 10.01215383 -54.49417571 10.07387732 -56.8125 10.125 C-57.51528076 10.154729 -58.21806152 10.18445801 -58.94213867 10.21508789 C-62.28814952 10.254057 -64.07864888 10.02695217 -66.8203125 8.04296875 C-69.20158543 4.6266199 -69.06738025 1.82665691 -68.375 -2.1875 C-66.63246655 -5.42363354 -65.90314056 -6.01145315 -62.375 -7.1875 C-59.96833139 -7.40800107 -57.55698542 -7.57864457 -55.14453125 -7.72265625 C-54.43528 -7.76563339 -53.72602875 -7.80861053 -52.99528503 -7.85289001 C-51.49331001 -7.94301532 -49.99121418 -8.0311463 -48.48901367 -8.11743164 C-46.21305902 -8.24852779 -43.93759576 -8.38642774 -41.66210938 -8.52539062 C-40.19794086 -8.61238731 -38.73374876 -8.69898815 -37.26953125 -8.78515625 C-36.59839798 -8.82576675 -35.92726471 -8.86637726 -35.23579407 -8.90821838 C-21.74498042 -9.6718257 -10.89356589 -8.54284904 0 0 Z M-9.375 16.8125 C-9.67567383 17.39402832 -9.97634766 17.97555664 -10.28613281 18.57470703 C-15.83640391 29.29558216 -21.4294321 39.98552863 -27.25 50.5625 C-31.75202437 58.74894313 -36.09593253 67.00745339 -40.375 75.3125 C-44.73961858 83.78245288 -49.17163896 92.20602188 -53.75 100.5625 C-54.23815186 101.45710938 -54.72630371 102.35171875 -55.22924805 103.2734375 C-57.43118175 107.30086103 -59.6540674 111.31282191 -61.93359375 115.296875 C-62.31789551 115.98168945 -62.70219727 116.66650391 -63.09814453 117.37207031 C-64.10228101 119.16070248 -65.12267153 120.94018378 -66.14453125 122.71875 C-67.61863196 126.42506036 -67.29701299 127.97418747 -66.375 131.8125 C-65.11251923 134.66416307 -65.11251923 134.66416307 -63.453125 137.49609375 C-62.84654053 138.57648926 -62.23995605 139.65688477 -61.61499023 140.77001953 C-60.95182631 141.93010802 -60.28849193 143.09009908 -59.625 144.25 C-58.94067549 145.46161848 -58.25717418 146.67370225 -57.57446289 147.88623047 C-55.84339581 150.95619772 -54.10236274 154.02037956 -52.35845947 157.08306885 C-50.89304663 159.66002367 -49.43669993 162.24206695 -47.98046875 164.82421875 C-45.86447996 168.57508389 -43.74433551 172.32354863 -41.62109375 176.0703125 C-38.1852939 182.13963361 -34.77908699 188.22535177 -31.375 194.3125 C-29.04264857 198.47971708 -26.70927868 202.64636218 -24.375 206.8125 C-23.77526367 207.88290527 -23.17552734 208.95331055 -22.55761719 210.05615234 C-20.79115912 213.20565491 -19.02112775 216.35312154 -17.25 219.5 C-16.71761719 220.45003906 -16.18523437 221.40007812 -15.63671875 222.37890625 C-13.04091589 226.98328665 -10.38677699 231.46775952 -7.375 235.8125 C-4.92307373 232.71248545 -3.00509237 229.49290085 -1.109375 226.02734375 C-0.15671753 224.29218506 -0.15671753 224.29218506 0.81518555 222.52197266 C1.15045258 221.90799622 1.4857196 221.29401978 1.83114624 220.66143799 C3.25555349 218.05315489 4.68691333 215.44870868 6.11772156 212.84393311 C6.85808031 211.49586325 7.59807717 210.14759458 8.33772278 208.7991333 C11.97559707 202.16724478 15.63907025 195.54976983 19.3125 188.9375 C19.92794678 187.82955078 20.54339355 186.72160156 21.17749023 185.58007812 C25.2347237 178.28660937 29.32503487 171.01245138 33.4375 163.75 C37.43161313 156.69582675 41.42154596 149.63956419 45.375 142.5625 C45.79370361 141.81734131 46.21240723 141.07218262 46.64379883 140.30444336 C50.40226407 133.55703138 51.5552305 128.48050632 50.625 120.8125 C49.53411493 117.93876305 49.53411493 117.93876305 48.00390625 115.1328125 C47.45742432 114.08714111 46.91094238 113.04146973 46.34790039 111.96411133 C43.70271511 107.12541262 40.94292599 102.36478858 38.125 97.625 C33.23572456 89.32324171 28.43747926 80.97985912 23.75 72.5625 C14.40591551 55.79986708 5.00252112 39.05500375 -4.8125 22.5625 C-5.17190674 21.9545459 -5.53131348 21.3465918 -5.90161133 20.72021484 C-6.69653654 19.39940987 -7.53055073 18.10220434 -8.375 16.8125 C-8.705 16.8125 -9.035 16.8125 -9.375 16.8125 Z M-205.375 136.8125 C-204.07163415 140.12279317 -202.68174707 143.25136086 -200.9765625 146.375 C-200.5036377 147.24294189 -200.03071289 148.11088379 -199.54345703 149.00512695 C-199.03411621 149.93156006 -198.52477539 150.85799316 -198 151.8125 C-197.46616699 152.78727295 -196.93233398 153.7620459 -196.38232422 154.76635742 C-192.33841116 162.12362044 -188.20179743 169.42467366 -184.01806641 176.703125 C-180.08727755 183.54546809 -176.22205731 190.42277488 -172.375 197.3125 C-159.13197239 226.57759634 -159.13197239 226.57759634 -137.375 247.8125 C-131.96161492 248.99240669 -126.66051848 248.9536251 -121.15039062 248.94189453 C-119.62734566 248.94452301 -119.62734566 248.94452301 -118.0735321 248.94720459 C-114.72608721 248.95159626 -111.3786954 248.94869454 -108.03125 248.9453125 C-105.70007314 248.94598631 -103.36889635 248.94695698 -101.03771973 248.94821167 C-96.15551076 248.949685 -91.27332011 248.94754576 -86.39111328 248.94287109 C-80.13666577 248.93717404 -73.88226118 248.94045499 -67.62781525 248.94644356 C-62.81512123 248.95005897 -58.00243737 248.94890606 -53.18974304 248.94631577 C-50.8836822 248.94564922 -48.57762043 248.94646542 -46.27156067 248.94879532 C-43.0475521 248.95133789 -39.8236128 248.94745853 -36.59960938 248.94189453 C-35.64877975 248.94391876 -34.69795013 248.94594299 -33.7183075 248.94802856 C-29.15513093 248.93345729 -24.8649871 248.74800104 -20.375 247.8125 C-20.73706543 247.15040527 -21.09913086 246.48831055 -21.47216797 245.80615234 C-24.12280454 240.95360566 -26.76465254 236.09671823 -29.3828125 231.2265625 C-35.05792587 220.67905072 -40.81539424 210.19210673 -46.78808594 199.81005859 C-50.65502424 193.08642908 -54.46481633 186.33247839 -58.25 179.5625 C-59.1157666 178.01429565 -59.1157666 178.01429565 -59.99902344 176.43481445 C-61.79163761 173.22772342 -63.58336713 170.02013932 -65.375 166.8125 C-67.93636408 162.2285304 -70.49913191 157.64534936 -73.0625 153.0625 C-73.6507959 152.00901367 -74.2390918 150.95552734 -74.84521484 149.87011719 C-75.39516113 148.88688477 -75.94510742 147.90365234 -76.51171875 146.890625 C-76.99342529 146.02856445 -77.47513184 145.16650391 -77.97143555 144.27832031 C-78.43461182 143.46459961 -78.89778809 142.65087891 -79.375 141.8125 C-79.8010704 140.51627464 -79.8010704 140.51627464 -80.23574829 139.19386292 C-82.84787944 136.28610212 -83.61045321 136.41454793 -87.40531921 136.21122742 C-89.60572385 136.19667194 -91.80641286 136.21015933 -94.0065918 136.24487305 C-95.20671906 136.24414291 -96.40684631 136.24341278 -97.64334106 136.24266052 C-100.93499428 136.24554949 -104.22508384 136.27063886 -107.51646018 136.30553031 C-110.95573565 136.3367656 -114.39503146 136.33972227 -117.83442688 136.34565735 C-124.34752462 136.36120428 -130.86020323 136.40224365 -137.37311631 136.4524048 C-144.78773765 136.50827231 -152.20237891 136.53577813 -159.61715829 136.56088197 C-174.87001502 136.61315925 -190.12245349 136.70111736 -205.375 136.8125 Z " fill="#5694FC" transform="translate(395.375,215.1875)"/>
<path d="M0 0 C1.52419304 -0.01073296 1.52419304 -0.01073296 3.07917786 -0.02168274 C4.18830536 -0.02437164 5.29743286 -0.02706055 6.44017029 -0.02983093 C7.61302078 -0.03640213 8.78587128 -0.04297333 9.9942627 -0.04974365 C13.88044079 -0.0694727 17.76660535 -0.08114519 21.65281677 -0.09111023 C22.99481158 -0.09516026 24.33680618 -0.09927726 25.67880058 -0.10346031 C31.98832716 -0.12250577 38.29784212 -0.13673523 44.60739189 -0.14507228 C51.86841484 -0.154827 59.12913151 -0.18110258 66.39004666 -0.22157317 C72.01573288 -0.25184269 77.64133188 -0.26655156 83.26709789 -0.26985329 C86.62052029 -0.27219252 89.97335663 -0.28300964 93.32673836 -0.30631447 C97.0770338 -0.33075347 100.82653776 -0.32973129 104.57688904 -0.32279968 C105.67184692 -0.33560974 106.76680481 -0.3484198 107.89494324 -0.36161804 C118.44551267 -0.29089353 128.32136681 2.56979272 135.96141052 10.14717102 C141.46394319 17.07550389 145.69015322 24.77039701 149.89891052 32.52217102 C151.21727507 34.9276081 152.54034347 37.33044484 153.86375427 39.73310852 C154.2007132 40.34587646 154.53767212 40.95864441 154.88484192 41.58998108 C158.50078364 48.15285557 162.22800483 54.6506529 165.96141052 61.14717102 C171.99164787 71.65153848 177.92535017 82.20500618 183.78269958 92.80683899 C186.82638494 98.31543467 189.89982329 103.80147996 193.04978943 109.24995422 C199.88390913 121.14718278 202.93400649 130.8889404 200.48094177 144.88935852 C197.59813971 154.28407387 190.24860882 168.62237215 181.96141052 174.14717102 C178.44162501 174.46715152 175.86439271 174.52737405 172.58641052 173.14717102 C170.14668603 170.14443319 169.83756874 166.90992547 169.96141052 163.14717102 C170.86375919 160.47446096 172.23541563 158.25046946 173.77391052 155.89717102 C174.51014436 154.70480628 175.24583672 153.512107 175.98094177 152.31904602 C176.63449646 151.27232727 177.28805115 150.22560852 177.96141052 149.14717102 C178.62141052 147.82717102 179.28141052 146.50717102 179.96141052 145.14717102 C140.36141052 145.14717102 100.76141052 145.14717102 59.96141052 145.14717102 C58.97141052 148.11717102 58.97141052 148.11717102 57.96141052 151.14717102 C57.12829464 152.92651339 56.25425257 154.68716069 55.34422302 156.42842102 C54.82610046 157.42341614 54.30797791 158.41841125 53.77415466 159.44355774 C53.2171991 160.50075012 52.66024353 161.5579425 52.08641052 162.64717102 C51.5056073 163.75721497 50.92480408 164.86725891 50.32640076 166.01094055 C46.15571214 173.95376142 41.87851551 181.83439337 37.55369568 189.69404602 C32.95526071 198.08269707 28.57232489 206.57775972 24.19236755 215.08198547 C19.89965087 223.39502624 15.48407887 231.63215423 10.95555115 239.81904602 C7.80728034 245.52444716 4.83360459 251.29790157 1.96141052 257.14717102 C2.95141052 256.81717102 3.94141052 256.48717102 4.96141052 256.14717102 C9.57714398 255.73486719 14.20685844 255.58717266 18.83641052 255.39717102 C20.11644958 255.32885071 21.39648865 255.2605304 22.71531677 255.19013977 C23.94894958 255.13986633 25.1825824 255.0895929 26.45359802 255.03779602 C27.58136658 254.98655579 28.70913513 254.93531555 29.87107849 254.88252258 C33.37465774 255.1825605 35.1689455 256.05108289 37.96141052 258.14717102 C39.53076646 261.2858829 39.31342155 263.68572924 38.96141052 267.14717102 C36.50673626 270.67576527 34.97679286 271.95294534 30.73484802 272.76435852 C24.73147326 273.37456907 18.69153428 273.3702939 12.6625824 273.3874054 C10.59772029 273.39711782 8.53385308 273.42822497 6.46922302 273.45967102 C-4.98872881 273.55235171 -14.4978024 272.28445635 -23.03858948 264.14717102 C-28.76468947 258.38369439 -32.48787659 251.50736982 -36.41358948 244.45967102 C-37.11459322 243.21506865 -37.81643336 241.97093705 -38.51905823 240.72724915 C-39.97508898 238.14848547 -41.42753608 235.56775364 -42.87745667 232.98554993 C-46.23096551 227.02027114 -49.63777699 221.08557099 -53.03858948 215.14717102 C-54.03191969 213.40872094 -55.02524918 211.67027043 -56.01826477 209.93164062 C-59.09153944 204.55077567 -62.16911027 199.17238761 -65.24952698 193.79560852 C-69.18903538 186.91837774 -73.11741427 180.03487564 -77.03858948 173.14717102 C-77.84078918 171.74096497 -77.84078918 171.74096497 -78.65919495 170.30635071 C-80.06309115 167.84028117 -81.45881372 165.36981489 -82.85108948 162.89717102 C-83.24151428 162.21316223 -83.63193909 161.52915344 -84.03419495 160.82441711 C-88.10415867 153.54604154 -90.56143673 147.18275454 -90.47608948 138.77217102 C-90.49606995 138.08123352 -90.51605042 137.39029602 -90.53663635 136.67842102 C-90.52690076 126.12503774 -84.52399039 116.95725885 -79.60108948 107.95967102 C-78.9841925 106.82328186 -78.36729553 105.6868927 -77.73170471 104.5160675 C-72.71215032 95.30190656 -67.56503622 86.1625391 -62.37843323 77.04170227 C-58.76627023 70.6826228 -55.21256829 64.29166953 -51.66358948 57.89717102 C-50.73050964 56.22195374 -50.73050964 56.22195374 -49.77857971 54.51289368 C-46.84260354 49.23516749 -43.92349269 43.95100005 -41.06413269 38.63145447 C-39.75362019 36.19630094 -38.43297634 33.76671046 -37.11152649 31.33747864 C-36.19792989 29.64816905 -35.29887134 27.95102185 -34.40040588 26.25361633 C-29.52064918 17.29889759 -23.65635163 8.21005582 -14.22608948 3.58467102 C-13.33276917 3.12963196 -12.43944885 2.6745929 -11.51905823 2.20576477 C-7.59479876 0.53100207 -4.26159326 0.02065547 0 0 Z M-2.03858948 17.14717102 C-0.91588576 19.27340878 0.20964749 21.39808477 1.33641052 23.52217102 C1.68639099 24.18539368 2.03637146 24.84861633 2.3969574 25.53193665 C4.4336504 29.3671753 6.52964129 33.15469363 8.71922302 36.90498352 C9.17506775 37.69469543 9.63091248 38.48440735 10.10057068 39.29804993 C10.99159565 40.83616301 11.89452266 42.36745704 12.81053162 43.89082336 C15.44920592 48.47563642 16.62166757 51.70855882 15.96141052 57.14717102 C14.39891052 59.58467102 14.39891052 59.58467102 11.96141052 61.14717102 C8.18858526 61.47812061 5.55405504 61.34471919 1.96141052 60.14717102 C0.97312927 57.95478821 0.97312927 57.95478821 -0.03858948 55.14717102 C-2.276197 50.84464732 -4.66858873 46.62795548 -7.03858948 42.39717102 C-7.6871768 41.22407676 -8.33561576 40.05090046 -8.98390198 38.87763977 C-9.60007385 37.77549133 -10.21624573 36.6733429 -10.85108948 35.53779602 C-11.41440979 34.52749329 -11.9777301 33.51719055 -12.55812073 32.47627258 C-13.82710216 30.03835724 -13.82710216 30.03835724 -16.03858948 29.14717102 C-16.39461243 29.81434143 -16.75063538 30.48151184 -17.1174469 31.16889954 C-23.96755161 43.98942975 -30.88621545 56.75623654 -38.07276917 69.39204407 C-42.89040781 77.86496814 -47.62761102 86.38111428 -52.35133362 94.9066925 C-55.5727417 100.71778615 -58.80563563 106.52189412 -62.06593323 112.31123352 C-62.71183411 113.45930481 -63.35773499 114.6073761 -64.02320862 115.79023743 C-65.25849244 117.98385133 -66.49587109 120.17628725 -67.73561096 122.36738586 C-68.28676575 123.34658997 -68.83792053 124.32579407 -69.40577698 125.33467102 C-69.89159241 126.19447571 -70.37740784 127.0542804 -70.87794495 127.94013977 C-73.66561669 133.24105533 -73.74867345 138.29662908 -73.03858948 144.14717102 C-71.94557202 147.02513884 -71.94557202 147.02513884 -70.41358948 149.83467102 C-69.59362488 151.4036615 -69.59362488 151.4036615 -68.75709534 153.00434875 C-66.13524119 157.79922423 -63.39644421 162.51424798 -60.60108948 167.20967102 C-55.44657381 175.95137639 -50.43825429 184.76022359 -45.53858948 193.64717102 C-38.57178557 206.26715749 -31.35613732 218.72803083 -24.03858948 231.14717102 C-23.00577984 232.90483221 -21.97321777 234.66263889 -20.94093323 236.42060852 C-18.64357601 240.33148765 -16.34246909 244.24013094 -14.03858948 248.14717102 C-11.47510541 244.93929534 -9.57380597 241.58082112 -7.65968323 237.95185852 C-7.33572067 237.34002716 -7.01175812 236.7281958 -6.67797852 236.0978241 C-5.60747921 234.07428092 -4.54182737 232.04822533 -3.47608948 230.02217102 C-2.71942947 228.59002588 -1.96242435 227.15806303 -1.20509338 225.72627258 C0.38331096 222.72201896 1.96979978 219.71676591 3.55467224 216.71064758 C7.01588651 210.14602869 10.48712311 203.58671509 13.95881653 197.02763367 C14.71107231 195.60633056 15.46320838 194.18496409 16.21522522 192.76353455 C21.52255071 182.73229104 26.85190093 172.71313484 32.21141052 162.70967102 C32.80711853 161.59753235 33.40282654 160.48539368 34.0165863 159.33955383 C34.58103455 158.28735657 35.14548279 157.2351593 35.72703552 156.15107727 C36.26135193 155.14705872 36.79566833 154.14304016 37.34617615 153.1085968 C38.44343653 151.09684221 39.57927376 149.10575072 40.7485199 147.13496399 C41.30861755 146.17864075 41.86871521 145.2223175 42.44578552 144.23701477 C42.95335388 143.39904358 43.46092224 142.56107239 43.98387146 141.69770813 C45.26024114 138.36747986 44.90770138 136.56523175 43.96141052 133.14717102 C42.68248619 130.26264764 42.68248619 130.26264764 41.00437927 127.39326477 C40.08507629 125.75490662 40.08507629 125.75490662 39.14720154 124.08345032 C38.82099823 123.51234528 38.49479492 122.94124023 38.15870667 122.35282898 C37.13757858 120.56482874 36.12830225 118.77056488 35.12132263 116.9745636 C31.90468297 111.25263305 28.63281715 105.56644364 25.29734802 99.91279602 C24.46554016 98.49269226 24.46554016 98.49269226 23.6169281 97.04389954 C22.57940436 95.27939364 21.53029428 93.52163325 20.46800232 91.77192688 C17.92988301 87.45875133 16.09521768 84.3133926 16.96141052 79.14717102 C18.89891052 76.20967102 18.89891052 76.20967102 21.96141052 74.14717102 C25.06703066 74.03291744 27.93369018 74.48094062 30.96141052 75.14717102 C31.22840759 75.85551086 31.49540466 76.56385071 31.77049255 77.2936554 C33.00945538 80.26228957 34.44973647 82.9941299 36.01609802 85.80342102 C36.6322699 86.91072571 37.24844177 88.0180304 37.88328552 89.15888977 C38.52781677 90.31002258 39.17234802 91.4611554 39.83641052 92.64717102 C40.4422699 93.73642883 41.04812927 94.82568665 41.67234802 95.94795227 C47.68556192 106.72984195 53.8356095 117.42701924 59.96141052 128.14717102 C100.55141052 128.14717102 141.14141052 128.14717102 182.96141052 128.14717102 C181.61685395 124.7857796 180.33823876 121.83121969 178.63328552 118.69013977 C178.17051208 117.83742493 177.70773865 116.98471008 177.23094177 116.1061554 C176.72949646 115.19156555 176.22805115 114.27697571 175.71141052 113.33467102 C174.92057068 111.8873761 174.92057068 111.8873761 174.11375427 110.4108429 C169.61237285 102.2250755 164.91375353 94.16284505 160.17527771 86.11274719 C156.30940966 79.52281296 152.58605021 72.87249378 148.96141052 66.14717102 C144.62334958 58.10406461 140.13214687 50.16371532 135.52391052 42.27217102 C134.94447693 41.2795929 134.36504333 40.28701477 133.76805115 39.26435852 C131.28025044 35.02438152 128.77440495 30.79532111 126.21141052 26.60029602 C125.64873474 25.6784552 125.64873474 25.6784552 125.07469177 24.73799133 C122.04198017 20.40440607 117.56405824 17.71444665 112.47154236 16.60447693 C107.87649767 16.00582674 103.36571864 16.00792194 98.73680115 16.01777649 C97.21375618 16.01514801 97.21375618 16.01514801 95.65994263 16.01246643 C92.31249774 16.00807476 88.96510593 16.01097648 85.61766052 16.01435852 C83.28648366 16.01368471 80.95530687 16.01271404 78.62413025 16.01145935 C73.74192129 16.00998602 68.85973064 16.01212526 63.9775238 16.01679993 C57.7230763 16.02249698 51.4686717 16.01921603 45.21422577 16.01322746 C40.40153175 16.00961205 35.58884789 16.01076496 30.77615356 16.01335526 C28.47009272 16.01402181 26.16403095 16.0132056 23.85797119 16.0108757 C20.63396262 16.00833313 17.41002332 16.01221249 14.1860199 16.01777649 C13.23519028 16.01575226 12.28436066 16.01372803 11.30471802 16.01164246 C6.74154145 16.02621373 2.45139763 16.21166999 -2.03858948 17.14717102 Z " fill="#855EFB" transform="translate(139.03858947753906,31.852828979492188)"/>
<path d="M0 0 C3.02548077 2.49026059 4.75697175 5.27091526 6 9 C6.94259819 21.56193353 6.94259819 21.56193353 3 27 C0.74950318 29.58145224 -0.71852063 30.88537752 -4.18359375 31.1953125 C-8.26656403 30.96736342 -10.38024144 30.57208483 -13.4375 27.75 C-13.953125 26.8425 -14.46875 25.935 -15 25 C-15.61875 23.9171875 -15.61875 23.9171875 -16.25 22.8125 C-17.82331119 16.91258304 -17.87036169 11.17529771 -15.3125 5.5625 C-11.7172744 -0.62579771 -6.74316866 -2.49292902 0 0 Z " fill="#3FAFFE" transform="translate(392,329)"/>
<path d="M0 0 C3.97514998 3.26845665 6.64622183 6.35077743 7.3359375 11.515625 C7.42486142 17.74029909 7.10421546 23.05079901 3 28 C-0.98942106 30.55925124 -2.98776786 31.13725182 -7.6875 30.5 C-11.97424627 28.55883188 -13.92345961 26.15308077 -16 22 C-17.04465723 8.64208787 -17.04465723 8.64208787 -14.3125 4.3125 C-9.57670178 -0.42329822 -6.69264888 -1.91218539 0 0 Z " fill="#9A46FA" transform="translate(130,153)"/>
<path d="M0 0 C4.42990277 2.09837499 7.144454 4.41570988 9 9 C9 13.11586828 8.29739578 14.64782079 5.625 17.8125 C0.44985007 22.12512495 -5.56197707 21.46837468 -12 21 C-15.76293826 19.74568725 -17.37730194 18.72313323 -19.9375 15.75 C-21.37082923 12.04020671 -21.03999587 9.81331821 -20 6 C-14.70957568 -0.74985172 -8.0600278 -0.87397892 0 0 Z " fill="#7075FC" transform="translate(249,297)"/>
<path d="M0 0 C2.6624203 1.72429702 4.12579702 3.56564866 5.88671875 6.20703125 C6.33928157 10.28009661 6.32705072 12.47314464 4.19921875 16.01953125 C-0.47813385 20.44405398 -5.27879604 20.58558748 -11.453125 20.4609375 C-15.92123442 20.03446597 -18.75379526 18.47588484 -21.98828125 15.45703125 C-23.63344974 12.16669427 -23.55893749 9.83594632 -23.11328125 6.20703125 C-18.17244837 -1.73359302 -8.61015714 -3.23079834 0 0 Z " fill="#5794FD" transform="translate(326.11328125,242.79296875)"/>
<path d="M0 0 C3.00838213 2.53832242 2.99488551 3.95396956 3.4375 7.9375 C3.3109041 11.02759082 2.94542296 12.09298311 1.3125 14.875 C-3.27313144 19.08882348 -7.52300413 19.38363533 -13.5625 19.2578125 C-18.29721749 18.75702507 -22.00340224 16.64543375 -25 13 C-25.68905923 9.93368643 -25.57959365 7.08213821 -25 4 C-18.57383716 -4.62941867 -9.00619331 -4.68565463 0 0 Z " fill="#7075FC" transform="translate(254,369)"/>
<path d="M0 0 C1.69576172 -0.03867188 1.69576172 -0.03867188 3.42578125 -0.078125 C7.8176866 0.36369542 10.36691473 1.97495216 13.5 5 C15.23318109 8.28392206 15.13682633 10.59119985 14.6875 14.25 C12.49356052 17.77597416 10.52780793 19.74178218 6.6875 21.25 C1.20268565 21.85942382 -5.14794296 22.55812032 -10 19.5 C-13.60807158 15.98944387 -13.60807158 15.98944387 -14.3125 13.25 C-14.2313061 8.7843354 -13.79035505 6.81362391 -10.875 3.375 C-7.03166515 0.18784427 -4.95483048 0.06733631 0 0 Z " fill="#8262FB" transform="translate(195.3125,67.75)"/>
<path d="M0 0 C2.91722966 1.83865095 5.02711761 3.89929417 5.88671875 7.2421875 C5.80552485 11.7078521 5.3645738 13.67856359 2.44921875 17.1171875 C-2.80159336 21.47151949 -8.51972715 20.83504656 -15.11328125 20.2421875 C-18.93469686 18.82059274 -20.84813554 16.63990606 -23.11328125 13.2421875 C-23.57009932 9.13082485 -23.57059907 6.97716257 -21.36328125 3.4296875 C-15.80948772 -1.96983399 -7.22643194 -2.59136376 0 0 Z " fill="#5694FD" transform="translate(325.11328125,423.7578125)"/>
<path d="M0 0 C2.12990902 3.2658605 2.56011644 5.11860231 2.29296875 8.9453125 C1.60367402 12.12766385 0.27583697 13.72688271 -2.125 15.875 C-7.51036217 18.5050606 -13.70347916 19.00965819 -19.41015625 17.1171875 C-23.37581312 15.28909885 -25.48460728 14.06000192 -27.125 9.875 C-27.61292535 6.05291811 -27.46278998 4.40581283 -25.375 1.125 C-18.39999449 -5.85000551 -7.87540061 -5.35527242 0 0 Z " fill="#6385FC" transform="translate(293.125,272.125)"/>
<path d="M0 0 C5.29231666 3.48518414 5.29231666 3.48518414 6.03125 6.7734375 C6.08939046 11.032226 6.00320437 13.07829102 3.4375 16.625 C-2.06645842 20.57349191 -6.44412047 21.06242534 -13.02734375 20.23828125 C-16.60076234 19.42166533 -18.64734182 18.04840308 -21.4375 15.6875 C-23.04180264 12.47889471 -22.91855318 9.1684543 -22.4375 5.6875 C-20.6950181 2.71882713 -19.22473348 1.17373244 -16.3125 -0.625 C-10.68717765 -1.97018578 -5.42698696 -2.0721223 0 0 Z " fill="#6780FC" transform="translate(277.4375,125.3125)"/>
</svg>
