<?xml version="1.0" encoding="UTF-8"?>
<svg version="1.1" xmlns="http://www.w3.org/2000/svg" width="512" height="512">
<path d="M0 0 C1.2572539 -0.00679667 1.2572539 -0.00679667 2.53990686 -0.01373065 C5.32926385 -0.02632133 8.11842425 -0.02475772 10.9078064 -0.02310181 C12.91580454 -0.0290905 14.92380038 -0.03589683 16.93179321 -0.04345703 C22.37424705 -0.06109227 27.81663795 -0.06581145 33.2591176 -0.0670886 C36.66441402 -0.06851248 40.06969456 -0.07278663 43.47498703 -0.07808304 C55.36959596 -0.0965771 67.26416013 -0.10475467 79.15878296 -0.10317993 C90.22184606 -0.10197961 101.28471374 -0.1230622 112.34772742 -0.15466726 C121.86481088 -0.18088062 131.38183073 -0.19154506 140.89894998 -0.19026911 C146.57455532 -0.18976085 152.24998701 -0.19536858 157.92555618 -0.21662521 C163.26906495 -0.23609219 168.61223596 -0.23607442 173.95575714 -0.22159195 C175.90753298 -0.21951303 177.85933044 -0.22414951 179.81106949 -0.23631287 C198.44947915 -0.34486538 212.73113811 2.76000224 227.31161499 15.26742554 C236.38937963 25.44882253 242.42604949 37.26590569 242.44304276 51.11499214 C242.4468839 52.29206801 242.45072505 53.46914387 242.45468259 54.6818887 C242.45381611 55.97107075 242.45294962 57.2602528 242.45205688 58.58850098 C242.45464154 59.9750352 242.45765499 61.36156867 242.46106029 62.74810112 C242.46912182 66.55790174 242.47091939 70.36768352 242.47165775 74.17749166 C242.4735098 78.28672382 242.48105794 82.39594622 242.48779297 86.50517273 C242.50137119 95.4908645 242.50740032 104.47655181 242.51180363 113.46225214 C242.51456713 119.07444382 242.5188047 124.68663379 242.5233078 130.29882431 C242.53550021 145.84127507 242.54579931 161.38372445 242.54918289 176.92617989 C242.54940246 177.92082209 242.54962202 178.91546429 242.54984824 179.94024717 C242.55006652 180.93725409 242.5502848 181.93426101 242.55050969 182.96148026 C242.55095316 184.98175629 242.55139972 187.00203232 242.55184937 189.02230835 C242.55207079 190.02443261 242.55229222 191.02655686 242.55252036 192.05904852 C242.5564672 208.29200138 242.57391788 224.52490931 242.59720889 240.75784482 C242.62093548 257.42913096 242.63338535 274.10039458 242.63455081 290.77169788 C242.63546688 300.12988855 242.64120195 309.48802069 242.65937042 318.84619522 C242.67478911 326.81605033 242.67988147 334.78582883 242.67163232 342.75569601 C242.66773197 346.81983601 242.66862524 350.88382182 242.68268967 354.94794273 C242.69546563 358.67392686 242.69419892 362.39964153 242.68209895 366.12562548 C242.6792295 368.10059512 242.69104971 370.07556959 242.70352101 372.05050194 C242.61696951 387.71580522 237.74474811 401.56876038 226.79598999 413.01351929 C217.21064614 421.70965671 205.31797652 427.3971956 192.33877563 427.38768005 C191.63707048 427.38853448 190.93536533 427.3893889 190.21239638 427.39026922 C187.8616542 427.39191604 185.51098341 427.38641571 183.1602478 427.38095093 C181.47495017 427.38066886 179.78965242 427.38082718 178.10435486 427.38139343 C173.52828064 427.38168063 168.95223257 427.37579633 164.37616444 427.36881948 C159.59421229 427.36257313 154.81225955 427.36198112 150.03030396 427.36079407 C140.97456854 427.35768454 131.91884518 427.34947623 122.86311507 427.33944458 C112.5536675 427.32827172 102.24421936 427.32277003 91.93476725 427.31774914 C70.7270431 427.30729332 49.5193298 427.28970117 28.31161499 427.26742554 C28.32732544 428.22407104 28.34303589 429.18071655 28.35922241 430.16635132 C28.41436909 433.78572852 28.44826602 437.40507041 28.47640991 441.02474976 C28.49130688 442.57819911 28.5116315 444.13160789 28.53793335 445.68490601 C28.84558755 464.34926097 26.1311822 480.82696442 12.90341187 495.02938843 C0.62654152 507.32056272 -14.148531 510.6376495 -30.97451782 510.68511963 C-32.85806347 510.68088263 -34.74160841 510.67632488 -36.62515259 510.67147827 C-38.63359455 510.67718834 -40.64203326 510.68415506 -42.65046692 510.692276 C-48.08038161 510.71015373 -53.51013421 510.70904895 -58.94006944 510.70333362 C-63.48497885 510.70023344 -68.0298575 510.70634354 -72.57476252 510.71237236 C-83.30382505 510.72639881 -94.03280792 510.72487243 -104.76187134 510.71347046 C-115.80285368 510.70199574 -126.84359293 510.71605848 -137.88454324 510.74286693 C-147.38895648 510.76507413 -156.89329369 510.77164987 -166.39773101 510.76579052 C-172.06322057 510.7624312 -177.72855442 510.76476752 -183.39402199 510.78204155 C-188.72527434 510.79758833 -194.05616869 510.79346972 -199.3874073 510.7747364 C-201.3343423 510.77107162 -203.28130427 510.77409674 -205.22821426 510.78462219 C-223.84607302 510.87752273 -238.12530632 507.75992432 -252.68838501 495.26742554 C-261.76614965 485.08602855 -267.80281951 473.26894538 -267.81981277 459.41985893 C-267.82365392 458.24278307 -267.82749506 457.0657072 -267.83145261 455.85296237 C-267.83058613 454.56378032 -267.82971964 453.27459827 -267.8288269 451.9463501 C-267.83141156 450.55981588 -267.83442501 449.1732824 -267.83783031 447.78674996 C-267.84589184 443.97694933 -267.84768941 440.16716756 -267.84842777 436.35735941 C-267.85027982 432.24812726 -267.85782796 428.13890485 -267.86456299 424.02967834 C-267.87814121 415.04398657 -267.88417034 406.05829926 -267.88857365 397.07259893 C-267.89133715 391.46040725 -267.89557472 385.84821729 -267.90007782 380.23602676 C-267.91227023 364.69357601 -267.92256933 349.15112663 -267.92595291 333.60867119 C-267.92617248 332.61402898 -267.92639204 331.61938678 -267.92661826 330.5946039 C-267.92683654 329.59759698 -267.92705482 328.60059006 -267.92727971 327.57337081 C-267.92772317 325.55309478 -267.92816974 323.53281875 -267.92861938 321.51254272 C-267.92884081 320.51041847 -267.92906224 319.50829421 -267.92929038 318.47580256 C-267.93323722 302.2428497 -267.9506879 286.00994176 -267.97397891 269.77700625 C-267.9977055 253.10572011 -268.01015537 236.43445649 -268.01132083 219.7631532 C-268.0122369 210.40496253 -268.01797197 201.04683038 -268.03614044 191.68865585 C-268.05155913 183.71880075 -268.05665149 175.74902225 -268.04840234 167.77915506 C-268.04450199 163.71501507 -268.04539526 159.65102925 -268.05945969 155.58690834 C-268.07223565 151.86092421 -268.07096894 148.13520955 -268.05886897 144.4092256 C-268.05599952 142.43425595 -268.06781973 140.45928149 -268.08029103 138.48434913 C-267.99373953 122.81904586 -263.12151813 108.9660907 -252.17276001 97.52133179 C-242.58741616 88.82519437 -230.69474654 83.13765548 -217.71554565 83.14717102 C-217.0138405 83.1463166 -216.31213535 83.14546217 -215.5891664 83.14458185 C-213.23842422 83.14293504 -210.88775343 83.14843536 -208.53701782 83.15390015 C-206.85172019 83.15418222 -205.16642244 83.1540239 -203.48112488 83.15345764 C-198.90505066 83.15317044 -194.32900259 83.15905474 -189.75293446 83.1660316 C-184.97098231 83.17227794 -180.18902957 83.17286995 -175.40707397 83.17405701 C-166.35133856 83.17716653 -157.2956152 83.18537484 -148.23988509 83.1954065 C-137.93043752 83.20657936 -127.62098938 83.21208105 -117.31153727 83.21710193 C-96.10381312 83.22755776 -74.89609982 83.2451499 -53.68838501 83.26742554 C-53.69885864 82.33059937 -53.70933228 81.39377319 -53.72012329 80.42855835 C-53.75456243 76.89484104 -53.77945536 73.36130654 -53.79824829 69.82748413 C-53.80819885 68.3089005 -53.82176417 66.79033547 -53.83926392 65.27182007 C-54.06062114 45.54498487 -51.38361489 30.11189766 -37.66104126 15.04086304 C-27.42772472 5.16961915 -14.10978429 -0.05685163 0 0 Z M-32.68838501 27.26742554 C-41.82873289 39.32042096 -42.10185998 51.39876043 -41.87588501 65.89242554 C-41.86080942 67.58121567 -41.84712611 69.27001884 -41.83486938 70.95883179 C-41.80209465 75.06202283 -41.75047219 79.16457763 -41.68838501 83.26742554 C-40.94266235 83.28724487 -40.1969397 83.30706421 -39.42861938 83.32748413 C-36.01488313 83.42336965 -32.60170622 83.53278995 -29.18838501 83.64242554 C-28.01533813 83.67336304 -26.84229126 83.70430054 -25.63369751 83.73617554 C-24.48643188 83.77484741 -23.33916626 83.81351929 -22.15713501 83.85336304 C-21.10977173 83.88478394 -20.06240845 83.91620483 -18.98330688 83.94857788 C-15.05042609 84.32916045 -11.50052126 85.23466999 -7.68838501 86.26742554 C-7.67380249 85.12676636 -7.65921997 83.98610718 -7.64419556 82.81088257 C-7.58631774 78.58757837 -7.50908524 74.36481328 -7.42593384 70.14193726 C-7.39263475 68.31259903 -7.36461844 66.48315683 -7.34194946 64.65365601 C-7.30849424 62.02706497 -7.25618538 59.40143113 -7.20010376 56.77523804 C-7.19051888 55.54391647 -7.19051888 55.54391647 -7.18074036 54.28771973 C-7.12075806 51.98275757 -7.12075806 51.98275757 -6.68838501 48.26742554 C-2.98754038 45.80019578 -0.18700895 45.99090584 4.09310913 46.02018738 C4.89393197 46.01777296 5.69475481 46.01535855 6.51984501 46.01287097 C9.21223587 46.00722019 11.90439092 46.01590747 14.59677124 46.02450562 C16.52335678 46.02343307 18.449942 46.02149481 20.37652588 46.01875305 C25.61608371 46.01389709 30.85555665 46.02156979 36.09510422 46.03170609 C41.57100074 46.04047467 47.04689452 46.03872938 52.52279663 46.03834534 C61.71966985 46.03928254 70.91651012 46.04797402 80.1133728 46.06161499 C90.75556169 46.07734109 101.39771447 46.08261312 112.03991413 46.08187944 C122.26532303 46.08126962 132.49072013 46.08637084 142.71612549 46.09467125 C147.0733245 46.09820728 151.43051935 46.10003496 155.78771973 46.10056496 C160.9159897 46.10156764 166.04422923 46.10765814 171.17248917 46.11773109 C173.05792174 46.12065822 174.94335782 46.12188103 176.82879257 46.12130356 C179.39593464 46.12081472 181.96299073 46.12645027 184.53012085 46.13371277 C185.65788232 46.13138987 185.65788232 46.13138987 186.80842686 46.12902004 C189.9176758 46.14361614 192.33801405 46.27622522 195.31161499 47.26742554 C196.34537712 50.36871194 196.43896391 52.49932005 196.44304276 55.75068665 C196.4468839 56.89736344 196.45072505 58.04404024 196.45468259 59.22546482 C196.45381611 60.49091098 196.45294962 61.75635714 196.45205688 63.06015015 C196.45463997 64.41353662 196.45765297 65.76692232 196.46106029 67.12030697 C196.46913983 70.84745712 196.47092038 74.57458802 196.47165775 78.30174589 C196.47350659 82.31815325 196.48105294 86.33455058 196.48779297 90.35095215 C196.50138234 99.13581835 196.5074016 107.92068 196.51180363 116.70555496 C196.51456433 122.18735094 196.5188013 127.66914516 196.5233078 133.15093994 C196.53549993 148.31930938 196.54580022 163.4876774 196.54918289 178.65605164 C196.54951224 180.1125763 196.54951224 180.1125763 196.54984824 181.5985257 C196.55006652 182.57189797 196.5502848 183.54527023 196.55050969 184.54813862 C196.55095316 186.52064832 196.55139973 188.49315802 196.55184937 190.46566772 C196.55218151 191.93332504 196.55218151 191.93332504 196.55252036 193.430632 C196.55647136 209.29729168 196.5739348 225.16390553 196.59720889 241.0305475 C196.62089428 257.30848743 196.63338341 273.58640432 196.63455081 289.86436176 C196.63546902 299.00882272 196.64125805 308.15322392 196.65937042 317.29766846 C196.67473333 325.08151847 196.67991442 332.86529024 196.67163232 340.64915252 C196.66771258 344.6231769 196.66871952 348.59704354 196.68268967 352.57104874 C196.69534952 356.20540938 196.6943016 359.83949245 196.68209895 363.47385228 C196.67919088 365.4190412 196.69113729 367.36423457 196.70352101 369.30938625 C196.69693117 370.45606305 196.69034132 371.60273985 196.68355179 372.78416443 C196.68414888 373.7777852 196.68474597 374.77140596 196.68536115 375.79513645 C196.31161499 378.26742554 196.31161499 378.26742554 194.97249454 380.0860818 C192.32040269 381.97245104 189.8988675 381.65395837 186.68681335 381.66615295 C186.01046394 381.67279978 185.33411453 381.67944661 184.63726968 381.68629485 C182.36621254 381.70497847 180.09567977 381.70231609 177.82455444 381.69979858 C176.19850924 381.70881251 174.57247086 381.71913881 172.94644165 381.73068237 C168.52732094 381.75832205 164.1083289 381.76754631 159.68913293 381.77353644 C155.07261546 381.78290203 150.4561948 381.80910389 145.83973694 381.83354187 C137.09565366 381.87726064 128.35158911 381.90577454 119.60742968 381.92886525 C109.65344319 381.95588815 99.69955382 381.99980141 89.74563658 382.04515398 C69.26766785 382.13807731 48.78970868 382.20749288 28.31161499 382.26742554 C28.31161499 393.48742554 28.31161499 404.70742554 28.31161499 416.26742554 C49.61769727 416.33524607 70.92369163 416.39046754 92.22985458 416.42286205 C102.12352117 416.43830573 112.01711574 416.4593473 121.91073608 416.4937439 C130.53786305 416.52372295 139.16493784 416.54301869 147.79211545 416.54969102 C152.35665173 416.55358891 156.92103877 416.56269699 161.48552704 416.58461571 C165.78976799 416.60511549 170.0937995 416.61123233 174.39808464 416.60674858 C175.97013681 416.60756779 177.54219665 416.61345259 179.11420631 416.62504196 C194.43649836 416.73237562 206.92540985 414.75665544 218.60067749 404.19711304 C230.0968857 392.18422131 231.62189066 377.7179796 231.5723114 361.77650452 C231.57613695 360.45799635 231.5799625 359.13948819 231.58390397 357.78102523 C231.59412422 354.15016789 231.59201752 350.51940995 231.58772337 346.88854468 C231.58524521 342.96136086 231.59428381 339.03420031 231.60176086 335.10702515 C231.61447987 327.42423775 231.61630504 319.74148535 231.6139606 312.0586892 C231.61217408 305.81049784 231.61393423 299.56231706 231.61818504 293.31412697 C231.61907783 291.97776321 231.61907783 291.97776321 231.61998865 290.61440221 C231.62120046 288.80422832 231.62241459 286.99405443 231.62363102 285.18388055 C231.63449586 268.22556314 231.63234912 251.26726564 231.62624618 234.30894712 C231.62107842 218.81558207 231.63233061 203.32227992 231.6513444 187.8289273 C231.6707449 171.89759069 231.67897489 155.96628379 231.67522115 140.0349353 C231.6733124 131.09983964 231.67576473 122.16479751 231.68993568 113.22971153 C231.70187871 105.62276498 231.70322175 98.01590489 231.69114552 90.40895709 C231.68527717 86.532755 231.68410033 82.65671084 231.69614792 78.78051949 C231.70707596 75.2229956 231.70382232 71.66576018 231.68988623 68.1082494 C231.68602586 66.23122595 231.69672961 64.35418935 231.70818311 62.47719687 C231.62893917 49.87315011 229.78455061 38.62195587 222.31161499 28.26742554 C221.58973999 27.21555054 220.86786499 26.16367554 220.12411499 25.07992554 C210.51041518 15.46622572 198.83587272 11.20007267 185.38640672 11.12435794 C184.66013808 11.12522442 183.93386943 11.1260909 183.18559265 11.12698364 C182.39586931 11.12401252 181.60614597 11.1210414 180.79249161 11.11798024 C178.16124121 11.10934804 175.5300366 11.10778966 172.89877319 11.10629272 C171.00590418 11.10166067 169.11303608 11.09663549 167.22016907 11.09124756 C162.08771048 11.07815897 156.95526495 11.07168554 151.82279229 11.0672369 C148.6123355 11.06430048 145.40188224 11.06019461 142.19142723 11.05573273 C132.13527643 11.04206719 122.07913375 11.03239589 112.02297431 11.02853084 C100.43567927 11.02405213 88.84850231 11.00650888 77.26124316 10.97753024 C68.29028564 10.95587757 59.31936125 10.94582464 50.34837788 10.94448972 C44.99701495 10.94344427 39.64576317 10.93759197 34.29442787 10.9196701 C29.25713763 10.90312734 24.22004135 10.90106394 19.18273354 10.90980911 C17.34138467 10.91057617 15.5000251 10.90628086 13.65870285 10.89635086 C-4.8622727 10.80238421 -19.52543838 13.22253943 -32.68838501 27.26742554 Z M3.31161499 57.26742554 C3.31161499 68.48742554 3.31161499 79.70742554 3.31161499 91.26742554 C7.27161499 94.89742554 11.23161499 98.52742554 15.31161499 102.26742554 C24.4249936 114.65592458 27.4534319 126.95803507 27.46983337 142.14460754 C27.47724034 143.6114072 27.47724034 143.6114072 27.48479694 145.10783917 C27.50012015 148.3751443 27.50851852 151.64242986 27.51693726 154.90975952 C27.52651985 157.25559154 27.53653015 159.60142185 27.54693604 161.94725037 C27.57394983 168.31025831 27.5949785 174.67327364 27.61493802 181.0363071 C27.63460194 187.01400982 27.65874216 192.99169377 27.68286025 198.96937979 C27.73047287 210.80626458 27.77375412 222.64316107 27.81430054 234.48007202 C27.85368773 245.9758495 27.89513277 257.47161656 27.93930054 268.96737671 C27.94205004 269.68366645 27.94479955 270.39995618 27.94763237 271.13795167 C27.97156841 277.36902553 27.99565997 283.60009879 28.01976681 289.83117199 C28.12329609 316.64323638 28.21661547 343.45532642 28.31161499 370.26742554 C80.12161499 370.26742554 131.93161499 370.26742554 185.31161499 370.26742554 C185.31161499 266.97742554 185.31161499 163.68742554 185.31161499 57.26742554 C125.25161499 57.26742554 65.19161499 57.26742554 3.31161499 57.26742554 Z M-246.68838501 109.26742554 C-255.74477497 121.67074222 -256.83941877 133.43635554 -256.8288269 148.39758301 C-256.83179803 149.7135279 -256.83476915 151.02947279 -256.83783031 152.3852948 C-256.84586008 156.02290369 -256.84768762 159.66049282 -256.84842777 163.29810953 C-256.85028536 167.22738576 -256.85783618 171.15665189 -256.86456299 175.08592224 C-256.87811794 183.67082407 -256.88416652 192.25572121 -256.88857365 200.84063196 C-256.89134073 206.20578643 -256.89557891 211.57093912 -256.90007782 216.93609238 C-256.9122665 231.80439961 -256.92256679 246.67270541 -256.92595291 261.54101753 C-256.92617248 262.49175313 -256.92639204 263.44248873 -256.92661826 264.42203449 C-256.92683654 265.37498146 -256.92705482 266.32792843 -256.92727971 267.30975258 C-256.92772317 269.24063055 -256.92816973 271.17150851 -256.92861938 273.10238647 C-256.92884081 274.06015869 -256.92906224 275.0179309 -256.92929038 276.00472651 C-256.93323688 291.51767848 -256.95068818 307.03058343 -256.97397891 322.54351725 C-256.9977239 338.48831496 -257.01015618 354.4330891 -257.01132083 370.37790477 C-257.01223579 379.32311051 -257.01794296 388.26825496 -257.03614044 397.21344376 C-257.05158392 404.83143648 -257.0566369 412.44934898 -257.04840234 420.0673544 C-257.0445109 423.94961571 -257.0453512 427.83171565 -257.05945969 431.71395683 C-257.07228956 435.27714483 -257.07092256 438.84005172 -257.05886897 442.40323983 C-257.05601719 444.28339392 -257.06777846 446.1635533 -257.08029103 448.04366791 C-257.00790991 460.65385489 -255.16497754 471.90782818 -247.68838501 482.26742554 C-246.96651001 483.31930054 -246.24463501 484.37117554 -245.50088501 485.45492554 C-235.8871852 495.06862535 -224.21264274 499.3347784 -210.76317674 499.41049314 C-210.0369081 499.40962665 -209.31063945 499.40876017 -208.56236267 499.40786743 C-207.77263933 499.41083855 -206.98291599 499.41380968 -206.16926163 499.41687083 C-203.53801123 499.42550303 -200.90680662 499.42706141 -198.27554321 499.42855835 C-196.38267419 499.4331904 -194.4898061 499.43821558 -192.59693909 499.44360352 C-187.4644805 499.45669211 -182.33203497 499.46316554 -177.19956231 499.46761417 C-173.98910552 499.47055059 -170.77865226 499.47465647 -167.56819725 499.47911835 C-157.51204645 499.49278388 -147.45590377 499.50245519 -137.39974433 499.50632024 C-125.81244929 499.51079895 -114.22527233 499.52834219 -102.63801318 499.55732083 C-93.66705566 499.5789735 -84.69613127 499.58902643 -75.7251479 499.59036136 C-70.37378497 499.5914068 -65.02253319 499.5972591 -59.67119789 499.61518097 C-54.63390765 499.63172374 -49.59681137 499.63378713 -44.55950356 499.62504196 C-42.71815469 499.62427491 -40.87679512 499.62857021 -39.03547287 499.63850021 C-21.91907074 499.72534073 -7.92534852 497.86770926 4.97958374 485.75570679 C14.82273889 475.25304375 16.76658471 463.42353525 16.69256592 449.49020386 C16.69602827 448.11513794 16.70079669 446.74007481 16.70674765 445.36501741 C16.71920812 441.61011642 16.71311005 437.85544576 16.703789 434.10054421 C16.69697841 430.0418523 16.70748966 425.98319893 16.71572876 421.92451477 C16.7290469 413.98289489 16.72619692 406.04136022 16.71749084 398.09973705 C16.71070714 391.64362762 16.70980054 385.18754202 16.71306229 378.73143005 C16.71352199 377.81147689 16.71398168 376.89152372 16.71445531 375.94369319 C16.71541452 374.07464484 16.71638716 372.20559649 16.71737309 370.33654815 C16.72592136 352.82324088 16.71610168 335.30998076 16.69997199 317.79668123 C16.68656932 302.7795815 16.68889757 287.76255135 16.70272827 272.74545288 C16.71879402 255.29348401 16.72509744 237.84155644 16.71589148 220.3895812 C16.71493586 218.52752782 16.71399275 216.66547442 16.71306229 214.80342102 C16.71236805 213.42928344 16.71236805 213.42928344 16.71165978 212.0273855 C16.70907288 205.58135216 16.71343442 199.13534507 16.72050095 192.6893158 C16.7289272 184.83043278 16.72661216 176.97163962 16.71065871 169.11276686 C16.70279113 165.10543094 16.69965849 161.09824467 16.70960617 157.09090996 C16.71858508 153.41820854 16.71356808 149.74579466 16.69767351 146.0731191 C16.69276699 144.12450064 16.70249357 142.17586202 16.71284521 140.22726488 C16.6231501 126.77038628 12.8470809 116.03489969 3.68661499 106.01742554 C-5.31171361 97.50176591 -16.94938091 93.94467465 -29.09324646 94.00672913 C-29.900864 94.00290358 -30.70848154 93.99907803 -31.54057235 93.99513656 C-34.22638551 93.98488007 -36.91198195 93.98878465 -39.59780884 93.99276733 C-41.53185726 93.98841675 -43.46590396 93.98323244 -45.39994812 93.97727966 C-50.63973478 93.96391471 -55.8794492 93.96330829 -61.11924958 93.96584296 C-65.50025373 93.96691452 -69.88124337 93.96202449 -74.2622444 93.95723754 C-84.60230041 93.94615069 -94.94232008 93.94570012 -105.28237915 93.95175171 C-115.93307687 93.95778949 -126.58364242 93.94548352 -137.2343176 93.92418164 C-146.39296998 93.90654052 -155.55158039 93.9005683 -164.71024913 93.90381938 C-170.17389724 93.90562861 -175.63745109 93.90303218 -181.10108376 93.88910484 C-186.24181252 93.87649052 -191.38233598 93.87850469 -196.52306175 93.89151573 C-198.4035283 93.89387334 -200.28400945 93.89117627 -202.16445923 93.88289261 C-219.57907923 93.81174522 -234.28692358 95.901406 -246.68838501 109.26742554 Z " fill="#4EA2DE" transform="translate(268.6883850097656,0.732574462890625)"/>
<path d="M0 0 C0.80984437 -0.0055344 1.61968874 -0.01106879 2.45407385 -0.0167709 C5.17122652 -0.03039829 7.88746395 -0.01539724 10.604599 -0.00050354 C12.55103954 -0.00428593 14.49747739 -0.00978531 16.44390869 -0.01687622 C21.73307487 -0.03085756 27.02191673 -0.01964261 32.31106496 -0.00316501 C37.84034445 0.01066557 43.36960473 0.00422777 48.89889526 0.0007019 C58.18398783 -0.00200157 67.46895123 0.01148799 76.75401306 0.03465271 C87.49795778 0.06127109 98.24168659 0.06300755 108.98565298 0.05126435 C119.31093304 0.04049632 129.63613478 0.04666546 139.96140862 0.06081963 C144.36049176 0.06658711 148.75951775 0.06649078 153.15860176 0.06175423 C158.33539144 0.05699225 163.51194378 0.06705373 168.68868828 0.08870888 C170.59185358 0.09428728 172.49504165 0.09473244 174.39820862 0.08975601 C176.98961534 0.08382827 179.58029022 0.09625948 182.17163086 0.11352539 C182.93057162 0.10751535 183.68951238 0.1015053 184.47145134 0.09531313 C189.52784648 0.15687477 189.52784648 0.15687477 191.71419191 1.67934316 C193.52618556 4.20294449 193.3994645 5.93693498 193.40264034 9.03131866 C193.41108028 10.18844565 193.41952022 11.34557263 193.42821592 12.53776407 C193.42220588 13.81488307 193.41619583 15.09200208 193.41000366 16.40782166 C193.41417419 17.77358613 193.41965015 19.13934714 193.42632347 20.50510168 C193.44083377 24.26652132 193.4365161 28.0277229 193.42915666 31.78915477 C193.42444106 35.84238821 193.43692049 39.89557336 193.44717407 43.9487915 C193.46439867 51.89235844 193.46519458 59.8358464 193.45996117 67.77942717 C193.4559253 74.23338158 193.45735607 80.68731259 193.46270943 87.14126587 C193.46345785 88.0586378 193.46420627 88.97600973 193.46497737 89.92118081 C193.46650879 91.78460603 193.46804714 93.64803123 193.46959234 95.51145643 C193.48333044 112.99876539 193.47787033 130.48602965 193.46640713 147.97333759 C193.45647169 163.98551738 193.46941845 179.99758166 193.49334132 196.00974363 C193.51769994 212.43685541 193.52734828 228.86391332 193.52068859 245.2910428 C193.51718937 254.51934957 193.5194747 263.74756744 193.53693962 272.9758606 C193.55162114 280.83110586 193.55235028 288.68619964 193.53486871 296.5414418 C193.52632303 300.55195693 193.52429543 304.56220101 193.53952026 308.57270241 C193.55327201 312.24045642 193.5487286 315.90770475 193.52928103 319.57542878 C193.52368881 321.53850893 193.53787148 323.50161422 193.55263513 325.46464682 C193.54282084 326.6217738 193.53300655 327.77890079 193.52289486 328.97109222 C193.52278752 329.97382628 193.52268019 330.97656034 193.5225696 332.00968027 C193.02232361 334.50120544 193.02232361 334.50120544 191.21241432 336.32341689 C187.94489461 338.08062599 184.74505259 337.91108171 181.12730408 337.87542725 C180.32633238 337.87940165 179.52536068 337.88337606 178.70011711 337.8874709 C176.01306851 337.89710432 173.32654504 337.88526958 170.63951111 337.8735199 C168.71439924 337.87594752 166.78928864 337.87966655 164.86418152 337.88458252 C159.63284454 337.8939992 154.40169441 337.8845595 149.17037201 337.87125039 C143.70028652 337.85994656 138.23021038 337.86404257 132.76011658 337.86599731 C123.57339927 337.86688063 114.3867557 337.85579209 105.20005798 337.83738708 C94.57318316 337.81621891 83.9464164 337.81270937 73.31952477 337.81894904 C63.10425258 337.82464035 52.88901852 337.81899978 42.67375183 337.8077755 C38.32295529 337.80312643 33.97218203 337.802257 29.62138367 337.80436134 C24.4996319 337.80624262 19.37799037 337.79815263 14.25626373 337.78230095 C12.37447821 337.77805224 10.49268152 337.77721148 8.61089325 337.77999115 C6.04625488 337.78320521 3.48194748 337.77415075 0.91734314 337.76190186 C0.16909712 337.76568118 -0.5791489 337.7694605 -1.35006905 337.77335435 C-8.00928597 337.71692393 -8.00928597 337.71692393 -10.97767639 335.50120544 C-12.01086396 332.40164273 -12.10604495 330.27026729 -12.11189747 327.02073765 C-12.11635531 325.87467755 -12.12081316 324.72861745 -12.12540609 323.54782826 C-12.12522172 322.28306422 -12.12503736 321.01830018 -12.12484741 319.71520996 C-12.12814625 318.36253597 -12.13187186 317.00986296 -12.13598889 315.65719122 C-12.14601428 311.93197401 -12.14972653 308.20677292 -12.1523782 304.48154414 C-12.1562795 300.46716096 -12.16585778 296.45279056 -12.17459106 292.43841553 C-12.19435754 282.74138462 -12.20442066 273.04435266 -12.21331885 263.34730664 C-12.21770034 258.78374692 -12.2230674 254.22018836 -12.22830772 249.65662956 C-12.24531809 234.49255266 -12.25981409 219.32847649 -12.26705647 204.16439152 C-12.26896643 200.22889263 -12.27088675 196.29339376 -12.27284241 192.3578949 C-12.27332615 191.379719 -12.27380989 190.4015431 -12.27430829 189.39372551 C-12.28261551 173.53419305 -12.30796493 157.67473585 -12.34042308 141.81523628 C-12.37345545 125.54294189 -12.39150165 109.27068581 -12.39470071 92.99835771 C-12.39686906 83.85775519 -12.40566534 74.7172625 -12.43116188 65.57669258 C-12.45281651 57.7954184 -12.46094514 50.01428073 -12.4511951 42.23297984 C-12.44663548 38.26080905 -12.44863246 34.28892024 -12.46795654 30.31678772 C-12.48548291 26.68292254 -12.48467729 23.04954722 -12.46905925 19.4156776 C-12.46553079 17.47320522 -12.48178758 15.53072831 -12.49866372 13.58832604 C-12.48579238 11.86532427 -12.48579238 11.86532427 -12.47266102 10.10751438 C-12.47363783 9.11427333 -12.47461464 8.12103229 -12.47562104 7.09769303 C-11.1582178 0.22821235 -5.99530444 -0.07609908 0 0 Z M0.02232361 12.50120544 C0.02232361 115.79120544 0.02232361 219.08120544 0.02232361 325.50120544 C60.08232361 325.50120544 120.14232361 325.50120544 182.02232361 325.50120544 C182.02232361 222.21120544 182.02232361 118.92120544 182.02232361 12.50120544 C121.96232361 12.50120544 61.90232361 12.50120544 0.02232361 12.50120544 Z " fill="#7678D0" transform="translate(57.97767639160156,128.49879455566406)"/>
<path d="M0 0 C3.1875 0.375 3.1875 0.375 5.19018555 2.56958008 C7.06348037 5.20080253 8.73229124 7.83220207 10.33203125 10.63671875 C10.91855469 11.65958984 11.50507813 12.68246094 12.109375 13.73632812 C12.73328125 14.83396484 13.3571875 15.93160156 14 17.0625 C14.66491412 18.22486717 15.33028737 19.38697181 15.99609375 20.54882812 C17.3775913 22.9604146 18.75711565 25.37311344 20.13525391 27.78662109 C23.30088557 33.32670959 26.49574641 38.84993541 29.6875 44.375 C30.92330887 46.51685105 32.15898517 48.65877859 33.39453125 50.80078125 C35.68999458 54.77962432 37.98573414 58.75830773 40.28182983 62.73678589 C41.31423478 64.52566918 42.34657956 66.31458717 43.37890625 68.10351562 C44.67435948 70.34837636 45.9699257 72.5931719 47.265625 74.83789062 C48.41189747 76.82434303 49.55337902 78.81357146 50.68896484 80.80615234 C51.59886719 82.36594258 52.53960547 83.90896916 53.53369141 85.41650391 C55.39505385 88.28375012 56.18076979 90.20429741 56.31640625 93.64453125 C54.70768048 98.96056278 52.01023085 103.3409302 49.125 108.0625 C47.84099797 110.21137387 46.55850612 112.36115066 45.27734375 114.51171875 C44.60558105 115.63368652 43.93381836 116.7556543 43.24169922 117.91162109 C40.14990408 123.1015314 37.17322962 128.3572064 34.19015503 133.6100769 C28.70154481 143.27140075 23.16205823 152.90247761 17.5625 162.5 C17.00691406 163.45261719 16.45132813 164.40523437 15.87890625 165.38671875 C14.32033474 168.05259653 12.75550201 170.71465967 11.1875 173.375 C10.6399707 174.30795898 10.09244141 175.24091797 9.52832031 176.20214844 C8.99561523 177.10223633 8.46291016 178.00232422 7.9140625 178.9296875 C7.43791504 179.73647949 6.96176758 180.54327148 6.47119141 181.37451172 C5.1875 183.375 5.1875 183.375 3.1875 185.375 C0.3125 185.8125 0.3125 185.8125 -2.8125 185.375 C-5.80704134 182.09982399 -8.00098776 178.52904082 -10.17578125 174.67578125 C-10.80750244 173.56251465 -11.43922363 172.44924805 -12.09008789 171.30224609 C-12.42122589 170.71401062 -12.75236389 170.12577515 -13.09353638 169.51971436 C-14.50745436 167.00813685 -15.9310265 164.50207484 -17.35386658 161.99554443 C-18.08977543 160.69883464 -18.82517376 159.40183499 -19.56007385 158.10455322 C-23.13207832 151.80063771 -26.74878118 145.52287263 -30.375 139.25 C-31.60026274 137.12890759 -32.82552315 135.00781384 -34.05078125 132.88671875 C-34.66131348 131.8301709 -35.2718457 130.77362305 -35.90087891 129.68505859 C-37.92935142 126.17266647 -39.95526619 122.65880929 -41.98046875 119.14453125 C-42.67048299 117.94742346 -43.36050568 116.75032054 -44.05053711 115.55322266 C-45.36030755 113.28097028 -46.66965172 111.0084741 -47.97875977 108.73583984 C-48.56842529 107.71312988 -49.15809082 106.69041992 -49.765625 105.63671875 C-50.28286133 104.73912842 -50.80009766 103.84153809 -51.33300781 102.91674805 C-52.35058803 101.16855867 -53.40776361 99.44301291 -54.49658203 97.73828125 C-55.96992582 95.09227607 -56.14640071 93.45162984 -55.54785156 90.48681641 C-53.81358569 85.50627198 -50.89032265 81.06362571 -48.1875 76.5625 C-47.5072446 75.41022395 -46.8282308 74.25721411 -46.15039062 73.10351562 C-44.74273797 70.70986256 -43.32982301 68.31943892 -41.91308594 65.93115234 C-38.66264683 60.44153429 -35.49216011 54.90579647 -32.3125 49.375 C-31.07448966 47.23031235 -29.83620688 45.08578194 -28.59765625 42.94140625 C-26.31530287 38.98616112 -24.03871561 35.02771854 -21.76974487 31.06478882 C-20.75372816 29.29067455 -19.73643072 27.51730081 -18.71875 25.74414062 C-17.44667708 23.52684686 -16.17697715 21.30818925 -14.91015625 19.08789062 C-4.27443903 0.5699252 -4.27443903 0.5699252 0 0 Z M-0.8125 18.375 C-1.1842334 19.04329834 -1.5559668 19.71159668 -1.93896484 20.40014648 C-14.58197997 43.10887181 -14.58197997 43.10887181 -20.89624023 53.74291992 C-25.57941929 61.63796734 -30.1464298 69.60006132 -34.72436523 77.55639648 C-35.6477771 79.16043335 -35.6477771 79.16043335 -36.58984375 80.796875 C-37.13890381 81.75174805 -37.68796387 82.70662109 -38.25366211 83.69042969 C-39.29833718 85.48952868 -40.40801011 87.25231621 -41.57641602 88.97363281 C-42.99811987 91.22306977 -42.99811987 91.22306977 -42.66674805 93.37402344 C-41.62736698 95.80865253 -40.44452428 98.08302565 -39.14453125 100.390625 C-38.58822021 101.3820752 -38.03190918 102.37352539 -37.45874023 103.39501953 C-36.85360596 104.46091309 -36.24847168 105.52680664 -35.625 106.625 C-34.68539429 108.29151611 -34.68539429 108.29151611 -33.72680664 109.99169922 C-28.90370778 118.51907786 -23.98337898 126.98846489 -19.02612305 135.43847656 C-12.82953838 146.01309253 -6.81090486 156.68704282 -0.8125 167.375 C-0.1525 167.375 0.5075 167.375 1.1875 167.375 C1.53828613 166.74335938 1.88907227 166.11171875 2.25048828 165.4609375 C8.79752032 153.68603569 15.3882246 141.9439344 22.1875 130.3125 C22.75299561 129.34207764 23.31849121 128.37165527 23.90112305 127.37182617 C26.96528934 122.12633024 30.06859394 116.90764562 33.21484375 111.7109375 C33.86904297 110.61918213 34.52324219 109.52742676 35.19726562 108.40258789 C36.45597199 106.30330926 37.7263305 104.21096107 39.00976562 102.12670898 C39.57244141 101.18384033 40.13511719 100.24097168 40.71484375 99.26953125 C41.21749756 98.44300049 41.72015137 97.61646973 42.23803711 96.76489258 C43.42747424 93.77096095 43.18472807 92.41335032 42.1875 89.375 C41.04001119 86.96349653 41.04001119 86.96349653 39.5546875 84.55078125 C38.72783447 83.15146362 38.72783447 83.15146362 37.88427734 81.72387695 C37.28309082 80.72187256 36.6819043 79.71986816 36.0625 78.6875 C34.78055041 76.52124719 33.49932511 74.35456562 32.21875 72.1875 C31.55359375 71.06601562 30.8884375 69.94453125 30.203125 68.7890625 C26.94960203 63.27825033 23.75540106 57.73358777 20.5625 52.1875 C19.94415283 51.11491943 19.32580566 50.04233887 18.6887207 48.93725586 C12.82786559 38.76533914 7.00044453 28.57435928 1.1875 18.375 C0.5275 18.375 -0.1325 18.375 -0.8125 18.375 Z " fill="#7579D1" transform="translate(149.8125,204.625)"/>
<path d="M0 0 C4.6136301 2.32143365 6.67515047 8.15933535 8.98876953 12.53173828 C9.64115344 13.72020596 10.29622669 14.90720099 10.95385742 16.09277344 C12.30362307 18.53000259 13.64245365 20.97276137 14.97412109 23.41992188 C17.82200723 28.62851412 20.84735707 33.73204893 23.86376953 38.84423828 C29.79359262 48.97091767 35.62383734 59.15309431 41.42211914 69.35546875 C42.05255127 70.46293457 42.6829834 71.57040039 43.33251953 72.71142578 C43.93451172 73.77458008 44.53650391 74.83773437 45.15673828 75.93310547 C46.30421847 77.90193324 47.49249853 79.84775301 48.72705078 81.76318359 C49.55269531 83.04467285 49.55269531 83.04467285 50.39501953 84.35205078 C50.88421875 85.08053223 51.37341797 85.80901367 51.87744141 86.55957031 C53.32963217 89.89595831 53.2730464 92.36044533 52.92626953 95.96923828 C51.69555664 98.92163086 51.69555664 98.92163086 49.95361328 101.86376953 C49.30900146 102.97059082 48.66438965 104.07741211 48.00024414 105.21777344 C47.28827756 106.40587657 46.57611414 107.59386176 45.86376953 108.78173828 C45.13122188 110.02873702 44.40020697 111.27663732 43.6706543 112.52539062 C42.16794286 115.09347512 40.65767351 117.6568674 39.14111328 120.21679688 C36.45457566 124.75790175 33.82426503 129.33085053 31.19580078 133.90576172 C29.36152883 137.09813801 27.51972813 140.28606574 25.67626953 143.47314453 C23.40596815 147.40126884 21.14238464 151.33308926 18.88804626 155.27038574 C17.87123422 157.04604643 16.85315441 158.82097437 15.8347168 160.59570312 C14.56189714 162.8146631 13.29138502 165.03494903 12.02368164 167.25683594 C9.33522039 171.93764901 6.60793286 176.58938313 3.71142578 181.14501953 C3.03092163 182.21683472 3.03092163 182.21683472 2.33666992 183.31030273 C0.92626953 184.96923828 0.92626953 184.96923828 -2.57373047 186.09423828 C-6.47543878 184.84011775 -6.8248604 184.35087263 -8.91748047 181.05908203 C-9.43632812 180.24310547 -9.95517578 179.42712891 -10.48974609 178.58642578 C-13.11635792 174.24652462 -15.611551 169.8415838 -18.07373047 165.40673828 C-22.60314115 157.31985704 -27.19787236 149.27752236 -31.88623047 141.28173828 C-37.94366621 130.94497568 -43.90437543 120.55537855 -49.83276367 110.14428711 C-50.4730249 109.02046631 -51.11328613 107.89664551 -51.77294922 106.73876953 C-52.33844482 105.74466064 -52.90394043 104.75055176 -53.48657227 103.72631836 C-54.53886468 101.89836294 -55.62424125 100.08903306 -56.74267578 98.30078125 C-58.7411095 94.80022329 -58.68555567 92.98809008 -58.07373047 88.96923828 C-56.19167598 84.84653113 -53.8642312 81.0253483 -51.51123047 77.15673828 C-50.82602272 76.00470194 -50.14245798 74.85168694 -49.46044922 73.69775391 C-48.04343497 71.30312982 -46.61947066 68.91285546 -45.19042969 66.52539062 C-41.91825003 61.04530472 -38.75177162 55.50424227 -35.57373047 49.96923828 C-34.33591487 47.82313631 -33.09763098 45.67730436 -31.85888672 43.53173828 C-29.58109763 39.58380836 -27.30493603 35.63495009 -25.03097534 31.68481445 C-24.01425849 29.91878306 -22.99717389 28.15296397 -21.97998047 26.38720703 C-20.70972174 24.18189673 -19.44014029 21.97619612 -18.17138672 19.77001953 C-16.47883294 16.83249842 -14.77834057 13.89977696 -13.07373047 10.96923828 C-12.51443848 10.00115234 -11.95514648 9.03306641 -11.37890625 8.03564453 C-10.8463623 7.12685547 -10.31381836 6.21806641 -9.76513672 5.28173828 C-9.29406494 4.47349609 -8.82299316 3.66525391 -8.33764648 2.83251953 C-6.19901495 -0.32027858 -3.70019136 -0.618451 0 0 Z M-3.07373047 17.96923828 C-3.99346478 19.38811322 -4.85998655 20.84146149 -5.70654297 22.30517578 C-6.25761719 23.25392578 -6.80869141 24.20267578 -7.37646484 25.18017578 C-7.9778125 26.22431641 -8.57916016 27.26845703 -9.19873047 28.34423828 C-10.13555664 29.96072266 -10.13555664 29.96072266 -11.09130859 31.60986328 C-12.75632601 34.4850479 -14.4180059 37.36209624 -16.07727051 40.24060059 C-18.28776019 44.07531141 -20.50071625 47.90859965 -22.71484375 51.74121094 C-23.95594864 53.89643669 -25.19129181 56.05499047 -26.42089844 58.21679688 C-29.58857016 63.76793115 -32.84419048 69.22215381 -36.30810547 74.59423828 C-37.3184082 76.20105469 -37.3184082 76.20105469 -38.34912109 77.84033203 C-39.63278562 79.87438799 -40.94785964 81.88907257 -42.29833984 83.87939453 C-45.50426625 88.83549693 -45.50426625 88.83549693 -45.53198242 94.49316406 C-44.23938605 97.15906219 -42.73739557 99.5187754 -41.07373047 101.96923828 C-40.06826316 103.71125735 -39.07236857 105.45883195 -38.08544922 107.21142578 C-36.98009341 109.09063081 -35.87188616 110.96816074 -34.76123047 112.84423828 C-29.34490482 122.05970661 -23.99380127 131.30873194 -18.69873047 140.59423828 C-17.73713013 142.28009033 -17.73713013 142.28009033 -16.75610352 144 C-15.50652497 146.19171727 -14.25725102 148.38360822 -13.00830078 150.57568359 C-9.7015531 156.3762632 -6.3874699 162.17265091 -3.07373047 167.96923828 C-0.78622087 165.03948606 1.12605745 162.02923463 2.97314453 158.80517578 C3.56321289 157.77851807 4.15328125 156.75186035 4.76123047 155.6940918 C5.39319336 154.58864014 6.02515625 153.48318848 6.67626953 152.34423828 C7.34298306 151.1825386 8.00998011 150.02100159 8.67724609 148.85961914 C10.06604744 146.4418761 11.45362099 144.0234347 12.84033203 141.60449219 C15.47999722 137.00180623 18.13068638 132.40550699 20.78588867 127.81176758 C22.04141667 125.63328137 23.29066143 123.45116129 24.53344727 121.26538086 C27.39796468 116.24280702 30.31501071 111.31165636 33.52392578 106.50048828 C34.06887695 105.65542725 34.61382812 104.81036621 35.17529297 103.93969727 C36.1811312 102.39057445 37.22263793 100.86374363 38.30615234 99.36791992 C39.7271067 97.13846449 40.54782427 95.59128215 40.92626953 92.96923828 C39.57242778 88.8928871 37.26966886 85.54401204 34.92626953 81.96923828 C33.81184241 79.99612469 32.7129808 78.01414332 31.62939453 76.02392578 C25.30971097 64.69824666 18.92970476 53.42004533 12.29345703 42.27685547 C10.67046155 39.53747096 9.06389079 36.7887155 7.45751953 34.03955078 C6.25960978 31.9952759 5.06169317 29.95100503 3.86376953 27.90673828 C3.29070068 26.92294189 2.71763184 25.93914551 2.12719727 24.92553711 C1.59553955 24.02085693 1.06388184 23.11617676 0.51611328 22.18408203 C-0.19750366 20.96386353 -0.19750366 20.96386353 -0.92553711 19.71899414 C-1.30444092 19.14157471 -1.68334473 18.56415527 -2.07373047 17.96923828 C-2.40373047 17.96923828 -2.73373047 17.96923828 -3.07373047 17.96923828 Z " fill="#3CB4E4" transform="translate(367.07373046875,122.03076171875)"/>
</svg>
