<?xml version="1.0" encoding="UTF-8"?>
<svg version="1.1" xmlns="http://www.w3.org/2000/svg" width="512" height="512">
<path d="M0 0 C4.09260924 2.04630462 6.42392062 3.71361585 8 8 C8.21576391 10.66187391 8.32784562 13.21644007 8.3359375 15.87890625 C8.3425943 16.64621567 8.3492511 17.41352509 8.35610962 18.2040863 C8.36622296 19.82882296 8.37092705 21.45360104 8.37060547 23.07836914 C8.37494283 25.53018546 8.41117279 27.9801469 8.44921875 30.43164062 C8.54841734 44.1328236 6.14398744 54.56235916 -3.625 64.68359375 C-11.04875115 71.57462201 -18.84420503 73.42903805 -28.765625 74.41015625 C-32.80923651 75.14757816 -35.7526049 76.46910601 -38.375 79.6875 C-39.31955108 83.18233901 -39.31924321 86.60576622 -38 90 C-35.79058618 92.5493508 -33.96315992 93.85117746 -30.59623146 94.371418 C-27.47250397 94.51986942 -24.37065503 94.53692657 -21.2434082 94.51416016 C-20.05239502 94.52128525 -18.86138184 94.52841034 -17.63427734 94.53575134 C-14.3708915 94.55173657 -11.10805749 94.55024364 -7.84466195 94.54164171 C-4.41103798 94.53730876 -0.97755989 94.5571215 2.45600891 94.57479858 C8.97574704 94.60506328 15.49536357 94.61675135 22.0151661 94.62037504 C33.63705431 94.6270007 45.25885381 94.65653344 56.88063937 94.7054714 C60.28718874 94.71911746 63.69361629 94.72799481 67.10019493 94.72560501 C103.75252999 94.70636026 103.75252999 94.70636026 119.6875 99.25 C120.47092773 99.46615967 121.25435547 99.68231934 122.06152344 99.9050293 C139.48122641 104.86868907 155.79828632 112.7156141 170 124 C171.03769531 124.81082031 172.07539063 125.62164062 173.14453125 126.45703125 C200.90740952 148.67975574 219.30586145 183.24239464 223.58984375 218.44921875 C227.1026152 253.18413134 216.97920286 289.37468656 195.08203125 316.72265625 C192.162355 320.2488766 189.1158537 323.64675771 186 327 C185.30970703 327.74805908 185.30970703 327.74805908 184.60546875 328.51123047 C162.01768205 352.73451613 129.05300518 370.13666044 95.69238281 372.20507812 C92.22958332 372.30279029 88.7766174 372.32898442 85.3125 372.3125 C84.08370117 372.30758545 82.85490234 372.3026709 81.58886719 372.29760742 C47.68216455 371.86250562 17.58177862 357.64080192 -8 336 C-8.56323975 335.30269775 -9.12647949 334.60539551 -9.70678711 333.88696289 C-12.84804135 331.30219189 -15.68142174 331.37059305 -19.58203125 331.36328125 C-20.31443527 331.35233932 -21.04683929 331.3413974 -21.80143738 331.3301239 C-23.3487547 331.31428612 -24.89621218 331.30905455 -26.44360352 331.3137207 C-28.79619086 331.3125084 -31.14251058 331.25281081 -33.49414062 331.18945312 C-41.24610456 330.93355882 -41.24610456 330.93355882 -48.40136719 333.42236328 C-50.13025919 335.18437399 -51.5441059 337.01051302 -53 339 C-80.39641981 363.80297682 -116.83124776 372.36085314 -152.72998047 371.1640625 C-188.28214786 369.38034916 -222.15598712 353.37339615 -246.375 327.4375 C-271.76268289 298.44640405 -282.26126957 261.04831835 -280 223 C-277.53244535 192.91705956 -266.94110211 163.94541128 -247 141 C-245.89591797 139.67935547 -245.89591797 139.67935547 -244.76953125 138.33203125 C-221.25481549 111.13474989 -186.23915021 97.61416099 -151 95 C-147.24874065 94.82873387 -143.50482091 94.77063088 -139.75 94.75 C-138.79609375 94.729375 -137.8421875 94.70875 -136.859375 94.6875 C-131.47554198 94.65758982 -127.62594018 94.92090417 -123 98 C-119.28809379 102.10263318 -118.35064795 105.44085808 -118.61328125 110.8203125 C-119.39486787 115.22561888 -121.67660849 117.95792092 -125.11328125 120.6640625 C-128.95905524 122.44383883 -132.36954068 122.19172881 -136.5 122 C-166.99312083 121.34912344 -196.24602715 131.73508229 -218.6328125 152.72631836 C-241.1097006 174.31965773 -253.52635602 200.78178129 -254.3125 232.125 C-253.80179898 262.57554852 -243.1904061 289.11610634 -222.25 311.1875 C-201.52646885 331.13511111 -173.61294836 342.54433331 -145 344 C-144.30261719 344.04125 -143.60523438 344.0825 -142.88671875 344.125 C-116.01607412 344.93466161 -90.01556395 334.59989244 -70 317 C-67.32918244 314.40907869 -64.71190926 311.77992517 -62.12890625 309.1015625 C-57.59593843 304.62681629 -53.49393346 303.89263237 -47.33666992 303.83886719 C-46.44191452 303.82925964 -45.54715912 303.8196521 -44.62528992 303.80975342 C-43.66999893 303.80550354 -42.71470795 303.80125366 -41.73046875 303.796875 C-40.23801384 303.78832489 -40.23801384 303.78832489 -38.71540833 303.77960205 C-36.61326148 303.77017211 -34.51109999 303.76362605 -32.40893555 303.75976562 C-29.20920767 303.75006581 -26.01012402 303.71902535 -22.81054688 303.6875 C-20.76302463 303.6809686 -18.71549781 303.67571867 -16.66796875 303.671875 C-15.71875046 303.6595282 -14.76953217 303.6471814 -13.79154968 303.63446045 C-6.47141857 303.65875612 -0.72455978 304.59661349 4.94921875 309.6015625 C5.87145703 310.60070922 6.78395787 311.60891475 7.6875 312.625 C26.34855086 332.28511286 53.12255563 342.27116621 79.7734375 344.28515625 C106.09271984 344.94171102 134.60005882 337.04066943 155 320 C155.98484375 319.17757813 156.9696875 318.35515625 157.984375 317.5078125 C180.07699073 298.45143964 192.20783239 271.43581249 194.66064453 242.50537109 C196.5455723 214.51025419 189.28061458 184.76766823 171 163 C170.27941406 162.14148438 169.55882812 161.28296875 168.81640625 160.3984375 C149.15188926 137.83706792 122.50661902 125.74558785 93 123 C83.96098199 122.52195544 74.9053831 122.59979805 65.8566308 122.62561536 C62.38874515 122.6312198 58.92095045 122.61654497 55.45309448 122.60325623 C45.18792227 122.56744957 34.92276098 122.5608304 24.65753174 122.56335449 C16.64412398 122.56507309 8.63094389 122.55777595 0.61759937 122.52337593 C-2.8171799 122.50945193 -6.25157608 122.50333448 -9.68636703 122.51642036 C-13.51366794 122.52827536 -17.34021647 122.51574594 -21.16748047 122.49829102 C-22.27843582 122.50803452 -23.38939117 122.51777802 -24.53401184 122.52781677 C-35.33651069 122.43012261 -45.72386131 120.1710508 -54.06640625 112.9765625 C-62.07543145 104.78955897 -65.08219249 95.87503266 -65.4375 84.5625 C-65.19177038 72.97810351 -61.24946823 63.93553858 -52.9375 55.875 C-46.26902378 50.16538964 -39.19367466 48.22952195 -30.625 47.0625 C-26.61000161 46.47405017 -25.15986455 46.11911476 -21.8125 43.625 C-18.92806473 39.44754203 -18.87121734 35.92852255 -18.7890625 30.9140625 C-18.76070313 29.73585938 -18.73234375 28.55765625 -18.703125 27.34375 C-18.65120892 24.87254462 -18.60688831 22.40116753 -18.5703125 19.9296875 C-18.539375 18.74890625 -18.5084375 17.568125 -18.4765625 16.3515625 C-18.45674316 15.27729004 -18.43692383 14.20301758 -18.41650391 13.09619141 C-17.79182107 8.45244712 -15.98779167 5.13745708 -12.9375 1.625 C-8.63418993 -0.75555451 -4.81083427 -0.76973348 0 0 Z " fill="#FCFDFF" transform="translate(284,70)"/>
<path d="M0 0 C4.79765866 2.39882933 7.565249 5.22414226 10 10 C10.83231593 15.82621152 9.40564058 18.36998161 6 23 C4.31194399 24.84299995 2.57440618 26.64157529 0.796875 28.3984375 C0.0728952 29.11817245 0.0728952 29.11817245 -0.66571045 29.85244751 C-2.18912479 31.36478056 -3.71938455 32.86995915 -5.25 34.375 C-6.29212993 35.40708452 -7.33380105 36.43963254 -8.375 37.47265625 C-10.91138979 39.98714596 -13.45396326 42.49527439 -16 45 C-12.63518225 49.09606082 -9.15497331 52.88799045 -5.328125 56.55859375 C-4.49925781 57.35716797 -3.67039062 58.15574219 -2.81640625 58.97851562 C-1.09924554 60.62380127 0.62744127 62.25919948 2.36328125 63.88476562 C7.36459647 68.74128533 10.24421602 71.97120902 11 79 C10.39226073 83.48207712 9.45044555 85.49462207 6.4375 88.875 C2.72719189 91.59890913 -1.44455732 92.64869504 -6 92 C-13.53728473 88.80672288 -18.82034284 82.51155943 -24.4375 76.75 C-25.46479014 75.7076384 -26.49277928 74.66596521 -27.52148438 73.625 C-30.02244018 71.09122798 -32.51377886 68.5482415 -35 66 C-38.84612073 67.57859826 -41.24153346 70.02655255 -44.1328125 72.97265625 C-44.61072235 73.45576767 -45.0886322 73.93887909 -45.58102417 74.43663025 C-47.10053614 75.97389041 -48.6131639 77.51769326 -50.125 79.0625 C-51.64484559 80.60997477 -53.16613419 82.15595926 -54.69039917 83.69908142 C-56.06918742 85.09570801 -57.44316065 86.49708323 -58.81689453 87.89868164 C-62.53939962 91.48172808 -65.45730069 91.33569205 -70.453125 91.28515625 C-74.16066516 90.87004823 -76.25861356 89.4672478 -79 87 C-80.8477976 84.00529355 -81.32046208 81.6263342 -81.375 78.125 C-81.40335937 77.30257812 -81.43171875 76.48015625 -81.4609375 75.6328125 C-80.45779604 69.9030045 -76.02128539 65.77712337 -72.015625 61.8203125 C-71.08105469 60.8921875 -70.14648438 59.9640625 -69.18359375 59.0078125 C-68.20583907 58.04676317 -67.22797312 57.08582704 -66.25 56.125 C-65.25604673 55.1410932 -64.26255278 54.15672217 -63.26953125 53.171875 C-60.85082573 50.77665206 -58.42756562 48.38623724 -56 46 C-61.12177977 39.83936867 -66.68423735 34.27282343 -72.4296875 28.69726562 C-73.11804688 28.01986328 -73.80640625 27.34246094 -74.515625 26.64453125 C-75.44810059 25.73731323 -75.44810059 25.73731323 -76.39941406 24.81176758 C-79.89737978 20.85227954 -80.44780861 17.39172714 -80.3125 12.25 C-79.81407003 8.66130423 -78.4031417 6.65610399 -76 4 C-72.55112962 1.51360508 -69.80555481 0.7382865 -65.625 0.875 C-61.96606189 1.49642783 -59.96983951 2.54543321 -57.2421875 5.04296875 C-56.55302246 5.67235352 -55.86385742 6.30173828 -55.15380859 6.95019531 C-51.54213042 10.38747143 -48.00429009 13.89102864 -44.5 17.4375 C-43.77296875 18.16904297 -43.0459375 18.90058594 -42.296875 19.65429688 C-40.52890501 21.43389824 -38.76333622 23.21580918 -37 25 C-33.38260501 23.47767317 -31.13089144 21.33629901 -28.41015625 18.53515625 C-27.54326172 17.65279297 -26.67636719 16.77042969 -25.78320312 15.86132812 C-23.97325123 13.99940345 -22.16335516 12.13742452 -20.35351562 10.27539062 C-19.48533203 9.39173828 -18.61714844 8.50808594 -17.72265625 7.59765625 C-16.93640869 6.78820557 -16.15016113 5.97875488 -15.34008789 5.14477539 C-10.60562372 0.80546733 -6.48776519 -1.13440295 0 0 Z " fill="#FCFDFF" transform="translate(162,253)"/>
<path d="M0 0 C4.12593192 2.87855716 7.06537651 6.00862953 8.6875 10.875 C9.1954081 17.09687421 9.44104356 22.62003901 5.6875 27.875 C1.28436155 32.18420483 -1.83898997 34.04062523 -8 34.1875 C-13.77902333 34.11829014 -16.81582429 33.52854902 -21.3125 29.875 C-25.72774245 24.55406679 -25.925891 19.72204997 -25.69921875 12.90625 C-25.01789013 7.56573473 -22.61565188 5.05101511 -18.75 1.5625 C-13.18735089 -2.28856477 -6.24876225 -2.12222114 0 0 Z " fill="#FCFDFF" transform="translate(381.3125,239.125)"/>
<path d="M0 0 C4.09862255 3.49882413 6.31073576 6.36443864 6.80078125 11.859375 C6.96314878 18.59335486 6.79953718 22.83545303 2.5625 28.1875 C-1.71718039 31.88358761 -5.81916598 33.27182772 -11.4375 33.1875 C-15.88512414 32.72711746 -18.73061802 31.75300559 -22.25 28.9375 C-26.68754338 23.35887403 -28.05816019 19.02986103 -27.85546875 11.9453125 C-27.01406844 6.39364315 -24.29389302 2.59111424 -19.875 -0.75 C-13.19629875 -3.66122875 -6.46200056 -3.40723666 0 0 Z " fill="#FCFDFF" transform="translate(426.4375,283.8125)"/>
<path d="M0 0 C4.40956955 2.55722249 7.08280661 5.08787039 8.5390625 10.09375 C9.14045052 15.55952974 9.49767404 21.06239378 6.9765625 26.09375 C3.29061314 30.63030306 0.37246996 32.75906563 -5.37109375 33.4375 C-11.04740748 33.6063123 -15.71777778 33.5325408 -20.4609375 30.09375 C-24.31307734 26.13460628 -26.41383054 22.30225757 -26.49609375 16.69921875 C-26.15383458 11.13124647 -25.17824574 7.44831108 -21.4609375 3.09375 C-15.69032178 -1.97739715 -7.13200225 -2.62638813 0 0 Z " fill="#FCFDFF" transform="translate(381.4609375,325.90625)"/>
<path d="M0 0 C4.0468403 3.35009657 5.65457778 7.06996183 6.41015625 12.265625 C6.73803236 17.74704104 5.90217578 21.69719148 2.671875 26.1796875 C-1.31892977 30.38359349 -5.82522165 32.07103206 -11.5625 32.3125 C-17.18397581 32.01307431 -20.5740802 30.14545936 -24.6875 26.3125 C-27.75533016 22.28846304 -28.75670637 17.87695698 -28.9375 12.875 C-28.2664551 8.0556775 -26.77571042 4.23180861 -23.125 0.9375 C-15.85419078 -3.76714126 -7.58660816 -4.87021668 0 0 Z " fill="#FCFDFF" transform="translate(340.9375,284.125)"/>
</svg>
