<svg width="39" height="39" viewBox="0 0 39 39" fill="none" xmlns="http://www.w3.org/2000/svg">
<path d="M13.1406 30.5938C13.1406 30.75 12.9844 30.8281 12.75 30.8281C12.5156 30.9062 12.3594 30.75 12.3594 30.5938C12.3594 30.4375 12.5156 30.2812 12.75 30.2812C12.9844 30.2812 13.1406 30.4375 13.1406 30.5938ZM10.7188 30.2031C10.7969 30.0469 11.0312 29.9688 11.2656 30.0469C11.5 30.125 11.5781 30.2812 11.5781 30.4375C11.5 30.5938 11.2656 30.6719 11.1094 30.5938C10.875 30.5938 10.7188 30.3594 10.7188 30.2031ZM14.2344 30.125C14.3906 30.0469 14.625 30.2031 14.625 30.3594C14.7031 30.5156 14.5469 30.5938 14.3125 30.6719C14.0781 30.75 13.8438 30.6719 13.8438 30.5156C13.8438 30.2812 14 30.125 14.2344 30.125ZM19.3125 0.125C30.1719 0.125 39 8.40625 39 19.1875C39 27.8594 33.6875 35.2812 25.875 37.8594C24.8594 38.0938 24.4688 37.4688 24.4688 36.9219C24.4688 36.2969 24.5469 33.0156 24.5469 30.4375C24.5469 28.5625 23.9219 27.3906 23.2188 26.7656C27.5938 26.2969 32.2031 25.6719 32.2031 18.1719C32.2031 15.9844 31.4219 14.9688 30.1719 13.5625C30.3281 13.0156 31.0312 10.9844 29.9375 8.25C28.2969 7.70312 24.5469 10.3594 24.5469 10.3594C22.9844 9.89062 21.3438 9.73438 19.625 9.73438C17.9844 9.73438 16.3438 9.89062 14.7812 10.3594C14.7812 10.3594 10.9531 7.78125 9.39062 8.25C8.29688 10.9844 8.92188 13.0156 9.15625 13.5625C7.90625 14.9688 7.28125 15.9844 7.28125 18.1719C7.28125 25.6719 11.7344 26.2969 16.1094 26.7656C15.4844 27.3125 15.0156 28.1719 14.8594 29.4219C13.6875 29.9688 10.875 30.8281 9.15625 27.7812C8.0625 25.9062 6.10938 25.75 6.10938 25.75C4.23438 25.75 6.03125 27 6.03125 27C7.28125 27.5469 8.14062 29.8125 8.14062 29.8125C9.3125 33.3281 14.7812 32.1562 14.7812 32.1562C14.7812 33.7969 14.7812 36.4531 14.7812 37C14.7812 37.4688 14.4688 38.0938 13.4531 37.9375C5.64062 35.2812 0.25 27.8594 0.25 19.1875C0.25 8.40625 8.53125 0.125 19.3125 0.125ZM7.82812 27.0781C7.90625 27 8.0625 27.0781 8.21875 27.1562C8.375 27.3125 8.375 27.5469 8.29688 27.625C8.14062 27.7031 7.98438 27.625 7.82812 27.5469C7.75 27.3906 7.67188 27.1562 7.82812 27.0781ZM6.96875 26.4531C7.04688 26.375 7.125 26.375 7.28125 26.4531C7.4375 26.5312 7.51562 26.6094 7.51562 26.6875C7.4375 26.8438 7.28125 26.8438 7.125 26.7656C6.96875 26.6875 6.89062 26.6094 6.96875 26.4531ZM9.46875 29.2656C9.625 29.1094 9.85938 29.1875 10.0156 29.3438C10.1719 29.5 10.1719 29.7344 10.0938 29.8125C10.0156 29.9688 9.78125 29.8906 9.625 29.7344C9.39062 29.5781 9.39062 29.3438 9.46875 29.2656ZM8.60938 28.0938C8.76562 28.0156 8.92188 28.0938 9.07812 28.25C9.15625 28.4062 9.15625 28.6406 9.07812 28.7188C8.92188 28.7969 8.76562 28.7188 8.60938 28.5625C8.45312 28.4062 8.45312 28.1719 8.60938 28.0938Z" fill="#FCFDFF"/>
</svg>
