<?xml version="1.0" encoding="UTF-8"?>
<svg version="1.1" xmlns="http://www.w3.org/2000/svg" width="500" height="500">
<path d="M0 0 C1.71627594 -0.00422974 1.71627594 -0.00422974 3.46722412 -0.00854492 C4.72859192 -0.00652069 5.98995972 -0.00449646 7.28955078 -0.00241089 C8.62648567 -0.00376537 9.96342019 -0.00554557 11.300354 -0.00772095 C14.93662679 -0.0122897 18.57287129 -0.010508 22.20914459 -0.00734186 C26.00922219 -0.00481539 29.80929731 -0.0071566 33.609375 -0.00872803 C39.99170366 -0.01054888 46.37402075 -0.00814562 52.75634766 -0.00338745 C60.1419791 0.00205501 67.52758295 0.00029229 74.91321373 -0.00521386 C81.24699325 -0.00974738 87.58076444 -0.01039436 93.91454506 -0.00777519 C97.70066404 -0.00621373 101.48677003 -0.00601506 105.27288818 -0.00931168 C108.8318181 -0.01219385 112.39071232 -0.01020829 115.94963837 -0.00441742 C117.88392589 -0.00245775 119.81821642 -0.0054408 121.75250244 -0.00854492 C123.46877838 -0.00431519 123.46877838 -0.00431519 125.21972656 0 C126.21819611 0.00037703 127.21666565 0.00075405 128.24539185 0.0011425 C130.60986328 0.12698364 130.60986328 0.12698364 132.60986328 1.12698364 C132.71769728 4.06546017 132.79708244 6.99999516 132.85986328 9.93948364 C132.89337891 10.77286255 132.92689453 11.60624146 132.96142578 12.46487427 C133.05829192 18.49479171 133.05829192 18.49479171 131.09423828 21.26370239 C127.3484034 22.56532112 124.49181162 21.83867417 120.60986328 21.12698364 C120.64466797 22.31292114 120.67947266 23.49885864 120.71533203 24.72073364 C121.11774565 44.27844182 119.02184197 61.03718184 104.90283203 75.81838989 C104.14615234 76.58022583 103.38947266 77.34206177 102.60986328 78.12698364 C101.92537109 78.83725708 101.24087891 79.54753052 100.53564453 80.27932739 C97.29069344 83.60078027 93.95010183 86.7329265 90.42236328 89.75198364 C84.28901864 94.9268639 84.28901864 94.9268639 80.85986328 102.00198364 C82.72903131 109.79018377 90.7378365 115.15104713 96.60986328 120.12698364 C110.94931159 132.39888359 118.71710735 145.09139033 120.60986328 164.12698364 C120.89107976 169.46438093 120.80155 174.78815367 120.60986328 180.12698364 C121.84736328 180.08573364 123.08486328 180.04448364 124.35986328 180.00198364 C127.6262429 179.99040074 129.82455798 180.27011344 132.60986328 182.12698364 C132.69055986 185.08585823 132.75020993 188.04254955 132.79736328 191.00198364 C132.8225 191.84374146 132.84763672 192.68549927 132.87353516 193.55276489 C132.88803711 194.76126099 132.88803711 194.76126099 132.90283203 195.99417114 C132.92639771 197.10961304 132.92639771 197.10961304 132.95043945 198.24758911 C132.78185425 199.1778894 132.78185425 199.1778894 132.60986328 200.12698364 C129.23884919 202.37432637 128.12563685 202.37792127 124.18212891 202.38095093 C122.49120117 202.3894104 122.49120117 202.3894104 120.76611328 202.39804077 C119.52861328 202.39399231 118.29111328 202.38994385 117.01611328 202.38577271 C115.71351563 202.38927734 114.41091797 202.39278198 113.06884766 202.39639282 C109.49451994 202.4055192 105.92030754 202.40197158 102.34597778 202.39563465 C98.60776455 202.39057594 94.86956127 202.39526575 91.13134766 202.39840698 C84.85333481 202.402047 78.57536899 202.3972466 72.29736328 202.38772583 C65.0361021 202.37684119 57.77495322 202.38036675 50.51369476 202.39137864 C44.2826313 202.4004505 38.05160168 202.40173729 31.82053375 202.3965013 C28.09754088 202.39338104 24.37460082 202.39297379 20.65161133 202.39957428 C16.50221082 202.40641671 12.35300437 202.39693664 8.20361328 202.38577271 C6.96611328 202.38982117 5.72861328 202.39386963 4.45361328 202.39804077 C3.32632813 202.39240112 2.19904297 202.38676147 1.03759766 202.38095093 C0.05609741 202.38019688 -0.92540283 202.37944283 -1.93664551 202.37866592 C-4.39013672 202.12698364 -4.39013672 202.12698364 -7.39013672 200.12698364 C-7.63883313 197.21368286 -7.7164795 194.5327807 -7.64013672 191.62698364 C-7.63498047 190.84194458 -7.62982422 190.05690552 -7.62451172 189.24807739 C-7.54476084 183.43623188 -7.54476084 183.43623188 -6.39013672 181.12698364 C0.78881065 179.85329943 0.78881065 179.85329943 4.60986328 181.12698364 C4.60462646 180.56825562 4.59938965 180.00952759 4.59399414 179.43386841 C4.57294609 176.8524187 4.56011595 174.27098715 4.54736328 171.68948364 C4.53479492 170.3717395 4.53479492 170.3717395 4.52197266 169.02737427 C4.45993691 152.21568646 9.00548478 138.70777651 20.98486328 126.50198364 C25.06817747 122.56230362 29.29312991 118.8076561 33.60986328 115.12698364 C35.07111361 113.88039486 36.52949568 112.63043538 37.98486328 111.37698364 C38.63197266 110.82526489 39.27908203 110.27354614 39.94580078 109.70510864 C42.3012967 107.47125805 43.50575493 105.62439022 44.17236328 102.43948364 C42.61267882 93.25467512 31.17981411 85.94471247 24.40283203 80.28323364 C13.85242546 71.40717457 6.71384525 59.57145022 4.84423828 45.73635864 C4.31236235 37.54546937 4.46001023 29.32970934 4.60986328 21.12698364 C3.99498047 21.15018677 3.38009766 21.17338989 2.74658203 21.19729614 C1.53421875 21.22436646 1.53421875 21.22436646 0.29736328 21.25198364 C-0.90339844 21.28678833 -0.90339844 21.28678833 -2.12841797 21.32229614 C-4.39013672 21.12698364 -4.39013672 21.12698364 -7.39013672 19.12698364 C-7.73071289 17.24758911 -7.73071289 17.24758911 -7.68310547 14.99417114 C-7.6734375 14.18850708 -7.66376953 13.38284302 -7.65380859 12.55276489 C-7.62867188 11.71100708 -7.60353516 10.86924927 -7.57763672 10.00198364 C-7.56410156 9.15249146 -7.55056641 8.30299927 -7.53662109 7.42776489 C-7.50121891 5.32723527 -7.44741073 3.22703071 -7.39013672 1.12698364 C-4.79198627 -0.17209158 -2.91048638 0.00109901 0 0 Z M12.60986328 21.12698364 C12.60986328 43.86305432 13.74356732 58.10665182 29.54736328 74.25198364 C34.02618665 78.60975773 38.67762933 82.78706095 43.56298828 86.68557739 C48.09530734 90.35142369 51.13037497 93.45889804 51.92236328 99.51760864 C52.19955381 105.30396096 51.51448238 108.63667168 47.60986328 113.12698364 C43.85485138 117.15614465 39.90904816 120.91083268 35.73486328 124.50198364 C34.35677597 125.70679475 32.98199483 126.915394 31.60986328 128.12698364 C30.79130859 128.84241333 29.97275391 129.55784302 29.12939453 130.29495239 C19.41834344 139.30081369 13.90259306 149.91241253 12.60986328 163.12698364 C12.60986328 169.06698364 12.60986328 175.00698364 12.60986328 181.12698364 C45.27986328 181.12698364 77.94986328 181.12698364 111.60986328 181.12698364 C111.60986328 157.46139553 111.39553927 146.08989828 95.79736328 130.00198364 C92.47102274 126.76171279 89.03779735 123.83371634 85.35986328 121.00198364 C78.97937895 115.99591181 74.07540917 110.72295723 72.66064453 102.50588989 C72.56779624 98.15630474 73.53931236 93.95677889 75.60986328 90.12698364 C76.94038078 89.45471479 78.27410796 88.78878417 79.60986328 88.12698364 C81.38129414 86.70013818 81.38129414 86.70013818 83.07080078 85.04495239 C84.02599609 84.14099731 84.02599609 84.14099731 85.00048828 83.21878052 C85.65533203 82.59036255 86.31017578 81.96194458 86.98486328 81.31448364 C94.37099091 74.27412095 94.37099091 74.27412095 97.89111328 71.40823364 C107.27401344 63.53522546 110.28845261 54.0196797 111.60986328 42.12698364 C111.60986328 35.19698364 111.60986328 28.26698364 111.60986328 21.12698364 C78.93986328 21.12698364 46.26986328 21.12698364 12.60986328 21.12698364 Z " fill="#DEDFE0" transform="translate(187.39013671875,148.87301635742188)"/>
<path d="M0 0 C10.26034023 6.67246809 17.45724151 15.97268184 20.4921875 28.0078125 C20.92986169 31.15693168 20.99211928 34.13922604 20.8125 37.3125 C17.10812892 41.01687108 12.2364437 40.43844203 7.23730469 40.44189453 C5.92534119 40.44504669 4.61337769 40.44819885 3.26165771 40.45144653 C1.83589647 40.44965578 0.41013553 40.44760459 -1.015625 40.4453125 C-2.48907487 40.44598689 -3.96252463 40.44695804 -5.43597412 40.44821167 C-8.52259379 40.44968414 -11.60918448 40.44754981 -14.69580078 40.44287109 C-18.63063511 40.43719415 -22.56540092 40.44044273 -26.5002327 40.44644356 C-29.54419458 40.45007851 -32.58814057 40.44889683 -35.63210297 40.44631577 C-37.08161172 40.44565355 -38.53112196 40.44644997 -39.98062897 40.44879532 C-47.43672251 40.45820742 -54.80180181 40.44868426 -62.1875 39.3125 C-63.73576786 37.76423214 -63.50727152 36.34942295 -63.625 34.1875 C-63.49244497 23.9218494 -58.55433091 13.39584886 -51.37109375 6.171875 C-36.48683519 -6.50237737 -17.22715231 -9.68202894 0 0 Z " fill="#E7E8EA" transform="translate(271.1875,285.6875)"/>
<path d="M0 0 C1.2065625 0.0309375 1.2065625 0.0309375 2.4375 0.0625 C3.6875 2.125 3.6875 2.125 4.4375 5.0625 C2.02988248 10.71516722 -1.7867393 15.19248702 -6.5625 19.0625 C-7.2225 19.0625 -7.8825 19.0625 -8.5625 19.0625 C-8.5625 19.7225 -8.5625 20.3825 -8.5625 21.0625 C-9.92578125 22.40234375 -9.92578125 22.40234375 -11.875 24 C-23.4546647 33.56389156 -23.4546647 33.56389156 -30.87890625 46.28515625 C-31.5625 48.0625 -31.5625 48.0625 -33.5625 50.0625 C-37.61511287 50.40740322 -39.11004176 50.36413882 -42.5625 48.0625 C-42.871875 46.78375 -43.18125 45.505 -43.5 44.1875 C-45.94446276 36.03488636 -53.90596087 29.8916109 -60.4453125 24.83203125 C-61.14398438 24.24808594 -61.84265625 23.66414063 -62.5625 23.0625 C-62.5625 22.4025 -62.5625 21.7425 -62.5625 21.0625 C-63.2225 21.0625 -63.8825 21.0625 -64.5625 21.0625 C-64.5625 20.4025 -64.5625 19.7425 -64.5625 19.0625 C-65.3978125 18.753125 -65.3978125 18.753125 -66.25 18.4375 C-69.5402957 16.48110796 -71.40582061 14.20508996 -73.5625 11.0625 C-73.6875 8.375 -73.6875 8.375 -72.5625 6.0625 C-66.33728889 1.11895 -58.75058834 0.67569454 -51.125 0.6875 C-50.25045166 0.68621094 -49.37590332 0.68492187 -48.47485352 0.68359375 C-41.99035926 0.78733623 -36.23775358 1.86397515 -30.02319336 3.62158203 C-20.23272996 6.36236112 -12.62341975 5.70482308 -3.5625 1.0625 C-2.5625 0.0625 -2.5625 0.0625 0 0 Z " fill="#E5E6E8" transform="translate(286.5625,201.9375)"/>
<path d="M0 0 C0.33 0 0.66 0 1 0 C1.12605042 6.42857143 1.12605042 6.42857143 0.53125 9.125 C-0.24616915 13.33220954 -0.36832241 17.5437763 -0.5625 21.8125 C-0.60568359 22.69615234 -0.64886719 23.57980469 -0.69335938 24.49023438 C-0.79891536 26.65999623 -0.89991071 28.8299791 -1 31 C-4.63 31 -8.26 31 -12 31 C-11.67 36.61 -11.34 42.22 -11 48 C33.55 48 78.1 48 124 48 C124 42.72 124 37.44 124 32 C120.04 31.67 116.08 31.34 112 31 C111.67 20.77 111.34 10.54 111 0 C111.33 0 111.66 0 112 0 C113.87387655 9.77092772 114.22867275 19.10355133 114 29 C115.2375 28.95875 116.475 28.9175 117.75 28.875 C121.01637962 28.86341709 123.2146947 29.1431298 126 31 C126.08069658 33.95887459 126.14034665 36.9155659 126.1875 39.875 C126.21263672 40.71675781 126.23777344 41.55851562 126.26367188 42.42578125 C126.27817383 43.63427734 126.27817383 43.63427734 126.29296875 44.8671875 C126.31653442 45.98262939 126.31653442 45.98262939 126.34057617 47.12060547 C126.22818604 47.74080566 126.1157959 48.36100586 126 49 C122.6289859 51.24734273 121.51577357 51.25093763 117.57226562 51.25396729 C115.88133789 51.26242676 115.88133789 51.26242676 114.15625 51.27105713 C112.91875 51.26700867 111.68125 51.26296021 110.40625 51.25878906 C109.10365234 51.2622937 107.80105469 51.26579834 106.45898438 51.26940918 C102.88465666 51.27853555 99.31044426 51.27498794 95.7361145 51.26865101 C91.99790127 51.26359229 88.25969799 51.2682821 84.52148438 51.27142334 C78.24347153 51.27506336 71.96550571 51.27026295 65.6875 51.26074219 C58.42623882 51.24985755 51.16508994 51.2533831 43.90383148 51.264395 C37.67276802 51.27346686 31.4417384 51.27475365 25.21067047 51.26951766 C21.4876776 51.2663974 17.76473754 51.26599015 14.04174805 51.27259064 C9.89234754 51.27943307 5.74314109 51.269953 1.59375 51.25878906 C0.35625 51.26283752 -0.88125 51.26688599 -2.15625 51.27105713 C-3.28353516 51.26541748 -4.41082031 51.25977783 -5.57226562 51.25396729 C-6.55376587 51.25321323 -7.53526611 51.25245918 -8.54650879 51.25168228 C-11 51 -11 51 -14 49 C-14.24869641 46.08669922 -14.32634278 43.40579705 -14.25 40.5 C-14.24484375 39.71496094 -14.2396875 38.92992187 -14.234375 38.12109375 C-14.15462412 32.30924824 -14.15462412 32.30924824 -13 30 C-5.82105263 28.72631579 -5.82105263 28.72631579 -2 30 C-2.00523682 29.44127197 -2.01047363 28.88254395 -2.01586914 28.30688477 C-2.03691719 25.72543506 -2.04974734 23.14400351 -2.0625 20.5625 C-2.07506836 19.24475586 -2.07506836 19.24475586 -2.08789062 17.90039062 C-2.10898615 12.18350237 -1.81066292 6.66330249 -1 1 C-0.67 0.67 -0.34 0.34 0 0 Z " fill="#707071" transform="translate(194,300)"/>
<path d="M0 0 C0.33 0 0.66 0 1 0 C2.87387655 9.77092772 3.22867275 19.10355133 3 29 C4.953125 28.93489583 6.90625 28.86979167 8.859375 28.8046875 C11 29 11 29 15 31 C15 36.94 15 42.88 15 49 C14.01 49 13.02 49 12 49 C12.495 48.505 12.495 48.505 13 48 C13.07319621 45.30345146 13.09242537 42.63308542 13.0625 39.9375 C13.05798828 39.17888672 13.05347656 38.42027344 13.04882812 37.63867188 C13.0370068 35.75908129 13.01907078 33.87953101 13 32 C9.04 31.67 5.08 31.34 1 31 C0.67 20.77 0.34 10.54 0 0 Z " fill="#414242" transform="translate(305,300)"/>
<path d="M0 0 C0.66 0.33 1.32 0.66 2 1 C-0.49350667 3.69358609 -2.99598874 6.37867942 -5.5 9.0625 C-6.54414063 10.19075195 -6.54414063 10.19075195 -7.609375 11.34179688 C-11.63493607 15.6469108 -15.75651486 19.68059883 -20.25585938 23.48999023 C-21.91651838 24.92772483 -23.46735412 26.42762539 -25 28 C-21.16943433 16.86189367 -9.53982155 8.71379714 -1 1 C-0.67 0.67 -0.34 0.34 0 0 Z " fill="#888888" transform="translate(224,261)"/>
<path d="M0 0 C1.2065625 0.0309375 1.2065625 0.0309375 2.4375 0.0625 C3.6875 2.125 3.6875 2.125 4.4375 5.0625 C1.95867882 10.88234102 -1.95994798 14.80901793 -6.5625 19.0625 C-7.2225 18.7325 -7.8825 18.4025 -8.5625 18.0625 C-7.93601562 17.41023438 -7.30953125 16.75796875 -6.6640625 16.0859375 C-5.84679687 15.21195313 -5.02953125 14.33796875 -4.1875 13.4375 C-3.37539063 12.57898438 -2.56328125 11.72046875 -1.7265625 10.8359375 C0.52482405 7.95058651 1.50026852 5.57454323 2.4375 2.0625 C-0.83855255 3.12721708 -3.93244276 4.23425914 -7.0625 5.6875 C-13.19760451 8.02977827 -21.88632502 8.61005108 -27.984375 6.04296875 C-28.50515625 5.71941406 -29.0259375 5.39585937 -29.5625 5.0625 C-28.52351563 5.10890625 -27.48453125 5.1553125 -26.4140625 5.203125 C-18.03570654 5.46146183 -11.08133341 5.30782771 -3.5625 1.0625 C-2.5625 0.0625 -2.5625 0.0625 0 0 Z " fill="#454546" transform="translate(286.5625,201.9375)"/>
<path d="M0 0 C0 3 0 3 -2.23828125 5.34765625 C-3.25591465 6.26058791 -4.28120734 7.16502722 -5.3125 8.0625 C-5.8492334 8.54348145 -6.3859668 9.02446289 -6.93896484 9.52001953 C-9.15027291 11.49937674 -11.37877714 13.45837777 -13.61572266 15.40869141 C-15.12425452 16.72458446 -16.62477927 18.04963943 -18.125 19.375 C-19.01445312 20.14585937 -19.90390625 20.91671875 -20.8203125 21.7109375 C-24.69186143 25.7767577 -25.25738654 29.31845851 -25.125 34.8125 C-25.10695313 35.78832031 -25.08890625 36.76414063 -25.0703125 37.76953125 C-25.04710937 38.50558594 -25.02390625 39.24164063 -25 40 C-27.23419947 37.76580053 -27.74701272 36.23379737 -28.0703125 33.1171875 C-27.87734327 27.30666954 -25.72054007 22.66539456 -21.5625 18.640625 C-19.6730988 17.11860737 -17.7581557 15.62781063 -15.8203125 14.16796875 C-12.48573432 11.60468497 -9.64859729 8.7426898 -6.7265625 5.73046875 C-4.62639317 3.62554791 -2.37737721 1.78303291 0 0 Z " fill="#454646" transform="translate(287,218)"/>
<path d="M0 0 C4.55555556 0.55555556 4.55555556 0.55555556 6 2 C6.04063832 3.66617115 6.042721 5.33388095 6 7 C0.25 8.125 0.25 8.125 -2 7 C-2.125 4.625 -2.125 4.625 -2 2 C-1.34 1.34 -0.68 0.68 0 0 Z " fill="#838384" transform="translate(248,257)"/>
<path d="M0 0 C1.65 0.33 3.3 0.66 5 1 C5.75 2.5625 5.75 2.5625 6 5 C3.38308463 10.77902144 -0.37449016 14.7253013 -5 19 C-5.66 18.67 -6.32 18.34 -7 18 C-6.36191406 17.34773438 -5.72382813 16.69546875 -5.06640625 16.0234375 C-4.24011719 15.14945313 -3.41382813 14.27546875 -2.5625 13.375 C-1.73878906 12.51648438 -0.91507812 11.65796875 -0.06640625 10.7734375 C2.20046787 7.73094104 2.69852175 5.7383303 3 2 C2.01 1.34 1.02 0.68 0 0 Z " fill="#2B2B2C" transform="translate(285,202)"/>
<path d="M0 0 C0.66 0.33 1.32 0.66 2 1 C-0.64 3.97 -3.28 6.94 -6 10 C-6.99 9.67 -7.98 9.34 -9 9 C-6.21000549 5.51250686 -3.74764169 2.49842779 0 0 Z " fill="#878888" transform="translate(226,287)"/>
<path d="M0 0 C0.66 0 1.32 0 2 0 C2.33 0.99 2.66 1.98 3 3 C1.68 3 0.36 3 -1 3 C-0.67 2.01 -0.34 1.02 0 0 Z " fill="#6B6B6B" transform="translate(249,270)"/>
</svg>
