<?xml version="1.0" encoding="UTF-8"?>
<svg version="1.1" xmlns="http://www.w3.org/2000/svg" width="500" height="500">
<path d="M0 0 C0.74765625 -0.03738281 1.4953125 -0.07476562 2.265625 -0.11328125 C8.1702621 0.898677 12.4963504 5.76928409 16.55859375 9.890625 C17.08840347 10.42089294 17.6182132 10.95116089 18.16407776 11.49749756 C19.27818976 12.61461344 20.3898879 13.73414145 21.49926758 14.85595703 C23.17418347 16.54903904 24.85687173 18.23407097 26.54101562 19.91796875 C31.64190134 25.03647386 36.66958716 30.16036874 41.3125 35.70556641 C42.86787509 37.44426865 44.5322232 38.93214116 46.3125 40.4375 C50.39576636 43.91792192 54.23933669 47.61407766 58.0625 51.375 C58.67359619 51.96490723 59.28469238 52.55481445 59.91430664 53.16259766 C63.88104394 57.0979969 67.49446182 60.87940017 67.9296875 66.7265625 C66.86589511 74.4458765 66.86589511 74.4458765 63.75 77.3125 C63.09 77.3125 62.43 77.3125 61.75 77.3125 C61.75 77.9725 61.75 78.6325 61.75 79.3125 C59.875 81.4375 59.875 81.4375 57.75 83.3125 C57.09 83.3125 56.43 83.3125 55.75 83.3125 C55.75 83.9725 55.75 84.6325 55.75 85.3125 C55.09 85.3125 54.43 85.3125 53.75 85.3125 C53.75 85.9725 53.75 86.6325 53.75 87.3125 C53.09 87.3125 52.43 87.3125 51.75 87.3125 C51.75 87.9725 51.75 88.6325 51.75 89.3125 C51.09 89.3125 50.43 89.3125 49.75 89.3125 C49.75 89.9725 49.75 90.6325 49.75 91.3125 C49.09 91.3125 48.43 91.3125 47.75 91.3125 C47.523125 91.869375 47.29625 92.42625 47.0625 93 C45.37449964 95.97409588 43.28323483 98.03258865 40.75 100.3125 C40.09 100.3125 39.43 100.3125 38.75 100.3125 C38.75 100.9725 38.75 101.6325 38.75 102.3125 C38.09 102.3125 37.43 102.3125 36.75 102.3125 C36.53698242 102.84931396 36.32396484 103.38612793 36.10449219 103.93920898 C34.24660875 107.19452349 31.71037153 109.65735591 29.078125 112.28515625 C28.51808777 112.84947861 27.95805054 113.41380096 27.38104248 113.995224 C26.19668413 115.18531458 25.00971064 116.37280758 23.8203125 117.55786133 C22.01149319 119.36352685 20.21638595 121.18208067 18.421875 123.00195312 C17.26643692 124.15966506 16.11021194 125.31659228 14.953125 126.47265625 C14.42164856 127.01334244 13.89017212 127.55402863 13.34259033 128.11109924 C9.17965208 132.22355365 5.35143667 135.3125 -0.75 135.3125 C-5.1265456 134.0620584 -7.01195192 132.4734517 -10.25 129.3125 C-12.03054048 125.75141904 -11.8430614 122.19050691 -11.25 118.3125 C-7.9633036 112.45345234 -2.85521573 107.6439222 1.8984375 102.96875 C2.55582916 102.31418823 3.21322083 101.65962646 3.89053345 100.98522949 C5.96398671 98.92285267 8.0443284 96.86759155 10.125 94.8125 C11.54343289 93.40411313 12.96140598 91.99526302 14.37890625 90.5859375 C17.83065124 87.15608627 21.28858665 83.73259252 24.75 80.3125 C23.73380081 80.30441315 22.71760162 80.29632629 21.67060852 80.28799438 C12.09184485 80.21049504 2.51322256 80.12274608 -7.06535625 80.02497292 C-11.98974988 79.9750364 -16.91412234 79.92870604 -21.83862305 79.890625 C-26.59142207 79.85373891 -31.34404278 79.80736976 -36.09668922 79.75443649 C-37.90952233 79.73591024 -39.72239364 79.72079575 -41.53528404 79.70915604 C-44.07538468 79.69226335 -46.61507856 79.66322106 -49.1550293 79.63134766 C-49.90381348 79.62918747 -50.65259766 79.62702728 -51.42407227 79.62480164 C-56.85373658 79.53781683 -60.55693225 78.95853809 -64.5 75.125 C-66.64646869 71.67531817 -67.17877812 69.37214697 -67.25 65.3125 C-65.58089868 60.58337958 -63.45129573 58.00450872 -59.25 55.3125 C-56.3632204 54.91722491 -53.85508113 54.74770116 -50.97143555 54.76660156 C-50.15140549 54.75626389 -49.33137543 54.74592621 -48.48649597 54.73527527 C-45.78636931 54.70586773 -43.08699291 54.70434855 -40.38671875 54.703125 C-38.51054964 54.68814195 -36.63439372 54.67141453 -34.758255 54.65301514 C-29.82798656 54.60934343 -24.89789605 54.5893429 -19.96746826 54.57427979 C-14.93328329 54.55470809 -9.89929044 54.51273812 -4.86523438 54.47265625 C5.00645115 54.39735606 14.87809367 54.34706339 24.75 54.3125 C24.31373795 53.87845856 23.87747589 53.44441711 23.42799377 52.9972229 C18.8994336 48.4907378 14.3743589 43.98077485 9.85131836 39.46875 C8.16146076 37.78392996 6.47070793 36.10000734 4.77905273 34.41699219 C2.35165859 32.00168878 -0.0725277 29.5832063 -2.49609375 27.1640625 C-3.25651474 26.4088028 -4.01693573 25.65354309 -4.80039978 24.87539673 C-5.50105057 24.17482147 -6.20170135 23.47424622 -6.92358398 22.75244141 C-7.85290993 21.82644638 -7.85290993 21.82644638 -8.80101013 20.88174438 C-11.87813406 17.5492439 -11.63457297 14.21623022 -11.609375 9.86328125 C-11.03039966 5.75381496 -9.25085071 4.09900423 -6.25 1.3125 C-3.97885524 0.17692762 -2.52706381 0.08165682 0 0 Z " fill="#E6E7E9" transform="translate(282.25,182.6875)"/>
<path d="M0 0 C2.73468853 3.25982799 3.30923375 4.7895561 3.34375 8.9453125 C3.35792969 9.71617187 3.37210937 10.48703125 3.38671875 11.28125 C3.12908521 13.84011874 2.51598806 15.39753518 1.15625 17.5703125 C-3.75453978 21.05955787 -7.85565263 21.67943452 -13.78125 21.8515625 C-14.92335937 21.88894531 -16.06546875 21.92632812 -17.2421875 21.96484375 C-20.84375 22.0703125 -20.84375 22.0703125 -24.4453125 22.17578125 C-25.58742187 22.21316406 -26.72953125 22.25054687 -27.90625 22.2890625 C-29.47052734 22.33450195 -29.47052734 22.33450195 -31.06640625 22.38085938 C-31.98292969 22.44337891 -32.89945313 22.50589844 -33.84375 22.5703125 C-34.58496094 22.61736328 -35.32617188 22.66441406 -36.08984375 22.71289062 C-38.15563991 23.48131843 -38.15563991 23.48131843 -38.93707561 26.2582159 C-39.82137218 29.48856595 -40.09753544 32.08547046 -40.10444641 35.42127991 C-40.11507362 37.13930061 -40.11507362 37.13930061 -40.12591553 38.89202881 C-40.12343811 40.13430237 -40.12096069 41.37657593 -40.1184082 42.65649414 C-40.12351913 43.97582443 -40.12863007 45.29515472 -40.13389587 46.65446472 C-40.14725062 50.26179647 -40.14786871 53.86902323 -40.14533257 57.47637486 C-40.14426091 60.49091634 -40.14915099 63.50543674 -40.153938 66.5199737 C-40.16502002 73.63125185 -40.16547731 80.74247716 -40.15942383 87.85375977 C-40.1533782 95.18608483 -40.16571289 102.51821828 -40.1869939 109.85051066 C-40.20460995 116.15215625 -40.21061144 122.45374083 -40.20735615 128.75541013 C-40.20554386 132.51646257 -40.20817442 136.27737818 -40.22207069 140.03840828 C-40.23698062 144.23024071 -40.22767896 148.42168258 -40.21606445 152.61352539 C-40.22370819 153.85782318 -40.23135193 155.10212097 -40.23922729 156.38412476 C-40.22870583 158.09791573 -40.22870583 158.09791573 -40.2179718 159.84632874 C-40.21822341 161.33209207 -40.21822341 161.33209207 -40.21848011 162.84787083 C-39.77201491 166.09147315 -38.77271624 167.94221239 -36.84375 170.5703125 C-33.38293352 172.87752349 -31.97470822 172.83189566 -27.890625 172.87890625 C-26.71371094 172.90404297 -25.53679687 172.92917969 -24.32421875 172.95507812 C-21.85291392 172.9900128 -19.38155479 173.0213099 -16.91015625 173.04882812 C-10.51397613 173.19181798 -5.44147995 173.33202176 0.15625 176.5703125 C3.44643184 180.17889903 3.61714056 183.72393861 3.4453125 188.41796875 C3.04115237 191.42732324 2.1142328 193.26268991 0.15625 195.5703125 C-3.43320262 197.98886276 -7.10156211 197.8927272 -11.28515625 197.90625 C-12.00807358 197.9129068 -12.73099091 197.9195636 -13.47581482 197.92642212 C-15.0063931 197.93653283 -16.53701532 197.94123963 -18.06762695 197.94091797 C-20.37463349 197.94525309 -22.67966471 197.9814781 -24.98632812 198.01953125 C-37.00494517 198.11289283 -46.82082143 196.56098819 -55.83203125 187.921875 C-62.12236922 180.56889742 -64.95193653 173.12034327 -64.99092102 163.53829956 C-64.99807632 162.32727066 -65.00523163 161.11624176 -65.01260376 159.86851501 C-65.01544365 158.53457667 -65.01815543 157.20063806 -65.02075195 155.86669922 C-65.02702181 154.45525446 -65.03366907 153.04381134 -65.04066467 151.63237 C-65.06164856 147.00492489 -65.072063 142.37747968 -65.08203125 137.75 C-65.08608118 136.15261951 -65.09019817 134.55523919 -65.09438133 132.95785904 C-65.11342199 125.45018294 -65.12765435 117.94251659 -65.1359933 110.43482101 C-65.1457563 101.78942799 -65.1720559 93.14429163 -65.21249419 84.49898899 C-65.24273078 77.80322813 -65.25746937 71.10754053 -65.26077431 64.41171277 C-65.26311653 60.41900098 -65.27196808 56.42656373 -65.29723549 52.43392563 C-65.32065337 48.67289742 -65.32469506 44.91232185 -65.31447411 41.1512394 C-65.313749 39.12921371 -65.33274392 37.10721029 -65.35253906 35.08528137 C-65.28488988 23.12216783 -62.65344754 14.42012644 -54.2890625 5.73828125 C-43.5431042 -3.78888626 -11.53068836 -9.85176945 0 0 Z " fill="#EBECEE" transform="translate(213.84375,152.4296875)"/>
<path d="M0 0 C1.06927734 0.97259766 1.06927734 0.97259766 2.16015625 1.96484375 C7.26542052 5.36585729 13.53472448 4.55934512 19.4375 4.5625 C36.6270183 4.6270183 36.6270183 4.6270183 42 10 C41.67 10.99 41.34 11.98 41 13 C40.32130859 12.18595703 39.64261719 11.37191406 38.94335938 10.53320312 C35.30013654 7.3976623 33.6458573 7.40719666 28.90625 7.46875 C28.23710571 7.46548706 27.56796143 7.46222412 26.87854004 7.4588623 C24.75153744 7.44906388 22.62679929 7.47057502 20.5 7.5 C17.697079 7.53877936 14.89685265 7.54491873 12.09375 7.53125 C10.23266602 7.55541992 10.23266602 7.55541992 8.33398438 7.58007812 C4.10810169 6.8448191 2.62901212 5.31310455 0 2 C0 1.34 0 0.68 0 0 Z " fill="#454546" transform="translate(174,321)"/>
<path d="M0 0 C-3.44298901 3.44298901 -7.23140295 3.14454632 -11.9375 3.28125 C-13.65066406 3.33732422 -13.65066406 3.33732422 -15.3984375 3.39453125 C-19 3.5 -19 3.5 -22.6015625 3.60546875 C-24.31472656 3.66154297 -24.31472656 3.66154297 -26.0625 3.71875 C-27.62677734 3.76418945 -27.62677734 3.76418945 -29.22265625 3.81054688 C-31.62645331 3.97451897 -33.69832154 4.31832784 -36 5 C-34.87426758 3.03808594 -34.87426758 3.03808594 -33 1 C-30.27612305 0.45410156 -30.27612305 0.45410156 -27.01171875 0.390625 C-25.83029297 0.35839844 -24.64886719 0.32617188 -23.43164062 0.29296875 C-22.19607422 0.27878906 -20.96050781 0.26460937 -19.6875 0.25 C-18.46353516 0.22035156 -17.23957031 0.19070312 -15.97851562 0.16015625 C-10.65170038 0.03849978 -5.32814522 -0.01000309 0 0 Z " fill="#69696A" transform="translate(212,171)"/>
<path d="M0 0 C0 0.66 0 1.32 0 2 C-0.99 2 -1.98 2 -3 2 C-3.20625 2.53625 -3.4125 3.0725 -3.625 3.625 C-5.52581703 6.90822941 -7.97641189 9.69191747 -11 12 C-11.99 12 -12.98 12 -14 12 C-12.56394807 8.61181498 -10.79533421 6.6813402 -8 4.3125 C-7.29875 3.71050781 -6.5975 3.10851562 -5.875 2.48828125 C-3.78952321 0.83293405 -2.68454235 0 0 0 Z " fill="#909091" transform="translate(169,153)"/>
<path d="M0 0 C0 0.33 0 0.66 0 1 C-1.5778125 1.0928125 -1.5778125 1.0928125 -3.1875 1.1875 C-8.77781182 2.37887793 -10.92212649 5.38318974 -14 10 C-14.30719041 6.62090549 -14.34529892 4.59642541 -12.625 1.625 C-8.5952124 -0.86963042 -4.61933486 -0.31735888 0 0 Z " fill="#B0B0B1" transform="translate(286,184)"/>
</svg>
