<?xml version="1.0" encoding="UTF-8"?>
<svg version="1.1" xmlns="http://www.w3.org/2000/svg" width="500" height="500">
<path d="M0 0 C5.1086128 2.92509281 7.77935837 6.77557511 9.625 12.3125 C9.91890625 14.01019531 9.91890625 14.01019531 10.21875 15.7421875 C11.31854562 19.57211171 11.31854562 19.57211171 14.8984375 21.359375 C16.25832242 21.94435998 17.62611245 22.51120388 19 23.0625 C34.54309386 30.07818893 45.54390386 42.65669259 51.6640625 58.59375 C55.42989927 69.24831256 55.74152005 78.9976927 55.6953125 90.19140625 C55.7010243 92.91343274 55.71412438 95.63541874 55.7265625 98.35742188 C55.74484274 102.62582262 55.75344807 106.89349553 55.72460938 111.16186523 C55.70200185 114.63405489 55.71357106 118.10468683 55.74761581 121.57676506 C55.75760511 123.52593914 55.73173539 125.47519179 55.70510864 127.42420959 C55.79033983 135.26139453 55.79033983 135.26139453 60.03540039 141.55297852 C61.20320218 142.50903146 62.39719249 143.43484006 63.625 144.3125 C64.38425781 144.93898438 65.14351562 145.56546875 65.92578125 146.2109375 C66.92158203 146.94183594 66.92158203 146.94183594 67.9375 147.6875 C68.68515625 148.26628906 69.4328125 148.84507812 70.203125 149.44140625 C71.93132695 150.77658163 73.67242021 152.0951394 75.421875 153.40234375 C82.20878186 158.85679291 82.20878186 158.85679291 83.39453125 163.00390625 C83.50161112 165.72849402 83.51081351 167.72965429 82.625 170.3125 C80.21797777 172.73612897 78.82371844 173.28927139 75.39532471 173.69002342 C73.46182159 173.69172004 73.46182159 173.69172004 71.48925781 173.69345093 C70.76995716 173.6981309 70.05065651 173.70281087 69.30955887 173.70763266 C66.89889345 173.71960036 64.48879466 173.71011879 62.078125 173.70068359 C60.35005359 173.70474852 58.62198478 173.71008995 56.8939209 173.71661377 C52.19975933 173.73030263 47.50579532 173.72498225 42.81163025 173.71547651 C37.90208397 173.70788806 32.99255475 173.71492326 28.08300781 173.71963501 C19.83785969 173.72509493 11.59279214 173.71789473 3.34765625 173.70361328 C-6.18862236 173.68728632 -15.72470856 173.69257466 -25.26098251 173.7090925 C-33.4445142 173.72270061 -41.62798791 173.72463033 -49.81152725 173.71677649 C-54.70100306 173.71209626 -59.59038838 173.71148473 -64.4798584 173.72138596 C-69.07636027 173.73004352 -73.67261375 173.72405589 -78.26908875 173.70670319 C-79.95736783 173.70273187 -81.64566777 173.7038834 -83.3339386 173.71049118 C-85.63599515 173.71867147 -87.93725239 173.70842842 -90.23925781 173.69345093 C-91.52825989 173.69231985 -92.81726196 173.69118877 -94.14532471 173.69002342 C-97.57371844 173.28927139 -98.96797777 172.73612897 -101.375 170.3125 C-102.5717686 166.82297471 -102.37636324 163.84037974 -101.375 160.3125 C-98.51332181 156.70377319 -95.02625569 154.08978491 -91.375 151.3125 C-89.43417795 149.71235416 -87.49660891 148.10825361 -85.5625 146.5 C-82.99871374 144.42094733 -80.498887 142.39535606 -77.75430298 140.55976868 C-75.14977473 138.51982964 -75.14977473 138.51982964 -74.75595093 135.54069519 C-74.75833771 134.47563248 -74.76072449 133.41056976 -74.76318359 132.31323242 C-74.75322357 131.10064255 -74.74326355 129.88805267 -74.73300171 128.63871765 C-74.74634552 127.32837051 -74.75968933 126.01802338 -74.7734375 124.66796875 C-74.76792948 123.29713178 -74.75979779 121.9263031 -74.74917603 120.55549622 C-74.72627557 116.93939526 -74.73049982 113.32389781 -74.74298096 109.70776367 C-74.76125197 103.96081594 -74.75080609 98.21423597 -74.71712112 92.46737099 C-74.71113414 90.4831409 -74.72478647 88.49888167 -74.73910522 86.51469421 C-74.70477373 74.80136502 -73.46335683 62.62807229 -67.875 52.125 C-67.53315674 51.46628906 -67.19131348 50.80757812 -66.83911133 50.12890625 C-59.88759909 37.40065497 -48.5782132 26.6848641 -34.8125 21.9375 C-31.79013605 20.89129361 -31.79013605 20.89129361 -29.375 19.3125 C-28.33148432 16.79918138 -28.13281982 14.65747523 -27.91015625 11.953125 C-26.90509176 6.99382868 -23.16536836 3.48138454 -19.375 0.3125 C-13.16506075 -2.78261258 -6.31492524 -2.91548885 0 0 Z M-15.375 11.3125 C-16.65754644 13.85020003 -16.65754644 13.85020003 -17.375 16.3125 C-14.49084117 17.75457941 -11.95778472 17.40644887 -8.75 17.375 C-6.96722656 17.36146484 -6.96722656 17.36146484 -5.1484375 17.34765625 C-3.77558594 17.33025391 -3.77558594 17.33025391 -2.375 17.3125 C-2.045 16.3225 -1.715 15.3325 -1.375 14.3125 C-4.51479258 10.53662237 -4.51479258 10.53662237 -8.9375 8.875 C-11.56099886 9.34588441 -13.21015432 9.74485313 -15.375 11.3125 Z " fill="#F3F4F6" transform="translate(259.375,150.6875)"/>
<path d="M0 0 C0.85428589 -0.00637985 1.70857178 -0.0127597 2.58874512 -0.01933289 C3.51272095 -0.02044571 4.43669678 -0.02155853 5.38867188 -0.02270508 C6.33552856 -0.02603348 7.28238525 -0.02936188 8.25793457 -0.03279114 C10.26195794 -0.03785879 12.26598976 -0.04019951 14.27001953 -0.04003906 C17.34486691 -0.04222739 20.41935669 -0.06038987 23.49414062 -0.0793457 C25.43814981 -0.08227922 27.3821607 -0.08426429 29.32617188 -0.08520508 C30.71213562 -0.09598335 30.71213562 -0.09598335 32.12609863 -0.10697937 C32.98038452 -0.10390274 33.83467041 -0.10082611 34.71484375 -0.09765625 C35.4682605 -0.09908127 36.22167725 -0.10050629 36.9979248 -0.10197449 C38.85742188 0.14526367 38.85742188 0.14526367 40.85742188 2.14526367 C41.39300314 5.47714294 41.06256867 6.83051126 39.20507812 9.68041992 C33.5096443 15.97947237 28.75315586 20.42832892 20.12695312 21.47729492 C9.9620333 21.85585056 4.18525692 18.91206922 -3.25976562 12.18041992 C-5.084608 10.20792432 -6.19270766 8.64761058 -7.14257812 6.14526367 C-6.89257812 3.45776367 -6.89257812 3.45776367 -6.14257812 1.14526367 C-3.85054824 -0.00075127 -2.54801122 0.01289128 0 0 Z " fill="#E7E8EA" transform="translate(233.142578125,329.854736328125)"/>
<path d="M0 0 C1.29099861 0.00022659 1.29099861 0.00022659 2.608078 0.00045776 C3.99571098 0.01594162 3.99571098 0.01594162 5.41137695 0.03173828 C6.36156204 0.03456818 7.31174713 0.03739807 8.29072571 0.04031372 C11.32716435 0.05151363 14.36330863 0.0766179 17.3996582 0.10205078 C19.45759665 0.11208082 21.51553972 0.12120663 23.57348633 0.12939453 C28.6198238 0.15145236 33.66594108 0.18598096 38.7121582 0.22705078 C39.2071582 1.21705078 39.2071582 1.21705078 39.7121582 2.22705078 C38.88192139 2.25210693 38.05168457 2.27716309 37.19628906 2.30297852 C15.93582724 2.89903566 15.93582724 2.89903566 -5.2878418 4.22705078 C-4.6278418 6.53705078 -3.9678418 8.84705078 -3.2878418 11.22705078 C-5.81043241 9.25284943 -6.28082259 8.25959436 -6.9753418 5.03955078 C-7.0784668 4.11142578 -7.1815918 3.18330078 -7.2878418 2.22705078 C-4.17476243 0.15166454 -3.52435985 -0.02067073 0 0 Z " fill="#535454" transform="translate(233.287841796875,329.77294921875)"/>
<path d="M0 0 C0.66 0.33 1.32 0.66 2 1 C-7.75624462 12.416882 -7.75624462 12.416882 -12 16 C-12.66 16 -13.32 16 -14 16 C-14.33 17.32 -14.66 18.64 -15 20 C-15.66 20 -16.32 20 -17 20 C-14.19671638 11.64979348 -6.84569914 5.26592242 0 0 Z " fill="#929292" transform="translate(212,179)"/>
<path d="M0 0 C0.66 0.33 1.32 0.66 2 1 C1.36191406 1.61746094 0.72382813 2.23492187 0.06640625 2.87109375 C-5.71882194 8.59207498 -5.71882194 8.59207498 -8.0625 16.125 C-8.041875 17.40375 -8.02125 18.6825 -8 20 C-8.66 19.67 -9.32 19.34 -10 19 C-10.66154458 15.47911273 -10.82384089 12.50374684 -10 9 C-7.05449591 5.47056264 -3.68808329 2.72654729 0 0 Z " fill="#7E7F7F" transform="translate(168,302)"/>
<path d="M0 0 C0.66 0.33 1.32 0.66 2 1 C-0.75 3.0625 -0.75 3.0625 -4 5 C-6.203125 4.62109375 -6.203125 4.62109375 -8 4 C-6.71349294 3.30289269 -5.42059335 2.61757124 -4.125 1.9375 C-3.40570313 1.55464844 -2.68640625 1.17179688 -1.9453125 0.77734375 C-1.30335938 0.52082031 -0.66140625 0.26429688 0 0 Z " fill="#686969" transform="translate(225,172)"/>
</svg>
