<?xml version="1.0" encoding="UTF-8"?>
<svg version="1.1" xmlns="http://www.w3.org/2000/svg" width="512" height="512">
<path d="M0 0 C3.39582085 1.55026604 4.58584234 2.93154284 5.9296875 6.3984375 C11.6105527 25.71337919 8.91383272 45.11018479 3 64 C3.66 64.33 4.32 64.66 5 65 C5.185625 64.195625 5.37125 63.39125 5.5625 62.5625 C9.52693348 52.73759964 17.26796785 46.26191248 26.65234375 41.71484375 C38.50756681 36.74099828 49.8621757 36.91025947 62 41 C73.74575114 46.04974813 81.4897722 54.32254247 86.2578125 66.109375 C90.4660775 78.41045731 89.98487265 88.98897154 85 101 C79.88962344 111.35630687 72.08734341 119.00300652 61.26171875 123.25390625 C47.60876464 127.75773049 34.92357905 126.15069925 22 120 C20.31838377 119.02534896 18.64634294 118.03311795 17 117 C17 117.99 17 118.98 17 120 C17.55300781 120.23203125 18.10601562 120.4640625 18.67578125 120.703125 C33.38126614 128.90853842 43.28816257 148.66412825 48.4375 163.875 C49.12038718 167.66881766 49.03403896 170.27745973 48 174 C45.72183615 176.99415821 44.11672533 178.63772375 40.51953125 179.8046875 C35.33709951 180.09228083 30.84227288 178.6282256 25.875 177.25 C-3.96373354 169.51519186 -34.59934477 168.37520916 -65 174 C-64.51853516 175.37671875 -64.51853516 175.37671875 -64.02734375 176.78125 C-62.83473848 180.51777754 -62.5124134 183.0993072 -63 187 C-64.7912781 189.96992578 -66.8500678 192.4250339 -70 194 C-74.98109259 194.37593152 -78.05673864 194.1765161 -82 191 C-83.03344834 189.35386443 -84.03806166 187.68892048 -85 186 C-92.36737073 187.95456511 -99.73199596 189.91920718 -107.093503 191.89573765 C-110.51414946 192.81384862 -113.93555947 193.72883744 -117.35913086 194.63598633 C-146.83187861 202.44960821 -146.83187861 202.44960821 -174.6875 214.6875 C-175.64809326 215.19514893 -176.60868652 215.70279785 -177.59838867 216.22583008 C-190.34958814 223.14261877 -201.54788713 231.97070723 -212 242 C-212.94101563 242.87785156 -213.88203125 243.75570312 -214.8515625 244.66015625 C-232.34120383 261.2726099 -244.77933648 281.84152565 -253.24609375 304.31640625 C-253.53339355 305.07711426 -253.82069336 305.83782227 -254.11669922 306.62158203 C-254.73952191 308.29862423 -255.34360701 309.9826837 -255.93408203 311.67138672 C-256.41723877 312.99227295 -256.41723877 312.99227295 -256.91015625 314.33984375 C-257.33180054 315.53468384 -257.33180054 315.53468384 -257.76196289 316.75366211 C-259.88316378 320.60244329 -262.89907429 322.58157035 -266.96366882 324.12640381 C-268.05935684 324.41952454 -269.15504486 324.71264526 -270.28393555 325.01464844 C-271.5326091 325.3546991 -272.78128265 325.69474976 -274.0677948 326.04510498 C-275.4239373 326.40049372 -276.78024982 326.75523422 -278.13671875 327.109375 C-279.54070713 327.48407219 -280.94449752 327.85951194 -282.34809875 328.23565674 C-285.28719248 329.02021429 -288.22848151 329.79574253 -291.17163086 330.56494141 C-294.92046596 331.54546836 -298.66295575 332.54808949 -302.4040556 333.55767441 C-305.30240066 334.33714867 -308.20382312 335.10462233 -311.10627174 335.86865997 C-312.48615668 336.23339596 -313.86509399 336.60173886 -315.24298668 336.97393036 C-331.50548502 341.35045119 -331.50548502 341.35045119 -338 340 C-343.36594533 336.50439619 -344.40520708 331.59586161 -345.875 325.69921875 C-346.1215181 324.77022263 -346.36803619 323.8412265 -346.62202454 322.88407898 C-347.43071404 319.82250894 -348.21539122 316.75532122 -349 313.6875 C-349.55843337 311.55310094 -350.11859902 309.41915442 -350.68041992 307.28564453 C-351.55662534 303.95573865 -352.43107843 300.6254435 -353.2988739 297.29333496 C-355.382694 289.29627835 -357.53943422 281.32161264 -359.73828125 273.35546875 C-360.34312982 271.15731644 -360.947948 268.95915576 -361.55273438 266.76098633 C-362.42748564 263.58313944 -363.303937 260.40582017 -364.1862793 257.23007202 C-365.00236671 254.28808859 -365.80885043 251.34362602 -366.61328125 248.3984375 C-366.85637527 247.53175949 -367.0994693 246.66508148 -367.34992981 245.7721405 C-370.22484897 235.16389985 -370.22484897 235.16389985 -367.125 229.6875 C-364.90467604 226.87944323 -364.23758823 226.17304331 -360.79296875 225.69140625 C-359.50326172 225.62759766 -359.50326172 225.62759766 -358.1875 225.5625 C-357.33542969 225.50191406 -356.48335938 225.44132813 -355.60546875 225.37890625 C-351.79071913 226.28826935 -350.05899347 228.83902854 -348 232 C-346.84983281 234.65503631 -346.12301943 237.35983564 -345.4128418 240.16088867 C-345.19753311 240.95673874 -344.98222443 241.75258881 -344.76039124 242.57255554 C-344.05805951 245.18388652 -343.37841251 247.80053347 -342.69921875 250.41796875 C-342.21439568 252.24100657 -341.72827661 254.06370019 -341.24092102 255.88606262 C-340.2255043 259.69559209 -339.22032145 263.50761375 -338.22338867 267.32202148 C-336.94451269 272.21501018 -335.64867391 277.10328859 -334.34627056 281.99006176 C-333.10432071 286.65209498 -331.8699135 291.31611323 -330.63671875 295.98046875 C-330.40069128 296.87135885 -330.16466381 297.76224895 -329.92148399 298.68013573 C-329.25692321 301.19479393 -328.59764212 303.71077127 -327.94018555 306.22729492 C-327.74232452 306.97384338 -327.5444635 307.72039185 -327.34060669 308.48956299 C-326.58168952 311.41375826 -326 313.96459968 -326 317 C-324.12634766 316.45472656 -324.12634766 316.45472656 -322.21484375 315.8984375 C-308.86665379 312.03731591 -295.45940782 308.45197486 -282 305 C-285.04512738 291.61729314 -288.492006 278.35720277 -292.03125 265.09765625 C-292.62135051 262.87996134 -293.21126593 260.66221718 -293.80101013 258.44442749 C-295.37250118 252.53761506 -296.9472545 246.63167724 -298.52286911 240.72596359 C-299.50491444 237.04407477 -300.48602546 233.36193824 -301.46682739 229.67971802 C-311.47769174 192.09725253 -321.56631287 154.5364468 -331.74819946 116.99998474 C-335.60040739 102.7965729 -339.42684989 88.58625886 -343.25 74.375 C-343.84757191 72.1542147 -344.44514665 69.93343016 -345.04272461 67.71264648 C-346.36221652 62.80853853 -347.68127135 57.90431325 -349 53 C-359.40831341 55.39894798 -369.75837608 57.9304335 -380.0625 60.75 C-381.22587891 61.06582031 -382.38925781 61.38164062 -383.58789062 61.70703125 C-386.39263102 62.46881259 -389.19650829 63.23364101 -392 64 C-390.68187031 72.52613004 -388.54516295 80.76866962 -386.23925209 89.06741905 C-385.59917936 91.37506 -384.96685648 93.68469973 -384.3367157 95.99507141 C-382.54690178 102.55536066 -380.75027919 109.11369378 -378.93237305 115.66625977 C-377.81509677 119.69556213 -376.71234296 123.72860448 -375.61870384 127.76438332 C-375.20188671 129.29157951 -374.77969205 130.81731923 -374.35186195 132.3414669 C-373.75383591 134.47375384 -373.17447767 136.61034681 -372.59887695 138.7487793 C-372.26515579 139.95914352 -371.93143463 141.16950775 -371.58760071 142.41654968 C-370.88326947 146.71187466 -371.16833458 149.73322006 -372 154 C-373.89428046 156.38312703 -375.30011179 157.6500559 -378 159 C-385.05046711 159.57790714 -385.05046711 159.57790714 -388.46899414 157.49731445 C-391.76406096 154.24610982 -392.58048754 150.97822846 -393.6640625 146.6171875 C-394.172139 144.7145018 -394.68028262 142.81183402 -395.18847656 140.90917969 C-395.47033813 139.82761597 -395.75219971 138.74605225 -396.04260254 137.63171387 C-397.11467077 133.5650172 -398.22822376 129.51104845 -399.35058594 125.45800781 C-401.35639673 118.20833055 -403.3426283 110.95356685 -405.31516647 103.694767 C-406.46652109 99.45865604 -407.621336 95.22356181 -408.78466797 90.99072266 C-409.92761089 86.83188885 -411.0618792 82.67078067 -412.189991 78.50790024 C-412.61676778 76.93868004 -413.04654123 75.37027142 -413.47947311 73.80273819 C-414.0810707 71.62212363 -414.67143778 69.43875182 -415.25927734 67.25439453 C-415.59647797 66.01867706 -415.93367859 64.78295959 -416.28109741 63.50979614 C-417.27179511 58.6730533 -417.76953337 54.80769599 -415.80493164 50.19268799 C-413.68441929 47.61662258 -412.27646971 46.9336221 -409.12109375 45.91699219 C-408.13866699 45.59549194 -407.15624023 45.2739917 -406.14404297 44.94274902 C-400.79915885 43.34007236 -395.44816698 41.78879245 -390.0625 40.328125 C-388.86117432 40.00084412 -387.65984863 39.67356323 -386.42211914 39.33636475 C-383.89835318 38.65139994 -381.37384437 37.96916684 -378.84863281 37.28955078 C-375.00728907 36.25196884 -371.17173781 35.1945828 -367.3359375 34.13671875 C-364.87012347 33.47012558 -362.40398781 32.80472076 -359.9375 32.140625 C-358.23702515 31.66728729 -358.23702515 31.66728729 -356.50219727 31.18438721 C-339.84969091 26.77267883 -339.84969091 26.77267883 -333.265625 30.58203125 C-332.60046875 31.31808594 -331.9353125 32.05414063 -331.25 32.8125 C-304.73176221 59.41399756 -264.35347716 75.40534962 -227 77 C-226.36497559 77.02723145 -225.72995117 77.05446289 -225.07568359 77.08251953 C-202.0604984 77.92279839 -180.28818918 73.52458766 -158.1875 67.5 C-155.98150303 66.9113224 -153.77512297 66.32407846 -151.56835938 65.73828125 C-147.52910073 64.66296732 -143.49185639 63.58086562 -139.45776367 62.48632812 C-138.56213715 62.24406494 -137.66651062 62.00180176 -136.7437439 61.75219727 C-134.82650606 61.2265866 -132.91234176 60.68969265 -131.00064087 60.14428711 C-130.02759003 59.86915283 -129.05453918 59.59401855 -128.05200195 59.31054688 C-127.17824417 59.05946167 -126.30448639 58.80837646 -125.4042511 58.54968262 C-123 58 -123 58 -119 58 C-119.103125 56.80375 -119.20625 55.6075 -119.3125 54.375 C-119.33070512 50.95850513 -118.81131276 49.19761597 -116.625 46.5625 C-113.54701856 43.55780383 -112.93533034 43.07059097 -108.6875 42.75 C-104.67619963 43.02195257 -103.02745064 43.39302861 -100 46 C-97.88567417 50.0099283 -97 52.44409956 -97 57 C-78.86891302 51.30097134 -61.35184088 43.29877375 -46 32 C-45.02289063 31.30519531 -44.04578125 30.61039063 -43.0390625 29.89453125 C-32.12462753 21.9682385 -22.58673958 12.74237412 -13.1796875 3.1171875 C-9.19251079 -0.75566156 -5.33930953 -0.61073558 0 0 Z M-16.5 36.25 C-38.01525336 55.51840728 -64.20657629 67.97205195 -91 78 C-87.35089471 93.03504484 -83.30668948 107.96747891 -79.30834961 122.91235352 C-78.36869234 126.42569385 -77.43050917 129.93942778 -76.4921875 133.453125 C-74.66286917 140.30246075 -72.83196387 147.15137132 -71 154 C-70.28224396 153.88111923 -69.56448792 153.76223846 -68.82498169 153.63975525 C-54.10738165 151.23703909 -39.79414562 149.32829175 -24.875 149.5625 C-23.26025453 149.57301283 -21.64550842 149.58342775 -20.03076172 149.59375 C-6.89463789 149.73823306 6.02522778 150.88808902 19 153 C14.58083427 143.85922967 6.26649096 136.92526055 -1.9375 131.1875 C-5 129 -5 129 -6 127 C-6.78261402 121.18629586 -5.55096773 117.58594848 -3.125 112.25 C1.41622225 102.98560296 1.41622225 102.98560296 2 93 C-2.9489507 85.94236595 -9.79981467 80.54296305 -17.2578125 76.28125 C-19.36605596 74.73079293 -20.06446764 73.42493711 -21 71 C-21.85490572 65.01565999 -19.84270884 61.1389588 -17.30859375 55.8984375 C-13.99753484 48.5646891 -12.65325607 40.96972403 -12 33 C-13.86913873 33 -15.22050029 35.03939642 -16.5 36.25 Z M26 69 C22.47594931 74.2292365 21.37399749 80.08415451 22.3671875 86.296875 C24.29703921 93.20622061 28.17572724 98.66437033 34.328125 102.421875 C40.98525853 105.4782948 47.02583033 105.77505652 53.9375 103.30859375 C59.93248922 100.32448081 64.57501697 94.97387763 67.4375 89 C68.99950016 80.66933247 67.83433449 74.30036956 63.1875 67.25 C58.1685119 62.08761224 52.780498 59.35004611 45.625 58.6875 C37.29752324 59.40538593 31.67393947 62.92077914 26 69 Z M-322 68 C-321.39864214 72.6956746 -320.52854834 77.17286712 -319.30786133 81.74536133 C-319.13775858 82.38695002 -318.96765583 83.0285387 -318.79239845 83.68956947 C-318.22612112 85.82143463 -317.65409987 87.95171348 -317.08203125 90.08203125 C-316.67260206 91.61840518 -316.263518 93.15487111 -315.85475159 94.69142151 C-314.74436681 98.86109373 -313.62889445 103.02938964 -312.51244354 107.1974411 C-311.33376789 111.60109091 -310.15966622 116.00596033 -308.98486328 120.41064453 C-306.2479747 130.66755997 -303.50319934 140.92235664 -300.75630951 151.1765976 C-300.00646288 153.97587322 -299.25678115 156.77519297 -298.50714111 159.57452393 C-294.25163487 175.46482362 -289.99253774 191.35415914 -285.72583008 207.24145508 C-285.51131919 208.04038398 -285.2968083 208.83931288 -285.07579708 209.66245174 C-284.01527033 213.61160176 -282.95347882 217.56040392 -281.8891449 221.50852966 C-279.82044321 229.18742037 -277.76671356 236.86977382 -275.74683952 244.56167412 C-274.73918078 248.39633359 -273.72565224 252.22943095 -272.711689 256.06242752 C-272.22408969 257.91242243 -271.739396 259.76318576 -271.25770187 261.61472702 C-270.59127248 264.17561181 -269.91513383 266.73374672 -269.23681641 269.29150391 C-268.94083494 270.44489447 -268.94083494 270.44489447 -268.63887405 271.62158585 C-268.15362909 273.43186768 -267.58485406 275.21940214 -267 277 C-266.34 277.33 -265.68 277.66 -265 278 C-264.41734375 276.88625 -263.8346875 275.7725 -263.234375 274.625 C-255.68816785 260.47254364 -246.89464979 247.85267159 -235.94921875 236.1015625 C-234.20472294 234.22072333 -232.56532432 232.29381969 -230.9375 230.3125 C-227.63064837 226.45002561 -223.92251518 223.22476007 -220 220 C-218.989375 219.16339844 -217.97875 218.32679688 -216.9375 217.46484375 C-208.41162238 210.52278566 -199.49013033 204.54007369 -190 199 C-189.35256836 198.61602051 -188.70513672 198.23204102 -188.03808594 197.83642578 C-166.63194802 185.28079961 -142.39896096 179.17214942 -118.5625 173 C-114.75587742 172.00349186 -110.95010162 171.00382979 -107.14476013 170.00244141 C-104.80524033 169.38790981 -102.46482787 168.77676402 -100.12342834 168.16943359 C-99.08310959 167.89824707 -98.04279083 167.62706055 -96.97094727 167.34765625 C-96.05595963 167.11054932 -95.14097198 166.87344238 -94.19825745 166.62915039 C-91.98256161 166.06788224 -91.98256161 166.06788224 -90 165 C-90.63829198 159.8633017 -91.69077008 154.95222348 -93.04125977 149.95336914 C-93.24623077 149.18181488 -93.45120178 148.41026062 -93.66238403 147.61532593 C-94.33491475 145.08756951 -95.01311323 142.56137191 -95.69140625 140.03515625 C-96.1611539 138.27405516 -96.6305446 136.51285882 -97.09959412 134.75157166 C-98.33065936 130.13274123 -99.56654927 125.51521532 -100.8034668 120.89794922 C-102.06656998 116.179493 -103.32508053 111.45981238 -104.58398438 106.74023438 C-107.05150998 97.49228917 -109.52413705 88.24571634 -112 79 C-115.49036833 77.80048928 -117.70967258 78.21438283 -121.22973633 79.19995117 C-122.79967094 79.63116524 -122.79967094 79.63116524 -124.40132141 80.0710907 C-125.53345566 80.39181046 -126.6655899 80.71253021 -127.83203125 81.04296875 C-129.01480148 81.36783768 -130.19757172 81.6927066 -131.41618347 82.02742004 C-136.46788658 83.41500546 -141.5134136 84.82439921 -146.55883789 86.23461914 C-166.63155327 91.82527537 -187.03982926 97.41137494 -208 98 C-208.64114746 98.02046387 -209.28229492 98.04092773 -209.94287109 98.06201172 C-248.29923753 99.14109108 -286.96354823 89.81417649 -319.453125 68.9609375 C-320.83806521 67.9120528 -320.83806521 67.9120528 -322 68 Z " fill="#FCFDFF" transform="translate(420,172)"/>
<path d="M0 0 C0.84304688 -0.03996094 1.68609375 -0.07992188 2.5546875 -0.12109375 C6.32057276 0.69732812 7.70870561 2.4856829 10.125 5.4375 C10.7542057 8.70934296 10.7542057 8.70934296 10.75991821 12.49694824 C10.76771817 13.19597999 10.77551812 13.89501174 10.78355443 14.61522627 C10.80345863 16.95170661 10.78771804 19.28655519 10.77197266 21.62304688 C10.77874955 23.30038909 10.78765309 24.97772387 10.79852295 26.65504456 C10.82131453 31.20677754 10.81248066 35.75794379 10.79662752 40.30968666 C10.78396777 45.07329459 10.79570884 49.83685403 10.80355835 54.60046387 C10.81265469 62.60010489 10.80066741 70.59951511 10.77685547 78.59912109 C10.74964419 87.84752827 10.75845837 97.09538432 10.7859875 106.34377813 C10.808678 114.28449137 10.81187894 122.22503869 10.79879415 130.16577387 C10.79099931 134.90833221 10.78995893 139.65063152 10.80647659 144.39317322 C10.82092128 148.85197177 10.81090001 153.31005986 10.78200531 157.76878166 C10.77539444 159.40503192 10.77729227 161.04134198 10.78831863 162.67756844 C10.80198709 164.91186961 10.78484743 167.14389557 10.75991821 169.37805176 C10.75803308 170.6279615 10.75614796 171.87787125 10.7542057 173.16565704 C9.95325111 177.33058692 8.38883994 178.81765364 5.125 181.4375 C1.69843067 182.34768248 -1.41213753 182.1539543 -4.875 181.4375 C-8.48841411 178.78274677 -10.12201447 176.79206528 -10.875 172.4375 C-10.97104725 170.23175228 -11.00991941 168.02330644 -11.01544189 165.81547546 C-11.01841302 165.15137769 -11.02138414 164.48727992 -11.0244453 163.80305797 C-11.03311235 161.57922311 -11.03463885 159.3554422 -11.03613281 157.1315918 C-11.04076238 155.53646734 -11.04578723 153.94134399 -11.05117798 152.34622192 C-11.06429018 148.01348275 -11.07074458 143.68075906 -11.07518864 139.34800315 C-11.07812112 136.64029784 -11.08222626 133.93259675 -11.08669281 131.22489357 C-11.10036432 122.75079515 -11.11003281 114.27670639 -11.1138947 105.8025977 C-11.11837545 96.0246693 -11.13592558 86.24688069 -11.1648953 76.4689948 C-11.18651856 68.90793023 -11.19659932 61.34690497 -11.19793582 53.78580981 C-11.19898334 49.27124678 -11.2048799 44.75681522 -11.22275543 40.24228477 C-11.23924739 35.99462519 -11.2413862 31.74719575 -11.23261642 27.49951553 C-11.23184666 25.94310324 -11.23618074 24.38667851 -11.24607468 22.83029747 C-11.25881918 20.70008448 -11.25290467 18.57068362 -11.24249268 16.44047546 C-11.24395924 15.25010524 -11.2454258 14.05973501 -11.2469368 12.83329296 C-10.79591367 8.71543964 -9.79176489 6.10780053 -7.875 2.4375 C-4.72405867 0.33687245 -3.6525634 0.09436714 0 0 Z " fill="#FCFDFF" transform="translate(334.875,-0.4375)"/>
<path d="M0 0 C0.84304687 -0.03996094 1.68609375 -0.07992187 2.5546875 -0.12109375 C5.40407335 0.49814968 7.0512371 1.45785285 9.05918503 3.57714844 C11.50440908 7.8452217 10.81226304 13.1777233 10.77197266 17.95117188 C10.78511505 19.85679649 10.78511505 19.85679649 10.79852295 21.80091858 C10.8212825 25.27836353 10.81249465 28.75506532 10.79662752 32.23252296 C10.78395078 35.87504677 10.79571353 39.51750782 10.80355835 43.16003418 C10.81264982 49.27656455 10.80068048 55.39279286 10.77685547 61.50927734 C10.74964475 68.57647963 10.7584593 75.64296066 10.7859875 82.71014547 C10.80869217 88.78252372 10.81187214 94.85468509 10.79879415 100.92709208 C10.79100695 104.55185166 10.78993744 108.17627244 10.80647659 111.80101013 C10.82362938 115.84238254 10.79984411 119.88251558 10.77197266 123.92382812 C10.78209381 125.12294327 10.79221497 126.32205841 10.80264282 127.55751038 C10.68720638 136.57932163 10.68720638 136.57932163 7.74081421 139.67810059 C4.10042545 142.12662993 1.77507072 142.14611014 -2.49609375 141.9296875 C-6.17600927 141.16832567 -7.75345256 139.44872863 -9.875 136.4375 C-10.88694195 133.37529833 -11.0047574 130.54608154 -11.01544189 127.33403015 C-11.02400711 125.78854492 -11.02400711 125.78854492 -11.03274536 124.21183777 C-11.03386322 123.08707535 -11.03498108 121.96231293 -11.03613281 120.8034668 C-11.04109772 119.61443756 -11.04606262 118.42540833 -11.05117798 117.2003479 C-11.06327397 113.94194839 -11.07074144 110.68358474 -11.07518864 107.42516685 C-11.07812388 105.38749972 -11.08222953 103.34983816 -11.08669281 101.31217384 C-11.10036033 94.93110452 -11.11003064 88.55004799 -11.1138947 82.16896504 C-11.11837385 74.81343834 -11.1359181 67.45809762 -11.1648953 60.10262746 C-11.18654032 54.40991167 -11.19660048 48.7172481 -11.19793582 43.02449161 C-11.19898183 39.62773753 -11.20484587 36.23115846 -11.22275543 32.83444786 C-11.23981321 29.04272756 -11.237936 25.25145992 -11.23144531 21.4597168 C-11.2406601 20.34102707 -11.24987488 19.22233734 -11.2593689 18.06974792 C-11.22737385 12.10189107 -10.89600743 7.65073924 -7.875 2.4375 C-4.72405867 0.33687245 -3.6525634 0.09436714 0 0 Z " fill="#FCFDFF" transform="translate(254.875,39.5625)"/>
<path d="M0 0 C3.5386994 1.65139305 4.81070153 2.71605229 7 6 C7.21050059 8.93290228 7.30407906 11.77215926 7.30639648 14.70654297 C7.31472 15.59627808 7.32304352 16.48601318 7.33161926 17.40270996 C7.35575015 20.34924675 7.36449508 23.29556232 7.37109375 26.2421875 C7.3800576 28.28858508 7.3891794 30.33498197 7.39845276 32.38137817 C7.41495362 36.67370193 7.42264489 40.96594757 7.42553711 45.25830078 C7.43092258 50.75879696 7.468605 56.25855932 7.51428127 61.75884819 C7.54402157 65.98648765 7.55126001 70.21394974 7.55226326 74.44168472 C7.55647143 76.46949755 7.56892958 78.49731062 7.58978081 80.5250206 C7.61663271 83.36211882 7.61188833 86.19750762 7.59936523 89.03466797 C7.61419952 89.8722464 7.62903381 90.70982483 7.64431763 91.57278442 C7.59006211 95.88849068 7.38524017 97.51160369 4.61878967 101.01882935 C1.00351235 103.75386432 -1.23040441 103.71466654 -5.62109375 103.4921875 C-9.30100927 102.73082567 -10.87845256 101.01122863 -13 98 C-14.43633816 94.09365089 -14.15517962 89.94439367 -14.16113281 85.83837891 C-14.16609772 85.01837906 -14.17106262 84.19837921 -14.17617798 83.35353088 C-14.19076673 80.64453285 -14.19759571 77.93559334 -14.203125 75.2265625 C-14.20887864 73.3409322 -14.21463635 71.45530191 -14.22039795 69.56967163 C-14.23089822 65.61708301 -14.23674743 61.66451467 -14.24023438 57.71191406 C-14.2457206 52.6522953 -14.2697555 47.59294544 -14.29820633 42.53341103 C-14.31684707 38.63859273 -14.32203905 34.74383908 -14.32357025 30.84897995 C-14.32659347 28.98389591 -14.33461082 27.11881291 -14.34775543 25.25377274 C-14.36484788 22.6424446 -14.36292809 20.03177184 -14.35644531 17.42041016 C-14.3656601 16.65345322 -14.37487488 15.88649628 -14.3843689 15.09629822 C-14.34044332 9.43581623 -13.1459667 5.29925004 -9.25 1.125 C-5.99319286 -0.50340357 -3.59414313 -0.37833086 0 0 Z " fill="#FCFDFF" transform="translate(178,78)"/>
<path d="M0 0 C3.54281383 2.61860153 4.78669043 4.25341652 6 8.5 C6 13.31804413 4.50968717 15.37848415 1.3125 18.8125 C-2.08364801 20.5564679 -5.3104216 20.68081506 -9 20 C-11.8100346 18.20636089 -13.50940468 16.98119065 -15 14 C-15.42074378 10.94059163 -15.47999423 8.0540292 -15 5 C-10.58053726 -0.73335706 -6.94670018 -1.6767897 0 0 Z " fill="#FCFDFF" transform="translate(55,355)"/>
</svg>
