<svg width="20" height="21" viewBox="0 0 20 21" fill="none" xmlns="http://www.w3.org/2000/svg">
<path d="M7.85156 12.4531C7.30469 12.4531 6.875 12.0234 6.875 11.4766C6.875 10.9688 7.30469 10.5 7.85156 10.5C8.39844 10.5 8.82812 10.9688 8.82812 11.4766C8.82812 12.0234 8.39844 12.4531 7.85156 12.4531ZM19.6875 10.5C19.6875 15.8516 15.3516 20.1875 10 20.1875C4.64844 20.1875 0.3125 15.8516 0.3125 10.5C0.3125 5.14844 4.64844 0.8125 10 0.8125C15.3516 0.8125 19.6875 5.14844 19.6875 10.5ZM14.4922 8.89844C14.1406 8.89844 13.8281 9.05469 13.5547 9.28906C12.6953 8.70312 11.5234 8.3125 10.1953 8.27344L10.8984 5.1875L13.0469 5.69531C13.0469 6.20312 13.4766 6.63281 14.0234 6.63281C14.5703 6.63281 15 6.20312 15 5.69531C15 5.14844 14.5703 4.71875 14.0234 4.71875C13.6328 4.71875 13.3203 4.91406 13.1641 5.22656L10.7422 4.71875C10.625 4.67969 10.5078 4.75781 10.5078 4.875L9.72656 8.27344C8.4375 8.3125 7.26562 8.70312 6.40625 9.28906C6.17188 9.05469 5.82031 8.89844 5.46875 8.89844C4.10156 8.89844 3.67188 10.7344 4.88281 11.3594C4.84375 11.5547 4.84375 11.75 4.84375 11.9844C4.84375 14.0156 7.14844 15.6953 10 15.6953C12.8516 15.6953 15.1562 14.0156 15.1562 11.9844C15.1562 11.75 15.1172 11.5547 15.0781 11.3594C16.2891 10.7344 15.8594 8.89844 14.4922 8.89844ZM11.7969 13.4297C11.9141 13.3516 12.0312 13.3516 12.1484 13.4297C12.2266 13.5469 12.2266 13.7031 12.1484 13.7812C11.25 14.6797 8.71094 14.6797 7.8125 13.7812C7.73438 13.7031 7.73438 13.5469 7.8125 13.4297C7.92969 13.3516 8.08594 13.3516 8.16406 13.4297C8.82812 14.1328 11.0938 14.1719 11.7969 13.4297ZM12.1094 10.5C12.6562 10.5 13.0859 10.9688 13.0859 11.4766C13.0859 12.0234 12.6562 12.4531 12.1094 12.4531C11.6016 12.4531 11.1328 12.0234 11.1328 11.4766C11.1328 10.9688 11.5625 10.5 12.1094 10.5Z" fill="#FCFDFF"/>
</svg>
