<?xml version="1.0" encoding="UTF-8"?>
<!DOCTYPE svg PUBLIC "-//W3C//DTD SVG 1.1//EN" "http://www.w3.org/Graphics/SVG/1.1/DTD/svg11.dtd">
<svg xmlns="http://www.w3.org/2000/svg" version="1.1" width="512px" height="512px" style="shape-rendering:geometricPrecision; text-rendering:geometricPrecision; image-rendering:optimizeQuality; fill-rule:evenodd; clip-rule:evenodd" xmlns:xlink="http://www.w3.org/1999/xlink">
<g><path style="opacity:0.97" fill="#fcfdff" d="M 114.5,63.5 C 135.567,63.0341 156.567,63.5341 177.5,65C 187.835,73.3421 189.169,83.0087 181.5,94C 179.33,95.5862 176.996,96.9196 174.5,98C 157.167,98.3333 139.833,98.6667 122.5,99C 110.959,100.876 103.459,107.376 100,118.5C 99.9492,137.552 99.2825,156.552 98,175.5C 88.3159,189.291 77.6493,189.958 66,177.5C 65.1376,175.913 64.4709,174.246 64,172.5C 63.0721,151.796 63.4055,131.129 65,110.5C 72.9691,85.6941 89.4691,70.0275 114.5,63.5 Z"/></g>
<g><path style="opacity:0.97" fill="#fcfdff" d="M 336.5,63.5 C 423.441,49.9414 460.275,86.6081 447,173.5C 443.764,183.375 436.93,187.542 426.5,186C 418.333,184.5 413.5,179.667 412,171.5C 411.667,154.167 411.333,136.833 411,119.5C 407.969,107.804 400.469,100.97 388.5,99C 371.167,98.6667 353.833,98.3333 336.5,98C 327.053,93.9445 323.22,86.7779 325,76.5C 326.617,70.0578 330.45,65.7245 336.5,63.5 Z"/></g>
<g><path style="opacity:0.991" fill="#fcfdff" d="M 159.5,124.5 C 223.501,124.333 287.501,124.5 351.5,125C 368.488,129.321 379.654,139.821 385,156.5C 386.465,183.449 386.965,210.449 386.5,237.5C 409.169,237.333 431.836,237.5 454.5,238C 464.042,241.896 469.042,249.062 469.5,259.5C 469.278,267.894 465.278,273.727 457.5,277C 322.833,277.667 188.167,277.667 53.5,277C 45.2408,274.399 41.2408,268.732 41.5,260C 41.9966,249.66 47.33,243.66 57.5,242C 79.8308,241.5 102.164,241.333 124.5,241.5C 124.042,213.124 124.542,184.791 126,156.5C 131.524,139.807 142.691,129.14 159.5,124.5 Z"/></g>
<g><path style="opacity:0.994" fill="#fcfdff" d="M 124.5,303.5 C 211.833,303.5 299.167,303.5 386.5,303.5C 386.927,320.548 386.427,337.548 385,354.5C 379.654,371.179 368.488,381.679 351.5,386C 287.5,386.667 223.5,386.667 159.5,386C 142.512,381.679 131.346,371.179 126,354.5C 124.573,337.548 124.073,320.548 124.5,303.5 Z"/></g>
<g><path style="opacity:0.97" fill="#fcfdff" d="M 78.5,324.5 C 87.4971,323.911 93.9971,327.578 98,335.5C 99.2815,354.115 99.9482,372.782 100,391.5C 102.296,401.131 108.129,407.631 117.5,411C 136.462,412.254 155.462,412.921 174.5,413C 185.135,417.984 188.635,426.151 185,437.5C 183.073,442.428 179.573,445.594 174.5,447C 154.167,447.667 133.833,447.667 113.5,447C 88.2143,441.048 72.0476,425.548 65,400.5C 63.9051,389.207 63.4051,377.874 63.5,366.5C 63.3691,356.097 63.8691,345.764 65,335.5C 67.6157,329.372 72.1157,325.706 78.5,324.5 Z"/></g>
<g><path style="opacity:0.97" fill="#fcfdff" d="M 426.5,324.5 C 436.678,324.335 443.511,329.001 447,338.5C 459.624,425.541 422.457,461.708 335.5,447C 327.81,443.958 324.144,438.291 324.5,430C 325.017,421.824 329.017,416.158 336.5,413C 353.833,412.667 371.167,412.333 388.5,412C 400.041,410.124 407.541,403.624 411,392.5C 411.051,373.448 411.717,354.448 413,335.5C 415.938,329.797 420.438,326.131 426.5,324.5 Z"/></g>
</svg>
