<?xml version="1.0" encoding="UTF-8"?>
<!DOCTYPE svg PUBLIC "-//W3C//DTD SVG 1.1//EN" "http://www.w3.org/Graphics/SVG/1.1/DTD/svg11.dtd">
<svg xmlns="http://www.w3.org/2000/svg" version="1.1" width="500px" height="500px" style="shape-rendering:geometricPrecision; text-rendering:geometricPrecision; image-rendering:optimizeQuality; fill-rule:evenodd; clip-rule:evenodd" xmlns:xlink="http://www.w3.org/1999/xlink">
<g><path style="opacity:0.882" fill="#6f6f70" d="M 261.5,126.5 C 262.167,127.167 262.833,127.833 263.5,128.5C 254.867,127.623 246.2,127.289 237.5,127.5C 237.5,127.167 237.5,126.833 237.5,126.5C 245.53,125.196 253.53,125.196 261.5,126.5 Z"/></g>
<g><path style="opacity:0.345" fill="#464647" d="M 261.5,126.5 C 269.413,127.306 276.746,129.639 283.5,133.5C 276.818,131.821 270.151,130.155 263.5,128.5C 262.833,127.833 262.167,127.167 261.5,126.5 Z"/></g>
<g><path style="opacity:0.996" fill="#f6f7fa" d="M 237.5,127.5 C 246.2,127.289 254.867,127.623 263.5,128.5C 270.151,130.155 276.818,131.821 283.5,133.5C 286.42,135.97 289.754,137.97 293.5,139.5C 293.973,140.906 294.973,141.573 296.5,141.5C 296.973,142.906 297.973,143.573 299.5,143.5C 302.425,147.091 305.758,150.425 309.5,153.5C 310.419,156.089 312.086,158.089 314.5,159.5C 314.427,161.027 315.094,162.027 316.5,162.5C 316.427,164.027 317.094,165.027 318.5,165.5C 318.157,167.483 318.824,168.817 320.5,169.5C 320.502,173.165 321.835,176.165 324.5,178.5C 324.926,182.427 325.926,186.093 327.5,189.5C 328.434,190.568 328.768,191.901 328.5,193.5C 328.667,230.168 328.5,266.835 328,303.5C 326.842,308.118 326.008,312.784 325.5,317.5C 322.754,320.999 321.087,324.999 320.5,329.5C 318.412,331.336 317.079,333.669 316.5,336.5C 315.094,336.973 314.427,337.973 314.5,339.5C 314.068,340.71 313.401,341.71 312.5,342.5C 311.167,342.5 310.5,343.167 310.5,344.5C 306.833,347.5 303.5,350.833 300.5,354.5C 300.5,355.167 300.167,355.5 299.5,355.5C 297.596,355.738 296.262,356.738 295.5,358.5C 293.973,358.427 292.973,359.094 292.5,360.5C 292.158,361.338 291.492,361.672 290.5,361.5C 288.973,361.427 287.973,362.094 287.5,363.5C 283.898,363.692 280.898,365.026 278.5,367.5C 273.84,368.009 269.507,369.342 265.5,371.5C 256.858,372.299 248.191,372.632 239.5,372.5C 239.167,372.5 238.833,372.5 238.5,372.5C 235.781,371.087 232.781,370.42 229.5,370.5C 226.855,368.69 223.855,367.69 220.5,367.5C 218.824,365.166 216.491,364.166 213.5,364.5C 211.879,362.058 209.546,360.725 206.5,360.5C 205.738,358.738 204.404,357.738 202.5,357.5C 201.415,355.413 199.749,354.08 197.5,353.5C 195.833,351.5 194.167,349.5 192.5,347.5C 191.73,345.065 190.063,343.731 187.5,343.5C 187.446,341.368 186.446,340.035 184.5,339.5C 182.07,334.302 179.403,329.302 176.5,324.5C 175.662,324.158 175.328,323.492 175.5,322.5C 175.868,318.956 174.868,315.956 172.5,313.5C 171.565,275.845 171.232,238.178 171.5,200.5C 171.5,197.167 171.5,193.833 171.5,190.5C 171.565,187.572 172.232,184.905 173.5,182.5C 175.074,180.898 175.741,178.898 175.5,176.5C 178.165,174.165 179.498,171.165 179.5,167.5C 180.906,167.027 181.573,166.027 181.5,164.5C 182.906,164.027 183.573,163.027 183.5,161.5C 184.906,161.027 185.573,160.027 185.5,158.5C 187.587,157.415 188.92,155.749 189.5,153.5C 193.859,149.472 198.193,145.472 202.5,141.5C 204.027,141.573 205.027,140.906 205.5,139.5C 207.848,139.408 209.514,138.408 210.5,136.5C 213.157,136.065 215.491,135.065 217.5,133.5C 223.876,130.572 230.543,128.572 237.5,127.5 Z M 240.5,145.5 C 248.196,145.354 255.862,145.687 263.5,146.5C 264.568,147.434 265.901,147.768 267.5,147.5C 272.372,150.017 277.372,152.351 282.5,154.5C 282.973,155.906 283.973,156.573 285.5,156.5C 286.262,158.262 287.596,159.262 289.5,159.5C 291.167,161.833 293.167,163.833 295.5,165.5C 295.427,167.027 296.094,168.027 297.5,168.5C 298.026,170.23 299.026,171.564 300.5,172.5C 305.081,180.574 308.081,189.24 309.5,198.5C 309.062,198.435 308.728,198.601 308.5,199C 309.128,201.939 309.795,204.772 310.5,207.5C 310.5,235.167 310.5,262.833 310.5,290.5C 309.602,296.666 308.936,303 308.5,309.5C 307.129,311.936 306.129,314.603 305.5,317.5C 303.659,319.849 302.326,322.515 301.5,325.5C 300.094,325.973 299.427,326.973 299.5,328.5C 298.094,328.973 297.427,329.973 297.5,331.5C 293.167,335.5 288.833,339.5 284.5,343.5C 282.973,343.427 281.973,344.094 281.5,345.5C 279.181,345.992 277.181,346.992 275.5,348.5C 272.557,348.98 269.89,349.98 267.5,351.5C 264.273,351.676 261.273,352.343 258.5,353.5C 251.138,353.635 243.804,353.302 236.5,352.5C 236.167,352.5 235.833,352.5 235.5,352.5C 229.119,350.149 222.786,347.482 216.5,344.5C 211.193,339.528 205.86,334.528 200.5,329.5C 200.573,327.973 199.906,326.973 198.5,326.5C 198.573,324.973 197.906,323.973 196.5,323.5C 196.34,321.847 195.674,320.514 194.5,319.5C 193.541,315.617 192.208,311.95 190.5,308.5C 189.54,272.851 189.206,237.184 189.5,201.5C 189.942,197.846 190.276,194.179 190.5,190.5C 192.074,188.898 192.741,186.898 192.5,184.5C 193.931,183.22 194.598,181.553 194.5,179.5C 196.083,177.337 197.416,175.004 198.5,172.5C 199.906,172.027 200.573,171.027 200.5,169.5C 201.167,169.5 201.5,169.167 201.5,168.5C 206.193,164.139 210.859,159.805 215.5,155.5C 216.167,155.5 216.5,155.167 216.5,154.5C 220.77,152.862 224.77,150.862 228.5,148.5C 232.687,147.787 236.687,146.787 240.5,145.5 Z"/></g>
<g><path style="opacity:0.537" fill="#404041" d="M 237.5,126.5 C 237.5,126.833 237.5,127.167 237.5,127.5C 230.543,128.572 223.876,130.572 217.5,133.5C 216.833,133.5 216.167,133.5 215.5,133.5C 222.254,129.639 229.587,127.306 237.5,126.5 Z"/></g>
<g><path style="opacity:0.553" fill="#5e5e5f" d="M 215.5,133.5 C 216.167,133.5 216.833,133.5 217.5,133.5C 215.491,135.065 213.157,136.065 210.5,136.5C 211.659,134.75 213.326,133.75 215.5,133.5 Z"/></g>
<g><path style="opacity:0.275" fill="#4b4c4c" d="M 283.5,133.5 C 287.505,134.498 290.839,136.498 293.5,139.5C 289.754,137.97 286.42,135.97 283.5,133.5 Z"/></g>
<g><path style="opacity:0.62" fill="#696a6b" d="M 210.5,136.5 C 209.514,138.408 207.848,139.408 205.5,139.5C 206.659,137.75 208.326,136.75 210.5,136.5 Z"/></g>
<g><path style="opacity:0.573" fill="#4a4a4b" d="M 205.5,139.5 C 205.027,140.906 204.027,141.573 202.5,141.5C 202.973,140.094 203.973,139.427 205.5,139.5 Z"/></g>
<g><path style="opacity:0.188" fill="#3a3b3b" d="M 293.5,139.5 C 295.027,139.427 296.027,140.094 296.5,141.5C 294.973,141.573 293.973,140.906 293.5,139.5 Z"/></g>
<g><path style="opacity:0.051" fill="#2a2a2a" d="M 296.5,141.5 C 298.027,141.427 299.027,142.094 299.5,143.5C 297.973,143.573 296.973,142.906 296.5,141.5 Z"/></g>
<g><path style="opacity:0.843" fill="#8f8f91" d="M 263.5,146.5 C 255.862,145.687 248.196,145.354 240.5,145.5C 238.833,145.5 237.167,145.5 235.5,145.5C 239.896,143.967 244.563,143.3 249.5,143.5C 252.833,143.667 256.167,143.833 259.5,144C 261.066,144.608 262.4,145.442 263.5,146.5 Z"/></g>
<g><path style="opacity:0.459" fill="#3c3c3d" d="M 299.5,143.5 C 303.855,145.855 307.188,149.188 309.5,153.5C 305.758,150.425 302.425,147.091 299.5,143.5 Z"/></g>
<g><path style="opacity:0.188" fill="#3f3f40" d="M 235.5,145.5 C 237.167,145.5 238.833,145.5 240.5,145.5C 236.687,146.787 232.687,147.787 228.5,148.5C 230.509,146.935 232.843,145.935 235.5,145.5 Z"/></g>
<g><path style="opacity:0.698" fill="#575758" d="M 267.5,147.5 C 273.519,148.014 278.519,150.347 282.5,154.5C 277.372,152.351 272.372,150.017 267.5,147.5 Z"/></g>
<g><path style="opacity:0.459" fill="#383838" d="M 202.5,141.5 C 198.193,145.472 193.859,149.472 189.5,153.5C 192.554,148.113 196.887,144.113 202.5,141.5 Z"/></g>
<g><path style="opacity:0.243" fill="#444444" d="M 228.5,148.5 C 224.77,150.862 220.77,152.862 216.5,154.5C 216.953,153.542 217.619,152.708 218.5,152C 221.531,149.985 224.864,148.819 228.5,148.5 Z"/></g>
<g><path style="opacity:0.31" fill="#414141" d="M 282.5,154.5 C 284.027,154.427 285.027,155.094 285.5,156.5C 283.973,156.573 282.973,155.906 282.5,154.5 Z"/></g>
<g><path style="opacity:0.439" fill="#424343" d="M 189.5,153.5 C 188.92,155.749 187.587,157.415 185.5,158.5C 186.08,156.251 187.413,154.585 189.5,153.5 Z"/></g>
<g><path style="opacity:0.439" fill="#444445" d="M 285.5,156.5 C 287.404,156.738 288.738,157.738 289.5,159.5C 287.596,159.262 286.262,158.262 285.5,156.5 Z"/></g>
<g><path style="opacity:0.459" fill="#3f3f40" d="M 309.5,153.5 C 311.914,154.911 313.581,156.911 314.5,159.5C 312.086,158.089 310.419,156.089 309.5,153.5 Z"/></g>
<g><path style="opacity:0.796" fill="#6d6d6e" d="M 289.5,159.5 C 292.5,160.5 294.5,162.5 295.5,165.5C 293.167,163.833 291.167,161.833 289.5,159.5 Z"/></g>
<g><path style="opacity:0.384" fill="#464646" d="M 185.5,158.5 C 185.573,160.027 184.906,161.027 183.5,161.5C 183.427,159.973 184.094,158.973 185.5,158.5 Z"/></g>
<g><path style="opacity:0.016" fill="#252526" d="M 215.5,155.5 C 210.859,159.805 206.193,164.139 201.5,168.5C 204.563,163.928 208.23,159.761 212.5,156C 213.448,155.517 214.448,155.351 215.5,155.5 Z"/></g>
<g><path style="opacity:0.29" fill="#353535" d="M 314.5,159.5 C 315.906,159.973 316.573,160.973 316.5,162.5C 315.094,162.027 314.427,161.027 314.5,159.5 Z"/></g>
<g><path style="opacity:0.365" fill="#4c4c4d" d="M 183.5,161.5 C 183.573,163.027 182.906,164.027 181.5,164.5C 181.427,162.973 182.094,161.973 183.5,161.5 Z"/></g>
<g><path style="opacity:0.22" fill="#333434" d="M 316.5,162.5 C 317.906,162.973 318.573,163.973 318.5,165.5C 317.094,165.027 316.427,164.027 316.5,162.5 Z"/></g>
<g><path style="opacity:0.165" fill="#2e2d2e" d="M 181.5,164.5 C 181.573,166.027 180.906,167.027 179.5,167.5C 179.427,165.973 180.094,164.973 181.5,164.5 Z"/></g>
<g><path style="opacity:0.008" fill="#282828" d="M 295.5,165.5 C 296.906,165.973 297.573,166.973 297.5,168.5C 296.094,168.027 295.427,167.027 295.5,165.5 Z"/></g>
<g><path style="opacity:0.706" fill="#474747" d="M 297.5,168.5 C 299.446,169.035 300.446,170.368 300.5,172.5C 299.026,171.564 298.026,170.23 297.5,168.5 Z"/></g>
<g><path style="opacity:0.949" fill="#6e6f70" d="M 318.5,165.5 C 319.674,166.514 320.34,167.847 320.5,169.5C 318.824,168.817 318.157,167.483 318.5,165.5 Z"/></g>
<g><path style="opacity:0.11" fill="#363637" d="M 200.5,169.5 C 200.573,171.027 199.906,172.027 198.5,172.5C 198.427,170.973 199.094,169.973 200.5,169.5 Z"/></g>
<g><path style="opacity:0.839" fill="#666667" d="M 179.5,167.5 C 179.498,171.165 178.165,174.165 175.5,176.5C 176.075,173.088 177.408,170.088 179.5,167.5 Z"/></g>
<g><path style="opacity:0.949" fill="#6e6e6f" d="M 320.5,169.5 C 322.592,172.088 323.925,175.088 324.5,178.5C 321.835,176.165 320.502,173.165 320.5,169.5 Z"/></g>
<g><path style="opacity:0.4" fill="#555656" d="M 198.5,172.5 C 197.416,175.004 196.083,177.337 194.5,179.5C 194.555,176.386 195.888,174.052 198.5,172.5 Z"/></g>
<g><path style="opacity:0.325" fill="#676769" d="M 300.5,172.5 C 303.389,175.256 305.556,178.589 307,182.5C 308.131,186.894 309.465,191.227 311,195.5C 311.831,230.002 311.664,264.336 310.5,298.5C 310.5,295.833 310.5,293.167 310.5,290.5C 310.5,262.833 310.5,235.167 310.5,207.5C 310.81,204.287 310.477,201.287 309.5,198.5C 308.081,189.24 305.081,180.574 300.5,172.5 Z"/></g>
<g><path style="opacity:0.4" fill="#353536" d="M 245.5,179.5 C 249.76,177.87 253.76,178.536 257.5,181.5C 258.127,182.417 258.461,183.417 258.5,184.5C 255.18,180.345 250.846,178.678 245.5,179.5 Z"/></g>
<g><path style="opacity:0.478" fill="#414141" d="M 245.5,179.5 C 244.5,181.167 243.167,182.5 241.5,183.5C 241.833,181.167 243.167,179.833 245.5,179.5 Z"/></g>
<g><path style="opacity:0.997" fill="#f5f6f9" d="M 245.5,179.5 C 250.846,178.678 255.18,180.345 258.5,184.5C 258.667,198.171 258.5,211.837 258,225.5C 255.646,231.095 251.479,232.928 245.5,231C 243.561,229.568 242.228,227.735 241.5,225.5C 241.5,211.5 241.5,197.5 241.5,183.5C 243.167,182.5 244.5,181.167 245.5,179.5 Z"/></g>
<g><path style="opacity:0.49" fill="#585758" d="M 175.5,176.5 C 175.741,178.898 175.074,180.898 173.5,182.5C 173.259,180.102 173.926,178.102 175.5,176.5 Z"/></g>
<g><path style="opacity:0.573" fill="#545354" d="M 194.5,179.5 C 194.598,181.553 193.931,183.22 192.5,184.5C 192.12,182.302 192.787,180.635 194.5,179.5 Z"/></g>
<g><path style="opacity:0.678" fill="#474748" d="M 324.5,178.5 C 326.483,181.799 327.483,185.466 327.5,189.5C 325.926,186.093 324.926,182.427 324.5,178.5 Z"/></g>
<g><path style="opacity:0.008" fill="#2d2d2d" d="M 192.5,184.5 C 192.741,186.898 192.074,188.898 190.5,190.5C 190.259,188.102 190.926,186.102 192.5,184.5 Z"/></g>
<g><path style="opacity:0.278" fill="#383838" d="M 258.5,184.5 C 259.661,198.327 259.827,212.327 259,226.5C 253.958,234.971 247.958,235.638 241,228.5C 240.517,227.552 240.351,226.552 240.5,225.5C 240.833,225.5 241.167,225.5 241.5,225.5C 242.228,227.735 243.561,229.568 245.5,231C 251.479,232.928 255.646,231.095 258,225.5C 258.5,211.837 258.667,198.171 258.5,184.5 Z"/></g>
<g><path style="opacity:0.537" fill="#585859" d="M 190.5,190.5 C 190.276,194.179 189.942,197.846 189.5,201.5C 189.167,201.5 188.833,201.5 188.5,201.5C 188.335,198.482 188.502,195.482 189,192.5C 189.278,191.584 189.778,190.918 190.5,190.5 Z"/></g>
<g><path style="opacity:0.018" fill="#090909" d="M 309.5,198.5 C 310.477,201.287 310.81,204.287 310.5,207.5C 309.795,204.772 309.128,201.939 308.5,199C 308.728,198.601 309.062,198.435 309.5,198.5 Z"/></g>
<g><path style="opacity:0.135" fill="#4e4e4f" d="M 171.5,190.5 C 171.5,193.833 171.5,197.167 171.5,200.5C 170.502,234.663 170.168,268.996 170.5,303.5C 169.784,301.444 169.117,299.277 168.5,297C 169.833,293 169.833,289 168.5,285C 169.329,255.572 169.829,226.072 170,196.5C 170.191,194.292 170.691,192.292 171.5,190.5 Z"/></g>
<g><path style="opacity:0.922" fill="#828283" d="M 241.5,183.5 C 241.5,197.5 241.5,211.5 241.5,225.5C 241.167,225.5 240.833,225.5 240.5,225.5C 239.34,212.34 239.173,199.006 240,185.5C 240.278,184.584 240.778,183.918 241.5,183.5 Z"/></g>
<g><path style="opacity:0.855" fill="#b5b7b9" d="M 171.5,200.5 C 171.232,238.178 171.565,275.845 172.5,313.5C 171.215,310.411 170.549,307.078 170.5,303.5C 170.168,268.996 170.502,234.663 171.5,200.5 Z"/></g>
<g><path style="opacity:0.09" fill="#212121" d="M 188.5,201.5 C 188.833,201.5 189.167,201.5 189.5,201.5C 189.206,237.184 189.54,272.851 190.5,308.5C 189.698,307.048 189.198,305.382 189,303.5C 188.5,269.502 188.333,235.502 188.5,201.5 Z"/></g>
<g><path style="opacity:0.682" fill="#323233" d="M 230.5,249.5 C 228.852,248.19 227.186,246.857 225.5,245.5C 223.517,246.982 221.684,248.649 220,250.5C 219.53,251.577 219.697,252.577 220.5,253.5C 218.656,252.796 218.156,251.463 219,249.5C 221.002,246.113 223.835,244.613 227.5,245C 229.141,246.129 230.141,247.629 230.5,249.5 Z"/></g>
<g><path style="opacity:0.996" fill="#eaebed" d="M 230.5,249.5 C 232.5,253.5 235.5,256.5 239.5,258.5C 241.893,262.402 244.893,265.902 248.5,269C 250.772,268.923 252.438,267.757 253.5,265.5C 256.833,261.5 260.5,257.833 264.5,254.5C 267.631,251.871 270.631,249.038 273.5,246C 275.066,245.7 276.399,246.2 277.5,247.5C 278.63,249.315 279.296,251.315 279.5,253.5C 276.5,254.5 274.5,256.5 273.5,259.5C 272.167,259.5 271.5,260.167 271.5,261.5C 271.5,262.167 271.167,262.5 270.5,262.5C 268.5,262.5 267.5,263.5 267.5,265.5C 265.167,268.5 262.5,271.167 259.5,273.5C 257.227,273.957 255.894,275.29 255.5,277.5C 253.227,277.957 251.894,279.29 251.5,281.5C 250.041,281.567 248.708,281.234 247.5,280.5C 245.856,280.19 244.856,279.19 244.5,277.5C 244.5,275.5 243.5,274.5 241.5,274.5C 241.5,272.5 240.5,271.5 238.5,271.5C 237.5,271.167 236.833,270.5 236.5,269.5C 236.5,267.5 235.5,266.5 233.5,266.5C 232.5,266.167 231.833,265.5 231.5,264.5C 231.5,262.5 230.5,261.5 228.5,261.5C 228.5,259.5 227.5,258.5 225.5,258.5C 224.5,258.167 223.833,257.5 223.5,256.5C 223.5,254.5 222.5,253.5 220.5,253.5C 219.697,252.577 219.53,251.577 220,250.5C 221.684,248.649 223.517,246.982 225.5,245.5C 227.186,246.857 228.852,248.19 230.5,249.5 Z"/></g>
<g><path style="opacity:0.765" fill="#4e4f4f" d="M 277.5,247.5 C 280.349,248.92 281.016,250.92 279.5,253.5C 279.296,251.315 278.63,249.315 277.5,247.5 Z"/></g>
<g><path style="opacity:0.831" fill="#626364" d="M 230.5,249.5 C 233.833,252.167 236.833,255.167 239.5,258.5C 235.5,256.5 232.5,253.5 230.5,249.5 Z"/></g>
<g><path style="opacity:0.394" fill="#59595a" d="M 328.5,193.5 C 329.664,230.664 329.831,267.998 329,305.5C 328.431,309.795 327.264,313.795 325.5,317.5C 326.008,312.784 326.842,308.118 328,303.5C 328.5,266.835 328.667,230.168 328.5,193.5 Z"/></g>
<g><path style="opacity:0.376" fill="#2f2f2f" d="M 277.5,247.5 C 276.399,246.2 275.066,245.7 273.5,246C 270.631,249.038 267.631,251.871 264.5,254.5C 266.557,250.933 269.223,247.766 272.5,245C 275.262,243.923 276.928,244.756 277.5,247.5 Z"/></g>
<g><path style="opacity:0.816" fill="#747576" d="M 220.5,253.5 C 222.5,253.5 223.5,254.5 223.5,256.5C 222.167,255.833 221.167,254.833 220.5,253.5 Z"/></g>
<g><path style="opacity:0.188" fill="#3a3a3a" d="M 279.5,253.5 C 277.833,255.833 275.833,257.833 273.5,259.5C 274.5,256.5 276.5,254.5 279.5,253.5 Z"/></g>
<g><path style="opacity:0.843" fill="#787879" d="M 225.5,258.5 C 227.5,258.5 228.5,259.5 228.5,261.5C 227.167,260.833 226.167,259.833 225.5,258.5 Z"/></g>
<g><path style="opacity:0.784" fill="#565656" d="M 239.5,258.5 C 242.631,261.129 245.631,263.962 248.5,267C 250.189,266.866 251.856,266.366 253.5,265.5C 252.438,267.757 250.772,268.923 248.5,269C 244.893,265.902 241.893,262.402 239.5,258.5 Z"/></g>
<g><path style="opacity:0.161" fill="#2c2c2c" d="M 273.5,259.5 C 273.167,260.5 272.5,261.167 271.5,261.5C 271.5,260.167 272.167,259.5 273.5,259.5 Z"/></g>
<g><path style="opacity:0.843" fill="#797a7b" d="M 228.5,261.5 C 230.5,261.5 231.5,262.5 231.5,264.5C 230.167,263.833 229.167,262.833 228.5,261.5 Z"/></g>
<g><path style="opacity:0.188" fill="#383838" d="M 270.5,262.5 C 269.833,263.833 268.833,264.833 267.5,265.5C 267.5,263.5 268.5,262.5 270.5,262.5 Z"/></g>
<g><path style="opacity:0.824" fill="#7c7c7d" d="M 233.5,266.5 C 235.5,266.5 236.5,267.5 236.5,269.5C 235.167,268.833 234.167,267.833 233.5,266.5 Z"/></g>
<g><path style="opacity:0.824" fill="#7e7e7f" d="M 238.5,271.5 C 240.5,271.5 241.5,272.5 241.5,274.5C 240.167,273.833 239.167,272.833 238.5,271.5 Z"/></g>
<g><path style="opacity:0.824" fill="#7d7d7e" d="M 241.5,274.5 C 243.5,274.5 244.5,275.5 244.5,277.5C 243.167,276.833 242.167,275.833 241.5,274.5 Z"/></g>
<g><path style="opacity:0.29" fill="#303031" d="M 259.5,273.5 C 258.833,275.5 257.5,276.833 255.5,277.5C 255.894,275.29 257.227,273.957 259.5,273.5 Z"/></g>
<g><path style="opacity:0.682" fill="#313132" d="M 237.5,292.5 C 233.52,288.855 229.52,285.189 225.5,281.5C 222.734,283.259 220.734,285.593 219.5,288.5C 218.427,287.749 218.26,286.749 219,285.5C 221.016,283.316 223.183,281.316 225.5,279.5C 230.252,283.247 234.252,287.581 237.5,292.5 Z"/></g>
<g><path style="opacity:0.016" fill="#1e1e1e" d="M 255.5,277.5 C 254.833,279.5 253.5,280.833 251.5,281.5C 251.894,279.29 253.227,277.957 255.5,277.5 Z"/></g>
<g><path style="opacity:0.008" fill="#292929" d="M 247.5,280.5 C 248.708,281.234 250.041,281.567 251.5,281.5C 251.083,282.124 250.416,282.457 249.5,282.5C 248.287,282.253 247.62,281.586 247.5,280.5 Z"/></g>
<g><path style="opacity:0.996" fill="#f1f2f4" d="M 237.5,292.5 C 239.5,293.833 241.167,295.5 242.5,297.5C 242.5,299.5 243.5,300.5 245.5,300.5C 246.5,300.833 247.167,301.5 247.5,302.5C 248.314,304.273 249.648,304.773 251.5,304C 259.014,296.319 266.681,288.819 274.5,281.5C 277.861,283.178 279.528,285.845 279.5,289.5C 269.921,297.575 260.754,306.242 252,315.5C 251.536,316.094 251.369,316.761 251.5,317.5C 244.131,311.639 237.131,305.139 230.5,298C 229.906,297.536 229.239,297.369 228.5,297.5C 226.478,293.478 223.478,290.478 219.5,288.5C 220.734,285.593 222.734,283.259 225.5,281.5C 229.52,285.189 233.52,288.855 237.5,292.5 Z"/></g>
<g><path style="opacity:0.655" fill="#515252" d="M 219.5,288.5 C 223.478,290.478 226.478,293.478 228.5,297.5C 225.215,294.882 222.215,291.882 219.5,288.5 Z"/></g>
<g><path style="opacity:0.522" fill="#3c3c3d" d="M 279.5,289.5 C 279.528,285.845 277.861,283.178 274.5,281.5C 266.681,288.819 259.014,296.319 251.5,304C 249.648,304.773 248.314,304.273 247.5,302.5C 248.496,302.414 249.329,302.748 250,303.5C 258.022,295.478 266.022,287.478 274,279.5C 278.946,281.511 280.779,284.844 279.5,289.5 Z"/></g>
<g><path style="opacity:0.753" fill="#595a5a" d="M 228.5,297.5 C 229.239,297.369 229.906,297.536 230.5,298C 237.131,305.139 244.131,311.639 251.5,317.5C 250.292,318.782 248.958,318.782 247.5,317.5C 241.145,310.813 234.812,304.146 228.5,297.5 Z"/></g>
<g><path style="opacity:0.871" fill="#797a7b" d="M 242.5,297.5 C 243.833,298.167 244.833,299.167 245.5,300.5C 243.5,300.5 242.5,299.5 242.5,297.5 Z"/></g>
<g><path style="opacity:0.6" fill="#464748" d="M 310.5,290.5 C 310.5,293.167 310.5,295.833 310.5,298.5C 310.884,302.489 310.217,306.155 308.5,309.5C 308.936,303 309.602,296.666 310.5,290.5 Z"/></g>
<g><path style="opacity:0.063" fill="#2b2b2c" d="M 279.5,289.5 C 270.5,299.167 261.167,308.5 251.5,317.5C 251.369,316.761 251.536,316.094 252,315.5C 260.754,306.242 269.921,297.575 279.5,289.5 Z"/></g>
<g><path style="opacity:0.651" fill="#4f5050" d="M 190.5,308.5 C 192.208,311.95 193.541,315.617 194.5,319.5C 192.01,316.374 190.677,312.708 190.5,308.5 Z"/></g>
<g><path style="opacity:0.725" fill="#68696a" d="M 308.5,309.5 C 308.655,312.716 307.655,315.383 305.5,317.5C 306.129,314.603 307.129,311.936 308.5,309.5 Z"/></g>
<g><path style="opacity:0.588" fill="#5d5d5f" d="M 172.5,313.5 C 174.868,315.956 175.868,318.956 175.5,322.5C 173.747,319.854 172.747,316.854 172.5,313.5 Z"/></g>
<g><path style="opacity:0.973" fill="#818283" d="M 194.5,319.5 C 195.674,320.514 196.34,321.847 196.5,323.5C 194.824,322.817 194.157,321.483 194.5,319.5 Z"/></g>
<g><path style="opacity:0.875" fill="#78797a" d="M 305.5,317.5 C 305.708,321.085 304.375,323.751 301.5,325.5C 302.326,322.515 303.659,319.849 305.5,317.5 Z"/></g>
<g><path style="opacity:0.337" fill="#363636" d="M 196.5,323.5 C 197.906,323.973 198.573,324.973 198.5,326.5C 197.094,326.027 196.427,325.027 196.5,323.5 Z"/></g>
<g><path style="opacity:0.6" fill="#565657" d="M 176.5,324.5 C 179.403,329.302 182.07,334.302 184.5,339.5C 180.545,335.26 177.878,330.26 176.5,324.5 Z"/></g>
<g><path style="opacity:0.725" fill="#737475" d="M 325.5,317.5 C 324.597,321.889 322.931,325.889 320.5,329.5C 321.087,324.999 322.754,320.999 325.5,317.5 Z"/></g>
<g><path style="opacity:0.322" fill="#505151" d="M 301.5,325.5 C 301.573,327.027 300.906,328.027 299.5,328.5C 299.427,326.973 300.094,325.973 301.5,325.5 Z"/></g>
<g><path style="opacity:0.345" fill="#3c3c3d" d="M 198.5,326.5 C 199.906,326.973 200.573,327.973 200.5,329.5C 199.094,329.027 198.427,328.027 198.5,326.5 Z"/></g>
<g><path style="opacity:0.541" fill="#555656" d="M 299.5,328.5 C 299.573,330.027 298.906,331.027 297.5,331.5C 297.427,329.973 298.094,328.973 299.5,328.5 Z"/></g>
<g><path style="opacity:0.325" fill="#49494a" d="M 320.5,329.5 C 319.921,332.331 318.588,334.664 316.5,336.5C 317.079,333.669 318.412,331.336 320.5,329.5 Z"/></g>
<g><path style="opacity:0.373" fill="#2f2f30" d="M 200.5,329.5 C 205.86,334.528 211.193,339.528 216.5,344.5C 215.078,344.291 213.745,343.791 212.5,343C 207.898,338.906 203.898,334.406 200.5,329.5 Z"/></g>
<g><path style="opacity:0.651" fill="#666768" d="M 297.5,331.5 C 294.446,336.887 290.113,340.887 284.5,343.5C 288.833,339.5 293.167,335.5 297.5,331.5 Z"/></g>
<g><path style="opacity:0.11" fill="#363637" d="M 316.5,336.5 C 316.573,338.027 315.906,339.027 314.5,339.5C 314.427,337.973 315.094,336.973 316.5,336.5 Z"/></g>
<g><path style="opacity:0.49" fill="#4e4f4f" d="M 184.5,339.5 C 186.446,340.035 187.446,341.368 187.5,343.5C 186.026,342.564 185.026,341.23 184.5,339.5 Z"/></g>
<g><path style="opacity:0.216" fill="#585959" d="M 312.5,342.5 C 312.167,343.5 311.5,344.167 310.5,344.5C 310.5,343.167 311.167,342.5 312.5,342.5 Z"/></g>
<g><path style="opacity:0.678" fill="#5c5d5e" d="M 284.5,343.5 C 284.027,344.906 283.027,345.573 281.5,345.5C 281.973,344.094 282.973,343.427 284.5,343.5 Z"/></g>
<g><path style="opacity:0.902" fill="#9f9fa1" d="M 187.5,343.5 C 190.063,343.731 191.73,345.065 192.5,347.5C 191.833,347.5 191.167,347.5 190.5,347.5C 189.5,346.167 188.5,344.833 187.5,343.5 Z"/></g>
<g><path style="opacity:0.29" fill="#3a3a3a" d="M 216.5,344.5 C 222.786,347.482 229.119,350.149 235.5,352.5C 234.5,352.5 233.5,352.5 232.5,352.5C 226.3,351.4 220.967,348.734 216.5,344.5 Z"/></g>
<g><path style="opacity:0.439" fill="#363637" d="M 190.5,347.5 C 191.167,347.5 191.833,347.5 192.5,347.5C 194.167,349.5 195.833,351.5 197.5,353.5C 194.573,352.243 192.239,350.243 190.5,347.5 Z"/></g>
<g><path style="opacity:0.988" fill="#868687" d="M 281.5,345.5 C 280.393,347.969 278.393,348.969 275.5,348.5C 277.181,346.992 279.181,345.992 281.5,345.5 Z"/></g>
<g><path style="opacity:0.051" fill="#2b2b2c" d="M 310.5,344.5 C 308.167,348.833 304.833,352.167 300.5,354.5C 303.5,350.833 306.833,347.5 310.5,344.5 Z"/></g>
<g><path style="opacity:0.914" fill="#686969" d="M 275.5,348.5 C 273.388,350.771 270.721,352.104 267.5,352.5C 267.5,352.167 267.5,351.833 267.5,351.5C 269.89,349.98 272.557,348.98 275.5,348.5 Z"/></g>
<g><path style="opacity:0.212" fill="#262627" d="M 267.5,351.5 C 267.5,351.833 267.5,352.167 267.5,352.5C 265.784,352.629 264.117,352.962 262.5,353.5C 261.167,353.5 259.833,353.5 258.5,353.5C 261.273,352.343 264.273,351.676 267.5,351.5 Z"/></g>
<g><path style="opacity:0.765" fill="#575758" d="M 197.5,354.5 C 197.5,354.167 197.5,353.833 197.5,353.5C 199.749,354.08 201.415,355.413 202.5,357.5C 200.589,356.925 198.922,355.925 197.5,354.5 Z"/></g>
<g><path style="opacity:0.792" fill="#878789" d="M 232.5,352.5 C 233.5,352.5 234.5,352.5 235.5,352.5C 235.833,352.5 236.167,352.5 236.5,352.5C 237.5,353.167 238.5,353.833 239.5,354.5C 236.848,354.59 234.515,353.924 232.5,352.5 Z"/></g>
<g><path style="opacity:0.343" fill="#343535" d="M 236.5,352.5 C 243.804,353.302 251.138,353.635 258.5,353.5C 252.69,354.49 246.69,354.823 240.5,354.5C 240.167,354.5 239.833,354.5 239.5,354.5C 238.5,353.833 237.5,353.167 236.5,352.5 Z"/></g>
<g><path style="opacity:0.004" fill="#000000" d="M 197.5,354.5 C 196.833,355.167 196.833,355.167 197.5,354.5 Z"/></g>
<g><path style="opacity:0.914" fill="#aaaaac" d="M 258.5,353.5 C 259.833,353.5 261.167,353.5 262.5,353.5C 261.737,354.268 260.737,354.768 259.5,355C 252.986,355.82 246.653,355.653 240.5,354.5C 246.69,354.823 252.69,354.49 258.5,353.5 Z"/></g>
<g><path style="opacity:0.063" fill="#2a2b2b" d="M 299.5,355.5 C 298.738,357.262 297.404,358.262 295.5,358.5C 296.262,356.738 297.596,355.738 299.5,355.5 Z"/></g>
<g><path style="opacity:0.439" fill="#474748" d="M 202.5,357.5 C 204.404,357.738 205.738,358.738 206.5,360.5C 204.596,360.262 203.262,359.262 202.5,357.5 Z"/></g>
<g><path style="opacity:0.016" fill="#262627" d="M 295.5,358.5 C 295.027,359.906 294.027,360.573 292.5,360.5C 292.973,359.094 293.973,358.427 295.5,358.5 Z"/></g>
<g><path style="opacity:0.541" fill="#5c5d5e" d="M 206.5,360.5 C 209.546,360.725 211.879,362.058 213.5,364.5C 210.9,363.532 208.566,362.199 206.5,360.5 Z"/></g>
<g><path style="opacity:0.016" fill="#2b2b2c" d="M 290.5,361.5 C 290.027,362.906 289.027,363.573 287.5,363.5C 287.973,362.094 288.973,361.427 290.5,361.5 Z"/></g>
<g><path style="opacity:0.859" fill="#747576" d="M 213.5,364.5 C 216.491,364.166 218.824,365.166 220.5,367.5C 217.843,367.065 215.509,366.065 213.5,364.5 Z"/></g>
<g><path style="opacity:0.169" fill="#4a4a4a" d="M 287.5,363.5 C 284.912,365.625 281.912,366.958 278.5,367.5C 280.898,365.026 283.898,363.692 287.5,363.5 Z"/></g>
<g><path style="opacity:0.588" fill="#5a5a5b" d="M 220.5,367.5 C 223.855,367.69 226.855,368.69 229.5,370.5C 226.084,370.472 223.084,369.472 220.5,367.5 Z"/></g>
<g><path style="opacity:0.325" fill="#545455" d="M 278.5,367.5 C 274.597,369.898 270.264,371.231 265.5,371.5C 269.507,369.342 273.84,368.009 278.5,367.5 Z"/></g>
<g><path style="opacity:0.322" fill="#494a4a" d="M 229.5,370.5 C 232.781,370.42 235.781,371.087 238.5,372.5C 235.219,372.58 232.219,371.913 229.5,370.5 Z"/></g>
<g><path style="opacity:0.251" fill="#3d3d3d" d="M 265.5,371.5 C 260.587,373.007 255.421,373.674 250,373.5C 246.317,373.499 242.817,373.165 239.5,372.5C 248.191,372.632 256.858,372.299 265.5,371.5 Z"/></g>
</svg>
