<?xml version="1.0" encoding="UTF-8"?>
<svg version="1.1" xmlns="http://www.w3.org/2000/svg" width="512" height="512">
<path d="M0 0 C1.39637192 0.54611183 1.39637192 0.54611183 2.82095337 1.10325623 C4.83184778 1.89078326 6.84127802 2.68205736 8.84936523 3.47671509 C12.08488218 4.75706019 15.32408909 6.02762996 18.56445312 7.2956543 C21.97783859 8.6314419 25.39100165 9.96776505 28.80303955 11.30699158 C39.66517071 15.56949379 50.55339888 19.7625729 61.44775391 23.94189453 C66.81518508 26.00148065 72.18090063 28.06552832 77.546875 30.12890625 C79.75812589 30.97903545 81.96938912 31.82913259 84.18066406 32.67919922 C85.3075061 33.11238464 86.43434814 33.54557007 87.59533691 33.99188232 C90.02520764 34.92583847 92.45512812 35.85966397 94.88513184 36.79327393 C102.02874401 39.53789988 109.17172416 42.28415305 116.3131752 45.03439808 C119.43895903 46.23809584 122.56519376 47.44058512 125.69213867 48.64126587 C148.05686305 57.22972035 148.05686305 57.22972035 156.55859375 60.78515625 C157.58380127 61.21368896 158.60900879 61.64222168 159.6652832 62.08374023 C164.28780809 64.45880422 166.48626307 67.41191422 168.1328125 72.3515625 C168.2268367 73.71448697 168.26763377 75.08149481 168.27325439 76.44764709 C168.27896454 77.2808548 168.28467468 78.1140625 168.29055786 78.97251892 C168.29167572 79.88401199 168.29279358 80.79550507 168.29394531 81.73461914 C168.29891022 82.69791138 168.30387512 83.66120361 168.30899048 84.65368652 C168.323644 87.8563712 168.3304272 91.05900597 168.3359375 94.26171875 C168.33876488 95.36286955 168.34159225 96.46402035 168.34450531 97.59853935 C168.35952803 103.45103064 168.36873186 109.30349719 168.37304688 115.15600586 C168.37846825 121.13176853 168.4023504 127.10729595 168.43101883 133.08298588 C168.4499109 137.73093756 168.45486516 142.37883626 168.45638275 147.02682304 C168.45936165 149.22426038 168.46722299 151.42169792 168.48056793 153.61909676 C168.87529444 223.75065975 143.7586694 292.35650876 95.5625 343.734375 C93.61498895 345.83217629 91.76193215 347.95466023 89.9453125 350.1640625 C87.35969951 353.21845518 84.48755085 355.77155775 81.4375 358.35546875 C78.7603027 360.67419387 76.20766591 363.1072565 73.6328125 365.5390625 C45.56125768 391.54805231 11.08482401 413.0223846 -27.98535156 411.53808594 C-40.79850602 410.7087696 -51.82232566 405.52338061 -62.8671875 399.3515625 C-63.55425781 398.97225586 -64.24132812 398.59294922 -64.94921875 398.20214844 C-80.49019855 389.55946069 -94.9677321 379.50262766 -108.30053711 367.72973633 C-109.41685128 366.74772082 -110.54094156 365.77451519 -111.67016602 364.80737305 C-124.82496169 353.48606707 -137.42501966 341.09128667 -147.64160156 327.02587891 C-148.91698745 325.28352902 -150.2279065 323.57282728 -151.546875 321.86328125 C-159.17790831 311.86871349 -165.6009515 301.2404693 -171.8671875 290.3515625 C-172.2394043 289.71847168 -172.61162109 289.08538086 -172.99511719 288.43310547 C-197.23434172 247.06405575 -206.20230752 198.5358907 -206.16796875 151.17578125 C-206.17186649 148.90802432 -206.17620333 146.64026812 -206.18095398 144.37251282 C-206.18834984 139.66213591 -206.18816985 134.95183409 -206.18286133 130.24145508 C-206.17701943 124.2103581 -206.19414266 118.17956354 -206.217206 112.14851665 C-206.23192427 107.48423983 -206.23281859 102.82003667 -206.22969627 98.15574074 C-206.23020861 95.93061528 -206.23542979 93.70548561 -206.24550819 91.48038292 C-206.2578429 88.38214471 -206.25110287 85.28450783 -206.23950195 82.1862793 C-206.24714569 81.27457474 -206.25478943 80.36287018 -206.26266479 79.42353821 C-206.21175508 73.2727821 -205.27765725 68.88586691 -200.88549805 64.26806641 C-196.37564567 61.40449436 -191.54723537 59.60403957 -186.57421875 57.6875 C-185.4651265 57.25231049 -184.35603424 56.81712097 -183.21333313 56.3687439 C-179.76824149 55.02015234 -176.31834816 53.6845364 -172.8671875 52.3515625 C-170.84028423 51.56425066 -168.81342677 50.77682086 -166.78662109 49.98925781 C-160.71520479 47.63626661 -154.63526092 45.30576356 -148.5546875 42.9765625 C-146.30461495 42.11306336 -144.05461677 41.24937044 -141.8046875 40.38549805 C-137.14921817 38.59819521 -132.49343781 36.81170639 -127.83740234 35.02587891 C-117.76277737 31.16120858 -107.6912742 27.28842465 -97.62005615 23.41488647 C-94.38510855 22.17095367 -91.14985498 20.92781944 -87.91455078 19.68481445 C-77.2675773 15.59283826 -66.62674053 11.48578226 -55.99609375 7.3515625 C-53.94143038 6.55356742 -51.88674337 5.75563321 -49.83203125 4.95776367 C-45.98783201 3.46497646 -42.14570618 1.96701337 -38.3046875 0.46606445 C-36.58731992 -0.20121591 -34.86987648 -0.86830108 -33.15234375 -1.53515625 C-32.38096573 -1.83828735 -31.60958771 -2.14141846 -30.81483459 -2.45373535 C-30.10000412 -2.73027954 -29.38517365 -3.00682373 -28.64868164 -3.29174805 C-27.72811729 -3.65093575 -27.72811729 -3.65093575 -26.78895569 -4.01737976 C-17.37167876 -7.10976391 -8.83431099 -3.53104995 0 0 Z M-25.64916992 31.02197266 C-26.60826263 31.39226593 -27.56735535 31.7625592 -28.55551147 32.14407349 C-29.60066925 32.55543549 -30.64582703 32.96679749 -31.72265625 33.390625 C-32.82727203 33.81914764 -33.93188782 34.24767029 -35.06997681 34.68917847 C-38.10001455 35.86593473 -41.1276872 37.04855038 -44.1544838 38.23361206 C-47.34998844 39.48300526 -50.54849134 40.72467071 -53.74682617 41.96679688 C-57.74008375 43.51817312 -61.73305137 45.0702792 -65.7247467 46.62567139 C-78.49557908 51.60189787 -91.28317778 56.53398465 -104.07287598 61.46151733 C-120.70853699 67.87280886 -137.33928786 74.29695903 -153.95785522 80.75244141 C-155.504311 81.35315826 -157.05087818 81.95358842 -158.5975647 82.55371094 C-160.66570855 83.35638487 -162.73334153 84.16035823 -164.80078125 84.96484375 C-165.93572021 85.40610596 -167.07065918 85.84736816 -168.23999023 86.30200195 C-170.79153454 87.27895409 -170.79153454 87.27895409 -172.8671875 88.3515625 C-172.93744213 99.01964588 -172.99037457 109.68767209 -173.02262402 120.35594177 C-173.0381208 125.3124116 -173.05905712 130.26872044 -173.09350586 135.22509766 C-173.44396378 166.41791802 -173.44396378 166.41791802 -169.8671875 197.3515625 C-169.68775604 198.33079178 -169.50832458 199.31002106 -169.32345581 200.31892395 C-165.29157223 221.88795779 -158.51639081 242.63761903 -148.8671875 262.3515625 C-148.49368164 263.11774902 -148.12017578 263.88393555 -147.73535156 264.67333984 C-136.64155779 287.16113413 -122.22827228 307.28554226 -104.8671875 325.3515625 C-104.29983887 325.94614258 -103.73249023 326.54072266 -103.14794922 327.15332031 C-94.61216883 336.05403458 -85.78693217 344.0320019 -75.8671875 351.3515625 C-74.76032848 352.18868549 -73.65355713 353.02592442 -72.546875 353.86328125 C-53.31081214 368.19850781 -32.99285944 381.34064006 -8.20703125 377.9921875 C16.54172424 371.70948456 41.21683951 350.61337174 59.1328125 333.3515625 C59.79361816 332.71798828 60.45442383 332.08441406 61.13525391 331.43164062 C70.09197915 322.79953797 78.54934854 314.06879571 85.90625 304.02246094 C87.11938816 302.36984996 88.35820162 300.73931881 89.6015625 299.109375 C121.15813854 257.09426199 136.22446755 204.15988275 136.18359375 152.02734375 C136.18286865 150.53985878 136.18286865 150.53985878 136.18212891 149.02232361 C136.15461235 136.81689107 135.89293652 124.61632296 135.6328125 112.4140625 C135.58442049 110.06185337 135.53624242 107.70963983 135.48828125 105.35742188 C135.37224498 99.68874912 135.25361776 94.02013553 135.1328125 88.3515625 C119.74456187 82.14982156 104.31686636 76.06571756 88.82220459 70.13494873 C83.2080652 67.98587917 77.59628938 65.83065294 71.984375 63.67578125 C70.83840851 63.23586853 69.69244202 62.79595581 68.51174927 62.3427124 C57.37938601 58.06692826 46.25964799 53.7588368 35.14266968 49.4432373 C32.04311986 48.2402657 28.9431382 47.03841383 25.84301758 45.83691406 C9.85417049 39.63900164 9.85417049 39.63900164 2.44067383 36.7288208 C0.52716739 35.97811692 -1.38731781 35.22997858 -3.30224609 34.48291016 C-5.45968664 33.64045722 -7.61517409 32.79297383 -9.76806641 31.93896484 C-10.67347168 31.58656738 -11.57887695 31.23416992 -12.51171875 30.87109375 C-13.64637573 30.42407104 -13.64637573 30.42407104 -14.80395508 29.96801758 C-18.87293013 28.75228429 -21.85258927 29.54097777 -25.64916992 31.02197266 Z " fill="#6A64E9" transform="translate(274.8671875,52.6484375)"/>
<path d="M0 0 C0.5775 0.45375 1.155 0.9075 1.75 1.375 C4.5568635 5.02392255 5.21997301 8.8109094 5 13.3125 C3.47657751 23.31409981 -5.42287078 31.32992877 -11.63671875 38.88671875 C-14.64477173 42.55051532 -17.58597662 46.26122263 -20.5 50 C-24.98143813 55.74053616 -29.55957669 61.39694609 -34.1640625 67.0390625 C-37.65530083 71.32451618 -41.09818888 75.64329453 -44.5 80 C-48.97911268 85.73640746 -53.55344678 91.38982041 -58.15527344 97.02807617 C-61.73384756 101.42039804 -65.26108997 105.84869306 -68.75 110.3125 C-87.58583153 134.38201641 -87.58583153 134.38201641 -94.1484375 135.30078125 C-94.88320312 135.30464844 -95.61796875 135.30851563 -96.375 135.3125 C-97.46941406 135.33763672 -97.46941406 135.33763672 -98.5859375 135.36328125 C-105.13981021 134.37701885 -109.28424086 130.14107628 -113.72387695 125.63256836 C-114.36688248 124.99160721 -115.009888 124.35064606 -115.67237854 123.69026184 C-117.78500354 121.58063263 -119.8867204 119.46049036 -121.98828125 117.33984375 C-123.45646255 115.86860343 -124.92523657 114.39795437 -126.39457703 112.9278717 C-129.46629775 109.85155592 -132.53305057 106.77040379 -135.59594727 103.68530273 C-139.52799233 99.72490133 -143.46873217 95.77329789 -147.41274738 91.82482052 C-150.44232199 88.79109684 -153.46905464 85.75455218 -156.49474144 82.71695137 C-157.9475945 81.25839104 -159.40092361 79.80030474 -160.85473061 78.34269524 C-162.88016155 76.31041539 -164.90216346 74.27478935 -166.9230957 72.23803711 C-167.5272229 71.63279205 -168.1313501 71.027547 -168.75378418 70.40396118 C-173.00163018 66.11185581 -174.17062374 64.253606 -174.3125 58.25 C-174.25568726 52.97272796 -173.75321305 49.95075058 -170 46 C-165.95287543 42.51759049 -162.49377984 41.44756951 -157.34375 40.78515625 C-149.77119643 41.47930699 -145.07905298 47.60572462 -140.125 52.75 C-133.86201777 59.22939426 -133.86201777 59.22939426 -127.2109375 65.30078125 C-121.32544369 70.34695247 -115.95657593 75.93793975 -110.5 81.4375 C-109.38044368 82.5620833 -108.26065371 83.68643405 -107.140625 84.81054688 C-104.42438466 87.53769344 -101.71131708 90.26795907 -99 93 C-94.43179105 87.9352002 -89.9668909 82.84741093 -85.8125 77.4375 C-81.77333287 72.23692929 -77.66570038 67.09975255 -73.5 62 C-68.97217721 56.45105399 -64.50483659 50.8608375 -60.09375 45.21875 C-56.26180447 40.32052397 -52.37867057 35.46470315 -48.48681641 30.61401367 C-45.53749767 26.93381838 -42.60872698 23.23875675 -39.7019043 19.52490234 C-37.90136391 17.22479188 -36.09430667 14.92985438 -34.28613281 12.63574219 C-33.43648393 11.55513331 -32.58942472 10.47248265 -31.74511719 9.38769531 C-22.99850056 -1.83398309 -22.99850056 -1.83398309 -16.125 -4.8125 C-9.49586934 -5.39742329 -5.20046184 -4.11199308 0 0 Z " fill="#8A58FA" transform="translate(343,180)"/>
</svg>
