<?xml version="1.0" encoding="UTF-8"?>
<svg version="1.1" xmlns="http://www.w3.org/2000/svg" width="512" height="512">
<path d="M0 0 C2.95578234 1.32836924 3.67286931 3.18589932 5.19165039 6.01708984 C5.77035889 7.07653809 6.34906738 8.13598633 6.9453125 9.22753906 C7.54738525 10.35949707 8.14945801 11.49145508 8.76977539 12.65771484 C10.01350172 14.94806451 11.25957719 17.23714016 12.50805664 19.52490234 C13.10827637 20.62801758 13.70849609 21.73113281 14.3269043 22.86767578 C16.96340428 27.60227309 19.8648964 32.13629558 22.85961914 36.64990234 C23.2424707 37.39498047 23.62532227 38.14005859 24.01977539 38.90771484 C22.76471379 42.67289965 21.63349839 42.99184019 18.26977539 44.97021484 C8.65613204 50.89111759 -0.24736446 57.65288664 -7.98022461 65.90771484 C-9.64553681 67.57573487 -11.31230434 69.24230272 -12.98022461 70.90771484 C-25.89674892 83.86901047 -35.52532218 99.25885899 -42.98022461 115.90771484 C-43.25560059 116.51647461 -43.53097656 117.12523437 -43.81469727 117.75244141 C-60.62213094 155.50078249 -61.46196842 199.5546696 -47.16772461 238.22021484 C-39.64887419 257.58709833 -29.14943428 275.67614644 -14.98022461 290.90771484 C-14.13500244 291.8186792 -14.13500244 291.8186792 -13.27270508 292.74804688 C13.0834781 320.82357878 47.10316378 337.29480029 85.01977539 342.90771484 C85.87313477 343.04048828 86.72649414 343.17326172 87.60571289 343.31005859 C127.61272625 348.43376381 169.07796997 335.98446602 201.33227539 312.40771484 C206.81718925 308.16770801 211.99007322 303.67633323 217.01977539 298.90771484 C217.97754883 298.01439453 218.93532227 297.12107422 219.92211914 296.20068359 C250.12091309 267.46832509 266.20907725 225.76186106 267.23706055 184.49316406 C267.55897001 160.89768057 262.77382673 137.39825644 253.01977539 115.90771484 C252.72731934 115.26237793 252.43486328 114.61704102 252.13354492 113.95214844 C245.33517654 99.2001569 236.57703388 86.24153327 226.01977539 73.90771484 C225.48739258 73.25287109 224.95500977 72.59802734 224.40649414 71.92333984 C220.69031326 67.39580949 216.51022086 63.65496812 212.01977539 59.90771484 C211.21797852 59.21806641 210.41618164 58.52841797 209.59008789 57.81787109 C202.14068815 51.52898615 194.19310435 46.19114882 186.01977539 40.90771484 C187.45050542 37.06800411 189.23040072 33.62605736 191.28540039 30.08349609 C191.92864258 28.97167969 192.57188477 27.85986328 193.23461914 26.71435547 C193.91299257 25.54963495 194.59137805 24.38492144 195.26977539 23.22021484 C195.9259082 22.08648437 196.58204102 20.95275391 197.25805664 19.78466797 C201.12038373 13.12349749 205.0347031 6.49618061 209.01977539 -0.09228516 C224.15768002 2.54418045 240.27168854 19.61968878 251.01977539 29.90771484 C251.5727832 30.42817383 252.12579102 30.94863281 252.69555664 31.48486328 C292.300344 68.87696782 313.71267554 121.70542574 315.93383789 175.73193359 C317.43868263 231.34278707 296.99547836 285.55379032 258.82446289 325.97412109 C257.89016217 326.95255429 256.95526096 327.93041443 256.01977539 328.90771484 C255.54958984 329.40513184 255.0794043 329.90254883 254.5949707 330.41503906 C217.90886067 369.07579076 164.9308424 390.96395808 111.97045898 392.81591797 C55.05517401 394.091907 0.68775482 373.6545588 -40.50805664 334.31689453 C-40.99387207 333.85186523 -41.4796875 333.38683594 -41.98022461 332.90771484 C-42.4776416 332.4375293 -42.97505859 331.96734375 -43.48754883 331.48291016 C-82.41865529 294.54025404 -104.14108975 241.28730111 -105.95654297 187.99609375 C-107.0012912 131.04106336 -86.32666602 77.01365363 -46.98022461 35.90771484 C-46.45976563 35.35470703 -45.93930664 34.80169922 -45.40307617 34.23193359 C-12.53223458 -0.58404447 -12.53223458 -0.58404447 0 0 Z " fill="#FCFDFF" transform="translate(150.980224609375,74.09228515625)"/>
<path d="M0 0 C15.84 0 31.68 0 48 0 C48 62.37 48 124.74 48 189 C32.16 189 16.32 189 0 189 C0 126.63 0 64.26 0 0 Z " fill="#FCFCFF" transform="translate(232,45)"/>
</svg>
