<?xml version="1.0" encoding="UTF-8"?>
<!DOCTYPE svg PUBLIC "-//W3C//DTD SVG 1.1//EN" "http://www.w3.org/Graphics/SVG/1.1/DTD/svg11.dtd">
<svg xmlns="http://www.w3.org/2000/svg" version="1.1" width="512px" height="512px" style="shape-rendering:geometricPrecision; text-rendering:geometricPrecision; image-rendering:optimizeQuality; fill-rule:evenodd; clip-rule:evenodd" xmlns:xlink="http://www.w3.org/1999/xlink">
<g><path style="opacity:0.938" fill="#fcfdff" d="M 268.5,-0.5 C 273.167,-0.5 277.833,-0.5 282.5,-0.5C 292.418,3.4359 298.418,10.7692 300.5,21.5C 322.087,19.2111 338.587,27.2111 350,45.5C 357.138,59.5429 357.138,73.5429 350,87.5C 340.713,99.7892 331.046,111.789 321,123.5C 319.26,137.053 314.927,149.72 308,161.5C 298.707,174.621 288.874,187.288 278.5,199.5C 279.705,203.282 281.205,206.948 283,210.5C 294.426,205.205 305.926,200.038 317.5,195C 335.864,190.597 347.697,197.43 353,215.5C 367.667,254.833 382.333,294.167 397,333.5C 402.351,346.774 399.518,357.94 388.5,367C 375.344,373.411 362.344,380.078 349.5,387C 354.592,398.347 359.258,409.847 363.5,421.5C 374.505,421.333 385.505,421.5 396.5,422C 402.809,423.241 407.976,426.408 412,431.5C 415.598,440.127 419.098,448.793 422.5,457.5C 377.087,475.549 331.753,493.549 286.5,511.5C 285.5,511.5 284.5,511.5 283.5,511.5C 280.072,503.638 276.905,495.638 274,487.5C 272.235,479.04 273.901,471.373 279,464.5C 286.65,458.017 293.817,451.017 300.5,443.5C 295.794,428.55 290.794,413.717 285.5,399C 272.833,397.5 260.167,396 247.5,394.5C 171.197,424.815 95.1971,455.981 19.5,488C 14.963,490.013 10.2963,491.513 5.5,492.5C 4.01779,487.544 2.01779,482.877 -0.5,478.5C -0.5,477.833 -0.5,477.167 -0.5,476.5C 49.7052,456.4 99.7052,435.733 149.5,414.5C 140.285,386.688 130.785,359.022 121,331.5C 82.8901,346.927 44.7235,362.26 6.5,377.5C 3.8957,372.625 1.56237,367.625 -0.5,362.5C -0.5,361.833 -0.5,361.167 -0.5,360.5C 67.1637,333.585 134.664,306.252 202,278.5C 204.206,267.805 206.539,257.138 209,246.5C 211.055,241.112 214.555,236.946 219.5,234C 217.833,230.333 216.167,226.667 214.5,223C 199.785,221.395 185.118,219.395 170.5,217C 156.772,213.135 144.105,207.135 132.5,199C 119.833,197.667 107.167,196.333 94.5,195C 63.9785,187.804 50.8118,168.638 55,137.5C 58.5394,123.958 66.5394,113.958 79,107.5C 78.1056,102.804 76.7722,98.1373 75,93.5C 73.0218,82.7647 76.1884,73.9313 84.5,67C 145.817,44.1753 207.15,21.6753 268.5,-0.5 Z M 273.5,17.5 C 277.025,17.3459 279.859,18.6792 282,21.5C 288.667,41.5 295.333,61.5 302,81.5C 308.493,106.894 305.159,130.894 292,153.5C 280.689,167.645 269.189,181.645 257.5,195.5C 259.932,201.628 262.265,207.794 264.5,214C 255.719,218.803 246.553,222.97 237,226.5C 233.305,220.264 230.472,213.597 228.5,206.5C 210.36,205.442 192.36,203.275 174.5,200C 151.392,192.884 133.559,179.051 121,158.5C 110.906,135.212 101.406,111.712 92.5,88C 93.4082,84.7565 95.4082,82.4232 98.5,81C 157.046,60.0987 215.38,38.932 273.5,17.5 Z M 307.5,39.5 C 330.597,40.7617 340.097,52.7617 336,75.5C 332.157,81.8534 327.823,87.8534 323,93.5C 318.743,75.2298 313.576,57.2298 307.5,39.5 Z M 86.5,124.5 C 91.2237,134.962 95.7237,145.629 100,156.5C 103.871,164.414 108.371,171.914 113.5,179C 99.0519,181.061 86.8853,176.894 77,166.5C 68.0758,149.694 71.2425,135.694 86.5,124.5 Z M 323.5,208.5 C 327.426,208.047 330.592,209.38 333,212.5C 335.069,218.206 337.235,223.872 339.5,229.5C 326.298,234.234 312.965,238.567 299.5,242.5C 300.833,248.167 302.167,253.833 303.5,259.5C 317.489,255.671 331.322,251.337 345,246.5C 347.872,254.95 351.039,263.284 354.5,271.5C 342.056,276.482 329.389,280.982 316.5,285C 316.167,285.333 315.833,285.667 315.5,286C 317.324,291.473 319.158,296.973 321,302.5C 334.281,297.462 347.781,293.128 361.5,289.5C 363.806,297.917 366.806,306.084 370.5,314C 358.637,318.399 346.637,322.399 334.5,326C 333.572,326.388 332.905,327.055 332.5,328C 334.202,332.773 335.702,337.606 337,342.5C 337.414,342.957 337.914,343.291 338.5,343.5C 351.054,339.26 363.554,334.927 376,330.5C 377.922,334.758 379.756,339.092 381.5,343.5C 380.966,345.614 379.966,347.448 378.5,349C 355.623,360.605 332.623,371.939 309.5,383C 289.514,381.52 269.681,379.02 250,375.5C 239.932,345.13 229.765,314.796 219.5,284.5C 221.665,274.179 223.832,263.845 226,253.5C 227.944,250.266 230.778,248.1 234.5,247C 264.474,234.629 294.14,221.796 323.5,208.5 Z M 203.5,297.5 C 204.117,297.611 204.617,297.944 205,298.5C 214.265,325.463 223.432,352.463 232.5,379.5C 210.763,389.542 188.763,398.709 166.5,407C 157.167,379.667 147.833,352.333 138.5,325C 144.354,322.053 150.354,319.72 156.5,318C 163.676,338.861 170.842,359.694 178,380.5C 183.003,378.332 188.17,376.666 193.5,375.5C 187.204,353.78 180.204,332.28 172.5,311C 182.859,306.387 193.192,301.887 203.5,297.5 Z M 329.5,393.5 C 330.675,393.281 331.675,393.614 332.5,394.5C 336.371,403.74 340.371,412.907 344.5,422C 335.408,425.364 326.242,428.531 317,431.5C 316.055,431.095 315.388,430.428 315,429.5C 312.129,420.387 308.962,411.387 305.5,402.5C 314.182,401.152 322.182,398.152 329.5,393.5 Z M 353.5,438.5 C 366.837,438.333 380.171,438.5 393.5,439C 396.909,441.126 398.242,443.959 397.5,447.5C 363.833,461 330.167,474.5 296.5,488C 292.732,488.409 290.732,486.576 290.5,482.5C 290.967,480.432 291.634,478.432 292.5,476.5C 301.682,467.484 311.016,458.651 320.5,450C 331.711,446.431 342.711,442.598 353.5,438.5 Z"/></g>
<g><path style="opacity:0.939" fill="#fcfdff" d="M 409.5,36.5 C 415.5,36.5 421.5,36.5 427.5,36.5C 425.801,65.7986 439.468,82.4653 468.5,86.5C 468.5,92.1667 468.5,97.8333 468.5,103.5C 448.917,104.601 435.751,114.267 429,132.5C 427.661,139.426 427.161,146.426 427.5,153.5C 421.5,153.5 415.5,153.5 409.5,153.5C 411.172,124.177 397.505,107.511 368.5,103.5C 368.5,97.8333 368.5,92.1667 368.5,86.5C 397.481,82.5102 411.148,65.8435 409.5,36.5 Z M 417.5,76.5 C 420.635,79.8081 423.635,83.3081 426.5,87C 429.833,89.6667 433.167,92.3333 436.5,95C 429,99.8333 422.833,106 418,113.5C 413.167,106 407,99.8333 399.5,95C 407.067,90.2675 413.067,84.1008 417.5,76.5 Z"/></g>
<g><path style="opacity:0.925" fill="#fcfdff" d="M 257.5,40.5 C 259.017,40.5106 260.184,41.1772 261,42.5C 278.879,71.2168 283.546,101.883 275,134.5C 271.077,144.012 265.41,152.345 258,159.5C 253.786,155.622 249.952,151.455 246.5,147C 256.617,135.5 261.95,122 262.5,106.5C 261.109,86.3281 255.109,67.6614 244.5,50.5C 248.852,47.1426 253.185,43.8093 257.5,40.5 Z"/></g>
<g><path style="opacity:0.935" fill="#fcfdff" d="M 44.5,202.5 C 50.5,202.5 56.5,202.5 62.5,202.5C 60.7074,231.366 74.0407,248.032 102.5,252.5C 103.495,258.128 103.829,263.794 103.5,269.5C 83.9469,270.563 70.7802,280.23 64,298.5C 62.661,305.426 62.161,312.426 62.5,319.5C 56.5,319.5 50.5,319.5 44.5,319.5C 45.994,289.67 31.994,273.004 2.5,269.5C 2.5,263.833 2.5,258.167 2.5,252.5C 31.9537,248.969 45.9537,232.302 44.5,202.5 Z M 52.5,242.5 C 56.267,246.501 59.9336,250.667 63.5,255C 66.1667,257 68.8333,259 71.5,261C 64,265.833 57.8333,272 53,279.5C 48.1667,272 42,265.833 34.5,261C 42.0671,256.267 48.0671,250.101 52.5,242.5 Z"/></g>
<g><path style="opacity:0.938" fill="#fcfdff" d="M 442.5,202.5 C 448.5,202.5 454.5,202.5 460.5,202.5C 458.717,231.374 472.05,248.041 500.5,252.5C 501.495,258.128 501.829,263.794 501.5,269.5C 472.499,273.508 458.832,290.174 460.5,319.5C 454.5,319.5 448.5,319.5 442.5,319.5C 444.996,296.978 435.996,281.145 415.5,272C 410.904,270.714 406.237,269.881 401.5,269.5C 401.171,263.794 401.505,258.128 402.5,252.5C 430.981,248.014 444.314,231.347 442.5,202.5 Z M 451.5,242.5 C 456.64,249.806 462.973,255.972 470.5,261C 466.89,262.944 463.557,265.277 460.5,268C 457.658,271.672 454.658,275.172 451.5,278.5C 446.672,271.506 440.672,265.672 433.5,261C 440.374,255.627 446.374,249.46 451.5,242.5 Z"/></g>
</svg>
