<?xml version="1.0" encoding="UTF-8"?>
<svg version="1.1" xmlns="http://www.w3.org/2000/svg" width="512" height="512">
<path d="M0 0 C2.55410917 -0.00435318 5.10821704 -0.00953834 7.662323 -0.01548767 C13.85210929 -0.02744276 20.04183569 -0.03003688 26.23163125 -0.02768741 C31.26928625 -0.02589625 36.30692816 -0.02767089 41.3445816 -0.03191185 C42.06463238 -0.03250704 42.78468315 -0.03310223 43.52655365 -0.03371545 C44.98988301 -0.03492735 46.45321237 -0.03614148 47.91654173 -0.03735783 C61.60684734 -0.04820741 75.29712826 -0.04608329 88.98743525 -0.03997298 C101.47421185 -0.03480746 113.96091035 -0.04605427 126.4476715 -0.0650712 C139.31001014 -0.08450792 152.17231194 -0.09269533 165.03466535 -0.08894795 C172.23945262 -0.08704456 179.44417348 -0.08943859 186.64894867 -0.10366249 C193.42885599 -0.11691361 200.20858285 -0.11423758 206.98849869 -0.1012516 C209.46428863 -0.09889982 211.94008972 -0.10156977 214.41586685 -0.10987473 C231.6967058 -0.16362356 248.15859017 0.79894577 264.77050781 5.9621582 C265.59615234 6.21489502 266.42179687 6.46763184 267.27246094 6.72802734 C275.53648303 9.37375497 283.07537129 13.07669241 290.64550781 17.2746582 C291.72445313 17.8521582 292.80339844 18.4296582 293.91503906 19.0246582 C301.16306093 23.04410037 307.40876248 27.83584941 313.64550781 33.2746582 C314.50144531 34.00813477 315.35738281 34.74161133 316.23925781 35.49731445 C336.45349669 53.18477347 350.50382303 76.44455542 357.64550781 102.2746582 C357.85578613 102.99830566 358.06606445 103.72195312 358.28271484 104.4675293 C364.56859606 126.82894203 364.09088287 154.02916235 357.64550781 176.2746582 C357.44183594 177.01989746 357.23816406 177.76513672 357.02832031 178.53295898 C347.35000256 213.35548652 323.2712441 242.85723084 292.12060547 260.82739258 C281.72749381 266.59167889 270.87118332 270.81837771 259.45800781 274.0871582 C258.78261963 274.28220947 258.10723145 274.47726074 257.41137695 274.67822266 C242.17775322 278.77339934 226.93645168 278.56698197 211.29101562 278.54931641 C208.73690645 278.55366958 206.18279858 278.55885474 203.62869263 278.56480408 C197.43890634 278.57675917 191.24917994 278.57935328 185.05938438 278.57700381 C180.02172938 278.57521265 174.98408746 278.57698729 169.94643402 278.58122826 C169.22638325 278.58182345 168.50633247 278.58241863 167.76446198 278.58303186 C166.30113262 278.58424376 164.83780326 278.58545789 163.3744739 278.58667424 C149.68416828 278.59752381 135.99388736 278.59539969 122.30358037 278.58928939 C109.81680378 278.58412386 97.33010528 278.59537067 84.84334412 278.61438761 C71.98100548 278.63382433 59.11870368 278.64201174 46.25635028 278.63826436 C39.05156301 278.63636096 31.84684214 278.638755 24.64206696 278.6529789 C17.86215964 278.66623002 11.08243278 278.66355399 4.30251694 278.65056801 C1.826727 278.64821623 -0.6490741 278.65088617 -3.12485123 278.65919113 C-20.40569018 278.71293996 -36.86757454 277.75037064 -53.47949219 272.5871582 C-54.30513672 272.33442139 -55.13078125 272.08168457 -55.98144531 271.82128906 C-64.2454674 269.17556144 -71.78435566 265.472624 -79.35449219 261.2746582 C-80.4334375 260.6971582 -81.51238281 260.1196582 -82.62402344 259.5246582 C-89.87204531 255.50521604 -96.11774686 250.713467 -102.35449219 245.2746582 C-103.21042969 244.54118164 -104.06636719 243.80770508 -104.94824219 243.05200195 C-125.16248106 225.36454294 -139.2128074 202.10476099 -146.35449219 176.2746582 C-146.56477051 175.55101074 -146.77504883 174.82736328 -146.99169922 174.08178711 C-153.27758043 151.72037438 -152.79986724 124.52015406 -146.35449219 102.2746582 C-146.15082031 101.52941895 -145.94714844 100.78417969 -145.73730469 100.01635742 C-136.05898693 65.19382989 -111.98022848 35.69208557 -80.82958984 17.72192383 C-70.43647818 11.95763751 -59.58016769 7.7309387 -48.16699219 4.4621582 C-47.15390991 4.1695813 -47.15390991 4.1695813 -46.12036133 3.87109375 C-30.8867376 -0.22408294 -15.64543605 -0.01766556 0 0 Z " fill="#FBFCFE" transform="translate(150.3544921875,116.725341796875)"/>
<path d="M0 0 C17.45231529 14.22162891 30.96464629 36.03107831 33.78955078 58.6003418 C36.36548798 85.30365547 32.11568831 111.17508761 15.11376953 132.6784668 C13.80615557 134.22427988 12.4941496 135.7663967 11.17626953 137.3034668 C10.73154297 137.89256836 10.28681641 138.48166992 9.82861328 139.08862305 C-2.88880549 155.53959596 -26.8920342 167.22421918 -47.18310547 170.01831055 C-75.97694783 172.27362223 -101.79867701 166.28280817 -124.26904297 147.4831543 C-136.33276106 136.97554134 -144.23449717 124.74806998 -150.82373047 110.3034668 C-151.35998047 109.14459961 -151.89623047 107.98573242 -152.44873047 106.79174805 C-153.89178642 103.13081348 -154.72219563 99.66767408 -155.44873047 95.8034668 C-155.68849609 94.5556543 -155.92826172 93.3078418 -156.17529297 92.0222168 C-160.79405452 65.53389753 -155.51358343 40.81835142 -140.27294922 18.6237793 C-125.19009999 -2.34879692 -102.10583021 -16.74502783 -76.65185547 -21.2590332 C-48.26724256 -24.50298896 -22.49515738 -17.70029373 0 0 Z " fill="#26F4D0" transform="translate(434.82373046875,181.696533203125)"/>
<path d="M0 0 C9.03942129 5.23722238 14.15165157 11.57995471 17.4375 21.4375 C17.55543903 23.25980198 17.61688474 25.08598671 17.64624023 26.91186523 C17.66553085 28.03410995 17.68482147 29.15635468 17.70469666 30.31260681 C17.76265823 35.46999073 17.81206746 40.62729416 17.8425293 45.78491211 C17.86024363 48.49601394 17.89489925 51.20605603 17.94506836 53.91674805 C18.01242243 57.83934359 18.03959431 61.76049963 18.05859375 65.68359375 C18.08642441 66.88092636 18.11425507 68.07825897 18.14292908 69.31187439 C18.11834576 79.50681454 14.97705571 87.65272953 8.25 95.375 C0.34795114 102.38377377 -8.38656721 104.47382562 -18.74609375 103.92578125 C-24.17029038 103.23179499 -28.09357229 101.51951911 -32.5625 98.4375 C-33.635 97.715625 -34.7075 96.99375 -35.8125 96.25 C-44.65080804 87.21082132 -46.87453999 77.7125132 -46.93359375 65.4609375 C-46.94262222 64.29930084 -46.9516507 63.13766418 -46.96095276 61.94082642 C-46.97543832 59.48482837 -46.98433777 57.02879188 -46.98803711 54.57275391 C-46.99989341 50.84600337 -47.04906604 47.12093079 -47.09960938 43.39453125 C-47.10907924 41.00000802 -47.11631158 38.60547468 -47.12109375 36.2109375 C-47.14062607 35.11051117 -47.16015839 34.01008484 -47.18028259 32.87631226 C-47.12353132 22.97055834 -44.30557226 13.33248302 -37.375 5.96875 C-26.75138032 -3.00637697 -12.84640715 -6.11423935 0 0 Z " fill="#475C66" transform="translate(131.5625,205.5625)"/>
<path d="M0 0 C3.67579477 1.37688175 4.87643943 2.99276594 6.62890625 6.453125 C7.10166992 7.37279053 7.57443359 8.29245605 8.06152344 9.23999023 C8.80450684 10.72994507 8.80450684 10.72994507 9.5625 12.25 C10.07973633 13.26457275 10.59697266 14.27914551 11.12988281 15.32446289 C12.76623483 18.54326766 14.38459508 21.77063808 16 25 C17.07664003 27.13941496 18.15345943 29.27873967 19.23046875 31.41796875 C21.83566845 36.60439519 24.42436048 41.79883521 27 47 C27.00410889 45.81970215 27.00821777 44.6394043 27.01245117 43.42333984 C27.03428528 39.02836933 27.0886191 34.63428865 27.15258789 30.23974609 C27.17573066 28.34074455 27.19015486 26.44161534 27.19555664 24.54248047 C27.2048736 21.8061603 27.24592231 19.07183785 27.29296875 16.3359375 C27.2890361 15.49195404 27.28510345 14.64797058 27.28105164 13.77841187 C27.42718178 7.82419842 28.68566302 5.14414697 33 1 C36.23081745 -0.61540873 39.50759098 -0.5896275 43 0 C46.52787301 1.95657197 48.70285021 4.10855063 50 8 C50.11197671 10.84344229 50.16769117 13.66300347 50.17700195 16.50708008 C50.18357315 17.37570175 50.19014435 18.24432343 50.19691467 19.13926697 C50.21663781 22.0160226 50.22830761 24.89272607 50.23828125 27.76953125 C50.24235678 28.75222174 50.2464323 29.73491222 50.25063133 30.74738121 C50.2714871 35.94787765 50.2857914 41.14834774 50.29516602 46.34887695 C50.30623406 51.7191113 50.34064004 57.0889317 50.38033772 62.45901966 C50.40648506 66.58974477 50.41485615 70.72037091 50.41844749 74.85117149 C50.4233177 76.83070359 50.43494402 78.81023114 50.45348549 80.78968239 C50.47783852 83.5617008 50.47691902 86.33264365 50.4699707 89.10473633 C50.48278076 89.92001801 50.49559082 90.73529968 50.50878906 91.57528687 C50.46078888 96.83710211 49.49887562 99.83491927 46 104 C42.80781862 106.12812092 40.89580568 106.2986123 37.1328125 106.4609375 C33.8448369 105.75034937 32.44410004 104.35275868 30 102 C27.98464455 98.78231155 26.35087457 95.39999697 24.69921875 91.984375 C24.2179805 91.01340881 23.73674225 90.04244263 23.24092102 89.04205322 C21.71172419 85.95016771 20.19945918 82.85034548 18.6875 79.75 C17.6514978 77.64789148 16.61440065 75.54632221 15.57617188 73.4453125 C13.03805892 68.30305667 10.51378437 63.1541887 8 58 C7.98541748 59.18029785 7.97083496 60.3605957 7.95581055 61.57666016 C7.89767303 65.97149375 7.82044119 70.36582326 7.73754883 74.76025391 C7.70437207 76.65925899 7.67631769 78.55836096 7.65356445 80.45751953 C7.61988482 83.19345235 7.5675628 85.92850311 7.51171875 88.6640625 C7.50213387 89.93003769 7.50213387 89.93003769 7.49235535 91.22158813 C7.36917219 96.20249934 6.72341965 99.66872748 4 104 C1.04881112 106.40467242 -2.29107729 106.41186021 -6.03125 106.328125 C-9.14316604 105.80947233 -10.85067869 104.21445226 -13 102 C-14.67070714 98.65858572 -14.16556284 94.89868522 -14.17700195 91.22338867 C-14.18357315 90.31429245 -14.19014435 89.40519623 -14.19691467 88.46855164 C-14.21667051 85.45168989 -14.22831508 82.43487797 -14.23828125 79.41796875 C-14.24235678 78.38898279 -14.2464323 77.35999683 -14.25063133 76.29982948 C-14.27150137 70.85410385 -14.28579931 65.40840348 -14.29516602 59.96264648 C-14.30623513 54.33334179 -14.34063833 48.70443188 -14.38033772 43.07526684 C-14.40646285 38.7507096 -14.41485419 34.42624703 -14.41844749 30.10161781 C-14.42332371 28.02636358 -14.43496701 25.95111385 -14.45348549 23.87593651 C-14.47779045 20.97190296 -14.47692769 18.06889869 -14.4699707 15.16479492 C-14.48278076 14.30694397 -14.49559082 13.44909302 -14.50878906 12.56524658 C-14.47334944 8.50819369 -14.31571727 6.49906374 -12.09562683 2.98970032 C-8.44734757 -0.47417135 -4.86262586 -0.54131118 0 0 Z " fill="#475B65" transform="translate(185,203)"/>
<path d="M0 0 C1.13888672 0.04833984 1.13888672 0.04833984 2.30078125 0.09765625 C5.92042086 1.37134286 7.91563082 3.63467557 9.6875 6.9375 C10.39655473 10.65264075 10.34158367 14.29386539 10.28125 18.06640625 C10.28129028 19.1336644 10.28133057 20.20092255 10.28137207 21.30052185 C10.27602381 23.55058704 10.25847103 25.80065218 10.22949219 28.05053711 C10.18759794 31.49195482 10.18842973 34.93141683 10.1953125 38.37304688 C10.18482082 40.56251358 10.17188285 42.75197022 10.15625 44.94140625 C10.15604858 45.96859268 10.15584717 46.99577911 10.15563965 48.05409241 C10.00791987 56.9781904 10.00791987 56.9781904 6.6875 60.9375 C3.92866669 63.09982881 2.17207897 63.87692763 -1.3125 64.3125 C-4.76251843 63.8812477 -6.57587663 63.06598485 -9.3125 60.9375 C-11.23155935 57.86873356 -11.57560969 55.46960558 -11.61889648 51.88110352 C-11.63488388 50.87648575 -11.65087128 49.87186798 -11.66734314 48.83680725 C-11.67270584 47.75757492 -11.67806854 46.67834259 -11.68359375 45.56640625 C-11.69262222 44.45192612 -11.7016507 43.33744598 -11.71095276 42.18919373 C-11.72545471 39.83310635 -11.73434185 37.47697871 -11.73803711 35.12084961 C-11.74994474 31.51672658 -11.79914341 27.9143092 -11.84960938 24.31054688 C-11.85907233 22.02084169 -11.86630797 19.73112599 -11.87109375 17.44140625 C-11.89062607 16.36419815 -11.91015839 15.28699005 -11.93028259 14.17713928 C-11.8851136 6.68750722 -11.8851136 6.68750722 -8.90258789 2.78100586 C-5.55865512 0.40094776 -4.04444459 -0.26509805 0 0 Z " fill="#FAFBFD" transform="translate(118.3125,224.0625)"/>
</svg>
