<?xml version="1.0" encoding="UTF-8"?>
<svg version="1.1" xmlns="http://www.w3.org/2000/svg" width="512" height="512">
<path d="M0 0 C2.55410917 -0.00435318 5.10821704 -0.00953834 7.662323 -0.01548767 C13.85210929 -0.02744276 20.04183569 -0.03003688 26.23163125 -0.02768741 C31.26928625 -0.02589625 36.30692816 -0.02767089 41.3445816 -0.03191185 C42.06463238 -0.03250704 42.78468315 -0.03310223 43.52655365 -0.03371545 C44.98988301 -0.03492735 46.45321237 -0.03614148 47.91654173 -0.03735783 C61.60684734 -0.04820741 75.29712826 -0.04608329 88.98743525 -0.03997298 C101.47421185 -0.03480746 113.96091035 -0.04605427 126.4476715 -0.0650712 C139.31001014 -0.08450792 152.17231194 -0.09269533 165.03466535 -0.08894795 C172.23945262 -0.08704456 179.44417348 -0.08943859 186.64894867 -0.10366249 C193.42885599 -0.11691361 200.20858285 -0.11423758 206.98849869 -0.1012516 C209.46428863 -0.09889982 211.94008972 -0.10156977 214.41586685 -0.10987473 C231.6967058 -0.16362356 248.15859017 0.79894577 264.77050781 5.9621582 C265.59615234 6.21489502 266.42179687 6.46763184 267.27246094 6.72802734 C275.53648303 9.37375497 283.07537129 13.07669241 290.64550781 17.2746582 C291.72445313 17.8521582 292.80339844 18.4296582 293.91503906 19.0246582 C301.16306093 23.04410037 307.40876248 27.83584941 313.64550781 33.2746582 C314.50144531 34.00813477 315.35738281 34.74161133 316.23925781 35.49731445 C336.45349669 53.18477347 350.50382303 76.44455542 357.64550781 102.2746582 C357.85578613 102.99830566 358.06606445 103.72195312 358.28271484 104.4675293 C364.56859606 126.82894203 364.09088287 154.02916235 357.64550781 176.2746582 C357.44183594 177.01989746 357.23816406 177.76513672 357.02832031 178.53295898 C347.35000256 213.35548652 323.2712441 242.85723084 292.12060547 260.82739258 C281.72749381 266.59167889 270.87118332 270.81837771 259.45800781 274.0871582 C258.78261963 274.28220947 258.10723145 274.47726074 257.41137695 274.67822266 C242.17775322 278.77339934 226.93645168 278.56698197 211.29101562 278.54931641 C208.73690645 278.55366958 206.18279858 278.55885474 203.62869263 278.56480408 C197.43890634 278.57675917 191.24917994 278.57935328 185.05938438 278.57700381 C180.02172938 278.57521265 174.98408746 278.57698729 169.94643402 278.58122826 C169.22638325 278.58182345 168.50633247 278.58241863 167.76446198 278.58303186 C166.30113262 278.58424376 164.83780326 278.58545789 163.3744739 278.58667424 C149.68416828 278.59752381 135.99388736 278.59539969 122.30358037 278.58928939 C109.81680378 278.58412386 97.33010528 278.59537067 84.84334412 278.61438761 C71.98100548 278.63382433 59.11870368 278.64201174 46.25635028 278.63826436 C39.05156301 278.63636096 31.84684214 278.638755 24.64206696 278.6529789 C17.86215964 278.66623002 11.08243278 278.66355399 4.30251694 278.65056801 C1.826727 278.64821623 -0.6490741 278.65088617 -3.12485123 278.65919113 C-20.40569018 278.71293996 -36.86757454 277.75037064 -53.47949219 272.5871582 C-54.30513672 272.33442139 -55.13078125 272.08168457 -55.98144531 271.82128906 C-64.2454674 269.17556144 -71.78435566 265.472624 -79.35449219 261.2746582 C-80.4334375 260.6971582 -81.51238281 260.1196582 -82.62402344 259.5246582 C-89.87204531 255.50521604 -96.11774686 250.713467 -102.35449219 245.2746582 C-103.21042969 244.54118164 -104.06636719 243.80770508 -104.94824219 243.05200195 C-125.16248106 225.36454294 -139.2128074 202.10476099 -146.35449219 176.2746582 C-146.56477051 175.55101074 -146.77504883 174.82736328 -146.99169922 174.08178711 C-153.27758043 151.72037438 -152.79986724 124.52015406 -146.35449219 102.2746582 C-146.15082031 101.52941895 -145.94714844 100.78417969 -145.73730469 100.01635742 C-136.05898693 65.19382989 -111.98022848 35.69208557 -80.82958984 17.72192383 C-70.43647818 11.95763751 -59.58016769 7.7309387 -48.16699219 4.4621582 C-47.15390991 4.1695813 -47.15390991 4.1695813 -46.12036133 3.87109375 C-30.8867376 -0.22408294 -15.64543605 -0.01766556 0 0 Z " fill="#FBFCFE" transform="translate(150.3544921875,116.725341796875)"/>
<path d="M0 0 C1.14597656 0.38542969 2.29195313 0.77085937 3.47265625 1.16796875 C28.94656527 10.37432885 48.56034675 28.5239602 60.12744141 52.98974609 C65.56847613 65.52513499 67.18069943 77.66247076 67.1875 91.25 C67.19974609 92.52230469 67.21199219 93.79460937 67.22460938 95.10546875 C67.26584381 121.74291172 55.82667856 143.79709294 37.53515625 162.5234375 C17.73256849 181.33108163 -8.28748033 188.94946854 -35.03515625 188.37109375 C-50.29021197 187.67891376 -63.89445048 182.57102366 -77 175 C-78.01707031 174.42121094 -79.03414062 173.84242188 -80.08203125 173.24609375 C-101.96666031 160.05410057 -116.62204033 137.56815239 -122.74609375 113.0078125 C-127.71823531 86.60402626 -122.84204597 59.38151179 -107.72460938 37.12207031 C-92.94328099 16.46500158 -70.93591016 1.54939372 -45.8203125 -3.33984375 C-30.47699503 -5.76436202 -14.69870902 -5.03066184 0 0 Z " fill="#FB3690" transform="translate(167,164)"/>
<path d="M0 0 C9.19243858 5.33311314 14.49433719 12.45563561 17.5 22.5625 C18.04199992 26.77856505 18.06203521 30.93689994 18.03125 35.18359375 C18.03699036 36.95441063 18.03699036 36.95441063 18.04284668 38.76100159 C18.04555478 41.24440367 18.03827138 43.72783482 18.02148438 46.21118164 C18.00008027 49.98584423 18.02131612 53.75859939 18.046875 57.53320312 C18.04423116 59.95833749 18.03910502 62.38347067 18.03125 64.80859375 C18.03934692 65.92350693 18.04744385 67.0384201 18.05578613 68.18711853 C17.92898748 78.92778453 15.28734891 87.77128857 7.79296875 95.6171875 C-0.49164206 102.64569889 -9.93803462 104.53801069 -20.54296875 103.82324219 C-28.87165977 102.71358126 -35.34111721 97.44309995 -40.78125 91.39453125 C-45.93929335 82.89548256 -47.10234027 74.59743162 -47.03125 64.80859375 C-47.0350769 63.62709244 -47.03890381 62.44559113 -47.04284668 61.22828674 C-47.0455521 58.74666484 -47.03828774 56.26501375 -47.02148438 53.78344727 C-47.00003789 50.00667224 -47.02134503 46.2317952 -47.046875 42.45507812 C-47.04423186 40.03124585 -47.03910716 37.60741474 -47.03125 35.18359375 C-47.03934692 34.06665634 -47.04744385 32.94971893 -47.05578613 31.79893494 C-46.93254748 21.39063301 -44.17253447 13.16569284 -36.875 5.61328125 C-26.30936603 -3.51000466 -12.79284416 -5.76647142 0 0 Z " fill="#465B65" transform="translate(302.5,205.4375)"/>
<path d="M0 0 C1.88554239 -0.01653985 3.7710226 -0.04380394 5.65625 -0.08203125 C8.37891062 -0.13694285 11.10010156 -0.15869661 13.82324219 -0.17333984 C14.66095154 -0.19600922 15.49866089 -0.21867859 16.36175537 -0.24203491 C20.57922244 -0.22689496 23.26538263 0.05545215 26.60888672 2.75610352 C29.5663273 5.84950833 30.09837183 7.25102952 30.33105469 11.35400391 C29.91873718 14.75229816 28.26878638 16.8068586 26.08886719 19.35009766 C22.64252836 21.64765687 21.37818328 21.58653741 17.32714844 21.54541016 C16.20888672 21.53896484 15.090625 21.53251953 13.93847656 21.52587891 C12.18760742 21.50074219 12.18760742 21.50074219 10.40136719 21.47509766 C9.22251953 21.46607422 8.04367187 21.45705078 6.82910156 21.44775391 C3.91560376 21.42416283 1.00221015 21.38829152 -1.91113281 21.35009766 C-1.91113281 28.28009766 -1.91113281 35.21009766 -1.91113281 42.35009766 C0.11011719 42.26759766 2.13136719 42.18509766 4.21386719 42.10009766 C9.96688228 42.09383757 12.9091583 42.39631897 17.08886719 46.35009766 C19.59191097 50.10466332 19.54166793 51.897557 19.08886719 56.35009766 C16.98162021 60.33881516 15.33634934 62.78638419 11.08886719 64.35009766 C7.85449219 64.54541016 7.85449219 64.54541016 4.33886719 64.47509766 C3.16839844 64.45705078 1.99792969 64.43900391 0.79199219 64.42041016 C-0.10003906 64.39720703 -0.99207031 64.37400391 -1.91113281 64.35009766 C-1.89018555 65.3486377 -1.86923828 66.34717773 -1.84765625 67.37597656 C-1.77496581 71.09946209 -1.72922861 74.82288556 -1.69140625 78.546875 C-1.67135654 80.1550554 -1.64410918 81.76316349 -1.609375 83.37109375 C-1.56056018 85.68979786 -1.53809853 88.00753391 -1.52050781 90.32666016 C-1.49986267 91.03940094 -1.47921753 91.75214172 -1.45794678 92.48648071 C-1.4556799 97.59050376 -2.68434861 100.43643817 -5.91113281 104.35009766 C-9.60325151 106.81151012 -12.62468086 107.03659973 -16.91113281 106.35009766 C-20.46170537 104.18887958 -22.48112742 102.22851984 -23.91113281 98.35009766 C-24.1177111 95.41490843 -24.21517003 92.57353958 -24.2175293 89.63769531 C-24.22585281 88.75917404 -24.23417633 87.88065277 -24.24275208 86.97550964 C-24.26684498 84.07168138 -24.27562313 81.16807776 -24.28222656 78.26416016 C-24.29119308 76.2440077 -24.30031493 74.22385592 -24.30958557 72.20370483 C-24.32607595 67.96863186 -24.33377584 63.73363795 -24.33666992 59.49853516 C-24.34205525 54.075511 -24.37974156 48.65323117 -24.42541409 43.23041725 C-24.45517589 39.05764053 -24.46239328 34.88504329 -24.46339607 30.71216965 C-24.46759972 28.71309371 -24.4800398 26.7140173 -24.50091362 24.71504593 C-24.52781099 21.91657206 -24.52300771 19.11982678 -24.51049805 16.32128906 C-24.52533234 15.49822769 -24.54016663 14.67516632 -24.55545044 13.8271637 C-24.50291481 9.69391826 -24.1403921 7.12268601 -21.49867249 3.85189819 C-15.86024757 -1.59969531 -7.44707757 0.04788701 0 0 Z " fill="#485D67" transform="translate(428.9111328125,202.64990234375)"/>
<path d="M0 0 C1.88554239 -0.01653985 3.7710226 -0.04380394 5.65625 -0.08203125 C8.37891062 -0.13694285 11.10010156 -0.15869661 13.82324219 -0.17333984 C14.66095154 -0.19600922 15.49866089 -0.21867859 16.36175537 -0.24203491 C20.57922244 -0.22689496 23.26538263 0.05545215 26.60888672 2.75610352 C29.5663273 5.84950833 30.09837183 7.25102952 30.33105469 11.35400391 C29.91873718 14.75229816 28.26878638 16.8068586 26.08886719 19.35009766 C22.64252836 21.64765687 21.37818328 21.58653741 17.32714844 21.54541016 C16.20888672 21.53896484 15.090625 21.53251953 13.93847656 21.52587891 C12.18760742 21.50074219 12.18760742 21.50074219 10.40136719 21.47509766 C9.22251953 21.46607422 8.04367187 21.45705078 6.82910156 21.44775391 C3.91560376 21.42416283 1.00221015 21.38829152 -1.91113281 21.35009766 C-1.91113281 28.28009766 -1.91113281 35.21009766 -1.91113281 42.35009766 C0.11011719 42.26759766 2.13136719 42.18509766 4.21386719 42.10009766 C9.96688228 42.09383757 12.9091583 42.39631897 17.08886719 46.35009766 C19.59191097 50.10466332 19.54166793 51.897557 19.08886719 56.35009766 C16.98162021 60.33881516 15.33634934 62.78638419 11.08886719 64.35009766 C7.85449219 64.54541016 7.85449219 64.54541016 4.33886719 64.47509766 C3.16839844 64.45705078 1.99792969 64.43900391 0.79199219 64.42041016 C-0.10003906 64.39720703 -0.99207031 64.37400391 -1.91113281 64.35009766 C-1.89018555 65.3486377 -1.86923828 66.34717773 -1.84765625 67.37597656 C-1.77496581 71.09946209 -1.72922861 74.82288556 -1.69140625 78.546875 C-1.67135654 80.1550554 -1.64410918 81.76316349 -1.609375 83.37109375 C-1.56056018 85.68979786 -1.53809853 88.00753391 -1.52050781 90.32666016 C-1.49986267 91.03940094 -1.47921753 91.75214172 -1.45794678 92.48648071 C-1.4556799 97.59050376 -2.68434861 100.43643817 -5.91113281 104.35009766 C-9.60325151 106.81151012 -12.62468086 107.03659973 -16.91113281 106.35009766 C-20.46170537 104.18887958 -22.48112742 102.22851984 -23.91113281 98.35009766 C-24.1177111 95.41490843 -24.21517003 92.57353958 -24.2175293 89.63769531 C-24.22585281 88.75917404 -24.23417633 87.88065277 -24.24275208 86.97550964 C-24.26684498 84.07168138 -24.27562313 81.16807776 -24.28222656 78.26416016 C-24.29119308 76.2440077 -24.30031493 74.22385592 -24.30958557 72.20370483 C-24.32607595 67.96863186 -24.33377584 63.73363795 -24.33666992 59.49853516 C-24.34205525 54.075511 -24.37974156 48.65323117 -24.42541409 43.23041725 C-24.45517589 39.05764053 -24.46239328 34.88504329 -24.46339607 30.71216965 C-24.46759972 28.71309371 -24.4800398 26.7140173 -24.50091362 24.71504593 C-24.52781099 21.91657206 -24.52300771 19.11982678 -24.51049805 16.32128906 C-24.52533234 15.49822769 -24.54016663 14.67516632 -24.55545044 13.8271637 C-24.50291481 9.69391826 -24.1403921 7.12268601 -21.49867249 3.85189819 C-15.86024757 -1.59969531 -7.44707757 0.04788701 0 0 Z " fill="#485D67" transform="translate(364.9111328125,202.64990234375)"/>
<path d="M0 0 C3.57410566 2.17554258 5.42718912 4.1677542 7 8 C7.26742554 10.26290894 7.26742554 10.26290894 7.29052734 12.76513672 C7.3096669 14.17712845 7.3096669 14.17712845 7.32919312 15.61764526 C7.33141876 16.6281192 7.33364441 17.63859314 7.3359375 18.6796875 C7.3425943 19.72520782 7.3492511 20.77072815 7.35610962 21.84793091 C7.36622977 24.05859621 7.37092684 26.26929202 7.37060547 28.47998047 C7.37497496 31.85565756 7.4112924 35.23002325 7.44921875 38.60546875 C7.4550878 40.75520387 7.4590566 42.90494519 7.4609375 45.0546875 C7.47530853 46.06111298 7.48967957 47.06753845 7.50448608 48.10446167 C7.46585372 54.05403514 6.9916427 57.48649133 3 62 C-0.6921187 64.46141247 -3.71354805 64.68650207 -8 64 C-11.57410566 61.82445742 -13.42718912 59.8322458 -15 56 C-15.26742554 53.73709106 -15.26742554 53.73709106 -15.29052734 51.23486328 C-15.30328705 50.29353546 -15.31604675 49.35220764 -15.32919312 48.38235474 C-15.33141876 47.3718808 -15.33364441 46.36140686 -15.3359375 45.3203125 C-15.3425943 44.27479218 -15.3492511 43.22927185 -15.35610962 42.15206909 C-15.36622977 39.94140379 -15.37092684 37.73070798 -15.37060547 35.52001953 C-15.37497496 32.14434244 -15.4112924 28.76997675 -15.44921875 25.39453125 C-15.4550878 23.24479613 -15.4590566 21.09505481 -15.4609375 18.9453125 C-15.47530853 17.93888702 -15.48967957 16.93246155 -15.50448608 15.89553833 C-15.46585372 9.94596486 -14.9916427 6.51350867 -11 2 C-7.3078813 -0.46141247 -4.28645195 -0.68650207 0 0 Z " fill="#F6F7F9" transform="translate(292,224)"/>
</svg>
