<?xml version="1.0" encoding="UTF-8"?>
<svg version="1.1" xmlns="http://www.w3.org/2000/svg" width="512" height="512">
<path d="M0 0 C3.27767092 1.443121 5.52086875 3.23365954 8.0930748 5.71290016 C8.90425318 6.4904949 9.71543155 7.26808963 10.55119109 8.06924784 C11.43678277 8.92792346 12.32237445 9.78659908 13.23480225 10.67129517 C14.17995957 11.58087648 15.12511689 12.49045779 16.09891534 13.42760217 C18.72432745 15.95526651 21.34331965 18.48949305 23.96096373 21.02519822 C25.63635205 22.64718959 27.31349267 24.26734777 28.99121857 25.88692093 C51.00264652 47.13688748 72.85566824 68.54888139 94.66115952 90.00991249 C97.43481927 92.73896906 100.20892054 95.46757598 102.98339844 98.19580078 C103.67286058 98.87380302 104.36232271 99.55180526 105.07267764 100.25035302 C116.17275229 111.1608683 127.35747871 121.98029694 138.57817432 132.76656909 C150.14104838 143.88550463 161.60788022 155.09717703 172.99432778 166.39673936 C179.37314684 172.72183465 185.78597059 179.00030035 192.31096649 185.17479324 C222.65362993 213.9343819 242.658907 235.24678895 244.05670166 278.94271851 C244.09859437 282.63063213 244.06234279 286.31260282 244 290 C243.99551098 291.56368737 243.99398687 293.12738823 243.99645615 294.69108009 C243.99762562 295.78302366 243.99879509 296.87496723 244 298 C238.39977541 293.334926 233.21707657 288.36303477 228.06759644 283.20803833 C227.19126309 282.3346761 226.31492974 281.46131387 225.41204083 280.56148612 C222.99576244 278.15234952 220.58171551 275.7410171 218.16863608 273.32867885 C215.5596257 270.72152907 212.94777338 268.11722879 210.33633423 265.51251221 C204.63548016 259.82519772 198.93836725 254.13414562 193.24207449 248.44226313 C189.68311667 244.88607356 186.12342453 241.33061966 182.56360245 237.77529526 C172.69986779 227.92374453 162.83707414 218.07125387 152.97773552 208.21530342 C152.03263779 207.27053504 152.03263779 207.27053504 151.06844718 206.30668043 C150.43692231 205.67537384 149.80539744 205.04406724 149.15473545 204.39363015 C147.87513117 203.11446933 146.59552534 201.83531006 145.31591797 200.55615234 C144.36383572 199.60440224 144.36383572 199.60440224 143.39251949 198.63342486 C133.10063029 188.34548632 122.80200103 178.06432317 112.50045811 167.786052 C101.91426847 157.22358382 91.33372111 146.65549112 80.75880253 136.08173835 C74.82507746 130.14892927 68.88896661 124.21855213 62.94662094 118.29437637 C57.88893657 113.25210324 52.83643608 108.20470665 47.79057918 103.15059651 C45.21754316 100.57365847 42.64216521 97.99918404 40.06015778 95.43123245 C37.25807014 92.64425949 34.46775259 89.84568696 31.67843628 87.04592896 C30.45845044 85.83802773 30.45845044 85.83802773 29.21381843 84.60572445 C23.0588823 78.39678635 18.3177559 72.33798368 15.90332031 63.8269043 C15.58190063 62.70706146 15.26048096 61.58721863 14.92932129 60.43344116 C14.62264526 59.30040558 14.31596924 58.16737 14 57 C13.70911499 55.92682526 13.41822998 54.85365051 13.11853027 53.74795532 C12.23955102 50.42701609 11.3888361 47.10003995 10.546875 43.76953125 C10.24179016 42.57188644 9.93670532 41.37424164 9.62237549 40.14030457 C8.98561489 37.63747312 8.35043693 35.13423853 7.71679688 32.63061523 C7.06714119 30.06496744 6.41598578 27.49977132 5.76171875 24.93530273 C4.81243677 21.21405117 3.86652328 17.49196149 2.921875 13.76953125 C2.62819031 12.61757767 2.33450562 11.46562408 2.03192139 10.27876282 C1.63085175 8.69021736 1.63085175 8.69021736 1.22167969 7.06958008 C0.98503601 6.13616287 0.74839233 5.20274567 0.50457764 4.24104309 C0 2 0 2 0 0 Z " fill="#7A7FCD" transform="translate(42,49)"/>
<path d="M0 0 C13.02575676 2.80518389 25.97151761 5.88736985 38.88916016 9.15405273 C40.97610422 9.67963769 43.0643483 10.20008539 45.15380859 10.71557617 C48.23050472 11.47481998 51.30299009 12.2493829 54.375 13.02734375 C55.29498779 13.25147446 56.21497559 13.47560516 57.1628418 13.70652771 C73.16081146 17.82263698 82.88675513 27.7279637 94.28884888 39.16186523 C95.60636023 40.4770366 95.60636023 40.4770366 96.95048797 41.81877708 C99.35823609 44.22325515 101.76376027 46.62991744 104.16831303 49.03758836 C106.77303935 51.64459454 109.38066294 54.24870019 111.98789978 56.85319519 C117.0807433 61.94161122 122.17090323 67.03270343 127.26007922 72.12478727 C131.39368059 76.26065235 135.52826345 80.39553388 139.66353989 84.52972412 C140.25333693 85.11936793 140.84313398 85.70901175 141.45080366 86.31652355 C142.64906709 87.51446725 143.84733276 88.7124087 145.04560064 89.91034794 C156.25645129 101.11835324 167.46424525 112.32941111 178.67098199 123.54152966 C188.2935632 133.16858853 197.91877788 142.79300792 207.54589844 152.41552734 C218.73343502 163.5977195 229.91935708 174.78152261 241.1026839 185.96792507 C242.29332643 187.15888615 243.48397104 188.34984513 244.67461777 189.540802 C245.26042338 190.12676189 245.84622899 190.71272177 246.44978628 191.31643802 C250.58524141 195.45275792 254.72185851 199.58791359 258.85892105 203.72262573 C263.8909929 208.75190133 268.92129611 213.78293777 273.9492975 218.81628293 C276.5161467 221.3857699 279.08380682 223.9544329 281.65361977 226.52095604 C284.43211117 229.29594398 287.20675642 232.07475647 289.98098755 234.85400391 C290.80293834 235.67372397 291.62488913 236.49344404 292.47174752 237.33800411 C293.20754379 238.07640813 293.94334006 238.81481215 294.70143318 239.57559204 C295.3430559 240.21737711 295.98467861 240.85916218 296.64574444 241.52039528 C298 243 298 243 298 244 C297.24890898 243.93158244 296.49781796 243.86316488 295.7239666 243.79267406 C290.13964584 243.33534961 284.66189546 242.94598414 279.06070328 243.09591103 C250.65295613 243.7611554 230.65379731 236.41952846 210.29434371 217.0918678 C201.14943941 208.29335255 192.28586649 199.23759455 183.53395539 190.04961533 C177.23414537 183.44464803 170.80945144 176.96664913 164.37714972 170.49107978 C152.91569408 158.94595127 141.55357891 147.30815006 130.25244141 135.60620117 C119.29865589 124.26432825 108.2964625 112.97296435 97.22900391 101.74194336 C96.54318312 101.04595626 95.85736232 100.34996917 95.15075909 99.63289156 C92.39338471 96.83505924 89.63563171 94.03760088 86.87738477 91.24062876 C65.27771591 69.3374218 43.73673096 47.37717618 22.32748675 25.28770936 C20.69737371 23.60711841 19.06542771 21.92832765 17.43293381 20.25004959 C14.92472094 17.67097237 12.4215096 15.08714825 9.92250122 12.49915204 C8.58198243 11.11303091 7.23675333 9.73147 5.89140403 8.3500368 C5.10712441 7.53525703 4.32284479 6.72047726 3.51479912 5.88100719 C2.83106629 5.17472469 2.14733347 4.46844218 1.44288146 3.74075717 C0 2 0 2 0 0 Z " fill="#7A7FCD" transform="translate(51,40)"/>
<path d="M0 0 C1.06434171 3.70856549 0.75815979 5.94406543 -0.19995117 9.71142578 C-0.48742722 10.86007111 -0.77490326 12.00871643 -1.0710907 13.19216919 C-1.39181046 14.43070648 -1.71253021 15.66924377 -2.04296875 16.9453125 C-2.37174952 18.23827371 -2.69988979 19.53139796 -3.02742004 20.82467651 C-3.71680109 23.53801035 -4.41272872 26.24955367 -5.11352539 28.95996094 C-6.00429385 32.40653566 -6.88073244 35.85654965 -7.75239086 39.30800056 C-8.42929362 41.98276467 -9.11303241 44.65574534 -9.7988224 47.32824326 C-10.28056386 49.20937322 -10.75743519 51.09174826 -11.23417664 52.97415161 C-15.92921936 71.05155912 -24.2142893 81.53485011 -37.37304688 94.60009766 C-38.49779555 95.72428082 -39.62210131 96.84890726 -40.7460022 97.97393799 C-43.76989821 100.99840306 -46.79987901 104.0167025 -49.83106804 107.03385592 C-53.00838359 110.19858903 -56.17995971 113.36906384 -59.35217285 116.53890991 C-65.34736005 122.52790428 -71.34762281 128.5117862 -77.34976816 134.49380624 C-84.18814411 141.30975448 -91.02077809 148.13144653 -97.85295773 154.95360494 C-111.89563364 168.97542866 -125.94543333 182.99009549 -140 197 C-144.03070124 195.14276623 -146.78284024 192.47282533 -149.859375 189.3359375 C-150.40861633 188.78386627 -150.95785767 188.23179504 -151.52374268 187.66299438 C-153.27059293 185.90498185 -155.01034601 184.1401311 -156.75 182.375 C-157.93573591 181.1792292 -159.1219288 179.98391135 -160.30859375 178.7890625 C-163.21105085 175.86459747 -166.1071641 172.93398126 -169 170 C-164.88883342 165.10045035 -160.62213224 160.4804746 -156.09036255 155.97010803 C-155.41961697 155.29850802 -154.74887138 154.62690802 -154.05780017 153.93495649 C-151.82621728 151.70173616 -149.59109705 149.47209135 -147.35595703 147.24243164 C-145.74896623 145.63572311 -144.14219599 144.02879395 -142.53562927 142.42166138 C-138.18505364 138.07079934 -133.83140598 133.72302316 -129.47719431 129.37580037 C-124.92301697 124.82788258 -120.37167932 120.27712478 -115.82003784 115.72666931 C-108.18371888 108.09310335 -100.54565807 100.4612849 -92.90625 92.83081055 C-85.04016464 84.97391439 -77.17513785 77.11596105 -69.31152344 69.2565918 C-68.8262195 68.77155058 -68.34091556 68.28650937 -67.84090544 67.78676993 C-65.4061084 65.353278 -62.97133207 62.91976536 -60.53656602 60.48624241 C-40.360919 40.32094987 -20.1816133 20.15932133 0 0 Z " fill="#54A5DB" transform="translate(469,49)"/>
<path d="M0 0 C-55.77 55.77 -111.54 111.54 -169 169 C-173.08923295 166.95538352 -175.7169902 164.53996717 -178.859375 161.3359375 C-179.40861633 160.78386627 -179.95785767 160.23179504 -180.52374268 159.66299438 C-182.27059293 157.90498185 -184.01034601 156.1401311 -185.75 154.375 C-186.93573591 153.1792292 -188.1219288 151.98391135 -189.30859375 150.7890625 C-192.21105085 147.86459747 -195.1071641 144.93398126 -198 142 C-192.75411176 135.65081424 -187.00685028 129.84463945 -181.19628906 124.01928711 C-180.10801383 122.92473555 -179.01992486 121.82999877 -177.93200684 120.73509216 C-174.38010218 117.1622941 -170.82299642 113.59469727 -167.265625 110.02734375 C-166.03563005 108.79329656 -164.80566757 107.55921702 -163.575737 106.32510567 C-157.79791907 100.5282731 -152.01771799 94.73382993 -146.23456407 88.94232076 C-139.57988535 82.2778656 -132.93357445 75.60520862 -126.29422593 68.92548174 C-121.14606609 63.74709882 -115.99019371 58.57647591 -110.82855392 53.4115296 C-107.75270994 50.33334351 -104.68021011 47.25199138 -101.61585236 44.16236687 C-98.73210953 41.25522775 -95.83885125 38.35789812 -92.9382782 35.46755409 C-91.88112531 34.41089376 -90.82732958 33.35086118 -89.77735138 32.28707123 C-81.86602544 24.27761066 -73.99646596 17.77938188 -63.01953125 14.5546875 C-62.03482597 14.26294144 -62.03482597 14.26294144 -61.03022766 13.96530151 C-51.1400188 11.0902934 -41.14797995 8.55549441 -31.16821289 6.01367188 C-27.64683246 5.11461704 -24.12911483 4.20206469 -20.61132812 3.2890625 C-18.37000117 2.71532677 -16.12847203 2.14238017 -13.88671875 1.5703125 C-12.31188972 1.15955978 -12.31188972 1.15955978 -10.70524597 0.74050903 C-9.25146294 0.37419876 -9.25146294 0.37419876 -7.76831055 0.00048828 C-6.91722214 -0.21759491 -6.06613373 -0.4356781 -5.18925476 -0.66036987 C-3 -1 -3 -1 0 0 Z " fill="#6396D6" transform="translate(462,41)"/>
<path d="M0 0 C3.08195967 1.40527731 5.21917002 3.81902406 7.54452991 6.2157774 C8.0715752 6.74706753 8.59862049 7.27835766 9.14163685 7.82574749 C10.81957679 9.5204494 12.4867722 11.22529331 14.15390491 12.93062115 C15.29123236 14.0829986 16.42924558 15.23469967 17.56796741 16.38569927 C20.35462483 19.20539299 23.13169283 22.03422703 25.90390491 24.86812115 C21.06751182 30.69269882 15.8645134 36.04328157 10.50204945 41.38350201 C9.1108514 42.77491909 9.1108514 42.77491909 7.69154835 44.19444561 C5.16735797 46.71892103 2.6401126 49.24031735 0.11227751 51.76114249 C-2.53606037 54.40319774 -5.18153654 57.04811533 -7.82732677 59.69272137 C-12.82939699 64.69169267 -17.83400916 69.68811099 -22.83955586 74.68360096 C-28.54169383 80.3745329 -34.24096748 86.06832971 -39.94001079 91.76236045 C-51.65553738 103.4674553 -63.37462824 115.1689748 -75.09609509 126.86812115 C-76.21007653 125.91795539 -77.32339096 124.96700758 -78.43642712 124.01573467 C-79.05647625 123.48626043 -79.67652538 122.95678619 -80.31536388 122.41126728 C-84.40843894 118.8642901 -88.23593544 115.03904213 -92.09609509 111.24312115 C-92.9791029 110.39749615 -93.86211071 109.55187115 -94.77187634 108.68062115 C-95.60074352 107.86335552 -96.42961071 107.0460899 -97.28359509 106.20405865 C-98.04027477 105.4671983 -98.79695446 104.73033794 -99.57656384 103.97114849 C-101.09609509 101.86812115 -101.09609509 101.86812115 -100.9294281 99.99969482 C-99.85408791 97.24909356 -98.36592415 95.75438332 -96.28229809 93.65991497 C-95.46211697 92.82838406 -94.64193584 91.99685314 -93.79690075 91.14012432 C-92.89040783 90.236562 -91.98391491 89.33299969 -91.04995251 88.40205669 C-90.09017998 87.43494433 -89.13103272 86.4672111 -88.17246532 85.49890423 C-85.56798832 82.87219886 -82.95393477 80.25522748 -80.33737636 77.64056277 C-78.15520716 75.45851317 -75.97739395 73.27214109 -73.79945832 71.08586723 C-68.66344117 65.93061301 -63.51928552 60.78357841 -58.37026501 55.64131451 C-53.05314464 50.33084278 -47.75097413 45.00576758 -42.45574206 39.67347783 C-37.91178298 35.09887294 -33.35826539 30.53393833 -28.79700834 25.97658092 C-26.07148456 23.25312913 -23.34990844 20.52599946 -20.63765049 17.78933048 C-18.0886096 15.21810817 -15.52790096 12.65911959 -12.95757389 10.1091814 C-11.56396529 8.72063513 -10.18274751 7.31968788 -8.80187511 5.91847515 C-7.55891422 4.69232746 -7.55891422 4.69232746 -6.29084301 3.44140911 C-5.5731433 2.72299689 -4.85544359 2.00458467 -4.11599541 1.26440239 C-2.09609509 -0.13187885 -2.09609509 -0.13187885 0 0 Z " fill="#35C4E7" transform="translate(385.09609508514404,282.13187885284424)"/>
<path d="M0 0 C3.39093564 1.46855222 5.60012471 3.35294554 8.20147705 5.96096802 C9.03156281 6.78830444 9.86164856 7.61564087 10.71688843 8.4680481 C12.06987534 9.83182083 12.06987534 9.83182083 13.45019531 11.22314453 C14.41586059 12.18937413 15.38196683 13.1551632 16.34848022 14.12054443 C18.96835941 16.73984991 21.58202725 19.36527512 24.19462681 21.99183893 C26.92701415 24.7367305 29.66506796 27.47595771 32.40252686 30.21578979 C37.58422685 35.40370546 42.76080758 40.59669821 47.93557048 45.7915324 C53.82761146 51.70592965 59.72533385 57.61464752 65.62354136 63.52289414 C77.75536232 75.67561907 89.8800259 87.83546034 102 100 C101.05340292 101.11268262 100.10560819 102.22434643 99.15731812 103.33558655 C98.36580888 104.26433893 98.36580888 104.26433893 97.55830956 105.21185398 C95.48124255 107.59526944 93.28145049 109.83076672 91.0390625 112.05859375 C90.15605469 112.93837891 89.27304688 113.81816406 88.36328125 114.72460938 C87.00783203 116.06749023 87.00783203 116.06749023 85.625 117.4375 C84.69816406 118.35982422 83.77132812 119.28214844 82.81640625 120.23242188 C80.54654154 122.49058625 78.27436462 124.74636942 76 127 C70.20957365 122.19002801 64.88610951 117.02199348 59.57641602 111.68994141 C58.6585582 110.77222961 57.74070038 109.85451782 56.79502869 108.90899658 C54.29741188 106.41166478 51.802874 103.91127842 49.30890775 101.41030169 C46.69488002 98.78999074 44.07798937 96.17254206 41.46141052 93.55477905 C36.51556305 88.60583285 31.5722686 83.65434478 26.62990278 78.70192182 C20.99942946 73.06024193 15.3660908 67.42142683 9.73251832 61.78284192 C-1.84816263 50.19172962 -13.42526815 38.59705307 -25 27 C-23.21627154 23.1568777 -20.7737487 20.51558609 -17.7734375 17.578125 C-17.26575836 17.07327576 -16.75807922 16.56842651 -16.23501587 16.04827881 C-14.61966158 14.44407904 -12.99747791 12.84699144 -11.375 11.25 C-10.27558302 10.16061893 -9.17661941 9.0707801 -8.078125 7.98046875 C-5.3906398 5.31498115 -2.69700979 2.65584857 0 0 Z " fill="#5A9FD9" transform="translate(127,282)"/>
<path d="M0 0 C3.45982125 1.20474873 5.70167206 3.96285986 8.21711063 6.52628708 C8.82241611 7.13115448 9.4277216 7.73602188 10.05136967 8.3592186 C12.04968229 10.35962068 14.03716012 12.37043795 16.02472782 14.38151169 C17.40841121 15.77079045 18.79275858 17.15940819 20.17774296 18.54738998 C23.82086422 22.20196455 27.45488667 25.86545875 31.08710575 29.53086472 C34.7952489 33.26969805 38.51190112 37.00005126 42.22785282 40.73112106 C49.51746986 48.05291086 56.79750553 55.38414906 64.07160282 62.72135544 C61.80853134 64.98442691 61.17446403 65.00952842 58.13410282 65.47135544 C50.12732893 67.13728097 42.3828107 71.10400066 37.34504032 77.67057419 C33.48455168 83.88761878 30.80523724 90.62921463 29.07160282 97.72135544 C24.95572266 96.08770006 22.16871888 93.12114001 19.09381962 90.04996872 C18.21271267 89.18134705 18.21271267 89.18134705 17.31380558 88.29517746 C15.3773418 86.382776 13.44859242 84.46282952 11.52082157 82.54166794 C10.17900503 81.2088166 8.83711044 79.87604383 7.49514103 78.54334641 C4.68641138 75.75109624 1.88209661 72.95449093 -0.91985226 70.15543747 C-4.51749385 66.56319575 -8.13103255 62.98740868 -11.74869156 59.41534233 C-14.52368102 56.67002695 -17.28741687 53.91359423 -20.0481081 51.15390778 C-21.37615175 49.83008127 -22.70833353 48.51039301 -24.04463291 47.19490051 C-25.90759667 45.35866525 -27.75424422 43.50743367 -29.59758663 41.65153122 C-30.15594204 41.1080101 -30.71429745 40.56448898 -31.28957272 40.00449753 C-34.9230636 36.29972568 -34.9230636 36.29972568 -34.94829464 33.56368637 C-33.803466 31.4956812 -32.60157356 29.99983944 -30.94084835 28.31388474 C-30.31317059 27.6702951 -29.68549282 27.02670547 -29.03879452 26.36361313 C-28.35654308 25.68116028 -27.67429165 24.99870743 -26.97136593 24.29557419 C-26.27199413 23.58858887 -25.57262234 22.88160355 -24.85205746 22.15319443 C-23.3721911 20.66252831 -21.88833332 19.17581565 -20.40080929 17.69279099 C-18.12095056 15.41390666 -15.86325099 13.11453382 -13.60613155 10.81315231 C-12.1666786 9.36849421 -10.72596517 7.92509071 -9.28386593 6.48307419 C-8.60768719 5.79050018 -7.93150845 5.09792618 -7.23483944 4.38436508 C-6.59770519 3.75653625 -5.96057095 3.12870743 -5.3041296 2.48185349 C-4.74755169 1.92322113 -4.19097378 1.36458878 -3.61752987 0.78902817 C-1.92839718 -0.27864456 -1.92839718 -0.27864456 0 0 Z " fill="#1EDAEF" transform="translate(385.9283971786499,349.2786445617676)"/>
<path d="M0 0 C2.99943905 1.34572887 5.08076179 2.83537101 7.39160156 5.16455078 C8.35214447 6.12532028 8.35214447 6.12532028 9.33209229 7.10549927 C10.01140808 7.79513763 10.69072388 8.484776 11.390625 9.1953125 C12.09523865 9.90275604 12.79985229 10.61019958 13.52581787 11.33908081 C15.7719539 13.59639862 18.01103009 15.86057633 20.25 18.125 C21.77297717 19.65800953 23.29640939 21.19056715 24.8203125 22.72265625 C28.55216927 26.47654685 32.27784843 30.23648903 36 34 C32.2069192 38.52596784 28.29505897 42.85392886 24.11816406 47.02709961 C23.56454697 47.58407532 23.01092987 48.14105103 22.4405365 48.71490479 C20.63483653 50.53000007 18.8254877 52.34139982 17.015625 54.15234375 C15.7509649 55.42022067 14.48637868 56.68817128 13.22186279 57.95619202 C10.58441135 60.59960332 7.94492958 63.240968 5.30419922 65.88110352 C1.91393873 69.2712617 -1.46935101 72.66828753 -4.85097885 76.06705379 C-7.45371802 78.68087454 -10.06095189 81.29017515 -12.66950226 83.89819527 C-13.91988867 85.14976438 -15.16864779 86.40296138 -16.41576385 87.65778923 C-18.15107519 89.40283747 -19.89253372 91.14150773 -21.63574219 92.87866211 C-22.15211746 93.40065689 -22.66849274 93.92265167 -23.20051575 94.46046448 C-26.77167392 98 -26.77167392 98 -29 98 C-29.15855469 97.31035156 -29.31710938 96.62070312 -29.48046875 95.91015625 C-32.25049224 84.75354231 -36.3915274 76.71527166 -46 70 C-51.38899023 67.22734396 -57.15253555 65.52542551 -63 64 C-59.20301491 59.46479694 -55.28288646 55.13986003 -51.08642578 50.97290039 C-50.5295961 50.41592468 -49.97276642 49.85894897 -49.39906311 49.28509521 C-47.58351 47.47023101 -45.76445606 45.65892089 -43.9453125 43.84765625 C-42.67571469 42.57992626 -41.40633952 41.31197327 -40.13717651 40.04380798 C-36.81532426 36.72575224 -33.49047867 33.41071211 -30.16497803 30.09631348 C-26.76440491 26.70601645 -23.36670263 23.31284494 -19.96875 19.91992188 C-13.31528981 13.27714838 -6.65866041 6.63756054 0 0 Z " fill="#5B9ED8" transform="translate(126,349)"/>
<path d="M0 0 C4.11588016 1.63365538 6.90288394 4.60021543 9.9777832 7.67138672 C10.85889015 8.54000839 10.85889015 8.54000839 11.75779724 9.42617798 C13.69426102 11.33857943 15.62301041 13.25852592 17.55078125 15.1796875 C18.89259779 16.51253884 20.23449239 17.8453116 21.57646179 19.17800903 C24.38519145 21.9702592 27.18950621 24.76686451 29.99145508 27.56591797 C33.58909667 31.15815968 37.20263537 34.73394676 40.82029438 38.30601311 C43.59528384 41.05132849 46.35901969 43.80776121 49.11971092 46.56744766 C50.44775457 47.89127417 51.77993635 49.21096243 53.11623573 50.52645493 C54.97919949 52.36269019 56.82584704 54.21392177 58.66918945 56.06982422 C59.22754486 56.61334534 59.78590027 57.15686646 60.36117554 57.71685791 C63.99975946 61.42682271 63.99975946 61.42682271 64.00091553 64.18161011 C62.93747384 66.11359294 61.88615874 67.47553846 60.31616211 69.02441406 C59.75565659 69.58469299 59.19515106 70.14497192 58.61766052 70.722229 C57.70670372 71.60996002 57.70670372 71.60996002 56.77734375 72.515625 C56.15726944 73.13145447 55.53719513 73.74728394 54.89833069 74.3817749 C52.91832095 76.34500635 50.92813081 78.29754436 48.9375 80.25 C47.59241465 81.58003748 46.24800512 82.91075879 44.90429688 84.2421875 C41.61065094 87.50277537 38.30783661 90.75381188 35 94 C30.88411984 92.36634462 28.09711606 89.39978457 25.0222168 86.32861328 C24.14110985 85.45999161 24.14110985 85.45999161 23.24220276 84.57382202 C21.30573898 82.66142057 19.37698959 80.74147408 17.44921875 78.8203125 C16.10740221 77.48746116 14.76550761 76.1546884 13.42353821 74.82199097 C10.61480855 72.0297408 7.81049379 69.23313549 5.00854492 66.43408203 C1.41090333 62.84184032 -2.20263537 59.26605324 -5.82029438 55.69398689 C-8.59528384 52.94867151 -11.35901969 50.19223879 -14.11971092 47.43255234 C-15.44775457 46.10872583 -16.77993635 44.78903757 -18.11623573 43.47354507 C-19.97919949 41.63730981 -21.82584704 39.78607823 -23.66918945 37.93017578 C-24.22754486 37.38665466 -24.78590027 36.84313354 -25.36117554 36.28314209 C-28.99975946 32.57317729 -28.99975946 32.57317729 -29.00091553 29.81838989 C-27.93747384 27.88640706 -26.88615874 26.52446154 -25.31616211 24.97558594 C-24.47540382 24.13516754 -24.47540382 24.13516754 -23.61766052 23.277771 C-23.01035599 22.68595032 -22.40305145 22.09412964 -21.77734375 21.484375 C-21.15726944 20.86854553 -20.53719513 20.25271606 -19.89833069 19.6182251 C-17.91832095 17.65499365 -15.92813081 15.70245564 -13.9375 13.75 C-12.59241465 12.41996252 -11.24800512 11.08924121 -9.90429688 9.7578125 C-6.61065094 6.49722463 -3.30783661 3.24618812 0 0 Z " fill="#5C9ED9" transform="translate(184,262)"/>
<path d="M0 0 C21.76003806 2.3776761 43.36860938 5.67668311 65 9 C59.69603066 15.42716944 53.86881185 21.29495788 47.984375 27.18359375 C46.92149783 28.24968917 45.85869389 29.31585761 44.79595947 30.38209534 C42.58220966 32.60179701 40.36643946 34.81945889 38.14941406 37.03588867 C35.30395693 39.88124339 32.46548762 42.73346336 29.62865829 45.58741665 C27.44282713 47.78432981 25.25250326 49.97672 23.06085968 52.16783333 C22.01143086 53.21844422 20.96362784 54.27068166 19.91747284 55.32455254 C18.46235315 56.78941261 17.00110433 58.24786868 15.53808594 59.70483398 C14.70790955 60.53643539 13.87773315 61.3680368 13.0223999 62.22483826 C11 64 11 64 9 64 C7.87561155 56.49317762 6.75500846 48.98579701 5.63696289 41.47802734 C5.25663782 38.92711775 4.87546495 36.3763344 4.4934082 33.82568359 C3.94256084 30.14714358 3.39482265 26.46815161 2.84765625 22.7890625 C2.59291283 21.09470566 2.59291283 21.09470566 2.33302307 19.36611938 C1.37814194 12.92213592 0.5742714 6.48934087 0 0 Z " fill="#43B6E1" transform="translate(289,287)"/>
<path d="M0 0 C5.86148071 4.99838242 9.47917287 9.96044732 10.27734375 17.68359375 C10.67100692 25.22080319 9.39360496 30.81151381 5 37 C0.58242699 41.85027379 -3.81358576 44.62127191 -10.41796875 45.40625 C-18.94379783 45.61829135 -25.44563722 45.00408979 -32 39 C-37.43103822 32.5562067 -39.40495005 27.08168973 -39.26953125 18.72265625 C-38.60784236 12.03863945 -36.19087574 6.69744382 -31.3125 2.0625 C-21.69838928 -5.51441997 -10.66349558 -5.72895536 0 0 Z " fill="#5B9ED8" transform="translate(76,428)"/>
<path d="M0 0 C5.04000944 4.35273542 8.20859486 9.89953309 9.234375 16.4921875 C9.58553232 23.85348529 7.95524075 30.18809402 3.234375 35.9296875 C-2.56506044 41.6876984 -7.22698019 44.21261314 -15.578125 44.3046875 C-22.8923978 44.16725857 -27.26682738 43.06727322 -32.6953125 38.19921875 C-37.7879353 32.90584941 -40.48324867 27.62677669 -40.92578125 20.265625 C-40.64588279 12.3165086 -37.746287 5.89174828 -32.09375 0.265625 C-22.49828328 -7.26109431 -9.86161295 -6.56393983 0 0 Z " fill="#08F0F7" transform="translate(466.765625,429.0703125)"/>
</svg>
