<?xml version="1.0" encoding="UTF-8"?>
<!DOCTYPE svg PUBLIC "-//W3C//DTD SVG 1.1//EN" "http://www.w3.org/Graphics/SVG/1.1/DTD/svg11.dtd">
<svg xmlns="http://www.w3.org/2000/svg" version="1.1" width="512px" height="512px" style="shape-rendering:geometricPrecision; text-rendering:geometricPrecision; image-rendering:optimizeQuality; fill-rule:evenodd; clip-rule:evenodd" xmlns:xlink="http://www.w3.org/1999/xlink">
<g><path style="opacity:0.905" fill="#fcfdff" d="M 210.5,0.5 C 240.502,0.333354 270.502,0.500021 300.5,1C 308.444,3.27699 313.278,8.44365 315,16.5C 315.667,24.8333 315.667,33.1667 315,41.5C 313.278,49.5563 308.444,54.723 300.5,57C 293.842,57.4996 287.175,57.6663 280.5,57.5C 280.5,67.8333 280.5,78.1667 280.5,88.5C 325.359,94.2704 364.693,111.937 398.5,141.5C 403.811,136.845 409.478,132.678 415.5,129C 421.316,127.591 426.483,128.758 431,132.5C 438.047,140.545 444.713,148.878 451,157.5C 451.667,161.167 451.667,164.833 451,168.5C 446.035,174.56 440.535,180.06 434.5,185C 472.307,248.52 477.473,314.687 450,383.5C 418.591,450.299 366.757,491.465 294.5,507C 205.917,519.606 134.75,490.439 81,419.5C 41.7617,359.264 33.4284,294.93 56,226.5C 81.3704,161.463 127.204,117.963 193.5,96C 205.595,92.281 217.928,89.781 230.5,88.5C 230.5,78.1667 230.5,67.8333 230.5,57.5C 222.747,57.8961 215.08,57.3961 207.5,56C 197.222,50.0018 193.222,41.0018 195.5,29C 193.098,15.292 198.098,5.79196 210.5,0.5 Z M 215.5,11.5 C 242.169,11.3334 268.835,11.5 295.5,12C 299.02,12.504 301.52,14.3374 303,17.5C 303.667,25.1667 303.667,32.8333 303,40.5C 301.52,43.6626 299.02,45.496 295.5,46C 268.833,46.6667 242.167,46.6667 215.5,46C 211.98,45.496 209.48,43.6626 208,40.5C 207.333,32.8333 207.333,25.1667 208,17.5C 209.707,14.4096 212.207,12.4096 215.5,11.5 Z M 242.5,57.5 C 251.167,57.5 259.833,57.5 268.5,57.5C 268.5,67.5 268.5,77.5 268.5,87.5C 259.833,86.1667 251.167,86.1667 242.5,87.5C 242.5,77.5 242.5,67.5 242.5,57.5 Z M 240.5,98.5 C 323.588,96.2829 386.755,130.283 430,200.5C 458.685,253.793 463.352,309.127 444,366.5C 416.819,435.007 367.319,477.841 295.5,495C 209.972,508.394 141.472,480.561 90,411.5C 51.2976,351.168 44.9643,287.502 71,220.5C 96.4776,164.02 138.644,126.187 197.5,107C 211.756,103.048 226.09,100.215 240.5,98.5 Z M 243.5,131.5 C 312.497,129.906 364.997,158.239 401,216.5C 428.511,268.995 429.511,321.995 404,375.5C 375.408,427.38 331.575,457.213 272.5,465C 213.39,469.18 164.557,449.014 126,404.5C 89.8378,357.684 79.8378,305.684 96,248.5C 121.473,179.518 170.639,140.518 243.5,131.5 Z M 419.5,139.5 C 421.017,139.511 422.184,140.177 423,141.5C 428.833,148.667 434.667,155.833 440.5,163C 436.542,167.304 432.209,171.137 427.5,174.5C 421.21,166.208 414.543,158.208 407.5,150.5C 411.52,146.811 415.52,143.145 419.5,139.5 Z M 311.5,277.5 C 312.873,277.343 314.207,277.51 315.5,278C 296.66,288.587 277.66,298.921 258.5,309C 249.169,310.001 244.669,305.834 245,296.5C 246.105,293.063 248.272,290.563 251.5,289C 271.562,284.826 291.562,280.993 311.5,277.5 Z"/></g>
<g><path style="opacity:0.901" fill="#fcfdff" d="M 254.5,119.5 C 313.957,121.187 362.124,145.187 399,191.5C 437.353,247.015 444.353,306.348 420,369.5C 391.529,429.614 344.362,465.114 278.5,476C 209.382,482.646 153.549,458.813 111,404.5C 75.1347,352.106 67.4681,295.772 88,235.5C 112.397,176.549 155.563,139.382 217.5,124C 229.875,121.578 242.208,120.078 254.5,119.5 Z M 243.5,131.5 C 170.639,140.518 121.473,179.518 96,248.5C 79.8378,305.684 89.8378,357.684 126,404.5C 164.557,449.014 213.39,469.18 272.5,465C 331.575,457.213 375.408,427.38 404,375.5C 429.511,321.995 428.511,268.995 401,216.5C 364.997,158.239 312.497,129.906 243.5,131.5 Z M 311.5,277.5 C 291.562,280.993 271.562,284.826 251.5,289C 248.272,290.563 246.105,293.063 245,296.5C 244.669,305.834 249.169,310.001 258.5,309C 277.66,298.921 296.66,288.587 315.5,278C 314.207,277.51 312.873,277.343 311.5,277.5 Z"/></g>
<g><path style="opacity:0.821" fill="#fcfdff" d="M 254.5,145.5 C 259.761,145.831 262.094,148.665 261.5,154C 261.285,161.686 257.785,163.853 251,160.5C 249,156.167 249,151.833 251,147.5C 252.302,146.915 253.469,146.249 254.5,145.5 Z"/></g>
<g><path style="opacity:0.842" fill="#fcfdff" d="M 179.5,165.5 C 185.612,165.938 189.279,169.271 190.5,175.5C 188.171,182.041 184.338,183.041 179,178.5C 175.543,173.889 175.71,169.556 179.5,165.5 Z"/></g>
<g><path style="opacity:0.838" fill="#fcfdff" d="M 326.5,165.5 C 331.196,164.869 333.863,166.869 334.5,171.5C 333.78,179.424 329.78,182.257 322.5,180C 321.427,178.687 320.76,177.187 320.5,175.5C 321.49,171.513 323.49,168.18 326.5,165.5 Z"/></g>
<g><path style="opacity:0.826" fill="#fcfdff" d="M 125.5,219.5 C 129.761,219.545 133.595,220.878 137,223.5C 139.654,230.684 137.154,233.851 129.5,233C 121.957,230.185 120.623,225.685 125.5,219.5 Z"/></g>
<g><path style="opacity:0.826" fill="#fcfdff" d="M 380.5,219.5 C 388.302,219.787 390.302,223.287 386.5,230C 384.017,231.326 381.517,232.493 379,233.5C 373.072,232.311 371.405,228.977 374,223.5C 376.314,222.267 378.481,220.933 380.5,219.5 Z"/></g>
<g><path style="opacity:0.909" fill="#fcfdff" d="M 344.5,260.5 C 350.82,260.32 353.32,263.32 352,269.5C 323.9,287.138 295.066,303.638 265.5,319C 250.832,324.005 240.332,319.505 234,305.5C 231.289,293.095 235.456,283.928 246.5,278C 279.197,271.608 311.864,265.774 344.5,260.5 Z M 311.5,277.5 C 291.562,280.993 271.562,284.826 251.5,289C 248.272,290.563 246.105,293.063 245,296.5C 244.669,305.834 249.169,310.001 258.5,309C 277.66,298.921 296.66,288.587 315.5,278C 314.207,277.51 312.873,277.343 311.5,277.5 Z"/></g>
<g><path style="opacity:0.823" fill="#fcfdff" d="M 107.5,292.5 C 111.215,292.196 114.715,292.863 118,294.5C 120.247,298.094 119.747,301.261 116.5,304C 112.833,304.667 109.167,304.667 105.5,304C 101.181,299.133 101.848,295.3 107.5,292.5 Z"/></g>
<g><path style="opacity:0.82" fill="#fcfdff" d="M 396.5,292.5 C 400.215,292.196 403.715,292.863 407,294.5C 409.154,298.058 408.654,301.225 405.5,304C 401.833,304.667 398.167,304.667 394.5,304C 390.49,299.228 391.157,295.395 396.5,292.5 Z"/></g>
<g><path style="opacity:0.859" fill="#fcfdff" d="M 128.5,364.5 C 133.703,363.189 137.036,365.022 138.5,370C 135.771,376.031 131.104,378.365 124.5,377C 122.718,374.757 122.218,372.257 123,369.5C 124.771,367.709 126.604,366.043 128.5,364.5 Z"/></g>
<g><path style="opacity:0.861" fill="#fcfdff" d="M 375.5,364.5 C 380.238,363.742 384.238,365.075 387.5,368.5C 389.704,375.928 387.037,378.762 379.5,377C 372.443,374.428 371.11,370.262 375.5,364.5 Z"/></g>
<g><path style="opacity:0.845" fill="#fcfdff" d="M 180.5,416.5 C 186.831,415.029 189.998,417.362 190,423.5C 188.724,430.131 184.891,432.631 178.5,431C 176.522,428.503 176.022,425.669 177,422.5C 178.431,420.636 179.597,418.636 180.5,416.5 Z"/></g>
<g><path style="opacity:0.844" fill="#fcfdff" d="M 323.5,416.5 C 326.119,416.232 328.619,416.565 331,417.5C 332.704,420.173 333.871,423.007 334.5,426C 334.646,428.034 333.98,429.701 332.5,431C 329.331,431.978 326.497,431.478 324,429.5C 322.556,426.945 321.389,424.279 320.5,421.5C 321.092,419.577 322.092,417.911 323.5,416.5 Z"/></g>
<g><path style="opacity:0.835" fill="#fcfcff" d="M 252.5,435.5 C 260.819,435.344 263.652,439.344 261,447.5C 259.309,451.213 256.475,452.379 252.5,451C 249.64,447.319 248.807,443.152 250,438.5C 250.698,437.309 251.531,436.309 252.5,435.5 Z"/></g>
</svg>
