<?xml version="1.0" encoding="UTF-8"?>
<!DOCTYPE svg PUBLIC "-//W3C//DTD SVG 1.1//EN" "http://www.w3.org/Graphics/SVG/1.1/DTD/svg11.dtd">
<svg xmlns="http://www.w3.org/2000/svg" version="1.1" width="512px" height="512px" style="shape-rendering:geometricPrecision; text-rendering:geometricPrecision; image-rendering:optimizeQuality; fill-rule:evenodd; clip-rule:evenodd" xmlns:xlink="http://www.w3.org/1999/xlink">
<g><path style="opacity:0.967" fill="#fcfdff" d="M 232.5,-0.5 C 247.833,-0.5 263.167,-0.5 278.5,-0.5C 378.272,12.4494 449.438,64.4494 492,155.5C 502.136,180.379 508.636,206.046 511.5,232.5C 511.5,247.833 511.5,263.167 511.5,278.5C 498.551,378.271 446.551,449.438 355.5,492C 330.622,502.136 304.955,508.636 278.5,511.5C 263.167,511.5 247.833,511.5 232.5,511.5C 132.727,498.549 61.5605,446.549 19,355.5C 8.86392,330.621 2.36392,304.954 -0.5,278.5C -0.5,263.167 -0.5,247.833 -0.5,232.5C 12.4486,132.729 64.4486,61.5622 155.5,19C 180.379,8.86392 206.046,2.36392 232.5,-0.5 Z M 236.5,34.5 C 325.741,30.7018 394.908,65.7018 444,139.5C 477.031,195.384 485.031,254.717 468,317.5C 439.994,401.507 382.827,453.34 296.5,473C 211.258,485.926 140.424,460.093 84,395.5C 37.185,335.094 23.5183,267.761 43,193.5C 67.8333,118 118,67.8333 193.5,43C 207.757,39.0724 222.091,36.2391 236.5,34.5 Z"/></g>
<g><path style="opacity:0.954" fill="#fcfdff" d="M 250.5,101.5 C 262.899,100.105 270.399,105.438 273,117.5C 273.333,160.833 273.667,204.167 274,247.5C 300.667,268.833 327.333,290.167 354,311.5C 361.512,323.263 359.346,332.763 347.5,340C 342.039,342.031 336.705,341.697 331.5,339C 301.689,315.356 272.022,291.523 242.5,267.5C 241.081,265.664 239.914,263.664 239,261.5C 237.358,213.538 237.024,165.538 238,117.5C 239.056,109.624 243.222,104.291 250.5,101.5 Z"/></g>
</svg>
