<?xml version="1.0" encoding="UTF-8"?>
<svg version="1.1" xmlns="http://www.w3.org/2000/svg" width="512" height="512">
<path d="M0 0 C5.69262756 3.41077263 8.86014974 7.92941423 10.5 14.375 C10.76119058 17.85445502 10.7330744 21.31714589 10.6953125 24.8046875 C10.6924826 25.79501984 10.68965271 26.78535217 10.68673706 27.80569458 C10.6755847 30.95392176 10.65048907 34.10185949 10.625 37.25 C10.61496382 39.39062088 10.60583908 41.53124624 10.59765625 43.671875 C10.57566158 48.90634797 10.54223333 54.1406533 10.5 59.375 C11.47146973 59.35034668 12.44293945 59.32569336 13.44384766 59.30029297 C14.71276855 59.28111816 15.98168945 59.26194336 17.2890625 59.2421875 C18.54928223 59.21753418 19.80950195 59.19288086 21.10791016 59.16748047 C24.5 59.375 24.5 59.375 27.875 61.5 C29.78955397 64.88728779 30.23213349 66.55163624 29.5 70.375 C27.36936913 73.12550192 26.17599242 74.24516144 22.72265625 74.90844727 C19.31371435 74.94400097 15.90909919 74.96892879 12.5 74.9375 C10.71722656 74.97327148 10.71722656 74.97327148 8.8984375 75.00976562 C7.75632812 75.00783203 6.61421875 75.00589844 5.4375 75.00390625 C4.39464844 75.00463135 3.35179687 75.00535645 2.27734375 75.00610352 C-0.5 74.375 -0.5 74.375 -2.83740234 72.57055664 C-5.37904447 67.6854533 -5.06391451 63.04628487 -5.0390625 57.6171875 C-5.05085541 56.47718292 -5.06264832 55.33717834 -5.07479858 54.16262817 C-5.11008021 50.52494623 -5.11923252 46.88783914 -5.125 43.25 C-5.14132505 39.60519201 -5.16331551 35.96064179 -5.19662476 32.31594849 C-5.21630362 30.04898734 -5.22558441 27.7819077 -5.22354126 25.51486206 C-5.23050018 24.49014801 -5.23745911 23.46543396 -5.24462891 22.40966797 C-5.24588776 21.50763641 -5.24714661 20.60560486 -5.2484436 19.67623901 C-5.35128326 17.09865873 -5.35128326 17.09865873 -7.5 14.375 C-11 13.875 -11 13.875 -14.5 14.375 C-16.68611089 17.65416633 -16.75006682 18.6088779 -16.75537109 22.40966797 C-16.76233002 23.43438202 -16.76928894 24.45909607 -16.77645874 25.51486206 C-16.77496323 27.17426315 -16.77496323 27.17426315 -16.7734375 28.8671875 C-16.79372647 31.20443187 -16.81457726 33.54167142 -16.8359375 35.87890625 C-16.85854833 39.56791245 -16.87501067 43.25672845 -16.88085938 46.94580078 C-16.89037262 50.50328049 -16.92413873 54.0599001 -16.9609375 57.6171875 C-16.95589203 58.71940643 -16.95084656 59.82162537 -16.94564819 60.95724487 C-16.95891144 61.98826324 -16.97217468 63.01928162 -16.98583984 64.08154297 C-16.98868988 64.98516571 -16.99153992 65.88878845 -16.99447632 66.8197937 C-17.70995797 70.43624786 -18.7043792 71.94714418 -21.5 74.375 C-24.57048375 75.11118549 -27.57362548 75.05505957 -30.71899414 75.01855469 C-32.11715614 75.0318708 -32.11715614 75.0318708 -33.54356384 75.04545593 C-36.62445604 75.06915608 -39.70420932 75.05794264 -42.78515625 75.046875 C-44.92460877 75.05745119 -47.06405092 75.07036122 -49.20347595 75.08551025 C-54.8363179 75.11976059 -60.46881369 75.12509137 -66.10174561 75.12359619 C-74.04530948 75.12681839 -81.98877611 75.1694747 -89.93223572 75.20733643 C-94.16353397 75.22737904 -98.39464807 75.23668587 -102.62599182 75.23748779 C-104.55412806 75.24130787 -106.48226425 75.24515178 -108.41040039 75.24902344 C-109.73130173 75.24587379 -109.73130173 75.24587379 -111.07888794 75.24266052 C-114.4674095 75.2534344 -117.26281929 75.29593976 -120.5 76.375 C-120.50142502 77.19074997 -120.50285004 78.00649994 -120.50431824 78.8469696 C-120.52216269 86.54227893 -120.56381793 94.23691943 -120.63209057 101.9319334 C-120.66635267 105.88788593 -120.69146922 109.84345263 -120.69555664 113.79956055 C-120.69984145 117.61895479 -120.72831745 121.43747879 -120.77343178 125.25660133 C-120.78640126 126.71215556 -120.79071634 128.16781396 -120.78615379 129.62341881 C-120.78124304 131.66615619 -120.80735148 133.70635454 -120.84057617 135.7487793 C-120.84723801 136.91015915 -120.85389984 138.071539 -120.86076355 139.26811218 C-121.70502907 143.37150501 -123.19680206 144.8601334 -126.5 147.375 C-129.04847717 147.98731995 -129.04847717 147.98731995 -131.77758789 147.97094727 C-132.80537857 147.9776796 -133.83316925 147.98441193 -134.8921051 147.99134827 C-135.99118698 147.9748674 -137.09026886 147.95838654 -138.22265625 147.94140625 C-139.36028915 147.94704086 -140.49792206 147.95267548 -141.67002869 147.95848083 C-145.30127185 147.97493914 -148.93129887 147.95937326 -152.5625 147.9375 C-156.19715677 147.92092314 -159.83101423 147.91178128 -163.46568298 147.92723083 C-165.72607157 147.93653326 -167.98662849 147.92727304 -170.24684143 147.89759827 C-171.27147995 147.90117844 -172.29611847 147.90475861 -173.35180664 147.90844727 C-174.70152306 147.8991494 -174.70152306 147.8991494 -176.07850647 147.8896637 C-179.35352861 148.54607145 -180.51674657 149.72092048 -182.5 152.375 C-183.09286418 154.79570532 -183.09286418 154.79570532 -183.00170898 157.44726562 C-183.01108994 158.45511108 -183.02047089 159.46295654 -183.03013611 160.50134277 C-183.01328514 162.12489685 -183.01328514 162.12489685 -182.99609375 163.78125 C-182.99754898 164.89810181 -182.99900421 166.01495361 -183.00050354 167.16564941 C-182.9988442 169.52598683 -182.98727921 171.88633503 -182.96655273 174.24658203 C-182.93760834 177.86146966 -182.945942 181.4748902 -182.95898438 185.08984375 C-182.95274671 187.38281964 -182.94435556 189.67579088 -182.93359375 191.96875 C-182.93652939 193.05111938 -182.93946503 194.13348877 -182.94248962 195.24865723 C-182.92980545 196.25650269 -182.91712128 197.26434814 -182.90405273 198.30273438 C-182.89864975 199.18779663 -182.89324677 200.07285889 -182.88768005 200.98474121 C-182.42648225 203.82827699 -181.37785837 205.23198489 -179.5 207.375 C-177.1568787 207.11938677 -174.82156597 206.78229228 -172.5 206.375 C-170.9114212 203.1978424 -171.3004406 199.75377058 -171.25390625 196.26171875 C-171.22096032 194.60481257 -171.1877488 192.94791166 -171.15429688 191.29101562 C-171.10693953 188.67752803 -171.06252348 186.06406063 -171.02319336 183.45043945 C-170.98336687 180.92896974 -170.93184052 178.40794264 -170.87890625 175.88671875 C-170.8704921 175.10946945 -170.86207794 174.33222015 -170.85340881 173.53141785 C-170.76066741 169.44139554 -170.67568837 165.90827834 -168.5 162.375 C-163.89542694 159.80272387 -159.23070796 160.08593796 -154.10742188 160.1003418 C-153.16862686 160.09523087 -152.22983185 160.09011993 -151.2625885 160.08485413 C-148.16457719 160.07097297 -145.06678868 160.07191358 -141.96875 160.07421875 C-139.81310951 160.07033146 -137.65746979 160.06599672 -135.50183105 160.06123352 C-130.98605871 160.05377482 -126.47036456 160.05406041 -121.95458984 160.05932617 C-116.16736395 160.0651251 -110.38045765 160.04817773 -104.59328461 160.0249815 C-100.14262012 160.01025281 -95.6920328 160.00937121 -91.24134827 160.01249123 C-89.10750189 160.01197774 -86.97365123 160.00673486 -84.83982849 159.99667931 C-81.85719994 159.98434704 -78.87519662 159.99108712 -75.89257812 160.00268555 C-75.01138809 159.99504181 -74.13019806 159.98739807 -73.2223053 159.97952271 C-68.03611052 160.0241129 -64.35261138 160.52238862 -60.5 164.375 C-60.3767935 167.21084752 -60.31386024 170.02609515 -60.2890625 172.86328125 C-60.26098879 174.61914987 -60.23232429 176.37500912 -60.203125 178.13085938 C-60.16187501 180.90909515 -60.12500325 183.68715707 -60.09863281 186.46557617 C-60.07102274 189.14018261 -60.02514411 191.81398454 -59.9765625 194.48828125 C-59.9716832 195.73222404 -59.9716832 195.73222404 -59.96670532 197.001297 C-59.87391662 201.35483596 -59.77797701 204.15417802 -56.5 207.375 C-52.15815798 207.19035634 -52.15815798 207.19035634 -48.5 205.375 C-48.39081293 203.70338447 -48.35093195 202.02718502 -48.33886719 200.35205078 C-48.32925964 199.28068878 -48.3196521 198.20932678 -48.30975342 197.10549927 C-48.30550354 195.93888763 -48.30125366 194.772276 -48.296875 193.5703125 C-48.29117493 192.38025604 -48.28547485 191.19019958 -48.27960205 189.96408081 C-48.27013473 187.44041844 -48.26361123 184.91674361 -48.25976562 182.39306641 C-48.25005906 178.52354454 -48.2190507 174.65455332 -48.1875 170.78515625 C-48.18097052 168.33854484 -48.17571983 165.89192961 -48.171875 163.4453125 C-48.1533548 161.70146774 -48.1533548 161.70146774 -48.13446045 159.9223938 C-48.1389621 158.30589432 -48.1389621 158.30589432 -48.14355469 156.65673828 C-48.13990906 155.70711212 -48.13626343 154.75748596 -48.13250732 153.77908325 C-48.33029741 151.35512512 -48.33029741 151.35512512 -49.70088196 149.56794739 C-52.1213414 147.96300502 -53.74634549 148.0030853 -56.64233398 148.00610352 C-58.21427773 147.99577843 -58.21427773 147.99577843 -59.81797791 147.98524475 C-61.51489525 147.99448219 -61.51489525 147.99448219 -63.24609375 148.00390625 C-65.63346499 147.98652547 -68.02083475 147.96894107 -70.40820312 147.95117188 C-74.17849418 147.94108759 -77.94869014 147.93750506 -81.71899414 147.93920898 C-85.35331813 147.93564662 -88.98690112 147.90833056 -92.62109375 147.87890625 C-93.75034775 147.88708878 -94.87960175 147.8952713 -96.04307556 147.90370178 C-97.09419022 147.89366623 -98.14530487 147.88363068 -99.22827148 147.87329102 C-100.61368385 147.87354027 -100.61368385 147.87354027 -102.02708435 147.87379456 C-105.33209069 147.20716479 -106.50161622 146.05913111 -108.5 143.375 C-109.00120544 140.98474121 -109.00120544 140.98474121 -109.00170898 138.30273438 C-109.01108994 137.29488892 -109.02047089 136.28704346 -109.03013611 135.24865723 C-109.01890213 134.16628784 -109.00766815 133.08391846 -108.99609375 131.96875 C-108.99754898 130.85189819 -108.99900421 129.73504639 -109.00050354 128.58435059 C-108.9988442 126.22401317 -108.98727921 123.86366497 -108.96655273 121.50341797 C-108.93760834 117.88853034 -108.945942 114.2751098 -108.95898438 110.66015625 C-108.95274671 108.36718036 -108.94435556 106.07420912 -108.93359375 103.78125 C-108.93652939 102.69888062 -108.93946503 101.61651123 -108.94248962 100.50134277 C-108.92980545 99.49349731 -108.91712128 98.48565186 -108.90405273 97.44726562 C-108.89864975 96.56220337 -108.89324677 95.67714111 -108.88768005 94.76525879 C-108.41636054 91.85931717 -107.51877023 90.49485977 -105.5 88.375 C-102.0022187 87.2090729 -98.86377988 87.23005384 -95.22549438 87.23455811 C-94.47916886 87.23158698 -93.73284333 87.22861586 -92.96390188 87.2255547 C-90.45590378 87.21686318 -87.94795338 87.21535908 -85.43994141 87.21386719 C-83.64467771 87.20923938 -81.849415 87.20421477 -80.05415344 87.19882202 C-75.17192004 87.18569348 -70.2897004 87.17925232 -65.40745211 87.17481136 C-62.35855073 87.17188171 -59.30965312 87.16777714 -56.26075363 87.16330719 C-46.72519117 87.14963182 -37.18963732 87.13996504 -27.65406573 87.1361053 C-16.63943302 87.13162259 -5.62492428 87.11406495 5.38967073 87.0851047 C13.89929567 87.06350568 22.40888567 87.05340199 30.91853774 87.05206418 C36.00313748 87.05101499 41.08762069 87.04508278 46.17219162 87.02724457 C50.95414906 87.01079438 55.73590197 87.0085935 60.51787758 87.01738358 C62.27347294 87.01815556 64.02907917 87.01379008 65.78464699 87.00392532 C68.18051862 86.99125153 70.57566086 86.99705733 72.9715271 87.00750732 C73.66696007 86.99945092 74.36239304 86.99139452 75.07889974 86.98309398 C79.3765295 87.02696352 82.0762818 87.75311539 85.5 90.375 C86.72753468 92.83006935 86.64661778 94.47476011 86.67700195 97.22021484 C86.68983719 98.22821136 86.70267242 99.23620789 86.71589661 100.27474976 C86.72697701 101.91378769 86.72697701 101.91378769 86.73828125 103.5859375 C86.746353 104.7056192 86.75442474 105.8253009 86.76274109 106.97891235 C86.77658834 109.35116015 86.78730761 111.72342793 86.79516602 114.09570312 C86.81239681 117.72824675 86.85628057 121.35988472 86.90039062 124.9921875 C86.91051565 127.29426413 86.91903235 129.5963485 86.92578125 131.8984375 C86.94328934 132.98708099 86.96079742 134.07572449 86.97883606 135.19735718 C86.97444771 136.71880844 86.97444771 136.71880844 86.9699707 138.27099609 C86.97877007 139.60763809 86.97877007 139.60763809 86.98774719 140.97128296 C86.32486175 144.23811679 85.15231707 145.39839563 82.5 147.375 C80.02708435 147.88725281 80.02708435 147.88725281 77.22827148 147.9050293 C75.6515995 147.9297657 75.6515995 147.9297657 74.04307556 147.95500183 C72.34919456 147.95213921 72.34919456 147.95213921 70.62109375 147.94921875 C69.45747818 147.96338333 68.29386261 147.97754791 67.09498596 147.99214172 C63.37573019 148.03409824 59.65695931 148.04929255 55.9375 148.0625 C52.21469607 148.09154128 48.49201573 148.12607697 44.76930237 148.16499329 C42.45225093 148.18750179 40.13512297 148.20330827 37.81797791 148.21183777 C36.77001541 148.21887222 35.72205292 148.22590668 34.64233398 148.2331543 C33.25811501 148.23837349 33.25811501 148.23837349 31.84593201 148.24369812 C29.34528226 148.28061771 29.34528226 148.28061771 26.5 149.375 C26.4305571 156.64188753 26.37721811 163.90870378 26.34456348 171.17585564 C26.32889256 174.55013606 26.30762907 177.92418987 26.27368164 181.29833984 C26.2374264 185.17551748 26.22030272 189.05237172 26.20703125 192.9296875 C26.19154739 194.14429657 26.17606354 195.35890564 26.16011047 196.61032104 C26.15988388 197.73133209 26.15965729 198.85234314 26.15942383 200.00732422 C26.15276199 200.99771698 26.14610016 201.98810974 26.13923645 203.0085144 C26.25828842 203.78945465 26.37734039 204.5703949 26.5 205.375 C29.72143276 207.52262184 30.7595467 207.936068 34.5 207.375 C37.27495702 204.84264401 37.50936745 203.28056468 37.88476562 199.49609375 C37.90587937 197.93502218 37.91216066 196.37370315 37.90625 194.8125 C37.92250427 193.57004517 37.92250427 193.57004517 37.93908691 192.30249023 C37.97331718 189.65991366 37.98893635 187.01776905 38 184.375 C38.01456687 180.89541776 38.04823246 177.41679976 38.09375 173.9375 C38.09072876 173.13948975 38.08770752 172.34147949 38.08459473 171.51928711 C38.12889794 168.24367312 38.2633911 165.8122947 39.83789062 162.90234375 C42.50563289 160.45090491 45.04543672 160.2495096 48.50961304 160.24128723 C49.32268417 160.23702225 50.13575531 160.23275726 50.97346497 160.22836304 C51.86184555 160.22881622 52.75022614 160.22926941 53.66552734 160.22973633 C55.07328178 160.22469841 55.07328178 160.22469841 56.50947571 160.21955872 C59.6183097 160.21004387 62.72708985 160.20810531 65.8359375 160.20703125 C67.99443586 160.20381897 70.15293399 160.20045492 72.31143188 160.19694519 C76.83913681 160.19095254 81.36682264 160.18910542 85.89453125 160.18969727 C91.69743498 160.18979888 97.50021633 160.17614794 103.30309105 160.15892506 C107.76232465 160.14780856 112.22152864 160.14577795 116.68077469 160.14630699 C118.82020108 160.1451263 120.95962822 160.14069954 123.09904099 160.13297462 C126.09134245 160.12318219 129.08337788 160.12604994 132.07568359 160.13208008 C132.96001572 160.12646057 133.84434784 160.12084106 134.75547791 160.11505127 C139.09057634 160.13726121 142.59450058 160.25136693 146.5 162.375 C149.44028081 165.94863184 148.79720283 170.82913223 148.80859375 175.2265625 C148.83373671 176.9817744 148.85913496 178.73698266 148.88476562 180.4921875 C148.91359835 183.25520008 148.93762268 186.01814983 148.95629883 188.78125 C148.977866 191.45083895 149.01727754 194.11971714 149.05859375 196.7890625 C149.05876747 198.03437241 149.05876747 198.03437241 149.0589447 199.30484009 C149.06899916 201.87314981 149.06899916 201.87314981 149.5 205.375 C152.73253796 207.53002531 153.75150923 207.84356135 157.5 207.375 C159.731259 205.7280612 160.4238972 204.82806129 160.88768005 202.06703186 C160.89308304 201.1619841 160.89848602 200.25693634 160.90405273 199.32446289 C160.92307899 197.78255028 160.92307899 197.78255028 160.94248962 196.20948792 C160.93955399 195.10008347 160.93661835 193.99067902 160.93359375 192.84765625 C160.9388356 191.70719345 160.94407745 190.56673065 160.94947815 189.39170837 C160.95590546 186.97835098 160.95455224 184.56496229 160.94604492 182.15161133 C160.93754101 178.45532503 160.96627919 174.76058641 160.99804688 171.06445312 C160.99965906 168.72135463 160.99908104 166.37825339 160.99609375 164.03515625 C161.01294472 162.37408592 161.01294472 162.37408592 161.03013611 160.67945862 C161.01606468 159.13281776 161.01606468 159.13281776 161.00170898 157.55493164 C161.00154282 156.64908829 161.00137665 155.74324493 161.00120544 154.80995178 C160.32627193 151.53099583 159.16449894 150.36040826 156.5 148.375 C154.03828382 147.7843811 154.03828382 147.7843811 151.3359375 147.87670898 C150.30807129 147.86667343 149.28020508 147.85663788 148.22119141 147.84629822 C146.56482666 147.85857201 146.56482666 147.85857201 144.875 147.87109375 C143.73595215 147.86167252 142.5969043 147.85225128 141.42333984 147.84254456 C137.78204388 147.8138436 134.1414001 147.81081861 130.5 147.8125 C126.85869509 147.80889713 123.21786542 147.79941511 119.57666016 147.77174377 C117.310771 147.75490547 115.04472507 147.75211838 112.77880859 147.76475525 C111.75094238 147.75787186 110.72307617 147.75098846 109.6640625 147.74389648 C108.76123535 147.74485825 107.8584082 147.74582001 106.92822266 147.74681091 C103.98825447 147.29664122 102.63650448 146.41902931 100.5 144.375 C99.4781788 141.30953639 99.36140141 139.18460315 99.33886719 135.97314453 C99.32925964 134.86834747 99.3196521 133.76355042 99.30975342 132.62527466 C99.3033786 130.83463089 99.3033786 130.83463089 99.296875 129.0078125 C99.29117493 127.78093719 99.28547485 126.55406189 99.27960205 125.29000854 C99.27014956 122.69253401 99.26361709 120.09504747 99.25976562 117.49755859 C99.25005594 113.52289951 99.21903222 109.54875653 99.1875 105.57421875 C99.18097039 103.05208641 99.17571975 100.52995036 99.171875 98.0078125 C99.1595282 96.81809845 99.1471814 95.6283844 99.13446045 94.40261841 C99.13746155 93.29151703 99.14046265 92.18041565 99.14355469 91.03564453 C99.13990906 90.06096222 99.13626343 89.08627991 99.13250732 88.08206177 C99.5687104 84.86885851 100.60598764 82.98513642 102.5 80.375 C105.34083641 78.95458179 107.35477278 79.06047728 110.5 79.375 C112.67089844 80.70019531 112.67089844 80.70019531 114.5 83.375 C115.06632205 87.07861409 114.9640544 90.74563632 114.890625 94.484375 C114.88496521 95.56632141 114.87930542 96.64826782 114.87347412 97.76300049 C114.85108999 101.21745107 114.80088791 104.67086311 114.75 108.125 C114.72993772 110.46743293 114.71168648 112.80988213 114.6953125 115.15234375 C114.65121855 120.8935833 114.58428555 126.63421745 114.5 132.375 C115.78052246 132.35405273 117.06104492 132.33310547 118.38037109 132.31152344 C123.16996911 132.23865666 127.95951896 132.19303154 132.74951172 132.15527344 C134.81535098 132.13526375 136.88113437 132.10804717 138.94677734 132.07324219 C141.93080503 132.02425284 144.91407846 132.00192436 147.8984375 131.984375 C149.26468765 131.95340729 149.26468765 131.95340729 150.65853882 131.92181396 C157.59990678 131.91943126 164.61760671 133.16483045 170.12240601 137.7164917 C176.80196819 145.18796634 176.9472444 152.71745736 176.8984375 162.24609375 C176.90130768 163.48239029 176.90417786 164.71868683 176.90713501 165.9924469 C176.90917167 168.6005194 176.90366975 171.20860732 176.89111328 173.81665039 C176.87506882 177.7954345 176.89096968 181.77320066 176.91015625 185.75195312 C176.90817348 188.2916689 176.90432911 190.83138404 176.8984375 193.37109375 C176.90451019 194.55464951 176.91058289 195.73820526 176.9168396 196.95762634 C176.85471112 204.3027151 176.55202913 210.77774185 171.59765625 216.6171875 C170.92605469 217.15601563 170.25445312 217.69484375 169.5625 218.25 C168.89347656 218.80429687 168.22445313 219.35859375 167.53515625 219.9296875 C161.47224663 224.23540066 155.79127181 224.05610084 148.5 223.375 C141.78003715 221.65972677 137.95554013 217.19800361 134.5 211.375 C130.70380307 199.98640922 133.5 187.37962874 133.5 175.375 C107.1 175.375 80.7 175.375 53.5 175.375 C53.5 185.605 53.5 195.835 53.5 206.375 C50.10951714 215.41628761 50.10951714 215.41628761 46.625 218.25 C45.96757812 218.80429687 45.31015625 219.35859375 44.6328125 219.9296875 C38.59636377 224.02032126 32.58505412 224.09364008 25.5 223.375 C18.79009895 221.61099939 14.96080586 217.206877 11.5 211.375 C10.44336993 208.2051098 10.34781896 205.89301487 10.30712891 202.56176758 C10.29106598 201.36654984 10.27500305 200.17133209 10.25845337 198.93989563 C10.21394652 193.46864047 10.17249428 187.99751634 10.14990234 182.52612305 C10.13658831 179.64233501 10.10878146 176.75925885 10.06787109 173.87573242 C10.01833805 170.38382091 9.99375626 166.89255256 9.98667526 163.40030479 C9.97676653 161.43499828 9.94257132 159.4698621 9.90786743 157.50483704 C9.92760046 149.12028716 11.12457911 143.95700072 16.94302368 137.86384583 C23.19101613 132.16198337 29.72340357 132.09117029 37.7109375 132.1796875 C38.67907379 132.1825174 39.64721008 132.18534729 40.64468384 132.18826294 C43.72158428 132.19941304 46.79818828 132.2245082 49.875 132.25 C51.9674437 132.26003648 54.05989198 132.26916116 56.15234375 132.27734375 C61.26843387 132.2976296 66.38388705 132.33678837 71.5 132.375 C71.5 122.475 71.5 112.575 71.5 102.375 C17.05 102.375 -37.4 102.375 -93.5 102.375 C-93.5 112.275 -93.5 122.175 -93.5 132.375 C-88.87484375 132.32279297 -88.87484375 132.32279297 -84.15625 132.26953125 C-81.15105107 132.24609685 -78.14586255 132.22790238 -75.140625 132.21020508 C-73.06115113 132.19517157 -70.98170869 132.17473926 -68.90234375 132.14868164 C-65.90356666 132.11205864 -62.90521089 132.09521889 -59.90625 132.08203125 C-58.98509399 132.06654739 -58.06393799 132.05106354 -57.11486816 132.03511047 C-50.43356232 132.03339069 -44.54202032 132.79405245 -39.2578125 137.27734375 C-38.71898437 137.94894531 -38.18015625 138.62054688 -37.625 139.3125 C-37.07070312 139.98152344 -36.51640625 140.65054688 -35.9453125 141.33984375 C-33.03489127 145.43803148 -32.24743885 148.26566317 -32.2253418 153.33349609 C-32.21580978 154.53509369 -32.20627777 155.73669128 -32.19645691 156.97470093 C-32.19782402 158.91695053 -32.19782402 158.91695053 -32.19921875 160.8984375 C-32.19532919 162.24598319 -32.19099398 163.59352766 -32.18623352 164.94107056 C-32.17877902 167.76381404 -32.17905654 170.58643244 -32.18432617 173.40917969 C-32.19011408 177.01606077 -32.17320317 180.6224272 -32.1499815 184.22922325 C-32.13520525 187.0123084 -32.13437781 189.79527079 -32.13749123 192.57838821 C-32.13673203 194.55141716 -32.12288763 196.52442713 -32.10881042 198.49740601 C-32.11503922 199.70530792 -32.12126801 200.91320984 -32.12768555 202.15771484 C-32.12705612 203.2159848 -32.1264267 204.27425476 -32.1257782 205.36459351 C-32.87856316 211.4203303 -35.9251707 215.51181082 -40.5 219.375 C-46.25919168 223.32158894 -51.59806797 224.3012822 -58.5 223.375 C-63.77898882 221.70332021 -67.6663455 219.37903915 -71.5 215.375 C-75.5 205.375 -75.5 205.375 -75.5 175.375 C-101.9 175.375 -128.3 175.375 -155.5 175.375 C-155.5 186.265 -155.5 197.155 -155.5 208.375 C-158.95039102 215.27578205 -162.29930683 219.41864053 -169.2578125 222.6484375 C-174.74682321 224.42710647 -179.82643909 223.90496095 -185.25 222.1875 C-192.05834912 218.39053607 -194.92360714 215.49995703 -197.67507935 208.28521729 C-199.14284105 203.10713688 -199.04943717 197.99679126 -198.99609375 192.6484375 C-198.99754898 191.46077789 -198.99900421 190.27311829 -199.00050354 189.04946899 C-198.99885232 186.55346203 -198.98737898 184.05744406 -198.96655273 181.56152344 C-198.93753137 177.75411551 -198.94597535 173.94809675 -198.95898438 170.140625 C-198.95274791 167.70572244 -198.9443577 165.27082425 -198.93359375 162.8359375 C-198.93652939 161.70554047 -198.93946503 160.57514343 -198.94248962 159.41049194 C-198.84167218 150.91965409 -197.77747422 143.65247422 -191.5 137.375 C-186.49488789 133.91352059 -182.05753163 132.24408755 -176.00683594 132.26147461 C-174.68591949 132.26158791 -174.68591949 132.26158791 -173.33831787 132.26170349 C-172.39651672 132.26686478 -171.45471558 132.27202606 -170.484375 132.27734375 C-169.02792572 132.27946617 -169.02792572 132.27946617 -167.54205322 132.28163147 C-164.44467065 132.28722337 -161.34736068 132.29977441 -158.25 132.3125 C-156.14843854 132.31751605 -154.04687596 132.32207877 -151.9453125 132.32617188 C-146.79684708 132.33719015 -141.64843584 132.35444926 -136.5 132.375 C-136.50888245 131.67866455 -136.51776489 130.9823291 -136.5269165 130.26489258 C-136.60735432 123.67463134 -136.66811159 117.08450884 -136.70724869 110.49386597 C-136.72804671 107.10621042 -136.75621887 103.71896344 -136.80175781 100.33154297 C-136.85044693 96.42925354 -136.87300929 92.52753848 -136.890625 88.625 C-136.91127014 87.41948486 -136.93191528 86.21396973 -136.95318604 84.97192383 C-136.95529086 77.02579778 -136.05803387 71.58290307 -130.7890625 65.3515625 C-130.23992187 64.90554688 -129.69078125 64.45953125 -129.125 64 C-128.58101563 63.53851563 -128.03703125 63.07703125 -127.4765625 62.6015625 C-122.13095232 59.28432614 -116.91256071 59.09274465 -110.83251953 59.14794922 C-109.98308273 59.14765717 -109.13364594 59.14736511 -108.25846863 59.14706421 C-105.46647731 59.14845131 -102.67475688 59.16398322 -99.8828125 59.1796875 C-97.9408279 59.18341983 -95.99884141 59.18626577 -94.05685425 59.18826294 C-88.95722207 59.19588202 -83.85770466 59.2155157 -78.75811768 59.2376709 C-73.54969841 59.2581665 -68.34126051 59.26727259 -63.1328125 59.27734375 C-52.92182471 59.29876322 -42.71092191 59.33287834 -32.5 59.375 C-32.53927612 57.40877686 -32.53927612 57.40877686 -32.5793457 55.40283203 C-32.67040616 50.50147832 -32.72745139 45.60019813 -32.7746582 40.69824219 C-32.79967575 38.58385611 -32.83370092 36.46955541 -32.87719727 34.35546875 C-32.93841332 31.30186808 -32.96633792 28.24941861 -32.98828125 25.1953125 C-33.01408768 24.26260529 -33.0398941 23.32989807 -33.06648254 22.368927 C-33.06937999 15.46257218 -31.4015722 10.11905643 -27.5 4.375 C-20.31749685 -2.49216226 -9.10723543 -4.19664195 0 0 Z " fill="#6E78FB" transform="translate(267.5,220.625)"/>
<path d="M0 0 C3.8426944 3.03984236 5.77813795 7.00315692 7.890625 11.3203125 C8.24010193 12.0201828 8.58957886 12.7200531 8.949646 13.44113159 C9.68279955 14.91345624 10.41208334 16.38771354 11.13769531 17.86376953 C12.2518352 20.12873082 13.37878238 22.38696148 14.5078125 24.64453125 C15.21950856 26.07774857 15.93047206 27.51132994 16.640625 28.9453125 C17.14677338 29.96094772 17.14677338 29.96094772 17.66314697 30.99710083 C20 35.76779938 20 35.76779938 20 38 C21.05912598 38.14099121 22.11825195 38.28198242 23.20947266 38.42724609 C27.15754526 38.95439273 31.104543 39.4892432 35.05126953 40.02636719 C36.75606619 40.25729582 38.46114326 40.48616448 40.16650391 40.71289062 C42.6247994 41.04008932 45.08197447 41.37480588 47.5390625 41.7109375 C48.29555084 41.80998383 49.05203918 41.90903015 49.83145142 42.01107788 C54.76446853 42.69561565 59.65257175 43.43504783 63.875 46.25 C65.72665758 49.13035624 65.63715383 50.62308468 65 54 C60.11597521 60.77771159 53.58752574 66.56321982 47.6875 72.4375 C46.78193359 73.34693359 45.87636719 74.25636719 44.94335938 75.19335938 C44.07904297 76.05638672 43.21472656 76.91941406 42.32421875 77.80859375 C41.54135498 78.59032959 40.75849121 79.37206543 39.9519043 80.17749023 C38 82 38 82 36 83 C36.89805763 89.71179911 37.87985605 96.39439017 39.05859375 103.0625 C39.24389648 104.12275391 39.42919922 105.18300781 39.62011719 106.27539062 C39.99404797 108.4005532 40.3760229 110.52431837 40.76660156 112.64648438 C42.73987203 123.92963759 42.73987203 123.92963759 39.9375 128.875 C36.71199727 130.74787255 33.57187247 130.5776497 30 130 C26.00643389 128.42760883 22.31031116 126.39515988 18.5625 124.3125 C17.57701172 123.78205078 16.59152344 123.25160156 15.57617188 122.70507812 C11.82894238 120.68122654 8.09194691 118.6614377 4.44873047 116.45458984 C3.67029785 115.98875488 2.89186523 115.52291992 2.08984375 115.04296875 C1.08038696 114.41491333 1.08038696 114.41491333 0.05053711 113.77416992 C-3.53873218 112.41905944 -6.18865038 113.63613461 -9.56787109 115.15161133 C-10.46070801 115.6236499 -11.35354492 116.09568848 -12.2734375 116.58203125 C-13.2634375 117.10216797 -14.2534375 117.62230469 -15.2734375 118.15820312 C-16.29695313 118.70412109 -17.32046875 119.25003906 -18.375 119.8125 C-19.39078125 120.34681641 -20.4065625 120.88113281 -21.453125 121.43164062 C-25.67568308 123.66082226 -29.86758997 125.9001891 -33.9609375 128.359375 C-38.18858901 130.64165474 -40.28792175 130.54974246 -45 130 C-46.9375 128.875 -46.9375 128.875 -48 127 C-49.22258508 122.04760422 -48.70237864 117.82659831 -47.75 112.8984375 C-47.54455566 111.76010971 -47.54455566 111.76010971 -47.33496094 110.5987854 C-46.89946265 108.18900549 -46.4511134 105.78190206 -46 103.375 C-45.54951609 100.96086828 -45.10213969 98.54638399 -44.66503906 96.12979126 C-44.39372069 94.63025851 -44.11473763 93.13208704 -43.82714844 91.6355896 C-42.89108869 86.73757599 -42.89108869 86.73757599 -44 82 C-46.24741619 79.61070717 -46.24741619 79.61070717 -49.125 77.1875 C-50.20932135 76.22000845 -51.29122913 75.24980716 -52.37109375 74.27734375 C-53.24290283 73.49399658 -53.24290283 73.49399658 -54.13232422 72.69482422 C-57.53966865 69.60282617 -60.87947323 66.44781226 -64.1875 63.25 C-64.8470166 62.63664795 -65.5065332 62.0232959 -66.18603516 61.39135742 C-69.24244701 58.40687533 -70.8405076 56.49384356 -72.17578125 52.359375 C-71.9507991 48.05971621 -71.13784324 46.92891163 -68 44 C-64.93763805 42.95210435 -61.84561571 42.58489552 -58.640625 42.19921875 C-57.28405792 42.01006645 -57.28405792 42.01006645 -55.90008545 41.8170929 C-53.01906236 41.42013472 -50.13510469 41.05348488 -47.25 40.6875 C-45.29269899 40.42321419 -43.33566259 40.15696062 -41.37890625 39.88867188 C-36.58870553 39.23626566 -31.79564998 38.61100555 -27 38 C-26.73952881 37.15598633 -26.47905762 36.31197266 -26.21069336 35.44238281 C-24.9278623 31.79488977 -23.34960056 28.37568254 -21.62890625 24.921875 C-21.14441261 23.94290253 -21.14441261 23.94290253 -20.65013123 22.94415283 C-19.97059197 21.57500737 -19.28892282 20.20691714 -18.60522461 18.83984375 C-17.56071293 16.74641833 -16.52919164 14.64691026 -15.49804688 12.546875 C-14.83411682 11.21315136 -14.16942955 9.87980433 -13.50390625 8.546875 C-13.04438316 7.60627228 -13.04438316 7.60627228 -12.57557678 6.64666748 C-9.5139962 0.58766443 -6.74590377 -0.71009513 0 0 Z M-4 24 C-4.33733154 24.74161377 -4.67466309 25.48322754 -5.0222168 26.24731445 C-6.56203306 29.60961984 -8.12442066 32.96095004 -9.6875 36.3125 C-10.21794922 37.47974609 -10.74839844 38.64699219 -11.29492188 39.84960938 C-12.08286133 41.52700195 -12.08286133 41.52700195 -12.88671875 43.23828125 C-13.36326904 44.26993408 -13.83981934 45.30158691 -14.33081055 46.36450195 C-16.87444548 50.38066972 -19.47508843 51.64569058 -24.04614258 52.70776367 C-25.15111084 52.85963135 -26.2560791 53.01149902 -27.39453125 53.16796875 C-28.59658203 53.33876953 -29.79863281 53.50957031 -31.03710938 53.68554688 C-32.28298828 53.85119141 -33.52886719 54.01683594 -34.8125 54.1875 C-36.07771484 54.36474609 -37.34292969 54.54199219 -38.64648438 54.72460938 C-41.76308061 55.15975677 -44.88073397 55.58449993 -48 56 C-43.24049094 61.70994865 -38.14875321 66.88854816 -32.77148438 72.01367188 C-32.17013672 72.60083984 -31.56878906 73.18800781 -30.94921875 73.79296875 C-30.40612061 74.3139917 -29.86302246 74.83501465 -29.3034668 75.37182617 C-27.08694579 78.14050544 -26.92105679 80.20878028 -27.26953125 83.70141602 C-27.53830078 85.21239868 -27.53830078 85.21239868 -27.8125 86.75390625 C-28.00070313 87.85541016 -28.18890625 88.95691406 -28.3828125 90.09179688 C-28.68832031 91.80979492 -28.68832031 91.80979492 -29 93.5625 C-29.40248211 95.83346709 -29.79862233 98.10557004 -30.1875 100.37890625 C-30.36667969 101.3851001 -30.54585937 102.39129395 -30.73046875 103.42797852 C-31.19122998 106.11527679 -31.19122998 106.11527679 -30 109 C-29.33991943 108.63648438 -28.67983887 108.27296875 -27.99975586 107.8984375 C-24.98705339 106.25039126 -21.9626292 104.62511478 -18.9375 103 C-17.89916016 102.42765625 -16.86082031 101.8553125 -15.79101562 101.265625 C-5.55931529 95.80871815 -5.55931529 95.80871815 0 97 C4.11833833 98.76003121 8.01738639 100.8391925 11.9375 103 C13.00291016 103.57234375 14.06832031 104.1446875 15.16601562 104.734375 C17.78460929 106.1434837 20.39524284 107.5655237 23 109 C24.48432875 104.09582117 23.14442537 99.69973966 22.11523438 94.81445312 C21.67108468 92.54867565 21.32110525 90.28641848 21 88 C20.77739502 86.69434082 20.77739502 86.69434082 20.55029297 85.36230469 C20.10177675 80.83221062 20.2526499 78.08528232 22.88110352 74.26831055 C25.47281654 71.48072847 28.16915697 68.91893326 31 66.375 C32.87601886 64.61306337 34.75107656 62.85010257 36.625 61.0859375 C37.46289062 60.3232959 38.30078125 59.5606543 39.1640625 58.77490234 C39.76992188 58.18918457 40.37578125 57.6034668 41 57 C41 56.67 41 56.34 41 56 C39.80455566 55.83395264 39.80455566 55.83395264 38.58496094 55.66455078 C34.97225092 55.1586029 31.36115474 54.64192672 27.75 54.125 C26.49574219 53.95097656 25.24148438 53.77695313 23.94921875 53.59765625 C22.14130859 53.33662109 22.14130859 53.33662109 20.296875 53.0703125 C19.18666992 52.91320801 18.07646484 52.75610352 16.93261719 52.59423828 C12.30254774 51.65604406 12.30254774 51.65604406 10 50 C8.35253906 47.38623047 8.35253906 47.38623047 6.765625 44.1171875 C6.19199219 42.95058594 5.61835938 41.78398438 5.02734375 40.58203125 C4.43463309 39.34648017 3.84218853 38.11080141 3.25 36.875 C2.64303686 35.63096834 2.03497591 34.38747167 1.42578125 33.14453125 C-0.06037474 30.10144993 -1.53505741 27.0533354 -3 24 C-3.33 24 -3.66 24 -4 24 Z " fill="#37B8FE" transform="translate(260,69)"/>
<path d="M0 0 C2.6875 1.5625 2.6875 1.5625 4 4 C4.54407614 7.80853299 4.52035388 10.03362851 2.6875 13.4375 C-1.6749357 15.97379983 -6.08895747 15.72286969 -11 15 C-13.6875 13.4375 -13.6875 13.4375 -15 11 C-15.54407614 7.19146701 -15.52035388 4.96637149 -13.6875 1.5625 C-9.3250643 -0.97379983 -4.91104253 -0.72286969 0 0 Z " fill="#7271FC" transform="translate(345,280)"/>
</svg>
