<?xml version="1.0" encoding="UTF-8"?>
<svg version="1.1" xmlns="http://www.w3.org/2000/svg" width="512" height="512">
<path d="M0 0 C0.8981543 0.82483887 1.79630859 1.64967773 2.72167969 2.49951172 C6.12734189 5.42641945 8.75345381 5.6137689 13.26953125 5.6015625 C13.94996994 5.60956879 14.63040863 5.61757507 15.33146667 5.62582397 C17.49242731 5.64875087 19.65149203 5.63950503 21.8125 5.625 C34.13760137 5.60277509 44.92462898 5.61275583 54.55859375 14.42578125 C62.51010922 22.7342226 63.40650058 32.17504668 63.20458984 43.1574707 C63.15022087 45.10541554 63.07711592 47.05282302 63 49 C63.763125 49.0825 64.52625 49.165 65.3125 49.25 C68.62952336 50.17568094 69.24579464 51.09593442 71 54 C71.63046424 57.45692341 71.50956655 60.92896895 71.5 64.4375 C71.52835938 65.37916016 71.55671875 66.32082031 71.5859375 67.29101562 C71.59912485 71.96263381 71.51531946 74.28614136 68.71875 78.16015625 C66 80 66 80 62 80 C61.9175 80.825 61.835 81.65 61.75 82.5 C60.25643899 89.46995136 56.81066276 94.82853753 52 100 C51.2575 100.474375 50.515 100.94875 49.75 101.4375 C47.0732412 103.82746321 47.39594824 106.55129084 47 110 C48.29248657 109.9685791 48.29248657 109.9685791 49.61108398 109.93652344 C52.8483475 109.86781666 56.08523591 109.81794374 59.32299805 109.78027344 C60.71667814 109.76032005 62.1102763 109.73314681 63.50366211 109.69824219 C80.95923217 109.27234381 80.95923217 109.27234381 87.86694336 115.75097656 C92.36446562 120.58058697 94.26645192 125.08674525 94.1953125 131.73828125 C94.18564453 133.33833008 94.18564453 133.33833008 94.17578125 134.97070312 C94.15064453 136.62489258 94.15064453 136.62489258 94.125 138.3125 C94.11597656 139.43462891 94.10695313 140.55675781 94.09765625 141.71289062 C94.07414486 144.47547909 94.04128155 147.23762932 94 150 C94.66531738 150.0410083 95.33063477 150.0820166 96.01611328 150.12426758 C103.7721328 150.72572307 109.16817492 152.59657671 114.4140625 158.625 C116.97074855 162.30368496 118.11909713 165.59586632 118.15390015 170.02738953 C118.16250061 170.84453934 118.17110107 171.66168915 118.17996216 172.50360107 C118.18635208 173.84312836 118.18635208 173.84312836 118.19287109 175.2097168 C118.20513733 176.62487328 118.20513733 176.62487328 118.21765137 178.06861877 C118.24249315 181.19547899 118.25901942 184.3222938 118.2734375 187.44921875 C118.27876118 188.51767344 118.28408485 189.58612812 118.28956985 190.68696022 C118.31629771 196.34362699 118.33567275 202.00027173 118.35009766 207.65698242 C118.36343228 212.33524142 118.39127715 217.01306377 118.43212891 221.69116211 C118.48147646 227.34215825 118.50622164 232.99275853 118.51332474 238.64396095 C118.5200326 240.79490287 118.53524245 242.94583612 118.55921555 245.09665489 C118.59091085 248.11267255 118.59089685 251.12716937 118.58349609 254.14331055 C118.59990143 255.02620758 118.61630676 255.90910461 118.63320923 256.8187561 C118.56384162 263.75052015 116.38055051 268.5885709 111.48641014 273.52741528 C106.90681761 277.51175806 103.5498203 279.25481569 97.49707031 279.22705078 C96.39623108 279.22689972 95.29539185 279.22674866 94.16119385 279.22659302 C92.97878113 279.21627045 91.79636841 279.20594788 90.578125 279.1953125 C89.36300232 279.1924826 88.14787964 279.18965271 86.89593506 279.18673706 C83.01385665 279.17553954 79.13200871 279.15043534 75.25 279.125 C72.61849291 279.11496966 69.98698221 279.10584391 67.35546875 279.09765625 C60.90348555 279.07730299 54.45200084 279.03815244 48 279 C48 287.25 48 295.5 48 304 C50.31 304.33 52.62 304.66 55 305 C55.33 307.31 55.66 309.62 56 312 C52.43230346 314.37846436 50.88279743 314.25296453 46.6484375 314.25878906 C45.33697754 314.26509338 44.02551758 314.27139771 42.67431641 314.27789307 C41.24120957 314.27431329 39.80810396 314.27021133 38.375 314.265625 C36.90673763 314.26697221 35.43847569 314.26891321 33.97021484 314.27142334 C30.89351147 314.27437199 27.81692425 314.27008535 24.74023438 314.26074219 C20.79571283 314.24934772 16.85146346 314.25590858 12.9069519 314.26788712 C9.87522327 314.27511275 6.84355919 314.27281456 3.81182861 314.26763153 C2.35736051 314.26629698 0.90288656 314.26793596 -0.55157471 314.27259064 C-2.58386117 314.27766712 -4.61616818 314.26855839 -6.6484375 314.25878906 C-7.80520996 314.25719788 -8.96198242 314.25560669 -10.15380859 314.25396729 C-13 314 -13 314 -16 312 C-16.1875 308.875 -16.1875 308.875 -16 306 C-13.35261084 304.5393715 -12.10551666 304 -9 304 C-9 295.75 -9 287.5 -9 279 C-12.8053125 279.04640625 -16.610625 279.0928125 -20.53125 279.140625 C-24.23143176 279.17185213 -27.93159863 279.19612209 -31.63183594 279.21972656 C-34.1963563 279.23979728 -36.76083115 279.26706001 -39.32519531 279.30175781 C-43.01899471 279.35047355 -46.71218709 279.37301513 -50.40625 279.390625 C-52.1160907 279.42159271 -52.1160907 279.42159271 -53.86047363 279.45318604 C-62.22162052 279.4555239 -67.76636321 278.1617782 -73.8125 272.25 C-78.35237809 265.50503827 -79.44632961 259.61249746 -79.38818359 251.68164062 C-79.39344055 250.78624069 -79.39869751 249.89084076 -79.40411377 248.9683075 C-79.41723598 246.03077356 -79.40860332 243.09378873 -79.3984375 240.15625 C-79.40046047 238.1017649 -79.40337376 236.0472805 -79.40713501 233.99279785 C-79.41154783 229.69581233 -79.40516083 225.39901443 -79.39111328 221.10205078 C-79.37402215 215.60776075 -79.38386891 210.11391045 -79.40183067 204.61963654 C-79.41269662 200.37986976 -79.40920926 196.14020638 -79.4014473 191.9004364 C-79.39945307 189.87513679 -79.40187713 187.84982765 -79.40888596 185.82453918 C-79.41654674 182.9888947 -79.40483156 180.15395191 -79.38818359 177.31835938 C-79.39425629 176.49007126 -79.40032898 175.66178314 -79.40658569 174.80839539 C-79.33636811 168.3178243 -78.21205459 162.70076433 -73.984375 157.5390625 C-73.24703125 156.90742188 -72.5096875 156.27578125 -71.75 155.625 C-71.02296875 154.97789062 -70.2959375 154.33078125 -69.546875 153.6640625 C-63.87829837 149.96036059 -58.09732078 149.71955138 -51.5625 149.875 C-50.83095703 149.88402344 -50.09941406 149.89304688 -49.34570312 149.90234375 C-47.56365702 149.92563847 -45.78178241 149.9614981 -44 150 C-44.02618408 149.35562988 -44.05236816 148.71125977 -44.0793457 148.04736328 C-44.1845092 145.07349921 -44.24869732 142.10002777 -44.3125 139.125 C-44.35439453 138.11179688 -44.39628906 137.09859375 -44.43945312 136.0546875 C-44.55846185 128.62854277 -43.23795895 123.17078925 -39 117 C-36.6484375 114.74609375 -36.6484375 114.74609375 -34.375 113.4375 C-33.61960937 112.98246094 -32.86421875 112.52742188 -32.0859375 112.05859375 C-27.90148311 109.93502233 -24.56765531 109.88339733 -19.92578125 109.90234375 C-18.90003242 109.90446617 -18.90003242 109.90446617 -17.8535614 109.90663147 C-15.67316278 109.91222124 -13.49286749 109.92477178 -11.3125 109.9375 C-9.83268378 109.94251633 -8.35286594 109.947079 -6.87304688 109.95117188 C-3.24866443 109.96218729 0.3756577 109.97944488 4 110 C4 107.69 4 105.38 4 103 C3.13375 102.62875 3.13375 102.62875 2.25 102.25 C-5.30925577 98.05041346 -9.68293034 90.06401216 -12 82 C-12 81.34 -12 80.68 -12 80 C-12.7425 79.938125 -13.485 79.87625 -14.25 79.8125 C-18.03418805 78.69444444 -18.93885189 77.36178874 -21 74 C-21.603274 70.84109821 -21.60448487 67.77063831 -21.5625 64.5625 C-21.59827148 63.31243164 -21.59827148 63.31243164 -21.63476562 62.03710938 C-21.624629 57.76283247 -21.33374173 54.83288183 -18.65234375 51.40234375 C-16 49 -16 49 -13 49 C-13 45.7 -13 42.4 -13 39 C-14.32 38.34 -15.64 37.68 -17 37 C-20.94365517 32.46613794 -20.48122084 27.38313326 -20.4375 21.6875 C-20.4674707 20.31948242 -20.4674707 20.31948242 -20.49804688 18.92382812 C-20.49363411 12.76802313 -19.47678924 8.14318408 -16 3 C-11.84318328 -1.03085258 -5.46343946 -1.15179306 0 0 Z M-9.640625 10.515625 C-11.52573943 13.96083413 -11.47563254 17.17287979 -11.4375 21 C-11.45748047 21.7115625 -11.47746094 22.423125 -11.49804688 23.15625 C-11.49497055 26.4540711 -11.34923658 28.53544376 -9.34161377 31.20599365 C-6.36523568 33.48631898 -4.76102081 33.48538673 -1.03808594 33.45410156 C0.76332855 33.45364838 0.76332855 33.45364838 2.60113525 33.45318604 C3.89291687 33.43254089 5.18469849 33.41189575 6.515625 33.390625 C7.85511429 33.38316071 9.19461452 33.37746866 10.53411865 33.37347412 C14.05251436 33.35823213 17.57024515 33.31896418 21.08837891 33.2746582 C24.68122361 33.23367364 28.2741762 33.2154564 31.8671875 33.1953125 C38.91172966 33.15246745 45.95582132 33.08423446 53 33 C52.05060188 26.80630749 50.41674907 22.53771967 45.25390625 18.703125 C39.34653141 15.19681219 34.24799112 14.82625485 27.515625 14.68359375 C26.70003113 14.66281265 25.88443726 14.64203156 25.04412842 14.62062073 C22.44616895 14.55538703 19.84811087 14.49636232 17.25 14.4375 C15.485667 14.39428986 13.72134387 14.35067478 11.95703125 14.30664062 C7.63812116 14.19973255 3.31911216 14.09839173 -1 14 C-1.66 12.35 -2.32 10.7 -3 9 C-6.67387323 8.56960194 -6.67387323 8.56960194 -9.640625 10.515625 Z M-3 42 C-3 43.65 -3 45.3 -3 47 C-2.35788574 46.93417725 -1.71577148 46.86835449 -1.05419922 46.80053711 C17.57075276 44.94994918 35.40691459 45.02706842 54 47 C54 45.35 54 43.7 54 42 C35.19 42 16.38 42 -3 42 Z M-12 58 C-12 62.29 -12 66.58 -12 71 C12.42 71 36.84 71 62 71 C62 66.71 62 62.42 62 58 C49.98584485 53.99528162 37.84984902 53.62979371 25.3125 53.6875 C24.20287399 53.6882402 24.20287399 53.6882402 23.0708313 53.68899536 C4.40216914 52.61994176 4.40216914 52.61994176 -12 58 Z M-2 80 C-0.66945503 86.65272485 1.96391728 90.74961281 7.4453125 94.8125 C15.77295233 99.98309428 23.67981216 101.192213 33.3984375 99.609375 C41.044524 97.51676185 46.91793377 92.34392455 51.0625 85.6875 C52.16468608 83.00228731 52.16468608 83.00228731 52 80 C34.18 80 16.36 80 -2 80 Z M13 108 C12.63624555 116.42886335 12.63624555 116.42886335 16 123 C19.41421579 125.92647067 22.5092359 126.53389612 27.00390625 126.35546875 C30.35458518 125.7587725 32.45623604 124.18036911 35 122 C37.74535599 117.25464401 37.74535599 117.25464401 37 108 C29.08 108 21.16 108 13 108 Z M-32.3125 124.5 C-37.77983889 132.59976131 -35 138.26856784 -35 150 C4.6 150 44.2 150 85 150 C86.80073514 131.02939992 86.80073514 131.02939992 82 124 C77.18988649 119.7764857 74.82770315 118.87466216 68.4609375 118.90234375 C67.15898437 118.90556641 65.85703125 118.90878906 64.515625 118.91210938 C63.13541601 118.92046534 61.75520768 118.92893029 60.375 118.9375 C58.98698074 118.94251499 57.59895978 118.9470779 56.2109375 118.95117188 C52.80724868 118.96299024 49.40364561 118.97946566 46 119 C45.50318726 119.93211304 45.50318726 119.93211304 44.99633789 120.88305664 C44.55539795 121.69637451 44.11445801 122.50969238 43.66015625 123.34765625 C43.22582275 124.15468994 42.79148926 124.96172363 42.34399414 125.79321289 C40.63682507 128.59631938 38.75257738 130.23552732 36 132 C35.401875 132.391875 34.80375 132.78375 34.1875 133.1875 C27.90007904 135.52282778 22.18602447 135.374304 16 133 C9.81395027 129.66905014 7.02186078 125.14975176 4 119 C-0.54154478 118.91264537 -5.08287232 118.85948753 -9.625 118.8125 C-10.91019531 118.78736328 -12.19539063 118.76222656 -13.51953125 118.73632812 C-14.76347656 118.72666016 -16.00742187 118.71699219 -17.2890625 118.70703125 C-18.43068848 118.6913208 -19.57231445 118.67561035 -20.74853516 118.65942383 C-25.70953267 119.17906578 -28.94123427 120.85538839 -32.3125 124.5 Z M-65.75 163.3125 C-70.01797216 168.41035564 -70.29792959 173.04800384 -70.29052734 179.51879883 C-70.29724457 180.36499283 -70.30396179 181.21118683 -70.31088257 182.08302307 C-70.32984629 184.87441924 -70.33378606 187.66557471 -70.3359375 190.45703125 C-70.34236697 192.40370278 -70.34909545 194.35037334 -70.35610962 196.29704285 C-70.36807862 200.37651814 -70.37179087 204.45590878 -70.37060547 208.53540039 C-70.3704024 213.75071991 -70.3976939 218.96549378 -70.43214989 224.18068409 C-70.45444036 228.20170054 -70.45844233 232.22258617 -70.45738602 236.24365807 C-70.45973914 238.16570604 -70.46854637 240.08775777 -70.48405075 242.00974464 C-70.50375254 244.70455206 -70.49785631 247.39818938 -70.48583984 250.09301758 C-70.49707886 250.87926514 -70.50831787 251.6655127 -70.51989746 252.47558594 C-70.45737067 258.02256821 -69.1620504 262.39007823 -66 267 C-61.17802559 270.58358966 -56.42923163 270.39873747 -50.6640625 270.29296875 C-49.78471039 270.28872391 -48.90535828 270.28447906 -47.99935913 270.28010559 C-45.20758658 270.26339461 -42.41655212 270.22575692 -39.625 270.1875 C-37.72527089 270.17244334 -35.82553039 270.15875666 -33.92578125 270.14648438 C-29.28357242 270.11351598 -24.64191109 270.06178653 -20 270 C-19.99857498 269.3287207 -19.99714996 268.65744141 -19.99568176 267.96582031 C-19.97594235 260.95710785 -19.92157679 253.94926134 -19.84741211 246.94091797 C-19.82426482 244.32802551 -19.80984413 241.71504018 -19.80444336 239.10205078 C-19.79513064 235.33828064 -19.75408396 231.57596477 -19.70703125 227.8125 C-19.7109639 226.65073242 -19.71489655 225.48896484 -19.71894836 224.29199219 C-19.59499281 217.34717663 -18.88507905 212.19098272 -14 207 C-8.62919728 202.81891897 -2.10182855 203.5672933 4.40625 203.6015625 C6.20334412 203.59725723 6.20334412 203.59725723 8.03674316 203.59286499 C10.56502761 203.59082718 13.09332791 203.59633716 15.62158203 203.60888672 C19.48636202 203.62494334 23.3500962 203.6090273 27.21484375 203.58984375 C29.67448147 203.59182623 32.13411854 203.59567 34.59375 203.6015625 C35.74701782 203.59548981 36.90028564 203.58941711 38.08850098 203.5831604 C45.11906263 203.64464475 50.06268836 204.06268836 55.25 209.25 C59.54538655 215.99989315 59.33093926 223.07216936 59.4140625 230.83984375 C59.44311172 232.52298424 59.44311172 232.52298424 59.4727478 234.24012756 C59.53228016 237.8058423 59.57882378 241.37158978 59.625 244.9375 C59.66320399 247.36264388 59.70225712 249.78777455 59.7421875 252.21289062 C59.83796001 258.1418093 59.92308397 264.07080832 60 270 C65.58669908 270.09914961 71.17288186 270.17160105 76.76025391 270.21972656 C78.65943325 270.23979629 80.55855115 270.26705851 82.45751953 270.30175781 C85.19318839 270.35048109 87.92803771 270.37301507 90.6640625 270.390625 C91.50804596 270.41127014 92.35202942 270.43191528 93.22158813 270.45318604 C98.62513102 270.45522575 101.78627493 269.70251559 106 266 C109.53550208 261.50176667 109.42803989 257.54297929 109.38818359 252.06640625 C109.39344055 251.17637909 109.39869751 250.28635193 109.40411377 249.36935425 C109.41729466 246.43355653 109.40858239 243.49830303 109.3984375 240.5625 C109.40045878 238.51896053 109.40337067 236.47542177 109.40713501 234.43188477 C109.41155578 230.15146001 109.40513517 225.87122321 109.39111328 221.59082031 C109.37402165 216.10623717 109.38386414 210.62209446 109.40183067 205.13752747 C109.41267512 200.91846401 109.40921911 196.69950484 109.4014473 192.48043823 C109.39944712 190.45824125 109.40189814 188.43603478 109.40888596 186.41384888 C109.41651119 183.5868423 109.40488104 180.76054738 109.38818359 177.93359375 C109.39729263 176.68193924 109.39729263 176.68193924 109.40658569 175.40499878 C109.35582489 170.76213787 108.95946028 167.794177 106 164 C100.87454804 159.14430867 96.48613052 158.87658298 89.63063049 158.86628723 C87.70227859 158.85988976 87.70227859 158.85988976 85.73497009 158.85336304 C84.31753537 158.85371252 82.90010067 158.85417403 81.48266602 158.85473633 C79.98429277 158.85174293 78.48592029 158.84833998 76.98754883 158.84455872 C72.92351794 158.83573386 68.85950811 158.83338127 64.79546857 158.83274293 C62.25544278 158.83203168 59.71542233 158.82989596 57.17539787 158.82724571 C48.31150854 158.81799801 39.44763423 158.81391019 30.58374023 158.81469727 C22.32503471 158.81529823 14.06639447 158.80474128 5.80770546 158.7889536 C-1.28712567 158.77587473 -8.38193547 158.7705135 -15.47677857 158.77115268 C-19.71236566 158.77140752 -23.9478947 158.76856376 -28.18346977 158.75797462 C-32.16681633 158.74828756 -36.15004939 158.74821862 -40.13339996 158.75549126 C-41.59347512 158.75653627 -43.05355737 158.75417913 -44.51362038 158.7481308 C-46.51028149 158.74039664 -48.50698134 158.74626148 -50.50364685 158.75276184 C-51.61989661 158.75221707 -52.73614637 158.75167231 -53.88622189 158.75111103 C-58.71803579 159.13732519 -62.03230122 160.1862533 -65.75 163.3125 Z M-10 216 C-11.25274723 218.50549445 -11.12029624 220.19735632 -11.11352539 223.00048828 C-11.11340454 224.05598877 -11.11328369 225.11148926 -11.11315918 226.19897461 C-11.10804321 227.31151611 -11.10292725 228.42405762 -11.09765625 229.5703125 C-11.09664917 230.5905249 -11.09564209 231.6107373 -11.09460449 232.66186523 C-11.08936163 236.48292155 -11.07540043 240.30396187 -11.0625 244.125 C-11.041875 252.66375 -11.02125 261.2025 -11 270 C9.13 270 29.26 270 50 270 C50.061875 261.3375 50.12375 252.675 50.1875 243.75 C50.21481201 241.01944336 50.24212402 238.28888672 50.27026367 235.47558594 C50.27902532 233.31185346 50.28667002 231.14811605 50.29296875 228.984375 C50.30831665 227.86047363 50.32366455 226.73657227 50.33947754 225.57861328 C50.33984009 224.50305176 50.34020264 223.42749023 50.34057617 222.31933594 C50.34723801 221.38667908 50.35389984 220.45402222 50.36076355 219.49310303 C49.9282637 216.50425708 49.0822927 215.1620589 47 213 C44.11873743 212.03957914 42.23837081 211.85776674 39.24072266 211.82299805 C38.27607086 211.81016281 37.31141907 211.79732758 36.3175354 211.78410339 C35.27688934 211.77671646 34.23624329 211.76932953 33.1640625 211.76171875 C31.55680801 211.74961113 31.55680801 211.74961113 29.91708374 211.73725891 C27.64916601 211.72342524 25.38122753 211.71269988 23.11328125 211.70483398 C19.64543314 211.68760154 16.17853353 211.64370569 12.7109375 211.59960938 C10.50781951 211.58948403 8.30469342 211.58096744 6.1015625 211.57421875 C4.54666611 211.54795662 4.54666611 211.54795662 2.96035767 211.52116394 C-2.59243739 211.53789495 -6.08064826 211.59879433 -10 216 Z M1 279 C1 287.25 1 295.5 1 304 C13.54 304 26.08 304 39 304 C39 295.75 39 287.5 39 279 C26.46 279 13.92 279 1 279 Z " fill="#41ACFD" transform="translate(388,6)"/>
<path d="M0 0 C0.87849609 0.83007568 1.75699219 1.66015137 2.66210938 2.51538086 C6.18916511 5.50484865 8.96804119 5.57519988 13.6015625 5.49609375 C15.07682307 5.49792574 16.55208349 5.49988296 18.02734375 5.50195312 C20.31778289 5.47487765 22.60775665 5.43782412 24.89794922 5.39477539 C35.99393746 5.23015005 45.02043974 6.0795671 53.91455078 13.62402344 C59.8439566 19.9387402 62.4780834 27.32859997 62.3515625 35.90039062 C62.30128906 37.21813477 62.30128906 37.21813477 62.25 38.5625 C62.23195312 39.47580078 62.21390625 40.38910156 62.1953125 41.33007812 C62.14872701 43.55453514 62.08335485 45.77666967 62 48 C63.3921875 48.3403125 63.3921875 48.3403125 64.8125 48.6875 C68 50 68 50 69.8515625 52.0625 C71.43226101 56.10564722 71.43786428 59.69728921 71.375 64 C71.38660156 64.7940625 71.39820313 65.588125 71.41015625 66.40625 C71.38692353 71.05279401 71.07928791 74.27435213 68 78 C67.05125 78.350625 66.1025 78.70125 65.125 79.0625 C60.72330979 81.79154793 60.12771039 85.17844313 58.35546875 89.91015625 C55.89504494 95.51878804 52.05938367 99.62707755 47 103 C46.26393501 106.56769552 46.26393501 106.56769552 46 110 C46.92748047 109.97905273 47.85496094 109.95810547 48.81054688 109.93652344 C52.28460829 109.86794501 55.75794011 109.81800673 59.23242188 109.78027344 C60.7299339 109.76028081 62.22736908 109.73307701 63.72460938 109.69824219 C81.07682452 109.30492531 81.07682452 109.30492531 88.0234375 115.9296875 C88.46945313 116.57164062 88.91546875 117.21359375 89.375 117.875 C90.06722656 118.83019531 90.06722656 118.83019531 90.7734375 119.8046875 C94.3709162 126.24348695 94.24558223 132.18644384 94.125 139.375 C94.11597656 140.39722656 94.10695312 141.41945313 94.09765625 142.47265625 C94.0742043 144.98201522 94.04138355 147.49088336 94 150 C95.05058594 149.96003906 96.10117188 149.92007813 97.18359375 149.87890625 C102.70056951 150.05395871 106.53396113 151.81207094 111 155 C117.13318198 161.94929087 118.14912307 167.81101967 118.16113281 176.86425781 C118.16609772 177.75907364 118.17106262 178.65388947 118.17617798 179.57582092 C118.19077757 182.53493013 118.19759835 185.4939857 118.203125 188.453125 C118.20887876 190.51332602 118.21463647 192.57352703 118.22039795 194.63372803 C118.23090202 198.95455169 118.23674841 203.27535678 118.24023438 207.59619141 C118.24571436 213.12194065 118.26973441 218.6474429 118.29820633 224.17311478 C118.31686825 228.43002022 118.32204023 232.68686662 118.32357025 236.94380951 C118.32658985 238.98028665 118.33459489 241.01676292 118.34775543 243.05319977 C118.3648883 245.90837664 118.36291786 248.76295606 118.35644531 251.61816406 C118.3656601 252.45273636 118.37487488 253.28730865 118.3843689 254.14717102 C118.33742979 260.78650826 116.80769303 265.89076799 113.4375 271.6875 C106.0925001 278.65583324 98.19806607 279.71585869 88.4296875 279.48828125 C87.26744659 279.48120651 86.10520569 279.47413177 84.90774536 279.46684265 C81.22948291 279.43906215 77.55279512 279.37635061 73.875 279.3125 C71.36720963 279.28739618 68.85939517 279.26458669 66.3515625 279.24414062 C60.23329407 279.1935597 54.11838996 279.09566628 48 279 C48 287.25 48 295.5 48 304 C50.31 304.33 52.62 304.66 55 305 C55.625 307.3125 55.625 307.3125 56 310 C55.34 310.99 54.68 311.98 54 313 C51.15344238 313.3742218 51.15344238 313.3742218 47.47070312 313.37231445 C46.80062729 313.37596512 46.13055145 313.37961578 45.44017029 313.38337708 C43.22027415 313.39149793 41.0011045 313.37786064 38.78125 313.36328125 C37.24190267 313.36276282 35.70255468 313.36327985 34.16320801 313.36479187 C30.9350396 313.36470208 27.70712058 313.35425879 24.47900391 313.33618164 C20.33592507 313.31349405 16.19321082 313.31294955 12.05008698 313.31969929 C8.87083685 313.32303683 5.69167022 313.31641326 2.51243591 313.30657005 C0.98457781 313.30271405 -0.54328958 313.30157149 -2.07115173 313.3031559 C-4.20451634 313.30352575 -6.33740921 313.29092967 -8.47070312 313.2746582 C-9.68600708 313.27005081 -10.90131104 313.26544342 -12.15344238 313.26069641 C-15 313 -15 313 -17 311 C-16.625 307.875 -16.625 307.875 -16 305 C-13.69 304.67 -11.38 304.34 -9 304 C-9 295.75 -9 287.5 -9 279 C-12.733125 279.03480469 -16.46625 279.06960938 -20.3125 279.10546875 C-23.94318884 279.12889029 -27.57386914 279.14709215 -31.20458984 279.16479492 C-33.72057892 279.17984619 -36.23654192 279.20029181 -38.75244141 279.22631836 C-42.37669325 279.26286182 -46.000597 279.27976353 -49.625 279.29296875 C-51.30203003 279.31619453 -51.30203003 279.31619453 -53.01293945 279.33988953 C-60.22907228 279.34143138 -66.47143175 278.93842443 -72.2421875 274.1328125 C-72.78101562 273.47023438 -73.31984375 272.80765625 -73.875 272.125 C-74.70644531 271.13886719 -74.70644531 271.13886719 -75.5546875 270.1328125 C-79.20268633 264.74954936 -79.29704617 259.95884453 -79.29052734 253.6550293 C-79.30060318 252.25406509 -79.30060318 252.25406509 -79.31088257 250.82479858 C-79.32985972 247.74121765 -79.33378673 244.65785443 -79.3359375 241.57421875 C-79.34236595 239.42576509 -79.34909435 237.2773123 -79.35610962 235.12886047 C-79.36808192 230.62568127 -79.37179052 226.12257877 -79.37060547 221.61938477 C-79.37040236 215.85927917 -79.39769654 210.0996674 -79.43214989 204.33967876 C-79.45442791 199.90175636 -79.45844271 195.46395259 -79.45738602 191.02598 C-79.45974091 188.90297558 -79.46855812 186.77996785 -79.48405075 184.65701866 C-79.50372718 181.6820493 -79.49786573 178.7081421 -79.48583984 175.7331543 C-79.50269836 174.42754799 -79.50269836 174.42754799 -79.51989746 173.0955658 C-79.45090121 166.35182411 -77.67302058 161.16124352 -73.2890625 155.9765625 C-72.73992187 155.53054688 -72.19078125 155.08453125 -71.625 154.625 C-70.80902344 153.93277344 -70.80902344 153.93277344 -69.9765625 153.2265625 C-64.38068161 149.75401981 -58.98581665 149.74311704 -52.625 149.875 C-51.79355469 149.88402344 -50.96210937 149.89304687 -50.10546875 149.90234375 C-48.07018663 149.9257378 -46.03505436 149.96160275 -44 150 C-44.02094727 149.2793335 -44.04189453 148.55866699 -44.06347656 147.81616211 C-44.14707155 144.52341894 -44.19879778 141.2308997 -44.25 137.9375 C-44.30027344 136.2369043 -44.30027344 136.2369043 -44.3515625 134.50195312 C-44.44432821 126.54729325 -43.72752163 122.02997405 -38.21875 116.07421875 C-37.6515625 115.61660156 -37.084375 115.15898437 -36.5 114.6875 C-35.64921875 113.98173828 -35.64921875 113.98173828 -34.78125 113.26171875 C-30.31409976 110.09748733 -27.13626399 109.7608233 -21.609375 109.8046875 C-20.55245453 109.80893234 -20.55245453 109.80893234 -19.47418213 109.81326294 C-17.2326124 109.82442199 -14.99144814 109.84951807 -12.75 109.875 C-11.22656829 109.88503536 -9.70313029 109.89416024 -8.1796875 109.90234375 C-4.45299414 109.92434709 -0.72653667 109.95884728 3 110 C2.38208177 104.54443765 1.88752732 102.19885753 -2.3125 98.5625 C-8.13707146 93.11759059 -11.19649602 88.03503978 -12 80 C-12.7425 79.9175 -13.485 79.835 -14.25 79.75 C-17.56604529 78.84562401 -18.83531391 77.6285474 -21 75 C-22.21950118 71.34149645 -22.22253359 67.93596431 -22.25 64.125 C-22.270625 63.41730469 -22.29125 62.70960938 -22.3125 61.98046875 C-22.34634943 57.43618335 -21.77296577 54.61895532 -19 51 C-15.5862069 48 -15.5862069 48 -13 48 C-13 45.03 -13 42.06 -13 39 C-14.32 38.34 -15.64 37.68 -17 37 C-21.98530623 30.76836721 -21.56632658 24.72181803 -21 17 C-20.92910156 15.98550781 -20.85820313 14.97101563 -20.78515625 13.92578125 C-20.18310787 8.96733787 -19.40655152 5.78406465 -15.625 2.375 C-10.92937385 -1.20360495 -5.63521887 -1.90514517 0 0 Z M-9 9 C-11.35247313 12.52870969 -11.50651783 15.34150149 -11.75 19.4375 C-11.80542969 20.10587891 -11.86085938 20.77425781 -11.91796875 21.46289062 C-12.16035788 25.16850622 -12.31076538 27.98316742 -10 31 C-6.68141891 33.11082956 -4.01831569 33.24366802 -0.12988281 33.22705078 C1.05103943 33.22689972 2.23196167 33.22674866 3.44866943 33.22659302 C4.71857727 33.21627045 5.98848511 33.20594788 7.296875 33.1953125 C8.60078186 33.1924826 9.90468872 33.18965271 11.24810791 33.18673706 C14.7070895 33.17911721 18.16590193 33.15948308 21.62481689 33.1373291 C25.15740674 33.11683503 28.69002403 33.10772774 32.22265625 33.09765625 C39.14850679 33.07623548 46.07424526 33.04211956 53 33 C52.54504664 31.54680803 52.08248278 30.09599716 51.61669922 28.64624023 C51.35992401 27.83807358 51.1031488 27.02990692 50.83859253 26.19725037 C49.77651146 23.41442327 48.44614088 21.90947786 46.125 20.0625 C45.46757812 19.51722656 44.81015625 18.97195312 44.1328125 18.41015625 C38.91352963 14.95931172 34.27917121 14.6731377 28.19921875 14.5859375 C27.36284378 14.56657135 26.52646881 14.5472052 25.66474915 14.5272522 C23.0057683 14.46769808 20.3467436 14.42116826 17.6875 14.375 C15.87953891 14.33679794 14.07159558 14.29774491 12.26367188 14.2578125 C7.84259302 14.16201655 3.42142899 14.07789669 -1 14 C-1.66 12.35 -2.32 10.7 -3 9 C-5.91634129 8.7497843 -5.91634129 8.7497843 -9 9 Z M-4 42 C-4 43.32 -4 44.64 -4 46 C-2.55947266 45.89171875 -2.55947266 45.89171875 -1.08984375 45.78125 C16.95016307 44.52149803 34.97031452 44.64474847 53 46 C53 44.68 53 43.36 53 42 C34.19 42 15.38 42 -4 42 Z M-12 57 C-12 61.62 -12 66.24 -12 71 C-2.49925364 71.02255226 7.00147507 71.0409158 16.50224209 71.05181217 C20.91337004 71.05704069 25.3244788 71.06413777 29.7355957 71.07543945 C33.98901115 71.08626944 38.24240809 71.09227707 42.49583626 71.09487724 C44.12221633 71.09673129 45.74859534 71.10035152 47.37496758 71.10573006 C49.64510193 71.11294198 51.91515885 71.11399088 54.18530273 71.11352539 C55.47991928 71.115746 56.77453583 71.11796661 58.10838318 71.12025452 C60.89442383 71.33128112 60.89442383 71.33128112 62 70 C62.07244053 67.98035801 62.08377188 65.95832876 62.0625 63.9375 C62.05347656 62.83277344 62.04445313 61.72804688 62.03515625 60.58984375 C62.02355469 59.73519531 62.01195312 58.88054687 62 58 C40.80992841 48.7916744 9.86995955 51.53251011 -12 57 Z M-3 80 C0.22205626 87.51813127 3.53526194 93.47452351 10.875 97.5 C18.87894989 100.58055803 30.14867022 100.60336285 38.125 97.4375 C44.51822817 93.93113649 49.312471 88.79786747 52 82 C52 81.34 52 80.68 52 80 C33.85 80 15.7 80 -3 80 Z M12 107 C11.74142102 113.46447462 12.10777986 117.87125235 16.5 122.8125 C19.46897007 125.41034881 20.32028864 125.93464314 24.25 126.3125 C28.73703832 125.93858014 30.61031378 124.92745628 34 122 C37.40987104 117.11251817 37.34378616 112.72976937 37 107 C36.071875 107.165 35.14375 107.33 34.1875 107.5 C26.79342943 108.54986803 19.3380725 108.30454622 12 107 Z M-32 123 C-36.88648444 130.17231541 -36.88648444 130.17231541 -35 150 C4.6 150 44.2 150 85 150 C86.23571859 134.22878322 86.23571859 134.22878322 80 121.625 C76.25327419 118.58078528 72.79647101 118.88271531 68.14453125 118.90234375 C67.48289474 118.9037587 66.82125824 118.90517365 66.13957214 118.90663147 C64.03050172 118.91222004 61.92153823 118.92477035 59.8125 118.9375 C58.38086091 118.94251648 56.94922015 118.94707913 55.51757812 118.95117188 C52.01168412 118.9621857 48.5058525 118.97944245 45 119 C44.74605469 119.54414551 44.49210937 120.08829102 44.23046875 120.64892578 C43.71419922 121.72376221 43.71419922 121.72376221 43.1875 122.8203125 C42.85105469 123.52945801 42.51460938 124.23860352 42.16796875 124.96923828 C39.68421853 129.28776552 35.56837624 132.12663708 31 134 C23.65908433 134.90188393 17.02965276 134.54672192 11 130 C7.57137828 126.79936847 5.64029973 123.36674389 4 119 C-0.16253275 118.90061905 -4.32442479 118.82829383 -8.48779297 118.78027344 C-9.90197795 118.76024157 -11.31608097 118.73300752 -12.72998047 118.69824219 C-14.77071419 118.64934511 -16.8103469 118.62694877 -18.8515625 118.609375 C-20.07697754 118.58842773 -21.30239258 118.56748047 -22.56494141 118.54589844 C-26.73868678 119.09765156 -28.78275506 120.31409055 -32 123 Z M-67 163 C-70.40866732 167.79910526 -70.43523219 172.25551495 -70.40405273 177.92358398 C-70.41091599 178.80079102 -70.41777924 179.67799805 -70.42485046 180.58178711 C-70.44309239 183.47005583 -70.43928467 186.35778 -70.43359375 189.24609375 C-70.4381568 191.2609932 -70.44346274 193.2758911 -70.44947815 195.29078674 C-70.45840414 199.50975881 -70.4559919 203.72854154 -70.44604492 207.94750977 C-70.43455607 213.34564435 -70.45476827 218.74312471 -70.48396206 224.14117336 C-70.50233585 228.30113352 -70.50202922 232.46093725 -70.49632454 236.62092781 C-70.49617147 238.61077861 -70.50220396 240.6006401 -70.51461601 242.59045219 C-70.52954635 245.37638902 -70.51883398 248.16112153 -70.50170898 250.94702148 C-70.51137695 251.76334549 -70.52104492 252.57966949 -70.53100586 253.42073059 C-70.45866684 259.06006254 -69.24565712 262.35956465 -66 267 C-61.14610654 270.47572021 -56.62015733 270.40102759 -50.8828125 270.29296875 C-49.5970784 270.28660149 -49.5970784 270.28660149 -48.28536987 270.28010559 C-45.56491836 270.26339886 -42.84522518 270.22576219 -40.125 270.1875 C-38.27344825 270.17244278 -36.42188481 270.1587562 -34.5703125 270.14648438 C-30.04658567 270.11352165 -25.52342113 270.06179537 -21 270 C-20.99413376 269.36630493 -20.98826752 268.73260986 -20.98222351 268.07971191 C-20.91809184 261.46040486 -20.83362142 254.84157512 -20.73754883 248.22265625 C-20.70437637 245.75527251 -20.67632074 243.28781429 -20.65356445 240.8203125 C-20.61987787 237.26530334 -20.56755298 233.71097202 -20.51171875 230.15625 C-20.50213387 228.51203064 -20.50213387 228.51203064 -20.49235535 226.83459473 C-20.37198257 220.50723089 -19.58278934 215.78439342 -17 210 C-16.67 209.01 -16.34 208.02 -16 207 C-13.5625 205.875 -13.5625 205.875 -11 205 C-10.34 204.67 -9.68 204.34 -9 204 C-7.21439758 203.88884068 -5.42471284 203.84078585 -3.63574219 203.82299805 C-1.95324371 203.80374519 -1.95324371 203.80374519 -0.23675537 203.78410339 C1.58973541 203.77302299 1.58973541 203.77302299 3.453125 203.76171875 C5.32529694 203.74961113 5.32529694 203.74961113 7.23529053 203.73725891 C9.88167034 203.72340703 12.52792512 203.7123943 15.17431641 203.70483398 C18.55491089 203.69378927 21.93484352 203.65941338 25.31520462 203.61966228 C28.54861221 203.58713515 31.78207875 203.58271138 35.015625 203.57421875 C36.2251886 203.55671066 37.4347522 203.53920258 38.68096924 203.52116394 C49.49813179 203.54906402 49.49813179 203.54906402 54 208 C58.86001358 214.1460995 58.60134885 220.09181154 58.609375 227.71484375 C58.62591125 228.92572159 58.64244751 230.13659943 58.65948486 231.38417053 C58.70790272 235.23533229 58.72932327 239.08609928 58.75 242.9375 C58.77816468 245.55535833 58.80809279 248.17319833 58.83984375 250.79101562 C58.91366042 257.19393891 58.96533945 263.59675145 59 270 C64.44430582 270.07437576 69.88831329 270.12870866 75.33300781 270.16479492 C77.18364619 270.17984471 79.03424911 270.20028933 80.88476562 270.22631836 C83.55087045 270.2628698 86.21650208 270.27976454 88.8828125 270.29296875 C90.11597702 270.31619453 90.11597702 270.31619453 91.37405396 270.33988953 C96.34010412 270.34133152 99.68921474 269.73583214 104 267 C109.16175139 261.55923503 109.15087751 256.90106063 109.16113281 249.6706543 C109.16609772 248.8327536 109.17106262 247.99485291 109.17617798 247.13156128 C109.19077038 244.36243871 109.19759677 241.59337343 109.203125 238.82421875 C109.20887889 236.89614358 109.2146366 234.96806843 109.22039795 233.03999329 C109.23089965 228.99744399 109.23674774 224.95491453 109.24023438 220.91235352 C109.24571709 215.74073539 109.26974392 210.5693808 109.29820633 205.39784527 C109.31686037 201.41462953 109.32203979 197.43147693 109.32357025 193.44822121 C109.3265911 191.5420977 109.3346004 189.63597515 109.34775543 187.72989464 C109.36487365 185.05890409 109.36292164 182.38855295 109.35644531 179.7175293 C109.37026749 178.54443459 109.37026749 178.54443459 109.3843689 177.34764099 C109.3452351 172.17674362 108.4188619 168.59442356 106 164 C101.37112675 159.60257041 97.93879501 158.87599095 91.68804932 158.85282898 C91.04522373 158.84915229 90.40239814 158.8454756 89.74009299 158.8416875 C87.58225445 158.83065887 85.42446407 158.82680823 83.26660156 158.82299805 C81.72088468 158.81673277 80.1751693 158.81008591 78.62945557 158.80308533 C73.54985604 158.78205007 68.47025622 158.77168342 63.390625 158.76171875 C61.64147679 158.75767099 59.89232874 158.75355406 58.14318085 158.74936867 C49.92537102 158.73031814 41.70757018 158.71608684 33.48974252 158.7077567 C24.00607228 158.69798451 14.52263547 158.67166496 5.03904748 158.63125581 C-2.29269856 158.60108843 -9.62437772 158.58628723 -16.95618463 158.58297569 C-21.33443828 158.58062589 -25.71244254 158.5716747 -30.09062958 158.54651451 C-34.21110733 158.52321783 -38.33117174 158.51900683 -42.4516983 158.52927589 C-43.96135331 158.52977098 -45.47102877 158.52345843 -46.98062134 158.50971985 C-57.75542814 158.18615481 -57.75542814 158.18615481 -67 163 Z M-9.19067383 213.77978516 C-11.9966585 218.77383965 -11.61703301 223.45081453 -11.48828125 229.08203125 C-11.48324585 230.11888062 -11.47821045 231.15572998 -11.47302246 232.22399902 C-11.44691556 236.08711504 -11.37710834 239.94983606 -11.3125 243.8125 C-11.209375 252.454375 -11.10625 261.09625 -11 270 C9.13 270 29.26 270 50 270 C50.04125 261.5025 50.0825 253.005 50.125 244.25 C50.14320801 241.57165039 50.16141602 238.89330078 50.18017578 236.13378906 C50.18601697 234.01106975 50.19111341 231.8883482 50.1953125 229.765625 C50.20554443 228.66331543 50.21577637 227.56100586 50.22631836 226.42529297 C50.22656006 225.37003418 50.22680176 224.31477539 50.22705078 223.22753906 C50.23371262 221.85520111 50.23371262 221.85520111 50.24050903 220.45513916 C49.97976967 217.79348689 49.45691207 216.23294407 48 214 C44.75800161 211.83866774 43.80836659 211.7387397 40.05712891 211.69360352 C39.05243561 211.67761612 38.04774231 211.66162872 37.01260376 211.64515686 C35.92821014 211.63979416 34.84381653 211.63443146 33.7265625 211.62890625 C32.61066742 211.61987778 31.49477234 211.6108493 30.34506226 211.60154724 C27.98299854 211.5870313 25.6208945 211.57815468 23.25878906 211.57446289 C19.64579468 211.56256846 16.03450871 211.51339457 12.421875 211.46289062 C10.12761251 211.45342642 7.83333952 211.44619138 5.5390625 211.44140625 C4.45871735 211.42187393 3.37837219 211.40234161 2.26528931 211.38221741 C-2.25465185 211.40938955 -5.20106356 211.55434642 -9.19067383 213.77978516 Z M0 279 C0 287.25 0 295.5 0 304 C12.87 304 25.74 304 39 304 C39 295.75 39 287.5 39 279 C26.13 279 13.26 279 0 279 Z " fill="#924FFA" transform="translate(85,193)"/>
<path d="M0 0 C2.375 0.375 2.375 0.375 4.375 2.375 C4.8359375 4.5859375 4.8359375 4.5859375 4.375 7.375 C2.65561979 9.76795185 0.97538978 11.84082527 -1 14 C-1.54438721 14.61464111 -2.08877441 15.22928223 -2.6496582 15.86254883 C-4.29458783 17.7127649 -5.95613086 19.5463724 -7.625 21.375 C-8.0885791 21.88434082 -8.5521582 22.39368164 -9.02978516 22.91845703 C-11.10504654 25.19603111 -13.18551011 27.46871928 -15.26953125 29.73828125 C-17.60051739 32.3475941 -19.80827187 35.0231282 -22 37.75 C-25.86718863 42.5464071 -29.97480716 47.0454146 -34.18310547 51.53857422 C-37.30039336 54.88581785 -40.26066482 58.30495906 -43.125 61.875 C-46.46802356 66.04166705 -49.97618726 69.97915903 -53.625 73.875 C-58.11191616 78.66683165 -62.33326721 83.59752143 -66.4453125 88.71875 C-70.01917917 93.0739997 -73.81681502 97.22470857 -77.625 101.375 C-76.12493609 104.82279086 -74.12090738 107.19860533 -71.5625 109.9375 C-68.35208915 113.43418953 -65.28043761 116.98299393 -62.3125 120.6875 C-58.42179292 125.50165588 -54.29499534 130.02424334 -50.06713867 134.53833008 C-46.16531611 138.72793609 -42.55189822 143.09654714 -38.96875 147.5625 C-36.29291829 150.77349805 -33.48141724 153.82529137 -30.625 156.875 C-26.18791939 161.61233418 -22.03547692 166.49297161 -17.97265625 171.55859375 C-15.27632084 174.79329896 -12.43995428 177.86462982 -9.5625 180.9375 C-5.91972751 184.85053526 -2.31355427 188.77916456 1.125 192.875 C2.07632813 194.00421875 2.07632813 194.00421875 3.046875 195.15625 C4.70215607 197.92154308 4.98201851 199.20393532 4.375 202.375 C2.43359375 204.98828125 2.43359375 204.98828125 -0.1875 207.6875 C-1.09371094 208.63882813 -1.99992187 209.59015625 -2.93359375 210.5703125 C-3.82175781 211.49585938 -4.70992188 212.42140625 -5.625 213.375 C-7.01034296 214.9283371 -8.38696477 216.48955175 -9.75 218.0625 C-10.30945313 218.70574219 -10.86890625 219.34898437 -11.4453125 220.01171875 C-12.02925781 220.68654297 -12.02925781 220.68654297 -12.625 221.375 C-11.33126662 224.86808011 -9.7836598 227.82378772 -7.75 230.9375 C0.25535801 244.03183865 2.47443781 259.55945769 -0.75195312 274.51171875 C-3.81555021 287.12653026 -9.49726904 296.2149012 -18.625 305.375 C-19.16640625 305.93960937 -19.7078125 306.50421875 -20.265625 307.0859375 C-30.21526103 316.58331735 -43.56383598 319.82917989 -56.625 322.375 C-55.37396484 323.69951172 -55.37396484 323.69951172 -54.09765625 325.05078125 C-48.13542097 331.39716055 -42.37741011 337.79538296 -36.93359375 344.59765625 C-34.27220542 347.79942799 -31.47037754 350.83734918 -28.625 353.875 C-24.97611551 357.77076281 -21.46801562 361.70834284 -18.125 365.875 C-14.71816386 370.11958274 -11.14313128 374.14355055 -7.4375 378.125 C-6.92413086 378.67937744 -6.41076172 379.23375488 -5.88183594 379.80493164 C-3.78173404 382.06980762 -1.67519038 384.32312726 0.47265625 386.54296875 C2.81915129 389.05588188 4.27859121 390.76636714 4.82421875 394.2109375 C4.23982795 398.32708136 2.29324218 400.26686882 -0.5625 403.0625 C-1.58584147 404.11736426 -2.60663736 405.1747034 -3.625 406.234375 C-4.13546875 406.76095703 -4.6459375 407.28753906 -5.171875 407.83007812 C-7.26573086 410.05620714 -9.16087476 412.42148591 -11.0625 414.8125 C-14.90610057 419.59121628 -18.99460164 424.06657687 -23.18334961 428.53881836 C-26.30053945 431.88599327 -29.26073798 435.30505023 -32.125 438.875 C-35.94494011 443.63608478 -40.01438819 448.08773025 -44.18359375 452.5390625 C-47.30068554 455.88616869 -50.26081113 459.30514141 -53.125 462.875 C-56.93936968 467.62914192 -61.00149611 472.07568145 -65.16601562 476.51928711 C-69.21882698 480.86929596 -72.98937871 485.37748455 -76.6875 490.03515625 C-81.84490803 496.26355829 -81.84490803 496.26355829 -85.25 496.75 C-87.625 496.375 -87.625 496.375 -89.625 494.375 C-90.0859375 492.1640625 -90.0859375 492.1640625 -89.625 489.375 C-87.90561979 486.98204815 -86.22538978 484.90917473 -84.25 482.75 C-83.70561279 482.13535889 -83.16122559 481.52071777 -82.6003418 480.88745117 C-80.95541217 479.0372351 -79.29386914 477.2036276 -77.625 475.375 C-77.1614209 474.86565918 -76.6978418 474.35631836 -76.22021484 473.83154297 C-74.14619356 471.55532988 -72.06700363 469.28396574 -69.984375 467.015625 C-67.63278406 464.38371196 -65.40168738 461.68560491 -63.1875 458.9375 C-59.52864231 454.4010327 -55.67631037 450.116339 -51.70898438 445.85351562 C-48.7379881 442.64218772 -45.92546168 439.34881211 -43.1875 435.9375 C-39.82153536 431.75262447 -36.29322171 427.79187569 -32.625 423.875 C-28.15855985 419.10541733 -23.96324691 414.19595349 -19.87109375 409.09765625 C-15.96598981 404.36399112 -11.79490172 399.87570812 -7.625 395.375 C-9.12506391 391.92720914 -11.12909262 389.55139467 -13.6875 386.8125 C-16.89791085 383.31581047 -19.96956239 379.76700607 -22.9375 376.0625 C-26.82820708 371.24834412 -30.95500466 366.72575666 -35.18286133 362.21166992 C-39.08468389 358.02206391 -42.69810178 353.65345286 -46.28125 349.1875 C-49.43744975 345.4000603 -52.79172547 341.81743927 -56.17480469 338.23291016 C-59.47228077 334.71314415 -62.44427861 331.08014968 -65.375 327.25 C-69.13178021 322.58943424 -71.90887935 320.78254099 -77.625 319.375 C-92.29110548 314.6464453 -105.20521297 304.89411388 -112.58227539 291.24438477 C-119.79055208 277.05219117 -122.31239779 261.19832988 -118.5625 245.5 C-117.97522819 243.77066044 -117.32440981 242.06210681 -116.625 240.375 C-116.17253906 239.27027344 -115.72007812 238.16554687 -115.25390625 237.02734375 C-108.4493503 222.03121205 -97.78340766 211.28705398 -82.30859375 205.03515625 C-67.08780201 199.78725137 -49.94151576 199.00251272 -35.14453125 206.02734375 C-30.39436725 208.52104805 -25.84501651 211.04767929 -21.625 214.375 C-17.63809998 212.82047476 -15.55628638 210.26836542 -12.875 207 C-12.07578125 206.04351562 -11.2765625 205.08703125 -10.453125 204.1015625 C-8.25373661 201.36839642 -8.25373661 201.36839642 -8.625 197.375 C-10.37726567 195.21357585 -12.11562555 193.28271827 -14.0625 191.3125 C-15.17829851 190.14693583 -16.29155602 188.9789342 -17.40234375 187.80859375 C-17.95390137 187.22835449 -18.50545898 186.64811523 -19.07373047 186.05029297 C-21.2060519 183.74749321 -23.16888072 181.32825457 -25.125 178.875 C-28.46801761 174.70834037 -31.97613344 170.77078234 -35.625 166.875 C-40.06332674 162.13633536 -44.2164225 157.25380674 -48.28125 152.1875 C-50.95708171 148.97650195 -53.76858276 145.92470863 -56.625 142.875 C-60.27386656 138.97921766 -63.78198239 135.04165963 -67.125 130.875 C-70.53183614 126.63041726 -74.10686872 122.60644945 -77.8125 118.625 C-78.32586914 118.07062256 -78.83923828 117.51624512 -79.36816406 116.94506836 C-81.46826596 114.68019238 -83.57480962 112.42687274 -85.72265625 110.20703125 C-88.06915129 107.69411812 -89.52859121 105.98363286 -90.07421875 102.5390625 C-89.48982795 98.42291864 -87.54324218 96.48313118 -84.6875 93.6875 C-83.66415853 92.63263574 -82.64336264 91.5752966 -81.625 90.515625 C-81.11453125 89.98904297 -80.6040625 89.46246094 -80.078125 88.91992188 C-77.98426914 86.69379286 -76.08912524 84.32851409 -74.1875 81.9375 C-70.34389943 77.15878372 -66.25539836 72.68342313 -62.06665039 68.21118164 C-58.94946055 64.86400673 -55.98926202 61.44494977 -53.125 57.875 C-49.30505989 53.11391522 -45.23561181 48.66226975 -41.06640625 44.2109375 C-37.94931446 40.86383131 -34.98918887 37.44485859 -32.125 33.875 C-28.31063032 29.12085808 -24.24850389 24.67431855 -20.08398438 20.23071289 C-16.03117302 15.88070404 -12.26062129 11.37251545 -8.5625 6.71484375 C-3.40509197 0.48644171 -3.40509197 0.48644171 0 0 Z M-96.625 225.375 C-107.72888918 238.39199264 -111.75843008 251.37354886 -110.625 268.375 C-108.14005537 283.59528585 -99.47113999 295.70208604 -87.22265625 304.83984375 C-73.97262965 312.6703106 -59.52803119 314.16485768 -44.82421875 310.40625 C-32.06013119 306.29181885 -21.92406779 297.75102893 -15.09375 286.28125 C-8.79059842 273.80905644 -6.88829677 260.86216323 -10.625 247.375 C-14.95472762 234.43655612 -22.68164103 223.37928647 -34.7734375 216.61328125 C-55.95295804 206.41847707 -79.23183321 208.70263111 -96.625 225.375 Z " fill="#6A7DFC" transform="translate(298.625,7.625)"/>
<path d="M0 0 C2.6875 0.4375 2.6875 0.4375 4.62109375 2.890625 C7.13099901 6.89758355 8.77140504 11.21664145 10.4375 15.625 C10.91123047 16.83446289 10.91123047 16.83446289 11.39453125 18.06835938 C13.6875 24.03901177 13.6875 24.03901177 13.6875 27.4375 C14.3475 27.4375 15.0075 27.4375 15.6875 27.4375 C15.81584229 26.71135498 15.94418457 25.98520996 16.07641602 25.23706055 C17.06458206 20.70997302 18.89576671 16.53788645 20.625 12.25 C20.98529297 11.33541016 21.34558594 10.42082031 21.71679688 9.47851562 C22.06677734 8.60517578 22.41675781 7.73183594 22.77734375 6.83203125 C23.09566162 6.03643799 23.41397949 5.24084473 23.74194336 4.42114258 C24.6875 2.4375 24.6875 2.4375 26.6875 0.4375 C29.1875 0.125 29.1875 0.125 31.6875 0.4375 C33.6875 3.4375 33.6875 3.4375 33.49682617 6.09838867 C32.51628636 10.14389185 31.19748865 13.96851239 29.73828125 17.86328125 C29.44318161 18.65147751 29.14808197 19.43967377 28.84403992 20.25175476 C28.21957667 21.90784169 27.59156514 23.56259454 26.96020508 25.21606445 C26.3182131 26.91025075 25.68706552 28.60858481 25.06665039 30.31079102 C24.16822056 32.77536088 23.23855301 35.22595389 22.30078125 37.67578125 C22.02865311 38.43925369 21.75652496 39.20272614 21.47615051 39.98933411 C20.63793945 42.11450195 20.63793945 42.11450195 18.6875 45.4375 C15.64916992 46.61010742 15.64916992 46.61010742 12.6875 46.4375 C10.29650829 44.50026439 9.1428395 42.6246464 8.04589844 39.77978516 C7.76260681 39.05538239 7.47931519 38.33097961 7.18743896 37.58462524 C6.89355286 36.80646454 6.59966675 36.02830383 6.296875 35.2265625 C5.98800354 34.42141205 5.67913208 33.6162616 5.36090088 32.78671265 C4.71136343 31.08530678 4.06609452 29.38226603 3.42480469 27.67773438 C2.44159586 25.07334938 1.43652131 22.4781407 0.4296875 19.8828125 C-0.19926728 18.22707492 -0.82691554 16.57084032 -1.453125 14.9140625 C-1.75510803 14.13995026 -2.05709106 13.36583801 -2.3682251 12.56826782 C-3.86720183 8.52178911 -4.86059887 5.68304387 -3.3125 1.4375 C-2.3125 0.4375 -2.3125 0.4375 0 0 Z " fill="#7075FC" transform="translate(207.3125,245.5625)"/>
<path d="M0 0 C1.31484375 0.00386719 2.6296875 0.00773438 3.984375 0.01171875 C7.25 0.3125 7.25 0.3125 9.25 2.3125 C9.5 4.8125 9.5 4.8125 9.25 7.3125 C5.97201932 10.59048068 1.68753585 9.77101611 -2.78125 9.96875 C-5.86606771 10.01451329 -5.86606771 10.01451329 -7.75 12.3125 C-7.42958603 14.91530568 -7.42958603 14.91530568 -6.75 17.3125 C-5.75419922 17.55033203 -5.75419922 17.55033203 -4.73828125 17.79296875 C0.89258503 19.28083269 4.49957284 20.59422067 8.25 25.3125 C10.10746073 29.02742147 9.6921807 33.25813892 9.25 37.3125 C6.85979928 42.36869383 4.35476387 44.23233861 -0.75 46.3125 C-4.546875 46.67578125 -4.546875 46.67578125 -8.5 46.625 C-9.81484375 46.62113281 -11.1296875 46.61726563 -12.484375 46.61328125 C-15.75 46.3125 -15.75 46.3125 -17.75 44.3125 C-17.9375 41.25 -17.9375 41.25 -17.75 38.3125 C-15.45236523 36.01486523 -9.96068285 36.85341141 -6.8515625 36.69140625 C-3.58681654 36.52850036 -3.58681654 36.52850036 -0.75 34.3125 C-1.245 31.8375 -1.245 31.8375 -1.75 29.3125 C-2.41386719 29.15394531 -3.07773437 28.99539063 -3.76171875 28.83203125 C-9.36977611 27.3501942 -13.06632722 26.06562617 -16.75 21.3125 C-18.55038454 15.91134639 -18.60842938 11.0953918 -16.125 5.9375 C-11.42905254 0.74724228 -6.83086502 -0.08774827 0 0 Z " fill="#6A7CFC" transform="translate(264.75,245.6875)"/>
<path d="M0 0 C0.680625 0.37125 1.36125 0.7425 2.0625 1.125 C3.0215625 1.558125 3.0215625 1.558125 4 2 C5.98330173 1.13350534 5.98330173 1.13350534 8 0 C10.625 -0.3125 10.625 -0.3125 13 0 C15 3 15 3 14.875 5.5 C13.75225381 8.70784627 13.04961046 9.47519477 10 11 C4.94095753 12.38426556 1.17418404 12.43504867 -3.5625 10.0625 C-4.72088766 9.39637065 -5.87189027 8.71621136 -7 8 C-7 5.69 -7 3.38 -7 1 C-4.46130539 -0.26934731 -2.82098771 -0.20149912 0 0 Z " fill="#865EFB" transform="translate(106,275)"/>
<path d="M0 0 C2.625 0.6875 2.625 0.6875 5.25 1.375 C7.88859783 1.98735478 7.88859783 1.98735478 10.625 -0.3125 C15.16554054 0.22804054 15.16554054 0.22804054 16.625 1.6875 C16.66580783 3.68708364 16.66754356 5.68795254 16.625 7.6875 C11.26561209 11.26042527 8.07857898 12.41612988 1.625 11.6875 C-1.29427604 10.2913245 -3.09702996 8.96547004 -5.375 6.6875 C-5.6875 4.1875 -5.6875 4.1875 -5.375 1.6875 C-2.375 -0.3125 -2.375 -0.3125 0 0 Z " fill="#34BBFE" transform="translate(407.375,88.3125)"/>
</svg>
